<mxfile host="Electron" agent="Mozilla/5.0 (Windows NT 10.0; Win64; x64) AppleWebKit/537.36 (KHTML, like Gecko) draw.io/26.1.1 Chrome/132.0.6834.210 Electron/34.3.3 Safari/537.36" scale="1" border="5" version="26.1.1" pages="2">
  <diagram name="Page-1" id="-EBJyrgEMEZVLQL8wt9E">
    <mxGraphModel dx="2537" dy="984" grid="1" gridSize="10" guides="1" tooltips="1" connect="1" arrows="1" fold="1" page="1" pageScale="1" pageWidth="850" pageHeight="1100" math="0" shadow="0">
      <root>
        <mxCell id="0" />
        <mxCell id="1" parent="0" />
        <mxCell id="2c4QWxnSkKOKG8GR8WA--6" value="Solutions Architect&#xa;(Project Scope)" style="shape=image;verticalLabelPosition=bottom;labelBackgroundColor=default;verticalAlign=top;aspect=fixed;imageAspect=0;image=data:image/png,iVBORw0KGgoAAAANSUhEUgAAAgAAAAIACAYAAAD0eNT6AAAAAXNSR0IArs4c6QAAIABJREFUeAHsvQd8HNW5/v9avVm9uciWLVmSbbn3IhdZ7pJ7kZtsWS5yA+OCDZgSSug4BAimhhrTMRhC75CEUELaDQnpIQRISPL735t7c2/uzfnzaj3OeFmtduecmT1n9tHns9o2M3vOc9553+/pRPiDAmYrMJCI9hDRI0T0PhH9mYiEgsf/nbjW94noPiLaTkR9NJaqkohOJ6IHiejHJ9L+TwU68DVY0x+duPZpRFShsQ59iWjHiTL7wYm0c1mqsAnW4SdE9PAJm6vRWIdeRLSFiO4lou8R0WdE9L+KdPgLEf2MiB4jojM/12OIxjoUE9FGIrqLiN4hoj8R0T8U6fBXIvo5ET3x+TXPIaJRGuuApEEB3yiQ+Hmwbyai7yq6kSMNDhxIniei2Zoo2Y2IFhHRa0SkIthHqgP/1qtEtICIOA06/M0loheISFWwj1SLN4loBREl6CACEU0nom8qDPaR6sCQ0UJESZroMIGIHlUY7CPV4d9OgFeqJjogGVDAVwqMO1GjifSGdOs4DjZVMVR22Ocg8m2PASiUlm/EuAbItfAXNdCBa5djYmgP/T7//Sc10IFbn6bEUIeeJ1qqQtmql59xy4AuFYUYFgd+GgqoUYBrmgdjQPThnMZ/ENE6NdmL6io7P9fi7xo4e0sbTsu2qHKg5uANRPQ3jXTgpmVuEve6VWQZEf0/jXTgVpgLY9AqMufz7p8/aqQDt5Qd1qhVRM1dh6tAAY8V4Cb/WzW6sa3AZz2f65EeHFiu0ViHqzwMfudrrMPNRMQ268Xfbo+7fyybj+T5KBGleCHCiX5+VWMcIslbNMfwGIEMj3TAz0ABXynAQY8dajQ3XCyOPeCB6lcYoMOlHujAA65iUcbR/OYRD3RoN0AHhgC3x0esisHYj2hsgY9lCNBlfIQHpomfgAJqFOCR7dHebLE4npv7eECeW3/s5GKRLye/yYPB3Ppr1LjGG6wVd9W49Tc1BgP9gvMX6ftDbonweWAdrVl3WDhNuIUMf1AACkSowGAi+m+DAh9PMeJpR6r/yomIxxuEcy46fffvRMTT8VT/lZyYzqZTXsOlhcdGDFItwuf9yjlE9HuD7IGb5se6oEM6EX1gkA5cSWhwQQdcEgr4UoGXDbq5rUBwmwslccxAHXiuvOq/OwzUgWeLqP77ioE6vO3C+BCdx4FY/iD4+adElKzaIHA9KOA3BeoNdHJ8s3NtZ4DCwhhuUJN3sLNTuTAKLz6kagGX4HS6/Z6b61X9lX4+0+A/Db03FqoS4UQrCC9I5HbZuXF9nr2CPygABcIoYGKt13IWPPVH1Z+JtV5Lh6+rEoGITKz1WjrwKpWq/i4wNOixFrxeg6o/U8YGWTZgf+ZFk/AHBaBAJwrkE9H/GOzo/qBo5DP3cXJ/ut15mPT6/yOitE7KOJqPeUrdJwbrwONY8qLJcJhjeYEZk2zAnlZeH6B3mLxF89VbBuvAmvD4JvxBASgQQgFe2MTuOEx8PSJEvqL9iAcMmZh3e5p5aVrZPx7pbb+mia8Xy4pARLzfg4l5t6e5VYEOBQZM+7PnOdRr3r8Ef1AACoRQgKfLhLppTPqMNw+S/ePpUyblOVRaz5YV4fMNXHg6Xahrm/QZr+Eg+7fWBzrcIisCEc33gQ68aRf+oAAUCKHAcR/c4NeGyFe0H93tAx3ujDbTIY6/zgc68M55sn8X+UAH3kRK9m+vD3TgnSrxBwWgQAgFeIc1k2p3odLKK6DJ/j3jAx2ekhWBiO73gQ68cZPs300+0IG37Jb9u8wHOnwsKwLOhwJ+VYD3ng8VVCP6rKqihziwa4HUo6QoJ6LfCpNObsWQ/Xs9zPW7TF/f3oVSGrCGfA2ZNJzYqlhWB15G1XE6uCxl7YFtSiYNRPRDWRE+HwNwj0wacnMypHUYOqiPrA4fKtBBqkUoLTVZWocxIypkdeCFvfAHBaBACAV4S1HHN9iS+WOF+PSo1GPk0H6Of/9E2nlrVtk/3mrXcTrq6wZLacAa8jVk0kBEnAfZP6ltbrksZe2BbUpSB7Zp2b97ZdLQv2+xtA5ta6bL6vCRrAhEdL2MDnm5mdI67N0+X1YHXssBf1AACoRQAAAQEAUAENABABDQAQAQ0AEAENAB/6GALxUAAASKFQAQ0AEAENABABDQAQAQ0AH/oYAvFQAABIoVABDQAQAQ0AEAENABABDQAf+hgC8VAAAEihUAENABABDQAQAQ0AEAENAB/6GALxUAAASKFQAQ0AEAENABABDQAQAQ0AH/oYAvFQAABIoVABDQAQAQ0AEAENABABDQAf+hgC8VAAAEihUAENABABDQAQAQ0AEAENAB/6GALxUAAASKFQAQ0AEAENABABDQAQAQ0AH/oYAvFQAABIoVABDQAQAQ0AEAENABABDQAf+hgC8VAAAEihUAENABABDQAQAQ0AEAENAB/6GALxUAAASKFQAQ0AEAENABABDQAQAQ0AH/oYAvFQAABIoVABDQAQAQ0AEAENABABDQAf+hgC8VAAAEihUAENABABDQAQAQ0AEAENAB/6GALxUAAASKFQAQ0AEAENABABDQAQAQ0AH/oYAvFQAABIoVABDQAQAQ0AEAENABABDQAf+hgLYK9CKidUR0DRF9k4jeJ6LfE9FfZfbyjuRc3rtddv/3UcP6ye73HfPz6+sGS+swo6425vmIpMzDHTNyaD9pHZY2jjVeh/59i6V12LR2uvE65OVmSuuwb3ujFzr8OxH9gYh+RkTPEhGDTxsRVWjr9ZGwuFagDxGdQ0RSNfhwzjyS7wAA1OGcAAABHQAAAR0AAAEdDAKAcJDxKyK6hIiq4zriIPNaKFBLRHd9Hvz/EUmAdvsYFQDAQcPtdLp9fRUAwNdwO51uX18FALBNuZ1Ot6+vAgDa1qAFgFsX926fr5M9vE5E9VpEAiQirhTIJ6Jriej/3HZe0VwfAKCuBQAAcLSjuRgAENABABDQQTMAsGDkOBGVx1UEQmZjpsASIvosmsDs1bEqAABjAAKODmMAAjpgDEBAB4wBCOjg0RgAK7BH8/wfn48b2BqzqIAf9r0CSUT0Va+CuZPfAQCoawEAAAAA7ANqAQDaA4AFC0eJKNP30QgZ9FSBVCJ62ElQ9vIcFQCAMQABR4cugIAO6AII6IAugIAOmnYBWMHfev4uERV5GiHwY75VIJ2IXvYykDv9LRUAgC6AgKNDC0BAB3QBBHRAC0BAB427AKzgbz3/iIgKfBuVkDFPFEg0oeZvAYMKAEALQMDRoQUgoANaAAI6oAUgoIMhLQAWBLxJRFmeRAr8iC8VuMoKriY8qwAAtAAEHB1aAAI6oAUgoANaAAI6GNQCYEHAfb6MTMiU6wo0EtE/TQj8VhoBABgEaNkCP6tYBwAAAACwD4Y0EAAYBNpdjxb4AV8pkH1i+V6LIo14BgAAAAAAARuw66BiISC0ABjbAsC++29E1M9XEQqZcVWB6+wOxJTXAAAAgN1W0QIQsAcAQEAHnywF7LQy9qirEQMX940C/XVZ2tfuzCN5DQAAANjtBAAAALDbQ5wDAINDnW+iFDLimgI3228ak14DAAAAdnsFAAAA7PYAAKCnXIsauLAvFOA1/v9uv2lMeg0AAADY7RUAAACw2wMAoMMeBvkiUiETriiw3X7DqHjdPTddjGuoFo3rxohlWyeFfWTnZTjt3+o4TwcAKC3LC5vHrjTg7wtKukvpwHP47SOXnbyWnQbIeYgkr+GOYS1lbFAHAGCbDpfHSL7rU1kkpYMOYwDSMlKkdagY3ENKBx0AIDExoUsdmlrGiklzBop8ST/Qyb1zmSuRAxf1hQKvdWI0Ud945dXF4tybmsXjPztPPPGL8yN6yDo6HQBg9LQBEeU1nCYDR5ZFrbe93HQAAM5DuDxG8h1rac9XtK91AAC26UjyGu6YaQuGSOmgAwDkF2dJ68CViGhtwH68DgCQkpYUsQ7Hf36euPQb64WsP7BrQES/9kWkQiaUK9Bd1eC/Oc2jxLGfnhuxoVvODwAQACXZGx4AEGj6BgDo0wUAAAiURTQAYPlFBoHVp00V3boFrhEU0J1AUZXy6IELGq/AXAWGJRqWDY868FuGDgAAAFi2wM9oAQjYA1oAAjrEWwuA/V7g1wwBKnw0tg02Pla7koGDssbVo2++ePQnhwAAEXZ5BN/g1nu0AAQcPgAAAGDdE/wc7wDALQGDRsl1D57w8Te6EkFwUaMV+LosAOy5arHj4M83uA4tAKOH95eibL+MAWiYItfv7JcxAMuaxknZg1/GAGxeVy+lg1+6APbvaJLSwUkXgB2CLju6Qer3T/j4F42OVEi8Kwq8JAMAKalJ4qEfng0A8MkgQABAYOlXAEBABwBAQIdYAwC3AhT2yJaFgF+6EkFwUaMVeEcGAGpG9JYK/mgBCDT3sg46dAEAAAAA9umjAAA9AID9w5TGWlkA+MzoSIXEu6LAT2UAYOLsgQAAoo6Ba/YmOyevAQD6jAFACwBaAOwgFOsWAPYni9omyALA/7gSQXBRoxX4hQwA8EhlJ8HOfo4OYwBGDesndXP5ZQyA7EJAfhkDILsdsF/GAMjuBuiXMQCy2wHLjgFgf7lyR52UjzqxzbvRwQqJV68AAODTowIAEKjxAQACOgAAAjoAAAI6AADUBx5cUQ8FAAAAgJNLCAMAAAD2pm8AAABAjzCFVLilAAAAAAAA+DTg6K3ghxaAgB4AAACAW4EH19VDAQAAAAAAAAA4aQMWBPEzAAAAoEeYQircUgAAAAA46fzRBRBw+GgBQAuAHYQwBsCt8IPrxloBAAAAAACAFoCTNmAPfGgBQAtArAMUft9dBQAAAICTzh8tAGgBAAAEbMCuA1oA3A1CuHrsFIg5APQbWCI1vzU5OVHwnt8yj8TEBKk0jJ9ZI70eQu24vlJpSEqS14G1lFkXYsi4cmkdxjdUS6WBy1LGFvjclJQkqTT0H1QqrcOMJcOk0pCQ0E1ah9SUZKk0FPfKkdZhYet4qTR06yavQ1qqnA6Z3VOldcA6ALELkn7+5ZgDwOAxfaRucJmAperc+sXDpG/wsTOqjNdhXEO1tA71i4car0Pt2L7SOjS2jDVeh/LqYmkdmndOMV4HXsffvviZk9cAAD+H4djlLeYAMH2R+Q6f9+x2clPbz/GDw1+wYZy0Ds07zHf4XHu3l62T121nzTI+8KkAwtMvW2C8DiqAEAAQuyDp51+OOQBsOLPB+Bv84HXLpR3+josbjddh1yVN0joc+Ooy43VoPThTWocLv77WeB2Wb5ssrcM1j2wyXod5a0ZL6wAA8HMYjl3eYg4AVz9s9g3erRuJe767T/oGP/LcTuMd3S0v7pLW4e7v7BWsqarumVhc5/CxzdI6PPTDs0RSktzYlFjk3f6bF925TlqHx352rsjISjXaHlRUEAAAsQuSfv7lmAPA8Q+U7HUdMwcxaHQfaSdnNRH3rSqOWT7sjtvJaxUb4Fg68DbTTtKgwzlFPXME27SVF5nn0VMrjdWhe266ePQnh5TowJuO6VC2TtKQkpok7n/voLQOAAA/h+HY5S3mAMAOUoFxx8xBnHbpAumb2woSGw/OjFk+nDg3+zmbzp6lTIddX24yVgcetGaVp+zzWdcvN1aHppaxynS45O4WY3XgMU6ydsDnK/CR/4xdmMEv66qAFgDATeip6XJTbezByKvXhaXZymo5fJM/8P2DIisnzThnx7W9B39wlhJHxzpwzTG/pLtxOqRlJIt739qvTIfHf3ae6NWvwDgduOvi9ld3K9OBbWLAkJ7G6cBdWdd/c5sSHQAAuoZQs9OlBQDwDb769GnG3eD7rlmi5Obm/FuPLefOMU6H9gvmnUy/lQ/Z5zOuXGScDuv21CvX4dBNzcbpsGTzROU6XHF/q3FjQ2atGKFMBwCA2YFW19RrAwBc6yuvkVsUyKuaP/8O988e/7mavl57sORa38CRZcY4/UGjygSn2Z4HFa9Z25FTKozRgRe0UtXnHaxf3fzBxujQszxf8ADG4DyoeD931ShjdCgo6S6OvnOmMh0AALqGULPTpQ0AsIPgkfCZ2fo3gZf0zhXfeFtdU2+wc/z6a7tFbkGm9s4uryhL3PHGGcqcXLAO3DXEg+q8BDsnv8XdNjc9v9M1HXgQWe/++ncFcBfIV49vdU2HR358jqgY3EN7e0hOSRTcYhFszzLvAQBmB1pdU68VAPANctnRDVqPB8jJzxBHnt2h9OYO5RiufXyL4CVEnQQkL87htF3rorO3NLnxmR2CNfciT05+g8euqHb2Vt7tz7e9crrgMSdO0ujFORz0Lrh9jev3xT1v7hPcyuBFnpz8RkJiN8FrWdjLTsVrAICuIdTsdGkHAHyzXPVQm+CBZU5uQDfPKS3LEze/ID/XPVKHwLWp/OIs7XTg5s3rn2xX7uQ604VbhkrKcrXTgcGEbbWzdKv+nAfWlVUWaqcDw+Al97R4pgOvFaFjSwDD4Lk3NbuiAwDA7ECra+q1BAB2nNwMznPs3Qzo0Vx74uyB4r53D7hyc4cLFFzjGVGnT1/4qCmVShY+CpfnUN9xfypvuhRNmbl5LC/v6mb3RygN+DOebaHT8tkDhvYUt7x0muf3BXcH8JgAXRaN4jU8vvb0dtd0AADoGkLNTpe2AMDOjhdU4TnhsWz65BqXW1TfmZMP9fm+w0sEt0C4GdTCXbtHnzxx5rVLXXNwofIc6rNzblwpelfErhbMG7vsvnyhKwNAQ+W3s894qeBYDprl8R/bvjTPlQGgneU51OfcZVg1rFfM7gtuqeT1O4799FxX7w0AgNmBVtfUaw0A1g1/7P1DYs9Vi8WIyf1FkuSWteGCnPUdD2aaMKtG8BQsVau6WXmReeZlUbl/ccz0AYJXGLPS69Yz/8bY+irBS5nyb8ukXeW5XCaHjqzsaBHwYv0Itjluhdl79WLBtqgyLzLX4pkS3O/OswTSMlJctwfeanno+HLBG/RwDVwm7arP5S4IbhnxYtwM9/Pz7JcdF813bcZDsD4AAF1DqJ7pSiei3kQ0nIhmEFEDES0houVEtJKItpx4/FEmePASncGG6vb7h354tvjyvevF9gvnd6yOtWD9ODGneZTUg/cc5xXcuLXhygc3auXkO9OTHTDXfngTId5Bj3fik9WBr8HX4mvytR/5N72cfCgtOCBf8cBGwRsRcRlyWUrrsH5ch22xjbGtPfyjsz2381B5DfcZAxqPR+CVKVftmioWbZTXgVfzW7G9TvA6Dxfftc6zYBcun119x1NSv/LYFrH7ioWCd+lc1DZB2h54p07e2Gjr+XMFt7yoWNq3q3wEfw8A0DPQxiJVJUQ0joiaieggER35/P1TRPQ9IvotEf1NJqhHc+6wif06BsXpVDsMvnHw/l+LDEELaAEbMNMGAACxCLWx/c3iEzX3PUR0BxG9Q0T/GU2A9upYXvqTlywdO6NKLN40Qey8pLGjNmJCzQkO0UyHiHJDucWTDQAAYhuM3f71rBPB/nwiepqIPvYqeLv5O9xnyKNjZywZ1tF8xs3rgAI47nhy3Mgr7F2FDQAA3A7B3l6fa/fchP/VEzX7/3UzEOt0bR5QxdP7uK+Z9wvnPn0VNwiuAUcLG4AN+NUGAADeBmjVv5ZIRBOI6EIieouI/k+noBzLtHD3Aa99zwO4rnlkk1aj7v3qTJAvBErYgFk2AABQHZLdvx43668movuI6LNYBlmTfpvnF89eObJjCh66C8xyUggqKC/YgDs2AABwP2Cr+IUMIlpBRA/pOmDPJBjgeejjGqo7FqABDLjjWOCwoStsQH8bAACoCM/uXCOJiBacqOn/h0kB1qS08kInvNDHBbet1mpRGjhP/Z0nyghlZLoNAADcCd4yVy0noouI6PcmBVI/pDU7L6Nj4RveKc70GxvpR3CCDcAGurIBAIBMqFZ3Lg/m41X1HiCiuBm5rzM0VNb26Fh3QLelSbu6ofE9nD5sADYQqQ0AANQFcSdXyiWiA0T0oc7BMJ7TlluYKZa3T47JDm2R3sQ4Dg4fNgAbcGIDAAAnYVv+HG7mv4yI/hLPwdWkvPO0wvrFQ13dmtPJDYxz4PhhA7ABpzYAAJAP5tFcgTfR4el7/zAp+CGtdHJHtG4J3TpmEPDqg05vOpwHhw0bgA3oYAMAgGjCt/NjBxPRg0T0TwTTfwVT07WoHdtXXH5fK0DgF3DmOjhzpAF2GK0NAACcB/VIzuSm/pswsM8/QT8UtAyf1F8cPrYZIAAQgA3ABoyyAQBAJGE8+mN6EdHtaOr3d+C3w0C3biQmzR0kjjyLKYTR1kJwPGqusIHY2AAAIPrgHu6M9M9r+4eIyBcL96SlZ4iikh6ivKJKDKwdLkaMmSjG180Q02Y2ijlNy8WCZevE4pUbOh4rW7aK5pZ20bx+m1jduiPwuqVdLGlu7fh+0Yr1Yu7ClaJ+9gIxccpMMXLsZDF46ChRUTVIlPYsE5lZ2aJbt24n+9rtwdWk1wmJ3URWThoe0AA2ABvQ3gZ4VVRJ/8rd2vg7sVTvryXFlC2MqM9PSk7uCPI1g4eJCVMaxKzGZWLZ6jbR2r5XbN510NNH2/b9gkFi3qJmUVc/R9QOGy169u4r0tLSo86XaeWA9MZPaxHKGmXtIxuIewDgkf2vmFCgSUlJokfPMjF89ATRMHeRWLFuq9i084CnQd4pVKzZuLOjBWHMxGmiT79KkZYOKDDB5pBGBDvYgK9tIG4BgJv7eS6/tlP6UlPTRHlFdUez/cLlLaJtx5lGBPtIIWH5ms1iyoy5omrgEJHVPQetBORrR4PyRfnCBvSzgbgEgMlE9BMdyTYvv1AMGzW+oxndbwG/KzDgMQh10+eIPuWVIjExEc5CP2eBMkGZwAb8ZQNxBQC8dO/NOs3nT0hIEL379OuoCa9t2+WrGn5XAT/c9zyGYdb8paKyerBITkmB0/GX00F5ojxhA3rYQNwAwExd1uzn0fI8OG7y9Dli3abTEfS7GKzYum2fmDlvseg/YKDgQY86ttwgTei+gA3ABgy0Ad8DQCoRXa1DrT87J1fwIDgeEBeu9ovvOp+90Lptr5jaMF+U9OgNENCjBoFyQDnABsy1AV8DwEAiejeWVJaQmCj6V9Z09OkjsHce2J1os2Ltlo7xErzeQSzLGL+Nmh9sADZgqA34FgB2ENF/xqpQ0jMyxajxdWLdptNQ2++iid9J8Lefs3H7vo5WgfyCIoCAuTURlB3KDjbgvQ34DgCyTuzYFxNjys7J61iQh/ut7UEKr9XW/jvTs2np2o5ZBLECP/wuaoKwAdiAQTbgKwAYQEQ/jIX4xaU9xeymZQj6Ltf2Owv8wZ/zEsYVVQN9sTxxLOwZv4kgBhuICxvwDQDMJ6K/eG203Ow8Y+4iBH5NAn8wCCxbs6ljDIbXdoHfiwvnGZNWRtgWbEuhDRgPAAlEdKHXo/w58M+ctwSBX9PAHwwCi5s3iD7lFXDY3vcxQnNoDhvQ1waMBoA0InpAIQ11aagZmVliasM8Y9bgDw6E8f6+aekaUVhU2mU5e2lT+C3U6GADsIEY2YCxAFBARK96JRqv2Me7263fegZq/YbU+sPBDm+JnJGRCRDQt2aCskHZwAbctwEjAaCKiD7wKviXV1QJXqc+XEDBd96M8lepM8Pc0JHjBK/V4JUtTRxTJba0zMADGsAGYAPSNjBiSLms7zIOAHgjnz954bAzs7qLWY0Y2a8y6Op4rWWr2wTP4vDCprK7p4sXHzkkxKdH8YAGsAHYgJQNnHPGYlm/ZRQAzPVqcZ8BNbWiZfNu1Pp90NwfKXTwToRebDyUkpIkHrj1dKkbHwABgIINwAbiCQCWEtF/u11Ly8nLFzxQLNKggePMa/oPV2arNmwTZX37y1J1l+cnJiaIm6/eDAhADRA2ABtwbAPxAgDriOgfbgf/QUNGCN5sJlyAwHf+CvidleekabNFUpK7Ow/yrpCXHmp2fPOjBogaIGwgvm0gHgBgCxH9n5vBnzeTmdW4FIE/jpr7Owv89s+Xr93syZTBL525DBCAWiBsADYQtQ34HQB2ur3ADzf3rmnbheCP4B/SBtq27++YKcC1dTch9KKDK6K++VH7i+/aH8of5e9nANjoZvBnhz5m4rSQTt9eC8Tr+Gjy76qc5yxYIVLT0lyFgAsPLAcEoBYIG4ANRGwDfgWAVUT0v27VuNLS08W8Rc0I/qj1R2UDvBZEQVGJqxCAlgDU6lCzhw1EagN+BICFRPQ/bgV/duDN67GoT1c1XnwfuuVj4/Z9onrQUFch4JoL10VcA4jUUeA4BBXYgP9swG8AMIuI/u5W8Oe5/ezAEdxCBzfoErkuE6fMdG2r4YSEbuLeG3cCAtAUDBuADYS1AT8BwEgi+ne3gv/IsZMR+NHkr9QG5i5cKVJSUl1pDUhOThRPfuNA2JsfNTr/1ehQpijTaGzALwDQh4g+ciP48zrvvPELareR126hVeRaLWluFbxDpBu2m5GeKt548kuAANQCYQOwgZA24AcAyCai77vhQFNT00TjktUI/qj5u2oDazbudG1wYEFelvjgzcMhb/5oago4FjVL2ID/bMB0AEgmomfdCP5cK1u2ZpOrjh815chryn7XincWLO1Z5kpLwKDq3uKvP78NEIBaIGwANnCKDZgOALe6EfyzuueIlS1bEfxR8/fUBngZ6d59+rkCAbOmDRX/+OieU25+1Oj8V6NDmaJMo7EBkwFglxvBv3t2ruD52n6vcSJ/erY+8MqB5RXVrkDAprXTAQCoAcIGYAMnbcBUAJjkxlz/vPxCwf2xCI56Bsd4KZe2HWeKiqqBrkBAeVmR6N+3GA9oABsw3Aa4ay+a2n6oY00EgBIi+lB17T8nNw9r+qPJXxv427TzgKioGuQKBKi+d3A9QjkRNPD6PkhPS4k7AOBBf6+oFjqre7bgfdzjpYaJfJrRwsEtAX36VSK4ILg9s/IZAAAgAElEQVTABmADX7CBeASAa1UH/8ys7ljaFzV/beGPV57sVVb+hZtf9X2A66EGCxswywbiDQDmqt7dLy09Qyxfs1lb54+auhk1dbfLiWcH9HBpiiCcvllOH+WF8rJsIJ4AoJiIPrYyruI5KSlZLFqxHsEftX8jbIDXCcgvKEJLAJqCYQOwgQ4biBcA6EZEx1UEfesa3bp1E7PmLzXC8btdu8T1zWllaF6/TWRkZCIAIADABmADIl4A4DQrcKt6njh1JoI/av5G2sDilRtEUnIyAgACAGwgzm0gHgCgloj+S1Xg5+sMHTHWSMePmro5NXW3y4pbr7gVS+V9gWuhbxk2YJYN+B0AEonoLZVG2ae8UvD8arcdNK6PYO22DYybNB0AEOc1QJW+EdcyK/hzefkdAPapNMrsnDyxfstuBH80/fvGBvoPqAEEAAJgA3FqA34GgHIi+ndVAJCUlCR433W3a2W4Pmr+XtrAhvY9gpevVnWf4Drm1QJRZvFbZn4GAKVb/E6b2Yjgj5q/L21gxbotIiUlFRAQp7VAAAAAINQa/5F+puNeAK0qjbp22GhfOn4va5r4Lb1bNmbOWwwAAADABuLMBvzYAlBARJ+pAoCCwmKxcft+AABq/763gYG1wxEA4iwAqPKTuI6ZrQh+BIAbVBljYmKSWLpqo+8dP2rnetfOvSofXi44N68AEAAIgA3EiQ34DQAGE9E/VAEAFvtBYOwq+PLyus3r230DiYubN4iExERlAaCmZqBoWrDQF4+SkhIpXXJyc32hg2x5zmiYKaUj+/dhw4dDywULRf+KCikt/QYAT6sK/r379PONU+8qiOF756AzffaCjhuQgyaPpu9fWSNGjp0sZsxdJJat2WTkmhFjJ06Tcir2e7CislL85sOPxUeffGb8QzZwDRk61HgNVJTjt7/7jrR9XX34Wmj5yWeifdsOKS39BAAL7I5H5nVqappY07YLAIB+/y5tYMSYiWFvQF5yt6i4VAwaMkJMbZhvBBTwQlclPXqFzVc099ell1/pC2cNAFADcQAANToyjAEAqOMvhYg+iMYphTt2yoy5XTp+1Jqd15r9pF15RVXUgZKn3PUqKxfjJ9eLlS16dh9w60Wioq6AwsJC8dOf/9p4CAAAqAlcAAA1OgIAAsGf/28LF9Cj+a5n774I/qj5R2wDObn5UQNAsD1y18Hw0RPEopUbIv5dLyBq1LjJ0nmz8nra6WcAANAF0GEDAAAAgOUXTjz/81+hPPpXaUT0u6ALOnJcSUnJYmXLVq2csBeOHr/hrDWDp4cmJCQ4srXO7DU3v0BMmNIgeIW+WJdL2/b9ylYJzMjIEN//0ftGQwBaANQELgCAGh3RAhCAhd2dOdNoP+fNUWLtdPH7zoJxLHTjKaLR2likx3M3waAhI8XytZtjapMLl7co2zVwa/t2AIAPBkPKDgQEAAAAgvyg4xaATCL6OOhijpwyz39u23FmTJ1tLIIYftM5cNSfmAGgwv46uwZv2cszC1asi13LVPWgoY7uqeA8paamine+90NjIQAtAGoCFwBAjY5oASA6M9jJOH0/Z8EK44M/NxvzYi4I6s6DejTadTUDwKkthjqPuxp4pb7VrTs8L1+eEZOckqIEAlrbNgEA4rwVAAAAAAjycY5aALj2/6egCzlyUmXlFZ471c4Czeym5WL6rCZRN32O4PnYI8dMEkNHjBU1tcNF/wEDRZ/ySsEDFQuLS0VObp7IyMw6ZSMXbjbu7Nr4XC0YlFdUO7I3GZvlXSnZLrxurVK1NkBaWpr4wY9/aiQEoAVATeACAKjRMd5bAE6TcaTWuVyzWrF2izZBkwO6lTYnz1UDh2qTF78DR06e/AwAJ2XM5+QXFAnun/dKYx4QyMDpNL32807fvQcAEMetAAAAAIDdHxBR1C0AiUT0i6CLOHJOuu30JxtU+lXWeBYUvAo+Ov6OGzMAorVnHh/A9tu6bZ8nZT5z3hJH91hwvrJzcoxcFwAtAGoCFwBAjY7x3AKwLNipOHmfnJwi1m46zRPnGWkQ46Z9J3mxzsESxmqb+TsrNzdnAFhlGelzfmGxZ4MEi0p6SNmnladD511gXCsAAEBN4AIAqNExngHg25YjkXkePmq8VsGfg02PXn2kHCwv4dpZ0MLn6uCgfvZCqXKSsdtQ5/K0wYa5i1wvex4sG+r3o/2sd+8y8dvff2IUBAAA1AQuAIAaHeMVACZF62xCHc8Os2XzbtcdZrRBlwf5hUpvpJ9lZnXXLk/RamDC8Tw4M9Iy8fK42uFjXN+AqKRHbyV5v+W2OwAAcTgWAAAAAAjyiVGNAXgw6GRHzoh3bNMx0KiYc63DKnI6aqsyTbGYARCp3Zf3rxIbt7s3LmD+4lWO7rng9I+fMBEAAABwZEvYDTAAEfG2GVAJEf1PsCOJ9j3v9sf7uKsMCKquNUbBVqy8p7uq9OA6obsNeOGoaO3Oy+N79CwT67e418Il21VlafH8i68YAwHoAlBTc0ULgBod47EL4IDlOGSedez7twJtw7zF0oGFV6izrofn0AFcVpfVrdvF3IUrxbjJ9aJ60DBRXNrzlPUYZOxT1bkFhcVizcadrtiCqrEArRvbAABx1goAAAAABPm4iLoAuqnY8jchMdE1pygbVPh8FaPLdZvaqEIXU66xasO/wKCyerDglgKerhdk8J69582F1m063RUIyCsoks4HTwn85W9+bwQEoAVATeACAKjRMd5aAOpVONGqgUNccYaqAhQv5SubT14kRlV6cB35FgTubuIVHnmVxu7ZudLlG6198NS9DVvV7y44tWG+krxcd8ONAIA4agUAAAAAgnxYRC0AR4NOcuR8lq5u0z44ds+RDxK6rW8AkPgXSCxauUEMHjpKpKWlO7JhJ/cBLx/NixepLAdeHVB25UrOy8SJkwAAAICo7gUMAgxARLwMAswlor87cXz2c0xZJGdATW1UN4M9j9Zrnqeu0tnjWv8K4Kq04ADKtei8/ELp8rbKPdxzv4pq5TahYtAqd5G89e73tYcAdAGoqbmiBUCNjvHUBbAhnGOL9LuZ85cod4CqgoH9OlNmzJUOCOUVVUbk1Z7veH49q3GpJyAwZsJUpXaxbtNpgsfVRHoPdnbcOYfOAwDESSsAAAAAEOQHuuwCeCrohKgdDjdVer2DmtOAtmLdlqjzF6wPO+V1m90Z/OU0XzgvfCvCpp0HOnaBTM/IlC7/YHuw3nNte96iZqUQ0L+yRjq9gwbXAgAAABHbEboA4qcLoEDF3H/eu92kAKSib3XStFlG5dmk8nEzrTx/n7d/toK26ufUtDTRvH6bMttgoFCRxpdefUNrCEAXgJqaK1oA1OgYL10Am2SdC9d6mte3K3N4bjp/69qVVYOknSpvLGRdD8/ha9866jOrcZlIS3dnoCDvGcEtDiryzddRMbth7/4DAIA4aAUAAAAAgmJ62C6A54MOjjowmjL4z+6MebyCbL75fNXNvfY04rX7ULG6dYcoKe2lxBaC7Wl83QwlAMB2MHr8FOk0Dq4dAgAAAERkR+gCiI8ugEIi+kew44r2/fRZTcocnVdBj9dy5w2Los1r8PG8ZKtXacbvuAMEPFtAxR4RwbaRlJwsmlvUtIyt2rBN2lY5fW++/T1tIQBdAGpqrmgBUKNjPHQBrA52WtG+T0xM0nbd/64CJq8kF21+Qx3ftHQtIGCXO8G5qzJU+f1YBftEBNsHrw+gKo0qWiq+dNElAACftwIAAAAAQX6o0y6Au4IOjDog8s5oqhyc19eZ3bQs6vyG0osds6r+Xq81wO+dCi4T6mYosQm7nUyb2ajkHpkwpUE6bZMn1wEAAABd2hG6APzfBZBARJ/YHZWT16YuiLNk1UYxsHZElzdCpJrU1c9V4uQRkE8NyLHQQ8XiO3a7yczKVrJ9MI9XkN33IDk5RXzwy99qCQHoAlBTc0ULgBod/d4FMNrupJy8TkpKFhva1a+B7pbT5+lfk6bNFkXFpcoCv6UbLzuLdQFiH7xV2c7w0ROU2sj4yfVKALG0Z5l0uu68+14AgI9bAQAAAAArLp14DtkFcG7QQVE7FlNWw1u8coPgTYqSkpKizmM0GvGYAlUBCNeJPUyUV1QrsxeebsibFsmWq4puAF23CEYLgJrABQBQo6PfWwDeiCa4hTpW52Zv7pOfMWeh4PnYodLu1mdTG+ZJO3nZIIHz1cADt27lFxYrs5+RYydL28aKdVul01NW1kfcdMvt2j1qhwyVylufPn21y1MsdL7ky5dL6ci+sWV9K7S85XYxc+ZsKS3T01KE+PSo1OOcMxZLpYGIvtACkE5E/y0bBFe3bpd2aG4EK56bX1BUIiuao/N5VgSPL3AjX7immsAejY4rW7YK7jeXvVf4/JTUNNHavlfaNrJz8pSkR0WecA1CWRA06Ow+0BUApnaW4Eg/zy8oknZk0TjiSI5dsHydKC7tGfMbknef4/EGkaQZx3gf1KPVfPJ0uVqA/Z5S0Wo2eNiomNu4PU94jQAIGwhtA7oCwNmyBTZs5HhtAhz3rQ4aMlJ6hLSsJvbzebBW67Z92mgUbdDD8aeCCa92aS9fp68LCoulbWJO03IlaXGaB5wX2tlDF+gSbAO6AsATwQmN9n3jktXSjkxFkOG5/Co29ok2/5Ec37f/AGN2SFRRFn6+Bu8gmahgW162G9mFo1q37RXc1RSJDeIYBCXYQOxsQEcA4Pn/f5YxCnaEvJRuLB0+L986ZPgY7Z0gzwwwZZvkWJanCb+tamogb0Qlm98eCqYDyvgAnBu7oALtzdFeRwAYLGtAPLJe1oHJnM9brRaV9NA++Fs6l5VXKBn8JaMZzj21Sd+JHtzVxFv9WuXq9Dk5JUUaoFXBiNM84DxzghDKKnZlpSMAbJA1iKEjx8UMABYubxHp6RnSTlhWg2jP58GJWChIPgg7Cdwqz1GxKx/bDm9FLJOu2RgHYJwPiNZn4PjYBW5V2usIANfIZo630pVxXk7PbZi32PXFfGS1CXd+9+wcsWjF+pho51RznHcqtHArAE/nC1fOkXzHC1PJaNuyZbdWg14jyTOOMT+goQyjK0MdAeB52UJct+k0KeflxPHVTZ/jC4eXkJgoeMMZJxrgnFODcaz0qB02WhoAuCtBdmxIXkGRdDpkfQHOjy4gQK/40ktHAPhUxgh5ERKvHW9d/RzfOToeF9C8Xs1e8V6XR7z/3vK1m5XYY+OSNVL3Us3gYUrSIeMPcG58BTSUd3TlrRsA9JAtwH4V1VJOK9rgMWXG3JjV/FNTkkVO90zXnCzvTcB9yhu37/dU02jLAMd/seVBxSj8MROmSpX7xKkzXbNNWT+B86MLFNDLn3rpBgCzZQ1t1Lg6KacVTTDhgU6y2586ye/gqnJx2ZlbxK9eOSpeuOcakZaqZinYztKSk5snps9qkm4SjkZbHPvFoB6NJhOnyAffPuWVUvcStyB0ZlP43J8BBeVqVrnqBgD7ZA1o5jxvBgAuaW5VtgZ7JHnOzsoUG5fPFS9947D463tPnPK49dL9noBIdk6u4KVieY2DaIIRjpUL5k70W926Q9omeIdAJ79tncMDASOxbRxjVtBAefmnvHQDgK/JGtfKFvf7rdds3Ckys7p74tzGjxgkjly0R/zhOw+fEvSDIeDs7Ws9SQ+XD09z5IFmvI2x5ezx7H2Q70rzouJSaZtYsXaLVBlnZmVLp0HWJ+B8/wQslKXastQNAJ6SKWDeFY232e3KMcp8z9fvVVbuqlNLSkwUq5pmiFfvuzZs0A+GgPY1C1xNV6iy4Y2FRoyZKOYvXiW9eIxMueDcLwLI0BFjpe2hfvYCqfupT3mFdBpC2R0+UxsIoGd86qkbAPxExhALi0ulnFUkQUTVQiuh8snjCZbMrhNvP3ZTVIHfAoG/fO+4WLOwIWYOl9d/79m7r+CFmHhmBPcBr43BlMxIyjEejuHFfELZWTSfsb3LaKUCQqJJL46Nz0CGcndW7joBQDci+i+ZguxXWSPlrLpydLydb0JCgrRTDZXHAeW9xRO3Xuoo8FsAwM9/fve4WL9E3fawodLq5LPU1DTBzcG5+QWCQQ0P9zXg1hknZWU/p2rgUKl7atLUWdJpuPX2O8XTz74Y88eYseOk8lI5YEDM86CDjnfcda+UjmyfZ+zZBy2ffVEsXbZCSkudAEB6CqCbSwDzwDcVDtXuXPk11/q56f6T7z4qHfwtEOCWgPbV3ncHBOcN751RuU669ejVRwoAVCwJ/Mix4+KjTz6L+WNGg9zMiiFDh8Y8Dzro+O3vviMVtPj+uPrwtdDyk89E+7YdUlrqBAATZR0f1za6qsU7/X7UuMlSQofKG4/s/8ZXDikL/BYAWM8XntEqEhK6KU93qLzgM/ODfagy5FYbp/cMn7dszSZp+zty861aOHsAgBoIAwCo0ZFhzk8AsCKUA4rmszlNy6WcVWeOjkdCq9pr3cpPWY9i8e2HbnAt+FsQcMeVB11fJ8DKE579BwHcQtXZfRHJ563b9koDwAUXXgwA0KAFRFXrAQAAABAUK/5JRLQ96MOoHQfXNiJxStEeU15RHXVawuWlul+Z+Onzd7se/C0IeO3+r4p+ZeZsTxxOO3znPWRsaN8jdV+lZ8itVrlt+04AAADgFB+MLoAARPipBeBcWefOC49EG9y7Op6395VNl/18r4O/BQG/ee1+MW/aeKV5secLr70PzF5pvrZtl9R9VVBUImV3i5csAwAAAE6xIQCA/wDgWhmHxqPzuwrmTr7naW0y6bKf26O4QPzbM3d4VvO3gr/9+drzdonMDPntYu35wmv/Bn8uW9nFtWTXzZg4cRIAAABwih8GAPgPAO6RCSS8Op2TAB/uHJ72J5Mm+7kcdKNd2MceuFW+fu+JW0XdmKHK8mbPJ177DwaWrNoodW/1HzBQytYqKisBAACAU2wIAOA/AHhaJnjwFL1wwdzJd/0ra04xOpn03XTJ3pjW/IMBgqcK3vzlfaKkME9ZHmX0wbn6ggODsJP7xzpn0JCRUjaWnZ0NAAAAnGJDAAD/AcBbMkGgtGeZlJOynJX13Lx+m7JFf1YvaNAq+Nth4Lev3y92ty7DTAHSNwDL3Bcqzl2wTA4ARo6ddIrzjjZN3L334R/+GHMIwDTAQNCRnQ2AWQBqdPTbNECpZYDL+1cpBYDho9QMmON+fw6y9qCr4+ufPHunaFkyW6QkJ0k562idO47XHzxkAWDCFPnlqd//4FcAAJ+0AgAAAABBfr9jGuAvgj6MKhBVVg1SBgC84U9WdzW7mN1zzTnaB387kPAgxR3rFomszPSo9JcpO5yrNwTIAgBvIS1bxm+/+wMAAADgpB2hC8B/XQC/k3ESVQOHKAOAxiWrTxqaTJqmjhtmVPC3gwBPG7z8wFYxsFLdLAgZLXFu7CBBFgCmzWyUvp9eevUNAAAA4KQdAQD8BwCfyjj5gbXDlQFATe3wk4bmNE28gtqL9x42FgDsMPDcXVd17FfQs0R+cxmneuI8cwFgxpyF0vfTs8+/BAAAAJy0IwCA/wDgrzJOfvCwUcoAIDOr+0lDc5qm2XVjfBH87SDAOw0+c+eVYv/mZjF6SLVIdGlnRKea4zx3IEG2BWDm/CXS99OTTz8HAAAAnLQjAID/AOA/ZRw47ztujeCXeV62uu2kkcmk57GbLvEdANhhgF//+tX7xIPXXyDO2rZGzJkyVvQuLerY3VBGN5zrThCX0VUWAHiPDpnf53MfO/5NAAAA4KQdAQD8BwD/K+Mkho+eoAQAxk+uP2lkTtPDy/0GB8t4ef/xm4+I1x+4Ttx7+JC46uxt4mD7arF5ZaNYs7BBLJo5WTTNmCimjRuOh0caDKnuL23PsgAwb1GzdBoeevRxAAAA4KQdAQD8BwA8FeBkAUf7esSYiUoAoE95heM0WGk+d2dL3AJAvICOKfl84PoLpO1ZFgDmL14lnYYHHj4GAAAAnLQjAAAA4KQxcOBVBQAZkjuXcVq+/+RtAID3noAGGmgAAAg4StnFa/h8LASkRkusA6BGR78tBBTzFoA1G3eeAhVWjT6a55r+fRD4NAh8ptTQ3U4nAECdswUAqNESAKBGRwCArctARQvA7KZl0gCwfe0iAAAAQBsbAACoc7YAADVaAgDU6AgAUAwA4yZNlwYA01b+c7sGiuvHtisEAKDO2QIA1GgJAFCjIwBAMQDUDhstDQA/fOp2bWp/CL6xDb466A8AUOdsAQBqtAQAqNERAKAYAMorqqUAIKd7JoI/mv+1sgEAgDpnCwBQoyUAQI2OAADFAFBU0kMKAGqr+mnl/HWogSINsW2FAACoc7YAADVaAgDU6AgAUAwAObn5UgAwd9o4AABaALSyAQCAOmcLAFCjJQBAjY4AAMUAILsHwOoFDVo5f9S+Y1v71kF/AIA6ZwsAUKMlAECNjgAAxQCQmpYm1QKwacV8AABaALSyAQCAOmcLAFCjJQBAjY4AAMUAkJSULAUAWAMANW4dav32NAAA1DlbAIAaLQEAanQEACgHgCQpANjZslir2p89EOB1fMIJAECdswUAqNESAKBGRwAAAADAgS6HsDYAAFDnbAEAarQEAKjREQAAAAjr/FHrj89av73cAQDqnC0AQI2WAAA1OgIAAAAAALQAhLUBAIA6ZwsAUKMlAECNjgAAAEBI5//nd4+Lt44dEfcePiS+tLtVbFw+VyyaOVnMnDxaTBxVK6aOGyZ4zYLlc6eJbWsWiqvP3i4ev/kS8dPn7w55PXuNMt5ef/jGg+K5u64SX7twt9jTtlw0N9WLBQ2TxLRxw8WEkYPF9PEjOrRds7BBHGxfLW677EzxytFrxcdvPqKFln4BgP4VFWLosGExfWRnZ0uNEUpPT49p+mOtn/X7NTUDpXTk3Vl79y6DlsOGiaKiIikt09NShPj0qNTjnDMWS6WBiHgn4I5/ji+kYjfApCRzBwH++Ok7xJVntYumGRNFfk53xzoOKO/dAQx3XnmWNkHMS+hgeHri1ks7gv3oIdUiKTHRkZZpqSliythh4tDOdeLV+66NGQz4BQCi2ZIbx5Ijm4Vu8acbAGDXQbH5xMM0AOBa5pGL9nTU6BMSuim/6btnZoi1i2aKp26/PGYBzKvg/87jN4u9m1aI3qVyRN2ZEx1Y2VdceEar560sAID4c+qd2SA+hy0E2wAAwEAA+P23HhKX7d8iSovkli4ONoZw74dU9xd3XHlQ/OV7x30FA9968HrR3FgvEhMSlANUKD1TkpM6fu/d47d4oiMAAE4/lB3iM9gF2wAAwCAA+Ozdx8XlB7aKPIkmftkbf9jACvHMnVd6ErzcrP1zlwn35Xfrpr7lJBKNk5OSxNZVTeK3r9/vqpYAADj6SOwRx8SnnQAADAGAF+65RnDw1eFG5aDJXQO/ePkbrgYvNwDgT+881jEwMiNdbtlnVeVQUpgnbv7yPtd0BADEp2NXZZ+4jr/tBwCgOQBwkzs393ONUbebsbggVzx65CLXgpdqAOBa//jhg7TTkcu1sX6C+M1r6lsDAAD+duC6+QSkxyx7AwBoDABcw66fMELLgGXd6Nx3ziPddR8bcP9158e068TSK9xz/7IeymcMAADMcsjh7APfoSxV2wAAQFMA+OFTtwuekqe6wN26Hg+k++Pbx7RsDeA5/E6n87mlV2fX5a6Jh274kjIdAQAIGp3ZGj6HbQAANASA7zz8NdGjuMCY4G85kjlTxoo/fOdhZcFLRRcAt05Y6TPlmWcK3H75ASU6AgDg5E2xe6TTe1sFAGgGAN87fovggWGm3gy8Qt6nb+nREnDervXG6shdK7wYkywEAQC8d6qm3rtId/zZCgBAIwD44MV7REWfnsYGLcuB8BLDvKKebPCSOf/IxXtiNsXP0kH2mVsCZAdZAgDiz6nL2h3Ojx+bAQBoAgC8qp8u0/xUOABeF18mgMuc+9hNl3i2sI8KrcJdI6d7ppBZNAgAED/OPJwd4TvYQSgbAABoAgBtK+YZX/O3GxgvTSxbe3UCAT974R5RWujdCon2PLv1enBVueN9GQAAcPxu2SWua75tAQA0AADu6/XjzcTrBHBAdhLInZzD3Q6806EftdzS3OhIRwCA+U7aj/aMPOlhlwCAGAMALwXrtxqr/ebm8QBOgrmTc75y7k5fBn/Wk1dffPK2y6LWEgCgh6O13xN4jTLRxQYAADEGAK+a/gtyszvGGEwePUSMGzZQ8O50vGWtF4bIffJOAno05/CiSTLbIEeqA68nwAM1R9VWCZ7xMHxQpSjrUezJgMNBA8oFL2UcjS5+AYAhQ4eKuilTY/rIz5ebmpuVlRXT9MdaP+v3x4wdJ+13qqqqoeWUqaJ37zIpLQEAMQQA3ifejW18OZjxgjK8OA93L/DsglBBg1fve/PRG8WVZ7WLiaNqXQti1f3KBG9kFCoNqj7bsHSO1I0QDgB4Qaaztq0Rz951VadTHD/69kPi2E0Xi50ti13dpfGyM7dEpaNfAOCBh4+Jjz75LKaPGQ0zpWyMISbWedDh97/93XekdOR79erD10LLTz4T7dt2SGkJAIghADTNmChVeKGCFu8UeP5p68Xv3nggqkDBgZhhgKHBDSi55VL3Nrz50dNfd2WvhPEjBjkayMiww/mt6qd+JUfeAppnjEQKTgAAddAAAFCjJQBAjY4McwAACvQnjRgzUWy2BXMnr5MkN9zh2l+kjvk7j3xNeaDl/vafv3RvxGnoLK1c0+VaeyjAcPoZdzm4tV8AD5Bzmq5Q52VnZYojF+2RTi8viMQrEareyOnqs7dHXMYAAHXOFgCgRksAgBodAQAngj87cdMAYM3CBmVBiwPMV8/bFXFQ6Czw2z/nJu3Fs+qUpZHLiDfksf+Gite/fPmo0rEM3M/+3hO3Kk0nA5XK1R3Le5dGvNASAECdswUAqNESAKBGRwCAoQDAwTUzQ81+9KkpyYKdvMe1X0gAACAASURBVIpgGnwNnla3acV8ZRCwcOYk5em86uxtytI3ZmiN+PWr9ylPI+vKSzzzYMFQLQ5OPnvi1ksjSicAQJ2zBQCo0RIAoEZHAIChAMDNy06cfvA53FevYr344MBvf8/N9ty1EPzbTt4zrKgOsKOHVCtJW03/PuJXrxyNKKja9Ynm9VvHjiibqbB20cyI0goAUOdsAQBqtAQAqNERAGAoADRMGqUkaO1uXRZREIgmSIU6lgedcdO4k6AffM71F5yuLM1cqw6+vpP3PGPiu48eUZauUBpan3FA5jn9TtJpP6d7ZkZE2y8DANQ5WwCAGi0BAGp0BAAYCAA8MIwDjt2ZO3ldU9EnogBgBR7Z5zceuF7wHHgnabWfs2zuVGWB9vAhuSkwVrqinVonq+X6JbOldeS0P33HFV1qCQBQ52wBAGq0BACo0REAYCAAPHX75UqcvxeL6wQHutZlc6XTzssDq5oNsGS2/CBFBim31ygI1pEHLnIN3gIQp89nb18LAPBwbQAAgJrABQBQoyMAwEAAYKft1OFb5/FgteCg4sX7Hz51u5IpbTwFUkV6VYysv+mSvUrSEm1+9rQtl7aDKWOHdZl2tACoc7YAADVaAgDU6AgAMBAAVEytu/GiM7p0/NEGpEiPnzNlrHTguuPKg9Lp56V/LSBy+syLJn3y3Uel0xKpdvbjGKZkxwIU5ed2mXYAgDpnCwBQoyUAQI2OAAADAWBIdX+pwJWSnCQ+fOPBLh2/PdiofM01ZqcB1zovkqbrrtLM/d/W9Zw+r1s8K2Y6cv64Jcdp2q3zuppVAQBQ52wBAGq0BACo0REAYBgAcN93elqqlNPn5Wm7Co5ufv/+83dJ11xXzp8unQeeTWAFQafPt166XzodMlrv39wsnYfn7roqbB4AAOqcLQBAjZYAADU6AgAMAwBen99psLLOa1+zIKzDlwlIkZ7L69Fb6XHyPH38COk8nLdrvVQaON1vP3aTdDoi1SzUcfdcc450Ho5+5dyweQAAqHO2AAA1WgIA1OgIADAMAH7y7J3SDv/yA1vDOvxQgUb1Z5NG1UrlgxfvkU3T3k0rpNKQmJDg6TTKUPn99kM3SOWBIaarQYwAAHXOFgCgRksAgBodAQCGAQAvNuOkxmw/pyuHHyrQqP5s/vTxUvngVfdk07R1VZNUGnjDH9k0yJ6vAgi72hgIAKDO2QIA1GgJAFCjIwDAMADgwXu8Z7zM44MX74l54OKaq0weIlnApqvgylsXy6Thm7ddFnMd//j2Mak8cP55K+RwWgEA1DlbAIAaLQEAanQEABgGAOEcNb57Imwggz7O9AEAqHO2AAA1WgIA1OgIAAAAIGi+5ywwxgtQAADUOVsAgBotAQBqdAQAAAAAAACAsDYAAFDnbAEAarQEAKjREQAAAAjr/OOllot8dt4KAgBQ52wBAGq0BACo0REAAAAAAKAFIKwNAADUOVsAgBotAQBqdAQAAADCOn/UjDuvGceLNgAAdc4WAKBGSwCAGh0BAAAAAABaAMLaAABAnbMFAKjREgCgRkcAAAAgrPOPl1ou8tl5SwcAQJ2zBQCo0RIAoEZHAAAAAACAFoCwNgAAUOdsAQBqtAQAqNERAAAACOv8UTPuvGYcL9oAANQ5WwCAGi0BAGp0BAAAAAAAaAEIawMAAHXOFgCgRksAgBodAQAAgLDOP15quchn5y0dAAB1zhYAoEZLAIAaHQEAAAAAAFoAwtoAAECdswUAqNESAKBGRwAAACCs80fNuPOacbxoAwBQ52wBAGq0BACo0REAAAAAAKAFIKwNAADUOVsAgBotAQBqdAQAAADCOv94qeUin523dPgFAC674irx9LMvxvQxZuw4QTafE+3rygEDYpr+WOtn/f4dd90rpSPrfsaefdDy2RfF0mUrpLRMT0sR4tOjUo9zzlgslQYi+ied+Of4QiPGTBSbdx2UeiQlJTn+fTbKnS2LEZBRI9fKBvwCANEGWxxPUr4M+sWHfgAAGzQAADqvSaKWbaY2AID4cOQI2ChnJzYAAAAAaFVjBWioBQ0AAAKDk8CAc+LDbgAAAAAAgI+7LQAA8eHIEbBRzk5sAAAAAAAAAADC9hcvWLZOamzN/MWrwl7fiePCOQh4sAF5GwAAAAAAAACAsAEaACDvaBGsoKGONgAAAAAAAAAAAACJ6X06OnakCcARiQ0AAAAAAAAAAAAAABDWBiIJJjjGPOgAAAAAAAAAgLDOH10A5jl2BGOUWSQ2AAAAAAAAAAAAALQAhLWBSIIJjjEPOgAAAAAAAAAgrPNHC4B5jh3BGGUWiQ0AAAAAAAAAAAAALQBhbSCSYIJjzIMOAAAAAAAAAAjr/NECYJ5jRzBGmUViAwAAAAAAAAAAAEALQFgbiCSY4BjzoAMAAAAAAAAAwjp/tACY59gRjFFmkdgAAAAAAAAAAAAA0AIQ1gYiCSY4xjzoAADEGQD86Omvi2njhuOhQINvfOWQ9vDkl82ArrxgjXjuobPxgAawAYU28MLDh4T49KjU45wzFsvC4z+JiPif4wuNGDNRasOSzbsOiqSkJMe/z2nf2bJY+4Dw5qM3SuVRpoz8du4VB9u1L2+/AIAKRyXr6HC+XKCAfv7UDwBwAlwAAM4BzkQ4AAAcjAi6VewGCADwZ/AAFJhfrgAAAEBctioAAAAACGDmBzCUoVwZAgAAAAAATQcSogtAzrkhOEA/2EB4GwAAAAAAAACATrsD0AUQ3oEiwEAfk20AAAAAAAAAAAAAkqOpTQ4CSHv8QgwAAAAAAAAAAAAAAFLTyQARZkKEjwAgWSqQbV+7SPtpYd999IhUHk0cre9Wmq86e5v25a1kDMDydZ0Gd54+29UDXQBmOnYEZJRbJDZw8LSFsjHl/7RYByA1LU0qI63L5mofEH789B1SeXQrmJp43SMX7dG+vO+55hzp8l66amOXQT4cBAAAEEgiCSQ4xkw72dA8VdbH/D8tACCre7ZURpbPnaZ9QPjNa/dL5dHEQO1Wmjm4/lXTpn8rXbdffkC6vFe2tAMA0LyP5n3YQEgbGDuyQtbHfKgFAOTmFUhlZM7UsdoHhD+985hUHt0KpiZe99hNF2tf3jdedIZ0ea9p2wUAgPMP6fxRazez1q6q3H733g2iW7dusj7mLS0AoLCoVCojdWOGah8QuGaYkS7X1WFisHYjzS/cc4325X3J3k1SNs26bWjfAwAAAAAAYANfsIFtG2ZK+xciukcLACjtWSaVmRGDBmgfEBgAqvvJ5dONYGriNT948R7ty3vfppVSNs3lsmnnAQAAnP8XnL+qWiSuY2YrwsvHzhNJSYnS/oWIztYCAMr69pfKTL+yHtoHBAaA+dPHS+XTxGCtOs053TONKOuWJbOlyjopKVkq+PPgQAwCNNPBIzCj3DqzgbeevUQUFciNmbP55MlaAED1oKFyzjIxUXz61jHtA8Pu1mVS+bQVXNxeZ/SQau3LmWFv0qhaqTLK6p4DAEDtH7V/2ECHDfz3h3eLay5cJ9LTUqT8ii2G/DsRpWgBAKPG10lnirfbZcer8+NrF+6WzmdaUrIYXtLLyEdxRpZ0/pub6rUuY8v+SgrzpPLas3dfLQDgxivbxNvPfRkPaAAb8NgGXn/iAvHgbbvF6Vvmit4986X8iS3wW9c5ysGf//4Z4kvroC6fR4yZKO2ops1s7PJ3ukrjN75ySPvAoGIxoOSERPHjLWeKv+y9xLhHbVEP6XK+5pwd2pfzb1+Xn/JZPWiY9H2logugq/sO38fXVtwob9+U99wT8T/2ANC0dI10YLjg9A3aBwauHfYolpvyyDfgGeOmGhf8H1nWKl3GnPe3H7tJ+3LmWQqyjnL0+CkAgBNLfctqifN9E7Sk7yvYQoct/IKIkrQBgFUbtksX7JqFDdoHBgaAFfOmSec1Ny1d/P60842CgBnlVdL5Li3KN6KMeaVCWUdTP3sBAAAAIG1HsnaI830JT5ut4K9FFwBPd0pIlJvWMLSmwojgcP0Fpyu5qc+vm20MADy3ul10I+lFK0Rzoxn9/7w3hazjXLi8BQAAAJC2I1k7xPm+A4APrMF/FgTEfAwAT1kqKCqRMvaEhG7ily8f1R4CfvXKUZGaIrf5Ed+UPBjwnbY92kPAH8+4SAwplu/75zzfd+152pcvt/IMqZab1sp5XbfpdAAAAEDKJyJ4+y54q7CHOVbgt561AICa2uHSmbv76rONCBCq1gOYXNZP/HnvxVpDwFkTZ0iXKzuywrwc8ce39Z/q+YuXvyEYRmWcb3ZOrnTwV7UOgEw+cC4CEGxAKxu41wr69mctAKCufq6U02RD29LcaAQAqNgpzrqxrqhv0hYAXl67Q6QmJkmXK+e1ffUCI8r2jisPSud3QE0tAAC1f2k7snwEnrUKwrEqV276z7YHfuu1FgDAW5/KGmpN/z5GBAletIhrtLL55fOTEhLE/YtbtIOA72/eJ0oyuyvJI+fzlaPXGlG2bSvmSed50tRZAAAAgLQdqfAvuIYv4OGvRDTECvjBz1oAQNuOM0VSslzfOO+O9P7zdxkRKA7tXKfsBk9PThY80E6XtQF+s/NcMahQbkyH3fFMHz/CiDLl/v/Kvr2ky3Vx8wYAAABA2o7s9xBe+yKQO7GJ/yKiacFB3/5eCwDgPkvZTYHYyC/bv8WIYMGLxfC69qpuzKKMTC0g4KfbzhKjSnsryxfr8+RtlxlRpq/d/1XpfDMEMwzz/SD7wEJAcev0pe1QlV/CdWJqg7zc7yx7sA/1WhsA4MVPZA1m2EAzpgNybVHFjnF2vbi//aZ5y2PWEvCt9aeJPtlyS+Da88Ovxw6tMSL4c3mqmP7Xo1cf6cBvgQMAIKbOV9qXBd8LeI/yjMIGfk9Eo0MF/ODPtAGAJc1qVov71oPXGxE0eEpgQa6ynZ06HA7Pt98/frr49IwLPQWBuxasFlkpqUqdHnfpmFL7/9M7jwnZ9f/55h43uR4AgOZ/pfdRFEEDv+sP23uRiHoEB/rO3msDAFxzycySHzh2+oalRgAA1xqvO/80V266AfmF4tFlG12HgH/bekCsHDTClTyYsvAPl+OD11+gRIOVLVsBAP5wwkrsAcEbtf4obODPRNRORAmdBftQn2sFAAMVrAfA6+1/9u7jRkDAX753XIwbNtAVZ8GtAasHjxTvtu1VDgK/23WeODR5puABiFEYaMTH8viIn71wjxFlyACwbO7UiPPWmV55BUXKgj/DNLoAEDw6szV87ivb+BsRHSaiolABvqvPtAKAWY3LpB0pG/ddV51lTPB4/YHrREqymvnyoW7shG7dREO/qo7pgp/tkVs46M3W3eK0MXUiJzVNSTmFSi9/ZsKufxz4+fH+c3cpWd1Rxc6aVv8/AMBXDt7Ve62zexCfa29DPyOic4mouKsgH+57rQCgddtekZySIm3wvDcA164tJ637M89e8OKG65GVLVqGjBa3zV8Z0VLCPKqf1xk4fcwUMbio1JM0NtZPMKrsVAz+47JftFLN9D8LAtACoL0D9+R+8sKv4Dc8sbVPiegZIjor0gF+4QK/9Z1WAMDOi/dCV2FQD1x/gTEAwLCiaongaLTjPQWq8ovElD79O1oJ5lTUiGl9KzrW7+ddB6O5lopj+/YqEb957X5jyu3nL90rMtLlW0Oyumcrbf5X2ALwJSJajgc0gA14bgNNRDSdiEYQUZ4VsFU/awcAC5apWSRnjEFTyLiF4tev3ic4AKoIpCZegzdJevHew8YEfy6zPW3LlZTXqPF1ugJAvWqHg+tBASigjwLaAQDXXnLzC5Q41uO3fNmogPLu8VtEcUGukrybBAG8gQ6vo697V409faoWc0pISBCrW3cAAPTxiUgJFIgbBbQEgHGTpisJgqOHVIs/v2vOWAAOMFwLzsyQb1Y2CQBMWcHRDgA7WxYrsdF+FdXKg7/CLgC0AMRNKEBG41EBLQFgbdsuwTUjFUHsK+fuNKpmyUHm4a9dqGRkuQr93L7Gga2rjCufbz90g0hOUjNzY96iZgBAPHpe5BkKaKCAlgDANRjeFlVF8MnL6S54sJa99mbC6yduvVRkZ6nbL0CFliqvwSv9HWxfbVy58IDNyaOHKLHN7Jw8V4I/WgA08KxIAhQwQAFtAWD5ms2Cg4SKoLN20UzjAg1DCtc0eWEjFRrodI3EhISOVRBNALHgNB65aI+y8pg4ZSYAwAAniSRCAb8qoC0AcC2mX2WNEmfLIPH0HVcYCQHvPXGrqK3qp0QHHSAgP6d7RxdHcGA14T3P1CjKVzNIk5e93rh9HwDAr54V+YICBiigNQCo2iCIA19Zj2LBG/CYEGiC0/jxm4+I9tULjIeAkYMHiO8/eZuRZcBl0jRjorIymDRttmvBH10ABnheJBEKaKCA1gDAjqysb39lTnfhzEnGBh8OQLdeut/IcQHc5M+bNPGuecFwY8r7y85Ut1ojL/yzcft+AIAGDhBJgALxrID2ALBoxXplYwG4JeCKg+3GBiEOlj99/m7BO+WpGh/hdrfAsIEV4vm7rzZa85e+cVjprIy6+rmuBn+0AMSzS0feoUDkCmgPAOzMqgaqGXXNwY5XnHvl6LVGByQGAV7kqKZ/H2WtI6pBgPv6Dx/aYdw6DMEtErzgT3lvdfsgZOfkirYdZwIAIvdROBIKQAGXFDACANa07RIpKanKgh07dJO2mw0OStZ7XuTovmvPEyMGDVCmjSwIFObldEzv48BppdPUZ+6ymDN1rFJtZzUudT34owXAJW+Jy0IBnylgBACwQ1O1OqAV4AYNKDdq45lwQZTnpjMITBs3XPCyulYevXyuqejT0b3CAxbDpdWU71jTdYtnKdWyvKLKk+APAPCZl0Z2oIBLChgDAG3b94ucvHylDpkXdPFLwLIC60+evVPw0rpDqtUNnuwMJHiRpQ1L54inv27mFEtLs1DPqjb6sbTjba7dWPOfg32oh6LtgLEUsEuOF5eFAjooYAwAsJPjZVMth6rqmWcGfPbu476otQYHsvefu6tjkx0O0r1KC6W1S09L7WhluOD0DR1B/49vH/OlbipH/Ft2OqFuRshAHSp4q/gMAKCDe0UaoIDeChgFAOwYBw8dJR3ILKdsPfNKgX6FADsU8LiHJ2+7TFx73i7Bm9ksnztNzJ02TkwZO0wMH1TZ8ZgwcrCYNXm0WDyrTmxpbuxoTXjohi8JXpDItI2V7HmP9PUNX9qtvBulsKhUbNp5AACgty9E6qBA3ClgHAC0bturvCuAQaCxfoLvugMiDXo47omOlowv7W5VPr0yMTFJLFm10dPgz6CMFoC48+XIMBSIWgHjAICd2+LmDcp2C7RaAfh50qha4YfR6wjogYAeqQ484I8XKrLbgqrXk6bN8jz4AwCi9oM4AQrEpQJGAgA7uFHjJrvisAdW9hU8kC7S4IHjogu2uunFU/24C0hVwLdfp19FdUyCPwAgLn05Mg0FolbAWADgxVR6lZW74rh7lxaJ5+66ChDwntnBvSvY4EGS3OpjD9qqXnfPzhXrt+wGAETtknACFIACXilgLABwLadl827Be6qrctr26yQlJnYsaBMPA9+6CpR+/P7xmy8RJYXu2E5CQoJYsHxdzII/WgC8cp/4HShgtgJGAwA7uqWr20RycoorEMBAwCvBmbqLoB8Dt2yeuMl/36aVykf62+Gxrn5OTIM/AMBsp4zUQwGvFDAeANjZzZy32DUAYMfOXQKPHrkIXQKGdwm8/dhNgqc52oO16tcjxkyMefAHAHjlPvE7UMBsBXwBAOzwRo2vc9Wxc6DgufEYIGjeuABe7XH/5malO/qFAocBNbVaBH8AgNlOGamHAl4p4BsAYKc3dOQ41yEgIz2tY2zAp2/5cxU82SZ23c6/76vnib69Sly3ix69+oiN2/cDALzyXPgdKAAFpBXwFQAwBNQMHu66s+faH28mdO/hQ4LnkOsW9JCeJzq2fJ4zRe1OfqFq/fxZQVGJWL/1DG2CP1oApP0iLgAF4kIB3wEAL7laWTXIEwhg58+74B25aI/gwWUIvLHvHnjmzisFB/5u3bzZFZGX+V236XStgj8AIC58NzIJBaQV8B0AsPPjNQLK+1d5BgEMAhV9eorrLzgdywnHYKAgt8LwIM26MUM9LfOS0l7a1fzZ/gEA0n4RF4ACcaGALwGAHSC3BHjVHWBvGs7OyhTNjfXi2E0Xo3vAZRh469iRjvEY/cp6eBr4ubxLe5aJDVv3aFfzBwDEhd9GJqGAEgV8CwCWIxw+eoLnwcECgj49S8SZW5rFGw9cDxhQBAM/fvoOceVZ7WL0kOqYlWvvPv0Eb0pl2ZiOz9gMSIl/xEWggK8V8D0AsHOeNHWWZ33CVvAPfi7MyxGLZk7u2F735W98BUAQIRD8/KV7xR1XHhTtqxd0bFccrKvX72sGDxNtGo327ww+AAC+9tvIHBRQokBcAAA7yRlzF4mkpOSY1RqDA1XPkkIxc/JosX3tInH40A5x/JYvi/efvytuBxL+5rX7xQv3XNMxoHLvphViQcMkUdO/T8zBzSo3Xt534pSZWtf67TAAAFDiH3ERKOBrBeIGANg5Ll21UeTkurP+uxUoZJ95nYGyHsVixKABYtq44R0j2rnlwE+P+dPHd+Rt7NAaUdm3l8jNztIGzEKVX1paupi3qNnT4M8rCvavrHH84HUJQuUlys9eJqIH8KCxPogCJShHT235ZiI6TEQXE9GZRLSKiEYRUXedbCmuAIAhgOdrl1fErv84SgeswonjGkSONcgrKBIrW9o9Df5spyU9ejlOM2zMeXl3ot0SnZy2w7T07yRvsDMJ/+BQ0w+J6DEiOp2IhhBRN4dlKn1a3AGA1UxaN32OSEhMhPF7b/zGaF5TO1y0tsdmsB8AQHkQl7E7AAD8hIz9dHXup0R0CxHVeQ0DcQsADAILl7eI3PyCrgoH38fZzZ+Z1d3zJn8LTK1nAAAAQLp6d+oF0AJghh/7xeetCucTUfGpxefOu7gGAHa2vGjQ2InT0Bpgxs3hOoxxv3vL5t2eN/lbgd96BgAAABS7fACAWT7u70R0ExGVKbaDUy4X9wBgOdwlza2Cl3V12KeD88y6ub5QXlndc0TDvMUxD/yWPQIAAACneGr5NwAAM33UfxPR9USUJ28CX7wCAODE0qnseLk1YNzkepGamvaFAAEw0MohKyufpORkMXr8FNG6bZ82wZ9tEQCglb1hDICZwVOZn9DA/39GRFtUjxEAANgAwKp9tWzZLYaNGi8SE5P8ZEDIS5AT4+b+VRu2aRX4LRsEAAAAvlhfk/oELQBB978GQd2JT36FiPpKWYLtZABACACwnDAHhwE1tdosRmOowToxclfPKevbXyxasV7LwG/ZHgAAAGDz0ypeAgD8AQDsG/9KRMtUGAUAIAwAWM6YFxBiEMC0Qa2cclSQwNsDV1QNFDzWwypXnZ8BAFrZGroA/BM8o/IbGle6OHZf8/lCQ0kyIAAAiAAArECxtm2XGDl2suCV4TQ2DKTN5qwY2hjeVqzdYkTgt2wNAAAAkHHsIc5FC4DNL/jIfx8noowQ5R3RRwCAKADAcs68OMykabNFQVEJgq2mN1VRcamYMKVBrNt0ulGB37IxAAAAICIPHvlBAABNfZUCGHnz85kChZGbwr+OBAA4AADLSfPz8jWbO1oFdN9jQIGRaQ87GZlZonbYaGOa+e12FPwaAAAA+JebVvIKAOBfAGDf/EMiKorWUgAAkgBgd9y8siBaBbx13AWFxWLYyPGCd7/btPOAkbV9uw1ZrwEA3tpRF4CMMQD+Dp7aV266sE8r/W8RUVY0EAAAUAgAcxasELxtbISFheMcOJWU1DRRWTVITG2YL9a07fJNwLcCv/UMAAAAROPIIzgWLQAO/I2BvvwFIkqNwB46DgEAKAKAZWs2iZSUVAR1l28yBiweiOmn2r4V9O3PAAAAQKROPMLjAAAu+yaNYOHrEdoEAQAUAAAPNMvMyo5J8E9ISRUp2Xkis2ffjueE5OSYpMNr4y8p7SVWrDNrZL89wHf1WhYA0tLSRN++5XH/KO3RQ8X9gC4AIlGYlyPKe5fiEYEGpYX5IiszprPFNkYCAQAABQBQ3r9KhZPp8hppBSWid8MSMWzvlaLuhifE3OPvi4WvfPKFx/xv/lxMvekZMfLs60TfxrUis1e/Lq/tdQBX8XtJSUliyox5vuwGkAWAyZPrxEeffBb3j2eee0mF7QMAiMR1558m/vreE3hEocHHbz4iXn/gOvH1Kw6I9tULxMDKvl4tLPc3IqrtCgIAAJIAUDd9jgoH0+k1EtMyRJ95q8Xkrx4TC1/++AvBPhQAhPps+h2viAGrd4nU/OJOf0tFUI7FNaoGDtFuLf+uavhdfQ8AUAMvAICTIUC6CwAAoAZ+3nviVnGwfbUo6+G6L/43Iko7aQEhXgAAJABgZUu74M1k3Ah6SZndRdW63WLu4z9xHPRDgUDTc78Vw/ZcITJKy1xJtxtaRHLN/MJiweXRVWA15XsAAAAghL+W+QgAEEXN3YuWjj+985g4ctEeUdm3l5u++IJwRgMAkACAPuWVrhRc6cSZYtaD7yoN/MEw0Pjsb0T1hn2CxxBEEmBNOCY1LU00LlnjCwgAAAAAwjluB98BADQDAAsyGAQu27/FrTEDfyeiqs7sBQDgEAB4yp/qoMiD+cZdeo+rgT8YBOrvfE1071etPC+qtYn0eryDY/3shcZDAAAAANCZ03b4OQBAUwCwQOD7T94mRtW6Mp7sqc5sBgDgAADadpwpcvLylQbN3Orhrtf6g4O/9b7xmV+L3jMWK80PB+ysPu60kEQCA+Mn1xsNAQAAAEBnTtvh5wAAzQGAQeDTt46JTSvmK/fFRFQfym4AAA4AgBehiSQIRXpM4YhJgkfuWwE5Js8vfywGrNqpNF+D2s8VU29+VpQ3rYtJV8OwUeONhQAASdFn+QAAIABJREFUAAAglMOW+AwAYAAAWK0B3CXAO5hGGkMiOO75ULYDAHAAAHkFRcoKpmjUFNH0/O9iG/xtUwl5pkAExhTRMWmFPUTT8x925G32Iz8Q1ev3itTcgojOVZWG4aMnGAkBAAAAQCiHLfEZAMAgAGAQuHhPm2pfOSHYfv5XxtHyGuymjKpWlc7ZTcuVFQo3+89/6hfaBP+OloeXP+6YdihjF/ZzR5711VPyx4MPh+6+VGT06KNMR/vvhXo9cuwk4+wUAAAACHbWku8BAIYBAEPAaeuXqvSTjwXbEC8W4PgHBg0ZYZxjlQWBXmXljvWya52Sky9mPfS9U4JjTJr+bbV/6/ebXvhQ5A0aqSSf2f1qQq5fsODF34sRB68V6UU9lfyOXdtQr3lrYNmy9/J8AAAAINhZS74HABgIAH9+97iYMVGNLyaifxBRqd2O/hLKWUb6WWX1YKOcqqwDX7Nxp5p+mW7dxPjL79Uy+FsQMPP+t0VyVo6S4Fx3/fFO88otAoM2ny143YNI7c7pcdNmNhpjrwAAAIDdUSt4DQAwEAC4FeCDF+8RvLSwU78XdN4euy19EvRlVD/CS+DKBlWTzueR5TJ6Wef2nrWs04BoBWAdnnnJYSvNMs8VK7Z2md/ZD39f9Kibp+T3OksrbyTUuGS1ETYLAAAA2B21gtcAAEMBgCGAlxLuzK9F+fn37Lb0QZQnn5IIbg43KYDLprWwqPSU/DvRLjkzW8w59qMuA6IOALDgpT8IHqfgJJ/2czJKeofsBgiVx7EXf13wngf281W+TktLF80GrBgIAAAA2B21gtcAAIMBgCGgfsIIVX5xoGVP35FxrsWlPeMGALj5X0Yr61weCR8q8On62YSr7leSb96cKNI88vLHvBqipZnq59z8ArF+6xla2y4AAABgOWlFzwAAwwHg1fuuVdMFTbTTsqknZZwrb4ErW6s25fz62QukA1JSemanO/hFGhxjcVxujXwrAE8vjCrtL38sandeJNza3rh/ZY3WtgsAAABYTlrRMwDAcADgVoCGSaOk4xARPWzZ1J0yAMDntrbv1dqRqgKMgbXyQZAXxIkqCIYYoR+L80eec4O00eUNHOEo77wLIs+YkLXTUOdPnj5HW9sFAAAALCet6BkA4AMAeOD6C1T4Qh78n8h2dXEoxxjNZ0uaW7V1oqqCP18nN09+AZtwo+FjEdgj/c35T/9S8LbE0dhF8LEJScmCR/xH+pv24xqOfteV/QqSkpLEstVtWtqvDgBw6NzzxcrmVTF9vPDya+KjT5zDALYDPokPMQeA375+v1i9oCHuHxuWzhFcm3fy4I2DSgrzpHzxCd9cy5axKdhRR/veDxuvdAUKG7fvl+574fnuC1/+2FEAtAfDWL3uNX2htNHVfe1Jx/mf9+TPRH7tGOk0BNt3fkGRaNu+XzsI0AEAJk2arFzvYP27en/3vfcBAE7GcKkXMQeA95+/K+b21JW9efF9WmqKo+BvAYOivQKWszU1yGZ41LjJ2jnPrgJ6tN8vW7NJ2nDLZq9wHPxiFfTtvztszxXSGgw/87CUBrxpUfGYadLpCLb5kWP1s2EAQGCBMgCAVNC3nwwAkFj0LthnyLyXBYC7rjpLhQ88h42jn0xG+NyKqoG+B4CZ85dICz7igFzwswfjWLyecffr0hpUrtwmBQCcb943oXismvUYLNtPSEwUSzXrCgAAAADs0VvBawCATwDgly8flW6RJqK72aa6EdH/ZzlCJ89Z3f0/E2DcpOnSwW/Kkaelg18sAr/1mwte+kh6Rz/uRrCuJ/PMLQEFQ8ZJl4nd3otKeohNOw9oA7MAAACAgqBvvwQAwCcAwF0BpUXSA6PfsIyDX0g505UtW7VxnNE270dyPO8oJ6vRvG9+oCT4yQRO2XO796uW0qFg6HhlGrCeOQOGSKUnuEynzJinjR0DAAAAloNW9AwAkIxzwf7C6XvZLgAGgMmjpX3fjyy7utFpRqzz6jSeThVJgO/qmMHD5OZe8jr3ssFXh/Nlm94ZIFTmY/bD7yldNTAjI1Ns2LpHCwgAAAAALAet6BkA4CMAaG6S7gb9rWVX0jMB/D4OoGrgUKmaZlphD6WBT2UQjeZaPafJLYaU2bOvch2m3PiUdNeEBbL8PHyUHltcAwAAAJaDVvQMAPARAGxe2SgVk4iI1wLo+ON1gaUulp6RqUWtqauavNPvedU4GY2yyiqUB75oAreqY/vMXSWlQ1phqSs68LbCMuVjPzcxMUnwss9ObUXVeQAAAIDloBU9AwAk45zdT8i8VtEFsLt1mazP462BO/54IOCfZDLE5y5u3hBzp6nK+QZfp1+FXN93974DXAl8qgJ7pNfp27hGyuhS84td06H3zKVSabPbf+2w0TG3ZQAAAMBy0IqeAQA+AoD2NXKtsUT0H3a7eszuAJ28rh0+JuZOMzhwq3oPAPikI3DrDADzv/lzwV0MTmw3+BxuBVjduiOm9gwAAADYHbSC1wAAHwHAmoUNsr7uY7tN8e5AUhfkboC2HWfG1GmqCvjB1wEAqAEA3uY30tYGJ8dNvv5x0S0hQcqOrfsg1q0AAAAAgN1BK3gNAJCMcZZvkH1W0QUwu056VdRf2G1KekEgFmV203IAQAgjQxdAwJm7DQAMDbzhkuwNyucnJ6eI9Vt2x8yeAQAAALuDVvAaABDCN6vwFdFeQwUA9C/rIevn3g62qZ9Fm5Hg4/sP8OeqgGgBMKMFgAGA1wfgWRfBtunk/fjJ9QCAGDtNLAUc7KYdvwcAxNiWLR8kCwAfv/mISEpMlPVxDwZb0lVWAp0+c99py+bY1ZqCm+5VvQcAmAMADAEjz75O9uboOL97Tm7MVgdECwBaAIIdtOR7AIBPAODxmy9R4d8uC7ansU4Dv/08P24OBAAwCwAWvPQHkVM5WMVNIubEqFsLAAAACHbQku8BAD4BgP2bm1X4tq2h7Onn9mDu5HVqWpo2q6mhBSAQuJ0MqAt1juwsALfWAQiV1glXHlVxk8RssysdAKBpwUJRUlIS08cDDx/DdsChPHX0n8UcAD548R5RWpgf94/y3qVS2wEPGlCuwreNC2VClzoJ+sHnjJ00LWZ9p6qCvv06aAFQ1ALg0kJAoQCAP1OxYRB3a63feobn9qwDAHz0yWdSwVeH85957iUVznJJKGdp2GcxBwBrP3s8P+EYAF45qmTRs/8iopRQ9ltBRP8MDujRvucpga3b9nnuNO1BW+VrAICZADDu0ntUOH9RVz/Hc1sGAKiBDwDASTcPAHjPeeDVBVo2Lp+rwqe9dtIqQrx4KdqAH+r4CVMaPHeaKoO+/VoAADMBYOHLH4vsfnLLOLNt9yor99yWAQAAgBC+WeYjAIDhAPD+c3cJnkEQKt5G+dkl4QxpdZQXC5mg1NQ0sXbTaZ47TnvgVvUaAGAoALzyiRh+5uGQ9hmNjSckJnreDQAAAACEc9IOvgMAGA4ACjYAsnxhyP5/y6ZSieijaBxkZ8dWDRwCACASWAjoxEJAMdgVsfGZXwnejrkzG4308xlzFnlqywAAAIDlkBU9AwAMBoBvPXi9irn/7Ac/JCLe/yfs39mROsaujmtausZTx6mq1m+/DloAVLUAxGZb5L6Na6UBoLJ6sKd2DAAAAIT10NF/CQAwFAD+9M5jYvQQuQ3pbHH6+khMJ//EbkHSjjO/oMj4PQIAAGYDQN3XnpS244zMLACAgbMCMAjwpLsHABgKAKdvULfTKRGNOmkRXbz4io0apBzomAlTPXWe9tq7itcAALMBgAcDphf1lLJhvhdWrNvimR2jBQAtAF3452i/BgAYCAB3X3226Natm7TvOhHLvxWN0ZQS0d9UQEBCQoJYsGytZ85TRdC3XwMAoAYAOAh3Nmff7c/7L9kkfRPV1c/1zIYBAACAaJx1BMcCAAwDgOfuukqkp6VK+y1bDOcB/lH9XW47WSohmVnZYt3m0z1zoPYALvsaAGA+AEz6yiNS9sv3wYCaWs/sFwAAAIjKU3d9MADAIAD45m2XieysTGmfZYvfv+ps8Z9wplNIRH+1XUQqQX3KKz1zoLJB334+AMB8AGh6/nciMS1dyn7z8gs9s18AAAAgnGN28B0AwBAAuPPKs1TN97f7uw0ObKbjlL2qAICvM27SdM+cqD2Iy7wGAJgPANzFUDSqzn5DRP2au7K8WuESAAAAcOqwOzkPAKA5APBo/4Ptq0VCgrI+f8vH/ZSIkjqxiy4/5jWD31cFATygoWGut3OqZYI/nwsAUAQAxbEbA8AAMLDtoHVDOH5etHKDJwALAAAAdOmZozsAAKAxALx472ExbGCFY7/URXxujM5Uvnj0/C5+IKqE8wYrjUtWe+JIZYM/ACAQ/DmAyu4GGMtBgJz+idc8FJWdhrL5KTO8GQgIAAAAfNENS30CANAQAH7wzdtEy5LZbtT6LV/3gJTV2E7mC1kXlX5OSUkVS5pbjYAAtAD4owVg7vH3pe12+KjxntgsAAAAYPO9Kl4CADQBgL9877h4+utXiFVNM0RyUpK0TwoTl/9CRDybT8kfX+jPYX4s6oykp2eIFeu2euJQZVoCAAD+AABuBZBdD6CiaqAn9goAAAAo8dr/uggAIIYA8OtX7xP3XXueaF+zQJT3Lo06VjqMu1FP+/uXuYR+1eowIZ1mOKt7tli+ZrMnTtUpBAAA1ABAUnqmKG9aF9NHWkFJp7YYiW0Xl/Z0zVZbNu8WTUvXiumzmkT37FypdJaUloq169Yb/3jxldfFRxIrEGIlwJOOXBoAJo2qFRuWzsEjAg24dr+gYZIYP2KQKMqXu5cj8UshjjlysuQVv3gkxI9JOau0tHSxcHmLa47VaeC3zgMAqAEA1XYTi+ulpWeI1va9SmyVZxTMalwmagYPEzm5eVL3UCy08OI37773PgCAcwfOm74MJqLtRPSYF+WF31DXTS6h5btElObcbMKfWXBiRyGlDispOVnMWbBCiWO1AreqZwAAAMB+M/L4lZra4WKxwxkBzS3tYsjwMYK3zLZfF6+/6DwBAOGdcYhvE4iojohuIKKPYVNftCmfa/JbIuodwi6UfjSDiP5XtZA8z3pqw3ztIAAAAADozNZ5caslqzZGZLOrW3d01PbZzju7Hj4/1WEDACL228Wf2875RPQ72NCpNhRHenxGRIMithjJA89yS1iuXW3cvi8ip6qqlh/uOgAAAEA4W+e1LdhmN2zd06nNTpo2S3DLQbjr/P/tnQt8FcW9x385eSdAwiskPAVDk/CoESpqBAQpr4hA5QpUUYqJBkGMioKiQhFELSpX8IGUK1jb66PV0oJWxBpQLKIgonIVsaUVGkB8tPd6W1trp+cPrM3r5Jzdmd2d2f2fz+d8NtmzM7v7n//ju//ZmeHfGjtuBoC4Xroo+sS3GsBfWX8a60+IZPJnAGfG1RaFB1D/0s/dEnDbdnli4hTvVl9jADge5OlN+Vhf2XkA3NIVXeqlF/fGnH9RPQigF/u6nuTaBB+BBwoGgJgem7pi7wDwN130n6/DNwCh0Xmnx9QUF39oBeAdtxo+NS1NDB05tp5DbS5Qu/UbZwCOiLEv/lHkFPYOfMCR1eW63ViTLqkSLXN8eQM4MO3EANDIe1Mf/zXRLz3xBaad+V4ct+VBL9P+jbQRQDcAtW42IAVg6j91K8DHq5cBQM00um7qiG519z6lv8jMUrqaVyidPQNAPZd7MoDNuuk6X4/j4C1r068A6FhPQ3z6px+A/3NTEVJSUkW/AQNFxYzrPQeBsAPAOY+8LCKpabLKyuX5ic22DjAAfO3RqwD8xU0fy3X7Fsht2wWAB5ws7/u1Nrnwx0gAX7itRK3btm/UzxrvCV729zADAKX+c4tOcaKgXIYDvrQOMAAgPfqUt8ptv8r1GxP8jwCY4EL8VlLlOABfeqFMHQo6i/Lxkz3JBoQZAIovnSvtxL3QBz6HMQ7Mlj6FHADaA3iVdTuYuu2gXR8H0E5JpHaxEpp/WPkcAbGEVdCxixg9bpKrIBBWABi6ZrOIpKbactix2on3sxNzogMhBoCC6JPe205kxmUCZ2v0on25izFbedUXeD08pX2HAjF4WLmYWnWNchgIIwBw6j9wTsRIkAspABQC2M+BPPQ2uBfAFAA08sO4z2g/XlpJTk4RNDvbsNHjRcXMOUpgIIwAwKn/0DsfLYAhhABAT/4c/MP9/sxWAPQQnWxc1G9wwTQnNU1P6IszycrKFiV9Tj0GAxdXXuUYBsIGAJz690df/bITnc8bMgCgeVV26dwefG2u+QZ62l8IoKRBDDX+X5qq8gMdFIdmF6RFWGgFtslTrxCVV85NCArCBACc+nfNwH2BYB3sTuYaQgQA9LS3SUZWXNYo26WJnDYAuA5AqfFRPs4N0NusL+mmoNRdQFDQo7BYnHpamRgyfIwYdd4Fx5YmplncaNW2iyurRdfuhVLOu2W3njGn14017a5f+0sqb5S614ZtnNoiR6S2zDXqG9Fkzv601BSR26qF4y+tUdCwPVT9n5ObK7z4Pv7kU2FZDnixqrZxUk9WVpYn7emFzrh9jvR06TU9aN0G49P7cWJ+o59TAdzrRDlNL2MKAAxdu0XpW//5A0cZAz4Ngat8w15x+u2Pik7DxoskD1fvK+1VKFYsuErseW6t+NObG6S+R3esEzt/uUosua5S9OhSoBQGXtyyVSow1x75xJPyGzfVqLjv8xt5M7U76H2pr7zwcycXFopLpk4Ty+69T6x/dqN4a89eT9rBq/b24jzTr5gpq1M0oVNoPzRM0NVZA70wJDvnMAEAVKf+01rlipFPv2UsANQFgiGrXxAturi7oE9mRrpYPn+W+GzXeqmgHwsaCAZuvvJiEYmoyQrMuWGeEYHDAACg7OhRO/7E7rFdu3YTs6+bI7a9ttOINvMiiMucgwFAnl1omMt2u4ps6vEmAIDq1H+/m+4PRPC3QIAyAjk9+8qSf5PlM9LTxK8evtOVwN8QCNYuvUEJBJxxZpkRwcQAAPiRW36tuLhEPLBylThQ+5ERbSUTlL0sywAgDwBUA3UJUL+XJzMHumVkidSrOwAcT/2rm+s//6yRgQr+FgSMePINQe80JNLmdo65d/4sT4K/BQNzq74rfQ/UD/r7A7XaBxbNAWAogH/a0ZVEjm2VkyNuXbyEA79L3UwMAGoAwKqFFhJ6IxHFNvUYnQGAU/9HbMFKr+m3SAfPunpMff5upf2tgN9we3j706Jzfnvp+3jhxS0MAJYXs79NAUBDv6TboW4dgwafLd58+13t28XLJ3bV52IAsK/s8UqQMcyJDon4vK4yB+VvnQGAU//2AKD8mfeVvij5xIoFnj79WzAwb8YU6cCzavUa7QONxhmACpX+jUZ8zL5+rjh46Kj2baI6IHtdHwNAvHDu/PdOAB51Iy2m0tjs1qUrAHDq317wt7oC2pWWSQdP0qF+vXv6EvwJAmr+e5n0PSxafLv2wUZTAEgD8Du7fiTW8cnJyWLp3cu0bwuvA7Vb52MAcB7gEy15BoAtsRTetP06AsDx1H+pdBCw2iJIb/1bgT7Wtuto+T50kptfT/8EAPu3PCbd9nNvvEn7oKMpAFRZdiO7jUQiYuWq1dq3g1vB2I96GQASDePyx30bwDZZI/G7fHbnHrb6mWMFHpX7Sy6bJx0A6so1aG/9NyfrwklXSMvOz6d/qxugbvs5+fvqa2ZrH3g0BYDdTuTdVJkld/xA+zbwI0i7eU4GAPnAbreG4QA2mto1kN4mTysA4NS/s9S/BQWFk2dIA4CfT/8MALZfvFM5ERCtjyKtP1QHTejjZqDjupuerIoBwG74Vnf8NwE8DOD/VRmRF/UkZ2RpAwCc+pcL/gQBsgCQnpbqW9+/FfxpK6v7nAFw5NjoHSdp2ffq3Ufs/1D/YZhBhAgGAEd6r7RQDoAZxgwfTEoSY2sOaQEBqoex9bvpPi3uy3o692IrCwA08U/dQOzX37KBiAHAtk9LB0CLwEgBAPX7P/PcJn76d2mcfzxoYQCwrfeuFugVrf37AN6VNSw3y49e/54WgZKm580vGyHlgCw5UT1eBFzdzsEAcDyAMQDY9mvllu3IbKddWsHB36fgT3DAAGBb7z0rQDAwG8ALAL6QMTLVZQc/+KxWwZKe3GmVPqf3SWWDMte/XcBgAGAAcOjRVju1N6tcZmYmL+DjY/BnAHCo+T4UywZAowgWAHheRerNMkIn2343LtcKACjoyWQDwpj6t0CBAYABwKE/2+/Ed9QtU3lZFT/9MwA4VL9wF0sC0APA+OjSm7cA+DGAVwDU1jUwt/7+xpRq7QDACmh2swFhTf1b8mIAYABw4EoLZH0Lzfb3m+07GAAYAByoHxdpTgIZALoAKI1CAQ05vADA96JwcDmA6QDmAvi7jAHnDxylLQDYyQYcS/0/tVvre7ECtVtbBoDjAPCt0waImbOqtf5Omqxk0iYVwwAnyPgPKjvg9DMcB///2fuBuLzqitB/q6++1rEMrZcD+R2A5kJpcH97U8aA01q11mYkQHOB8bSFPxR0rbHuNcypf0tuDADHASCWjgRwvwoAWCIrl9tudz7pz7bXdsa0adnrMqk8rZRoBXKnWwaA4Ab55u5sjayiD/mvXxvx5Dxq3TuiYFB5I4eRXzbciOu3ArVbWwYABoDmHEWM334q6z9e2vqq4+DFAHBcZxkAYmgn744rgWpZA+4z81ajAmjdbEBqdisx4me7jLp+BoANzc43IKvPISqvIgOwU0ZeeXl54o+HP2YAkJxDgQEgbpzjA2JI4GwZA6ayeQPOMS6AHhspcNZI0W/eCuOunQGAAUDWZk+UVwEAn8lcy+CzhzgO/pTq5gwAZwBixDXenaAEaPbBf8gYcVJyiqD0uluBieuVn+Y3ERlyFwB3ASToM6zDaAbARl1qdvZNq6hkAJCUIcmbMwCWSvLWiQSkVyY0rRsgkYAYtmMYAOSCmZ3Ap8mxshmANrL3cfMtCxgAGACcxCwuo1AC82UNOadnX84AbPHmSd0tMGEAYACw6VNoiLFUBuCOH9zFACApQ2oDzgDY1Fw+vJ4EviVryFR+8MrnGAIMhoAgAMBnu9ZLBSQVdmBQHbIZgCLZe11+34MMAAwA9YIR/+O9BCLRiYEOyxpzwaDRDAAMAM2+oe/2CoH7XvwxA0DiAUUWAE6S9Rl3L7uXASDx9oqp25wB8D5oBu2M0vMBIClJDF2zmSHAUAgIQgZg4yNLYzpJ2WAVwPKyANBWViYLF93GAMAAELRYauT9DJE1Zirfadh4BgAGAN+yANdWXMAAkHhAkQWANFmfcVX1NQwAibdXTN3mDICRMVeri6ZFhfbJGnRSJCIGPfAMQ4CBEGB6BuDgKz8VeW2dLwUtq/sGlpcFAHJgUsuTjzlvLAMAA4BWgTDMFzNPhRPLKewjxtbUMgQYBgGmA0DlxHNjPiGp0OsA1qECAD6QkUtxcQkDAANAmGOuVvfeEcCXMgZtle07azEDAAOAZ10Bd86t4uBvP5CoAIBnLZt3so1EImLPe/scQwDPBHh8GCZ3AWgVR42+mKedGHLDMinZLcW3H3uNIcAgCDAxA/CHl58QFRMbL/DUUB/5/ybH66sAgGWysn147aMMAPbhrR7wMgAYHXO1uvj+AP4pa9RUPreoVJz3wgGGAEMgwAQA+HjnL8S7zz8i1v9wiZg19XzRJqdlPUeoQG8/BRCW7xgFnqdKVuaTJn/XMQBs37FLZGRkhP7bIT/fsQyt5YN5OWAF1hCQKjbIGrVVvseEyxgAQgIAVpsbvN0cEPv18jakJxHLzs4W+373oXQAswIZbz9xJEsGAC/NRu9zDVDpxPvPX8kQYAAEyGYAVOqMT3WN09sstby65BMZE6lMzD3LljsKWhzsnQX7puTGAKClffl2Uc+pcsKRlFRx5tLHGQI0h4CQA8D7AGhGTP7Yl8A6WV9xUvfu4kDtRwwBR9QF9KaCfHP7GADsK36QS3xT1YgAcg4pWS3E2aueZwjQGAJCDgCXBtmYXb63q2QBgMqvuF9uXYDmghv/Fh8sGABcthIDq79HhWFbdaS3bieGPlzDEKApBIQYALYAoImw+ONMAt0AfGXZudNtXl6eeG/ffs4C+JQFYABwpvxBLtUSwEGnBt1UuZTMbFF295MMARpCQEgBgGayKwmyEXt0bzVN2bvdfdMqKhkAGAA8Ulk+TSISmGTXiOMdH0lLFwMWr2EI0AwCQgoAcxIxAj4mrgSoC0XqRUAqn5SUJGTmBeBUf/xUfywZcQYgro6H9oD1Koy7bh1JkWRRPO16MbbmEIOAJiAQQgBYy6l/ZT6NsoWf17Vxp3/n5rYWr2x7nTMBHmcCGACU2ULgKmqnuivAcg7t+w8So37+NkOABhDQ/fwK6Sc4q10N2G4CkBo4S/X3hqRnBbT0pmPHTmLHG28xBHgIAQwA/hqP7men5YL/YRmoym16mzxx+m2PMAT4DAEFg0Izpe7LAFrpbnAGXl8n2dUB6/qVoqJi8cab7zAEeAQBDAAGWpzHl7ywroGq/ju/bLgY/vjrDAI+gAB1xWS07RCGDMATADI9tpswnW6lSr/QuXMXsWXrNoYADyCAASBMZursXmnWL0qduhYoktMzRNHU2aL8mfcZBDwEgbJ7fuZam7qpLzbqpuzVLdzn78zwbZSiIYF/sdEucfWuRYsW4v4HH2IIcBkCGABsaHmID80BsFulgTdVF60m2HNKtRi1bg+DgMsgQE//rXv1j+uIm2onQ/a9DoDmrOePNxK42Q29mPAfE8Xud95jEHAJBBgAvDGOIJyF+voOuGHkDetMzsgU3c69UAxcvk6M23yYYcAFGCiaem1Qg/9RADMBUOaKP95JIB3A3oa2rOJ/WvZ2wcJF4re/P8ggoBgEGAC8M5AgnKkvgD+pMOpE68jK7yIoWA1+8FdibE0tw4AsDGw+fKy7BUknpbsnAAAD5klEQVRJQQMAeuL/HoCMIBiaofcwXNWy4k35h3bt2ok5N8zjkQIKIYABwFBL8/GyBwH4c1MG6vY+6iLILxsh+ly5SJz1n0+LkU/tZiBIFAg2Hz6WUWnTd0BQAv/fALwKYDGn+n30Bo1PrWxYYCx/EolExMCBg8T8798qNm6qEQcPHeXMgEMoYABorMC8J74EaOngT2MZqJf7acGh3KJS0eHM4aLTOePESeddLGhym54XzuLvhbPEyROni87DviMy8zq6Efh/AmCuh9/LAYwFcAqAtPhqykf4IAFql+1e+oD09HRR0qu3GDW6XFw05RJRNX2GmDmrmr8JyKC09FRZv0Avf/InhBLoBaDWS0Pnc7k3EsOBbCkLRC+H8ocl0FAC3QF85kCnZIMRl3dxtFaM9mQAaKj9Ifq/GMCHMRSDjdF7Y/RS5neFSM/5Vu1LgCYR+yv7Bq2g3Q3/wABg3zYCVSIPAC2t6oZycZ16yvVLAF0DpcV8M25IgLprXJlJlP2NNv6WAcANyzGszpTo29d3sFFqY5Rug9NSw/STL9c/CUx3c2QA+xzffQ4DgH+2pd2Zp3Haz3eDdDv4/xZAlnaaxxekswSmAqCskdu6yfV7L2MGAJ0tz4drO5m7BALt6Eb4oFN8SvMlQN0BFCw4SAdLBgwA5tum8jugWdjmcDYgcM7uTuWawhWGSQI0h8gRhoBA+QUGgDBZsM17LQGwlQ0+EAb/GC+qY1P7+fCmJEAvDT/PPiEQPoGyOQwATWk57/taAkkAJgB4n43eWKOnUR401zt/WAIqJEAZwkXRlRq/Yp9grE+wunIYAFRYRAjqSI1OHEQzuR1iozfK6J8F0CoE+sm36L0ETj0xnbMVTHhr3vsBDADe243RZ2wZXVDoagD0NjkbvN4yoOF+EaO1jS9edwmQfl0C4GP2B0b6QwYA3S1M0+sjwx8PoIYNXzvD/wjARZrqDV9WMCVAWSZaV+IT9gfa+YPmHtQYAIJpj57eVZ8Tq7q5sp44O5SEHQr1ya4C0MbT1ueTsQT+LQHKEBIIHGC7TdhumwvQbv/GAPBv3eW/FEiAVnqjJV73sAPwzAH8HcATAGiVR/6wBHSQAGUIBwJ4CMD/si/wzBfYBQYGAB2sJaDX0B7AOAC08Mw2ABSo7CooHx9bZvujQ/sWRp/6OwZUf/i2giGBbABjANwd9Qe7ePSAVj6QASAYNmbEXdBa47QC4bnR5UarAawAsOHE+uNvn3ix8FMAXzAo1HMSJJM/AHjpRIq/6oQcjWh0vkiWQAMJUBfV0OiIItLje6KZKxqpsgPABwAOA/ic7b+e/bv5EKQFAPwLOlNVQJYaB9wAAAAASUVORK5CYII=;fontSize=16;" parent="1" vertex="1">
          <mxGeometry x="-240" y="280" width="70" height="70" as="geometry" />
        </mxCell>
        <mxCell id="2c4QWxnSkKOKG8GR8WA--27" value="Backend Developer&#xa;(Web Server)" style="shape=image;verticalLabelPosition=bottom;labelBackgroundColor=default;verticalAlign=top;aspect=fixed;imageAspect=0;image=data:image/png,iVBORw0KGgoAAAANSUhEUgAAAgAAAAIACAYAAAD0eNT6AAAAAXNSR0IArs4c6QAAIABJREFUeAHsfQl4HMWVv8kmm+yZTTa7yW42u/tfrmDuyNOtc7p1S9Z9H5asw5ZkSZZkndM1ki35lu9LtixZNhgw5oaEQBIggRBIQi4CJGwIBBIIRyCEG5yEUP99Y7Vojav6mOmZ6Rk9fZ++7qnurq7+1fF+9erVe4sW4R8igAggAogAIoAIIAKIACKACCACiAAigAggAogAIoAIIAKIACKACCACiAAigAggAogAIoAIIAKIACKACCACiAAigAggAogAIoAIIAKIACKACCACiAAigAggAogAIoAIIAKIACKACCACiAAigAggAogAIoAIIAKIACKACCACiAAigAggAogAIoAIIAKIACKACCACiAAigAggAogAIoAIIAKIACKACCACiAAigAggAogAIoAIIAKIACKACCACiAAigAggAogAIoAIIAKIACKACCACiAAigAggAogAIoAIIAKIACKACCACiAAigAggAogAIoAIIAIqAgkJY59Odin/A/9ygnIOHNMShj8vimP/qN6DR0QAEUAEEAFEABGIQgQy4jyfTBW82ZJLWSsJ5IRbIN+XBPKiJJA/SwKhOv+nJIE8JwnKg5KLHJNEhcguJSddIP8chTBgkREBRAARQAQQgdhGIOVy8i9uwbtccnmnJIE8JgnkLzpCXo8A6FxTfikL5LAsknIgGLGNKH4dIoAIIAKIACLgUARAlS8LympJ8H5bEsj79gt8fU2BW1C+6hZIQ9YlA3/nUIiwWIgAIoAIIAKIQOwgILkUlyyS6ySBgLpeZ8YetmtvSiKZThU8l8YOyvgliAAigAggAoiAQxCQ4xVZcpG7HCL02cTDRe5KdXnTHQIZFgMRQAQQAUQAEYheBKQl3lyfUZ5Ns/20BC/Nco/Q/Ix1c//Z0giVRVs1Bt+SxeH46EUdS44IIAKIACKACEQIgdQlI+dLAvlaIDN+EObFuWO0uX4LHezdTTetn6C7dx2m01Mz9NixY9z/yUNH6O6dh+nY2v10zeqdtLF2C12atpY92zcmJB9IonJ1Spz33yIEIb4WEUAEEAFEIHYQGPsI7FmXXd7LJNGbKQlKDRjCuQXF4xbJRlnwjsP/rDX8fvW37CIjvnsE0iYJSonb5XGniGQxWM87DZu4uNaPSSJZJwnkj1aEf468lrY2jfuE9+TkEa6Q1yMAvGsTB6bpsLKPLq/eTDOShq0SgjckF2lftGjRWU7DGsuDCCACiAAi4DAEZNfg50DAyyIZkATvEUkkd0sCedKqUDQpQN+WBPKIJJBbZVHZKQvKKlBfx8WN/W24YUl1eS6UBPITk+Wm6YleuqJ+K9266SA9evSorUKfRwZmjhz1kYxlFZusLRu4yF2yOPQf4cYU34cIIAKIACLgUATAAx04rZEF75gkkG9IAnnZrAAM8X3vS4L3cXCkI4tkTUq890sVFRV/FSoY3aLSLAnkHTPflJe+zqfanzqsr9LnCXG70kEz0Nm6nWYkm9UKeF8Bx0KhwhDzRQQQAUQAEXAwArI89onT6nuya3bmHQKnNbYatGlV3q9JArnd7fL2uxM8F9sBM6j8ZYHMmBH8sB5PhvbSI0fCM9s3SxQOH56hPZ07zS4P/MUtKKO4JGBH68E8EAFEABFwOAJyXP9nJFFpBecxZme5ZgSiA+75ldtF9kiiN1WWxz5qtRrAmY/kIvcafQeo+sEob3o6sjN+I0Jw6OAR2ta8zezSwLW553R93CpmeD8igAggAoiAwxGYFW4ts3vXjXzQa2fZ0Xr+qiSQQ/+3jJFgpmrAOl4SyM+MhH9t+SZ6YP90WNb3jQS82evbxw/R4pxRw3p0C+S+pKShfzCDF96DCCACiAAi4GwEznILSpokkGtD5akuLUGh2bKH5mV6aGHOEC0rHKSVJYO0umyA1lSc/q+r6afLqj78XVl6+p7S/CHfM0vTPTQzxUNT4xVDIWUkoDnXn/DtPHANf4FVXXK88t+SQJ7iPOsrE8z6Qd1vVug67b6ZmaN0ddsOQ20ABCpKTlY+xcIJ0xABRAARQAQcjgAM4LDNzkio6Qk87TXYx54je2hx3iCtrRykTcv7aVtLH+1avYauWWPfv8fjoWOjm+n60T3U69nrE1iw1Q2M7LTlCeIcNB83SgJJUaswKWno341wKsoZo3t2H45a4a8lI5s2TNAcydCXwA9QE6C2EDwiAogAIhAFCKTFjZztFsgBSSBvBSEkaWaKQkvyhuiy6gGfoO/psU/I+xOGoaEhunnzZnro0CFdAXvw4DTdMHbAZ9xWU7rRt+UumG/0be9zkRYjtT8QECOHPVoBGw3n+/dN0eKcMSNS9S0wEI2CZo9FRAQQAURg4SIAFvCzM9uALPhBjV+UO0TrawZoR3uvrbN6f4EPv/v6+uiGDRvogQMHAt4vD/vft2yaoF2rdtCy/PWGqu1AyMKqFdvo0aN8T33RIOx5ZZyamqE1ZRt1SQAEOcLdAQt3XMEvRwQQAQcjAN7zZiPRWRb86UkKLS8aoiua+mgoZ/haAjA4OEjHx8fpkSP2esYDITcxMU2H+vfQquINVBa9uoLNDBmAbXQ84Rkr6UCi6qs262MlknUO7gJYNEQAEUAEFhYC4H5XEpTjkkAsCf60BEJLC04Lfa1gDvW5oih0586dAc/2rQpcWC4Y6ttNS5caqrmZwq+7Y0fMC38VU9BwwDKHDin6IFXw5i2sHoZfiwggAoiAwxAAd7jgtEUSCLjL1Ru0510DK/v6mn7a3R169b6WTAwPD/vU/KqwicRxx/ZJ3154s97xOlq2Lxjhr9YHaAKqS/WWA7yvAOl0WHfA4iACiAAisDAQkASlQhLIc2YFP1jugyFfa0tfyNf0tUIfzmHGv3v3bkcJ0unpo9TTv4fmZ/J3FIA6PFbX/FVhzzuCTUCJvsbkm2gPsDDGGvxKRAARcAgCbtfwFyRB+YpZwQ8GfRXF4THm8xf8sMa/a9cuRwl+f4EHQXrWDe+npXnzlwdgZ4HTPfv5f4vdv2F3QJZ7ZJ72SNvu3AJpc0i3wGIgAogAIhDTCJwlCd4uSSBvagdh3jk40QEHPKtXh1fNDySgv7+fbtsGFvPO8olvJCDBQx4YDm4cm4i6sht9W6DXN2+Y0NtR8QYuBcT0mIMfhwggApFGAMK0ugVyD0/Ya9PleEIrigdpZ2fo9ur7z/S1v9etW0enpqYcPesPVBgu1OcgoqC2jc07F5WrI90/8P2IACKACMQkAm6XUiUJ5A/zBl2OwR/s3W9fFf4ZPxCAgYEBx6v7F6oAD/a7wSiwOHf+EommPX4gi8PxMdn58KMQAUQAEYgEAgkJvX8jicoVmoGWOwsDt7ywf187Ew/XeW9vL12/fn1I9vIHK7jwefucFsHyCBiSMtuji9wbiT6C70QEEAFEIOYQSIrz/KckkB8wB1vN7D81ntDqskHa3R0ZdT/M+vft24fq/mP2CVonk5aWxnE2ARAITXURKeY6In4QIoAIIALhREByDRdIAnnNSPjnZXhoe1tkZv2gXYA9/bjWvzAEv0pKJg8doZnJw0wSADYq4ewn+C5EABFABGIKAbfo7THy5gdqWJj1h8tdr/9SAqj8N23ahFbyC2TWrwp/9djdvoNJAICwpgqeS2OqQ+LHIAKIACIQagTi4lo/JgneI0az/mzJQ9taImPkB0QAVP579+5Flf8CFf5AAg5PztCsFLZvAFkgM6HuK5g/IoAIIAIxg0BGnOeTZrb4lRZEbq0fhD8hBFX+C1jwqxoAOOpsC3wTjFdjpnPihyACiAAiECoEEhLGPu0WyPf1Zv6wrx/C8vqr4sP5e2RkBK38UfjPaX7AQyB3R4CglISqv2C+iAAigAjEBAKnI/h5H9cT/pkpCm1dGTlDPyAZsMUv2jz6aWereB4aQ8W6Sk7EQBc5GRMdFD8CEUAEEIFQIOAWRv6fJJCn9YR/bpqHdnZEZnufql3YunUrCn+c+c/N/LVkanRkP88Y8C2IUhmKfoN5IgKIACIQ1QjM7vF/Rk/4F+Z4wh6qVxX6cARL/x07djAHfq0QwPPQzK6jAVcIlMTbEpgqKmVR3Umx8IgAIoAI2I3AabU/eVJP+JcVDkZ0vR8IgNNC90aDQFyIZWys3cLUAuBuALtHDswPEUAEohqBdNH7WUlQfqEn/KtKIyv8Yea/c+dOnPmj2t9UG/B69jIJgCQov4zqzoqFRwQQAUTALgRkeezvJYH8SE/4V5dH1tIf1f4LV50fqPZi4sA0hwAQKrsGP2dX/8F8EAFEABGISgRkeeyjkkDu0BP+tZWRFf6g9h8fHzc16wtUWOBzsUkw8tLXsUnAEm9uVHZYLDQigAggAnYhIIneg3rCP9IzfxT+sSmYw0W46qs42wFFhdjVhzAfRAARQASiDgG3y9uvJ/wrSyK75g/CH/b5h0tY4Htij2z0du1kawBE5eqo67BYYEQAEUAE7EBAdikZkkD+zCMA5UVDEbf2h4h+6OQn9oRyOInW2Fq2PwC3SB6wox9hHogAIoAIRBUCcrzy35JAfs8T/gXZkRf+Q0NDdHp6Gmf/aPEfVBvYsX2SrQEQyG+jqtNiYREBRAARCBYBWR77hCSQh3nCPyc1sk5+QO3f19dHDx06FNTAH85ZJr7LuVqKyckZHgH406JFi84Ktj/h84gAIoAIRA0CkkD284R/RrJCOzsiF84XhD/8Y0hf5wrUaCM7R48eo7LoZZIAiHQZNR0XC4oIIAKIQDAIyALJlwTyAYsApMYT2rIisoF9QPiDf/9oEzJYXmcTlqyUYSYBSEsc/q9g+hM+iwggAohAVCCQlDT075JAXmYJf0irq+5Hoz9cb49J8rU0bS2TALjFkXOjovNiIREBRAARCAYBt6B8lSf8S/Ijv90P1v0nJydjUgChhiCyGgIeAZDjyBeD6VP4LCKACCACjkdAEkk9T/hnSwrt7opsWF9Q/e/atQuFP2ogQtIGeN4AU5eMnO/4zosFRAQQAUQgUATA57kkkFdZBEAWCW1dGfl1/9HR0ZAM/DjzjuzM2yn450jsJQAIfR1ov8LnEAFEABFwPAJul/cmlvCHNCe4+R0cHMT9/jjzDykBTI1n7wKQ4/o/4/gOjAVEBBABRCAQBNyiksUT/rlpnogb/YHqf8+ePSEd/J0yC8VyREYbMTXF9QPwfkVFxV8F0q/wGUQAEUAEHI3AbJS/x1gE4LTqP/L7/UdGRlD44+w/pG1gz+7DzB0AkkBecHQHxsIhAogAIhAoAnqBfqrKIm/1D7N/9PYXmVnxQtJGbBg9wCMAPwq0b+FziAAigAg4FoGUy8m/SAJ5gzX7z5I8tKc78lb/mzZtCunMbyEJOfxWPpEa7N3NJgAuctKxHRgLhgggAohAoAi4XWQPS/hDWlND5K3+BwYG6MzMDBIAVP+HvA00121lEgC3oIwG2r/wOUQAEUAEHImA2zX8BUkg77EIQH5W5KP84Z5//mwVZ/L2Y1OUPcokALJIyh3ZgbFQiAAigAgEioAkeI+whD8Y/q1qi/zs3+PxhHzWh4LUfkEajZgenpyh0O5Z/QF9AAQ6wuBziAAi4EgEkl3K/0gC+TNrwCsrcMbsf/fu3UgAUPUfljYwOrKfKfxxB4Ajhy8sFCKACASDgCSQQyzhD5H+Otojv+0PZv9Hjx4Ny+AfjTNWLLO9mouVDeM8AnBtMP0Mn0UEEAFEwFEIJCYO/KskkHdZBKC8yBnb/tDfv70CDgkDH08gmjnyCJsAiKTJUZ0XC4MIIAKIQDAIuEWykSX8Yfbf2eGM2T8KLL7AQmzsxWbzhgm28BfIB2kJw58Ppq/hs4gAIoAIOAaBhITev+EF/CkrwNk/Cld7hWs04LminrP9TyQPOKbjYkEQAUQAEQgWAdnlbWTN/sECuj3Clv+w86CueogOe/bS6Wnc+x8NwjPayzg5eYSmJw2zNQAu0h1sf8PnEQFEABFwDAJugXyfRQAKsyNr+V9XMzBvEC7IWkd37ZxEI0DcBRDSNtDfs2teu9P0jT+CrYxjOi4WBBFABBCBYBBIifd+STPAzRv4VjZHbt9/1+o1NDVemVceKCfMzNZ694VUAET7DBbLH/iSxZEjR2le+roz2t1sH7k+mL6GzyICiAAi4CgE3IJ3kkUAsmUlouF+W1b08QZhXzq4aJ06jEsCKOwDF/Ys7JSBPdx25xaUNEd1XiwMIoAIIAKBIhAX1/oxSSC/ZxGA2sqBiBKAFY36BADKDDO1zRsnUBuASwK2tAGY/eemruURAIz+F+hAg88hAoiA8xCQXMMFLOEPW/9Wd0Z2619TQz9vIJ6XLote2tIwTqenUBvAmtFimnkNQU/nznltS9s30Pe/88YvLBEigAgEgYAkkBPaQU49L8qNrPEfBPxZvswcAVDLXJg1SrduPmjLTBCFpnmhGStY7d83TdMTOZb/Anlk0aKxjwTR1fBRRAARQAScg0Bc3NjfSgJ5WxWg2mNjfX9E1f9AAGoq5u8A0JaPdw7aALANOHTwCBIBXBYw3QbA619t+Sbu7D9V8OY5p+diSRABRAARCBIBnvo/LYHQ7u41EScAVaVD3AGZRwDU9MyUYTrYu5vOzGDcgFiZoYfyOzz9fMM/SSDfDLKr4eOIACKACDgLAcnlnVIFpvZYkhd59T9oAMry2erYwZpGmps8aIocwLIARHQLpfDAvKN7uWDP7sN8pz8COSXHkS86q+diaRABRAARCA6BsySB/FYr+NXzxvrI7f0Hwa/+56ayA7H8+IBIn73yYtpf3WSKBMB3VRSup+NbDiERwGWBeW3g8OEZWpg9ym9HLrI+uG6GTyMCiAAi4DAEeM5/wPq/q+tDIawK43Afe7r7KKznq6REe3zl5AX01K1n+/5vX59B893mjQXrKjfR7ePoSRC1Fsfo0aPHaF0Ff91fEshPFi8e+2uHdV0sDiKACCACwSEgi2RAK1TV8/xMz9wMPNxCf977utme2ErTeueEv0oCXrj6IkrqljPJgvpd/seaso10fAvuGFjIRKCteZtem3lPXuK9KLhehk8jAogAIuBABCRB+Yq/UITfYHk/TxBrVPLhTO9o3cgcnHsrm84gACoRuG97Cq3J7mI+x/pWSKsq3kgh7OtCFoQL8du7O3bothNZUFY6sNtikRABRAARCBaBsY9IAvkDSyi2tUTW+Y9KMqpL1zMH6JmBQi4BACLw1o3n0uNDeaaNBFUMinJGqWdgDzoTWgA2Aj0dfGc/0B5kgcwE28PweUQAEUAEHImA7PJepgo+7TEtkdCeHges//f00dQE9vr/Tw6IugRA1Qa8eM2FdMeqCprOCCak/Wb/c9g+2NGyne7bM4VagRgjA7DXf9UKXbU/lQTvt3PP6fq4IzsuFgoRQAQQgWARkFyk3V/wwe/8LGds/2tvZVv/L00ZoO/cfI4pAqASgaePXUrHGpfRVPHMqIIsDNQ0WSS0tnyjbwvhzBH0JRDtywTgJnp59WamVkmtc0kk/5uQMPbpYPsXPo8IIAKIgGMRkEQyPTfoCWRuUKwuc8b6f0052wBQWdZgSfirJACOPz8cR4fr6y0TAcApK2WEtjaO+4wGYRYZ7cJwoZUfXPyWLB2ba+esti8J5OmkOM9/OrbTYsEQAUQAEbADAUkgP2INgiubIu/+t6url6YlstX/d25MC5gAqGTgiSOX0/XNtTTN4tKAilde+lra1b6D7t2NSwTRQCRGyD6akcx2KKXWqSSQX8vxyn/b0bcwD0QAEUAEHIvAbPjfU5rBb25mtLoz8uv/PP//4Pnv9RvOD5oAqETgmSsuodvbKml2cuDuhsHLYGfrdl8AItQMOMsbIMSCaKzdMte2We39dJr3cbdr+AuO7bBYMEQAEUAE7EIgRfRewhoMM5KUiG//AwPEzBT2Wv2WlVW2CX+VBMARnApdoyyllZndJoTFh8sl/hhmuUdoU90Wum54P506jGGJI6UdAOc+yuAe37KNfx2d+Vv5nhzX/xm7+hbmgwggAoiAoxGQBKXizIGQ0ILsyDsAaqjje/QD979awW33+bu3nEO/Oe6mPRUrKBgAsjAym5Ya76WVxRt8SwWb1k9QcDcbKYG4UN4LGpixtftpUY7hWv9s3SrHZXnsE47urFg4RAARQATsREASFcISZJUlgxHVAED0wUy3hyl420tbQir8/cnEr6+4hM70FdKKjOC0AirO4NIYjNBgCxpoCCYmppEQ2LTFEKI9wjq/CSM/tW390S16e+zsU5gXIoAIIAJRgYAkKEdVwaQ91tdEdgdATTk/ut/9O1PCSgBUQgBage/vSfQZDWYn8cunxdHsORgTwra0Nat30g2jB+iB/UgKrGgr9u2dot3tO2hu6lpVsJs4Kr9MFZW4qOioWEhEABFABOxGABydsITUigjuAOho76WpHKv8FYXt9L1bTgf+UQVzJI6vX38evWurREcb62iOzWRArQ/YbliWv54212+hfV27fD4Idu2YpJOTRxypMYD19v37pnzbI0eUfXSgdzeFIwhnK8Lc7L2ARW/XTlpesJ4bKErF0u/4viQou7MuGfg7u/sT5ocIIAKIQNQgAFue/AZH38ypfVXkXAAXZPMt8R/cnRiR2b8eyXjzpvPovdtTfJqBPAuRCFm4m03LSBr2rW+Dc6IV9Vvp6rYddBAELtlHN22YoDu2HaIQ1x6WF6amArM5mJ4+Sg9OTPu8IEJ+Wzcd9JGQof49FNzntjWN+7QWFYUbaF76Ol1biaVpa2lz3VY6sGY33bxxwpevWUEP6/ngiXHj2ISPCNVVbqbZEts5lCF+InlIcimuqOmgWFBEABFABEKFgCSQ9/wHTTB6gzV41Q9/OI+8bX9QRnDcoyeInXANPBOCe+IjvYW0rbg1IEdD/vVh1+/0pGGfNTxoFkCA5mesm/vPSvnwGrg/tuudevmAe+f8zHW0LH+MVpdu9JGJhpotdFn5Jt9vWMcHlT7PDbRe3oxrv5Fd3rpFixadFaq+hPkiAogAIhA1CMiXjf0TY6CkGUkkIsK/pbmPO4uE/fnPHb/Y8QTAn4TAtsJ7xiW6rbWKLsvtDItgZdXpAk77tVsgbYsXj/111HRMLCgigAggAqFGIHXJyPkswZAthX8LIKz7ZySz9/xDGW8YyY464e9PBuD3K9deQMGIcbqviK6paqYQz4BVB5gW3NZLSSD3wxZXWR77aKj7EeaPCCACiEDUISAJJIUlaPIywksAOjvX0GyJL/w9yxocYfjHEujBpsHOgl9Mf4l+ZX0GPdBVSvurm2hFZg+SAk1MClYbNUh7Kuo6IxYYEUAEEIFwIuAWyVLWQFqUG74ogF2r19DcVPZ+fyhbaVovffnEBTEx+7dCFl697ov0kYMuetvYaWIAgY9WFqyiRXKfY8kBhFouz+ih4KcB7DW2tlbTlYWrQmYHoRO/4YVw9qOF/K500ftZSSAJbsFbKwvKatlFRmTBOy65yHq3oHgkUWlNFT1FEHIcHS0t5JaC3+44BHheAEvzw+MEqLNjDc3REf5ZCUM+IWhFcC6Ee2HXwVNHL6Pf35tAb9+QTmcGCumuVRW+XQigLVld3kKb8tt97ozz3f1cuwoW+VPTQJjDs1VZ3bQxr4OuKmn1LVmsXV5PN6+s9i1h3LQ2m963PYU+dngJffGaC7laGiAzD+xKoseH8uj6plpf2awufRTI/b4ybFpZTU96c32GlpCvWl6/45uO62wxUiB3gudiSfAOSi7yZUkgL/rhzqsPNf0vkkCekETlCkkkTSlx3n+LEVjwMxCB6EPALZAGVgcuKww9AWhf1Uez3Hy1f6qo0Hu6pQU38w8VgQFhCQaJrP9nr7yYQjAk+AcbhbduPDcsuL92w/kUojH+9KBAv7c70ed6GXwrwDn8Q/qzxy+h4HOBhwu0E0Ybfj/6eqNzS+yzFXJ5t0gC+Q0Daxb+ZtOAEHxXErxdycnKp5yLAJYMEYhBBCQXaWd16Iqi0BKApoY+mpbIHLjnBo6TVbn01I7IO/zhCZ5oSQeB/sN98b6lhKneIrpjVYXPeRHM5NX/TStq6P7VZfRqJY9+a5vbJ5TBNiEavjErke0zIiGh929isMuG85POShW82ZJI7maNESFIexe8kiYL5LxwfiS+CxFYQAiMfQTW4tyi0jy7TvdjVkcOVRwAiO5XWWrsQveqijx6as3Z9NQuJABWhfBLJxbTr25I96naq7O75ggVq5710sC7YVf5Sgqk4eEJgTqVEMAyBes7ZIFcczrOhVIiuwY/t4A6edCfKscrsiSQH7JwDUPa+1B3SXGe/wz6QzADRGChIxAXN/a3kqDUSIL3Fkkgr5rpwFWl9msA2lp6aW4a39gPyiULhM4JfyAAu5EAmCEAvz95Ab1tNMO39s9RiTOFpJm2oN4Da/A72yt9ankzZQrXPcWpvSa/zfs4uP9FL4D8ETEtYfjzkkBuVes8wsd3ZcE7lntO18f5JcYriAAiwERATlDOkQVyWBLIW1Y7sp0EoLu7l4JGwSikbka8h95em3565g/CHwmAoQr+V8cu8wllcJJktY6DuR8MDO/YmEbfvjnyywTmCYDWr4DyC1j+wmWCD4cOMMqTBPKa1XYBOzFqsrvoUG2Dz9nVRFcJPdJf6POEeainhILRJvi7CGJr6yOgtfywpHiGCCACXATcruEvSAI5IQnkfaudWb3fDgIA6v66mn6akawdeNnn+Qn99PtNCfOFPxIALgGA8MQbmmtDtr1ObQdGRxjUb1+fEdHlgcAIwFw7/J3kIt0L2VnQrIbwuFFda6+Di2sIj/3DfaIlg9GXTy727RrZ3VFOS9PXWCGtpyQXaeEOengBEVjoCMTFtX5McilrJYG8o+2sgZwHQwAghkBddT/NTNFX96vlaklro79uv+RM4Y8E4AwC8MaN59FDPcU0I8EctirGoT6CRuDHB8QzyhuOZYAgCYAqhH6e6iLSQhtDkpIIhPhoAAAgAElEQVSG/l0SyE/MtA/wPwH2IKB1sqNewabk2ztSKKlbTmHLqZkygEZzIZO1hdY+8XtNIgDqfgminAXnPW2uEwZCAGCNH7YPGln3q2WE9f7dReX0re5z2cIfCcC8gfahvQm0Oqt7ro5UHI2Osuj1Bfypr9pMu9t3UE//Hrp+3X66ecPE3P+GsQPU69lL13Tu9EUWLM4ZM1yy8X8v2B7ADoM/XH/+vHLbISz08rCJAACuf3GLZCsQaZPdLqpvc8cPXcCLBKqtW5ipXzecQ1+/wVy9vnXTufTJmcstOe96/uoLfU6jzNivuAXvbehQKKqbHhbeTgRkl5IjCeQNbafVO89NGKSenAZ6pLSQDufWMwWKWQLQ2dFLq8sHaU6qOQavlqsqpZs+xFL5g9DX/qMRoG+dfbKnxJK6HyL7NS3bQtd699HJySPUbNhd7X0QChjCCq9asc0X6letO6NjbfZq+rPJuLCRAB4BgC2Nu9oraEtRmyXs3CJ5QI7r/4ydfdRpecFWOyMnPjArB9fU4KtBj4Bpr0Gobm19wPZSIATae/TOf344jnZXrGCOSfPanUjuRuNAp7UqLE/YEYAoZ5JA/jyvczC0AFnxQ3RDXi39flMifbvnnDkhO1NeyOxsZghAy4o+mpZgTfCDod/BkhL6Wvf5c2WYJ/C1wh81AD6nPKvLVzLriFXnFYUb6AjZR2eOHA1I6GsJgP/51k0HaWPtFpqW4DUsT2bCkM82QG+wt+uaVuBoMQHPhOo7fndiMb11NNPnSVB7j875k25x5Nywd+gwvDAtcfi/JIE8p/PtvqiVj09ZI3Hgb4K1JfPYQMFcPaj1YXQE99fQhvTKCLuaKioq/ioMkOErEAHnITDrxOcDvU6SnTBED5WU0N91LmYK3GAIQF6m+XVoUPeDtuHJ1suZ5eCSgAWsAQBXv2BdrVe/6rXq0o10x7ZJ24W+PwmA3xMT07SteZspIjC1ppjrHthICJi9boYAaPMCnwYQcEnFTuf4XFrcyNnO6/mBlygpaegfJIE8ovPNPv8RVmb9KrYQ4ZKVLxgMqvdYOYJ7aXBDzcpTTXML5EDgaOCTiECUIuAWvMslgegKf2/ucvps+8W6AjcYAmBmrR8Ev5LTQH/eEqdbDiQA8/0dPDF9+TxVqjrg+R+LcsZ86/gsQR3qtH17pyjYFfiXyf/39rbKkJIAqwRAFUIgsIwEDKyRg6FclA4T/sU+y2iPPyw1vXfL/Lao4mV0BOdT/nUPv5flrA6IAMD7YNdAj8GSgOzyNvp/KP5GBGIWAbdrOFESyClWZ4O07PhB+uXaDFMCNxgCkKpjuQuq/vV5tfRnKwMU/OpSwALUAEBoYHC6w6tfSAefCqvbdoRE1W+VOKwb3k9zpLW65YWogIEKFiPBEygBgHwhPsJoY51u2cG4NhaMziSX0qHXpq5RlgYsqAHLUBAAyBeMDyG4lU7Z3wODxpgd8PHDEAEVgdnQm9wIXMXJvfSxliWmhD/MukNBAI6V59OXOy8wXQbu7H8B2gA8d/xiWmawPzo3dS3dPn4oLOp+s2Tg0MEjtLJog94g7du+aCTMA7keDAFQ33fFYL7urgdZIDNqH4zGoy+Yj0De5QnRI72FQQl/wDFUBADyhp0lsJTAK78kkB/g9sBobJlYZksI6KnwypLX8PfTqzNqv2MoCMDvV9sk/BcYAYBBriGvQ2+Qo2X5Y741eLOCOZz3zcwcpa1N47rlv3ldVtCCRhXa6tEOAgB5gZGgrrdK13CBpc7qnJtB9f8tnvDc2lJtS52EkgBA/UAUy/rc1dz2JYtkwDmQY0kQAZsRkEVvNa8TFyT106faLBrYhUgDgATA+hoqqMchMh+vfiG9tnwjPRIC6367SUJP507ud4ADIwjxqwpvO452EQAoy7Ukl1t2SSAvyJeN/ZPN3Trk2bkFby2vXTUXtNM3b+KHWrZSP6EmAFAWCB0NQao43/MGaEhDDii+ABEINwKwBsmLxZ0mKmw3un6zfZaqHTUA1oW1lUHR7L0nh3UFj0/4h2Jrn93CX81vzWo+CQD3wWDcZRYbo/vsJADwri0rq3gChkIEzXD3/WDe5/MOKpCnWAIT4kfY5dUPcAsHAYD3gKaG9T2Q5ha8k8Hghc8iAo5EQBLIEK/RHysvCHi9HQlA5AnAUzOXU15Me6jzquLomPmrwl89drRs4w7U65trHUsAYEaso2p+F2JtOHKQYBRKEpVW3rhxfCjPtjoIJwEAbZnOzoBTsjj0HwwoMAkRiE4EwOOVJJCXWB15RVo7fUfj2Ic1y9dLQwIQWQIA/tDbS/kWzkvT1lIwsFOFajQdjx49RpdVbOKSANiGB4Ij2H+7NQBQnkcOuvS8B+6KkpHkLElQfsEaN4DgmPHQB3YpsDsACBssUen984z0cpMHdZ9T8xxvraJf35JqarcIbJPluw1WdkdJ/WAxEQFjBGb3/DMH0h82xQc8+wdigAQgeAEUjACDSHqsARrS0hOH6c7t4XHuEypicfjwDC3IXMf8Rohr8NaN5t3E8nAOBQGAd21cUcMstySQ18GhjnHPjewdsy7Cmd9wz7hkSLxgiyTs4ee1z1ClA+68utamg/Eipwx/wDDPkW17+HYbEZAE73dYDb0/uyko4a9HACCSX36W/j+rTJCGRoDmSMXr159HS9N6eYMY7e/ZFZUzf38yMb7lEIWARKz2Av76tYN6IOehIgDPHr+EG6XOLZAVNnbxkGQlCeR6FuYw+wfNkxHWV3nymHXGytPuNPDWaFQ+sF/gaQFkl7cuJKBipohAOBGYDdf5F1YHe7AxMWQEgPU+s2lIAMwRAL0Btix/PT161H5//v7COVy/O1q2M4UJ+I4PNnpgqAgACKDRhmXMcksC+Vo4xwGr75Llsb/nhQW/bTTDULjCt29oruV9e8jTQTNmRADgOoQS5oxLt1vFDO9HBByHgFv0drIaeLW7m75nwspfb/1fTwPAeqfZNCQAxgQADM14ggv2ou/aEd2qf39iAZEFc2W2t8BgPdDxcNQGAzIjTFj3/GBfPE/A/DEjzvNJxw0YswVKFZUyVn/NThr0eT9kfat/2lgjl/zwMLElHdo/eMP0Lw/r933b2fEHJIG8ByTIqfWD5UIETCEgCd4bWB0ZAvwYCXcz13k2AKx3mklLFxX6Vve5tpTNV/4YdQUMszAenhDG11+AxsJvz8Ae5jfDMsg7NxurpFkCANJCSQBAVV6Uyl6mgTV2U504AjfJAjnMal8g1Hk4+qdHigAc6ikxXca3bz6H5ksct9nR67gpAi0GX+lIBCSB/JbVkX/UHJzxn0oO7CYAPZnN9gn/GPYEyLOYTo33UgiyEwsC3/8bYFcAzyDw3u2B7wgIJQEAoQgx7Vl90C2SjY4cNBYtWiQJyi9ZZb5zU5pp4cojAOCtcltrle3/h9cUU9C4+BMRo9+8ckoC2ebU+sFyIQKGCCQmDvwrqxNDoJ03u8+zRdDaSQAa5Q76zKpLbCmXSlBOxaAGAOKss+oV0pZXb45J4a+SgaG+3cxv9yxrsDzwq4Ih1ASA53jGLShfNezEEbgBvBXyIoW+cPVFpnHmCda9HWWm81DrKJTH2zlRCN0ieSAC8OMrEQF7EJDF4XiWoGhObbdNyPIIAETy+15joun/x1vjgvJHMCfw/e0aQkwAfndiMX3kkIt+b3cifWBXEv3OzmT66CEXtTJQWh3cpnqLmEIQ6nrzhomwEICDE0coWOfD+3z/Gyfozh2TdHJyJqTvnzo8Q9MTz9wRAC6CYduZVSzh/lATgMcml3Dqy/u4PT3d3lxSXURijRu12dbC8kYLAfjlzGWc+iGv2Yss5oYIhBEBnu//4Zz6kBOAqdJi297BFe7+wp7122YC8MwVl1DwgDZQ00jBAp01UKppsLbYV9Xsc4QC3voCEU6sZ3gBf/Iz14XM8h+MCrvbd/i8CrIEsPrNcATnQ6CJUAb2hCTw0MoGdsAgcALDwssoLdQEAILQaPHRnL+7aNGis8I4JJh6Fc/7n2JRyxItBADsNMCtsaZe5s5l1+DnTIGGNyECTkNAFpRVrEa9q7DCNuHM0wDEEgEA16GwxmwQU3xu0GBhDmmrSlrpHRvTKBgeGQkl3vVnr7yY+x5wnauqyu04QuCgYc8+Wpwzyn0n71vVdNi/D978No7Zp5mAvNT8tUfYdsbDTS891AQA3p2ZwBEw8tgnnDdueDdpcVXPrRjXwTfzCMD2tkpfZD4gRnb+B2MIyiPVKUuGBafVD5YHETCFgCR4e9XOqz0esnF2HusEACLP8QzutJhaOQfvaHdtNfakxhJad2xKYwo/eP/WzQdtIwAgZAuzAhf8LDzKC9bT8S3BlxGCGrG0EJWZ3Y4lADxL8+Rk5VOmOnMYb5Jc5Bir/m5am20JXx4BYOVtRxqQrMGaBgoOmFh9Ry9tsKaR3a9wJ0AYWx6+ylYEJME7yOpYkzZtAQTVfKwSAJhNzPQVcj2FsXC1mgbLCM9fZd6oCgawHasqmAMVCESwkg925g/77Vet4AfhsfqN/veDRqClYZzCe4IpKy9GwG8t4gmYhkMDwCMATlQx8zwA3rnR/A4AwDXcBEBta8uXdloOUTxczw6l7RZIg62DMmaGCIQLAcmldKidQnvcW1SGSwA6QWTAmGxNVTNT0GpxtOMc9rD/+grzMxZe4J/K4g1BCVQQxhMHpmlREOp+K3iULB2jYNAXKAno6WSHCw4kQFA4CAAYKbLwcaLPeUkgt7PKanWrZaQIAJTd6nbA0cY6Zv3IgrIyXOM1vgcRsBUBt0tZxurIYKEflGGdxtgu1jQAvz95AV1ZsIo5GLCwzEj00OV5nbSnspkO1TbQ3som2pTfTiGddT8rbX2T+bVrnuFh+8rg1v/375umualsT3usMqcnDdPinDFaXbqR1pRupJVFG3xLBjyf/aw8Otu2B0wA1q87wMQ3EK+AoSYAQChZ3y8J5I+2dnibMpME5Sus8n57hzVfC3s6ynnfHfJ0q9oKnttit0DabIIVs0EEwouAW1DSWB25Lb0VCQBDA/DGjefRDp3QuiqWRXIfBYMo2PoHLnlZa4tg6Af2A0d6C2lVVrfugAeEgZWHf9or13KtyanXszdgYQrhgmEHgfp9vCPc09Oxk45vPshdbgDVPmwLbF+xjWa5R3TzBDV+oBqAA/unmXmDgZk/bka/Q00AHjvM2wZIfh3eEcHc2ySBnGC1Aat2Kz/cJ4Z0CY1VRjXNKgGAcMXqs9ojRFI1hxrehQg4DIG0hOHPaxuzep6bMEjfXXOOLSQgljQA4J1MxYh1LJD7fVv6IAqfkVDRXodtRndvlWhdbiczf7MaAPBvzioXpG1aH5iVPQQMqi7ZyM0X8s5LX0fJ0B6u0OcJcdhFAI57cjg+/Ls7dgRMACBvlrbB6lY1qKdQE4CvchzNSAL5hsOGDF9xeG6AbxnNtNTuAduvrM+g0G947TZU6VYJQHfFCmYZZYEUO7GOsEyIgBkEzpIE8garkz3WsgQJgEYLAE58WDipabCFz6rBnpYEwDloBab7iuaFiK3I7KHPHLvU1MAKGge1PP5HcMLDE8R66QO9bM96av6wn/9wEGv18G5Y62+u3zJPYIMNwOEgnQZlpZypYYB68sfd6HeoCcA4j1iKZJ+ZThzue2TBO67Wv/YIbdcIS9516DvgQ8Pu/zyOLw6rBICnpUtdQpLCjT++DxGwDQG3QL6u7cTq+fGKPCQAGgLgreeGBfX5cn/rpnMDHvz8B0XYy3/D2mzf7AhsDvyv836DEZZaf/5HUInrCXreNb2tfmBoZ2dIYXAm1Ne9y+dbINhdAPA9rLgAYAHOw4+XHkoCAD4kKjLYS0Bul1JlW0e3MSMwfPNvX/DbrKaKh3Mo0gvcfcw+YYUAgIYuPV5h5pMS5/03G6HFrBCB8CIgiQphdeaVqauQAGgIAOwfZuEERn3BOBixc9CDNVhWGSFtYiIwApCfwV77b2kcD4hQ8IhGKNJZBAB8LFjFPJQE4JGDLl6dfZAuej8b3tHA3Ntk0ZPMameBkCurdWH1fjsIwNPHLuXV0dtO9NRorhbxLkRg0aJFsst7GaszQ9rjLXFBk4BYsQG4Z/xM4QoDnpUZutXBy+r9X98s8wYqCr75AxGyaxjb6WrKNlpe7w/k3cE+wyIA1dldjiIAXLsSF/mxUweolMvJv7DGjFRRcVR/gP5jBwG4eV0Wp18pDzq1jrBciIBpBCSB/JzVoTflVyMB0GgBwGCpPKPHZ7kMM/8Xr7nQsjCxKtSt3A/bsFj1CGmwjS8QgQrOg8AYLzNlmEIo4aZlW4J20hNIOQJ5BmIO+OPRmNdhuc5CpQF4+cQFNDtp8IwyQpllkQyY7sARuFESyJP+2MLvb467LeEL2rP7tqf4jGchhobd/zx8rSwB8Jb/3C6yJwLQ4ysRAXsR4C0DpIkKfart8qBIQKxoAKwI4kjd+9DeBKYwgYF529ZDARGAQASvE54B24S0hDOjAsI2Tqv1EyoCsH91Ga++3pfFof+wt5fbm5vk8k6xCMDGFTWm8YVttWCUycon1GlmCQAQlKUpA8wypopKmb2oYm6IQAQQkOP6PyMJ5B1WpxvKbkACoNECWBUe4bz/iSOXMwcqqNextfsXFAGYPHSEiYVTtgH+6thlfGdQLnIyAsOApVeCgSJrvIAZt9mwy1cO5THriJWv3WlmCcCD/N0/f8qI83zSEmh4MyLgVATcAjnA62R3LksLmASgBuBs0zOiYMnCazeczx1Q+3t2LygCsGPbISYWezvLLNeH3RoAsCrvLFvJLB/0QfcS5XKnjhNqueTLxv5JEsh7rDED1szNtGWef31WnnanfW2zudDQ3CBAAvmmigUeEYGoRyApaejfJYG8xepo+Qn99OlVlwZEAhYqAYBtgXduSqOwxxv8iE90ldCHJwRTA6OZwZN3T6HM3vbUVLcl7ARgenrG54Fw5fKttLF2CwXXviCYw7FEQAb3MAXsdcM5luvAbgJwbKCAWbbZvndjtAwmkuC9gTVetBS1mcIY+gTr+XCkPT4VZ1jGp2YuB1sMZhndotIcLfWE5QwSgYSEsU/LLm+jWyQbJUE5Dp6wZBcZcYtkaVxc68eCzN4xj/NsAaBDLpc76aurv2iZBCxEAgCDS012F3PgWNdQR2GmzhPgwabzghQV5YyFRfCqwh1sDlhGeOCdb0X9Vgqe+tR7Q3GEbYosQQJ2ElYxtpMAgK8GsJZnlQ1m1HK88t+OGRAMCiILJJ/zHdRMXICXTiympelreFiELN2sv4Kd7ZW8MrwjimP/aAAPXo52BP7PFWeCJHhvgaAcvIYuCd5XwBoU3OpG+/fmntP1cclFHuV9a3t6C32t+3xLJGChEYDfXHkJ5YV2VXGFML/gAMaqIDJz/4GuUuagBTOZgwcD2wlgVUDv2X2YZiQNM8uhYgAaAav5WrmfFbUQMAhk26ZdBOD7exIpxKRXMTjjKCokmsYQWR77qCSQp8/4DoH43FqDZ0ujNgs7ISCsNmjJ1i6v1/1vK2YbDILdARBfo3+w5r9pbTaFJRijcsHsnxewyy14J6OpnrCsFhGQxeF4XshLVmOfTfsjWMY63XrXCAp3gudiSSCneN/ZmtZGX+pcbJoELDQCAIMYDzttutXAKUYDlnqd5a9AfW8wAYGsCF+I/qe+U++4aUNg8QmMygJbHlnvhVgLKk5WjnYQAKiXrEQd4S+Q+ysqKv7KqH867bosKKtYWEPayeHcgPDm1c0dG9OY9RqIcyfeOyAdyHkPx/e/JJD33eLIuU6rByyPDQgEKPj9G2XUEwFJVFp5nRrSq1K66aMrXaZIwLFy9nrnZEmJqeftCkvMzWe3fTPxP1x/PuXFdffHMxBrdL1BS732yskLuCpm8NtvJDyDvQ6RA3nrpv4YNNdtDUl5BjnxC3Z3lAckkHh2FaDCVnHnHWG2CWv+Omp/GD9eSorz/KcNQ1jYs/BpDQXyW/+6hd/ghOe54xcbYsTDzj89XATgy+sz/Mf0D3+LytVhBxlfGFoEbBL8HzYSwWc4EtVEQBKU3axOraZlxHvosfJ8+lb3ubqC/KoK9lafAyWlus9xBfaas+19bpd9BADW/lV8jI612dZd0voPiLzfPFVpeuIwhe1xwQp5vee3bj5oGoPSvPUhKUtZ/hizDPfvtBavXsU3O5k9czfa7gZb/brK+db+s23kPRh/QjvChTZ3MIjjtffW4jZqV5yMcBAAICw874Fgo5GWOPxfoUUTcw8bAiES/P6DT1QSAVBHSqJyNa9jq+nLpE56T71E3+1hhw8+WZXrj4fv967CCnsFeaDEYId9BOCnBwXmt6pYaY9g/KQKGLuP1yhLueUI9XZACDus/U69cwg0pEcmArm2Y/sk8/3gzOXNm6yFaYZ6AXUwb/bOy+93JxbTQz0l3DVkDSZ/dMeTwrANeKF70VmSoDyo+a55dQDGdHa08VATAKjP1qK2eWXXfpMseDeFDkLMOWwIgHEfLwqetsK152nSGC3svZ5W7riPVmy9m+Y1zVBJ1Dd00j4P7BH22keTseAsCbjC7zuYHWS51Emvq8qhL3deME+w31Sdzbx/W0HVvPvCNuP3JwrbY48AQDRBnhoe/OODe99AhKuZZyJNAGDLIau9blpZHZAQel3Ht4K/Mdkjh1x0x6oKytMY+JXrPdhFFLZBL8QvShU8l0oC+bPfN87Vxa2jmQHhryUOoSQAUJcjuvY73sdhuSPEMGL2oUQgkBk/CP4Schttuv03dMU9L877X37jE7Sw8wSV4y0RgWjTCJwlC94xSSAf8Dq3Nh3cB3dmrKRg/Hd/Q4pvmUB7XT3flF/jDAKwNfYIAAyafdVNc4Ovirl6HFb2xiQBAOM/lvtf+O4f7osPSACBlbqKm/YI4WFhyQc8ym1vq6S8ePHaZzTnL8IkJJRjXSTylgQypPnGebiBFgUs8LUC3ep5qAgACP+trdXzyuv3HX9KjSdiJDDFd9qAgN2CfyESAbeLlEoC+YNfx9DrNLrXlCBdDNumMdgQmwRALzBQXvq6kO3Dj6QGoLluC7PNNeW3Byx4nj1+CTPPwPuB8mC07xTSGZLPkkTlTh42oJWC5Smrgl+9PxQEAOwTRhuWGdVxn8434yWnIhBqwb/QiAAsX0gC+Rqvg1tJB58Ctglxf7W+ld+jsUkAYFajp4ru79kVEi1ApAgAeBgEJ0OsNnj7hvSAhc4vZy5j5sl6j0EabK0disatflbG99m4Ik/pYQFBkAIxDAQnSqx8zXoeVImEeoRonhAcipWnmiaL5LpFixadZQUDvDfCCIRb8C80IiAJSokkkCfUThLIcZm02hkEwBubBAAGOV4UM6iv9EQv3btnynYSEAkCMDNzlBbnjDIHcthtARHd1EHf6vEnB0Rmvhba/AfgMjctbuTsCA+LYXs9fKskEFjm4GK3orCdArmyUh8vXXMhzWGET57sKbGUD7wTyERpWi+3fL6yu8i9uO4ftmYT/IsiLfgXEhEAF8jgHlkSyE/1OjrvWn5ivzMIwMDCJABQLxWFG2w3CIwEAeju2MEdyCEegxUh438vPM9rwwbpf5Jc5KTkUlzBj2zRlwMENJIE8roeRuAY6frhHFOe+dR6+ea4ex6xBa+aYKipXjc6Pn/VRRQ8AuqVy3dNJA9htL8oaXdOE/wLiQhAE5EEkiK7yIQkkBcMO9bsrEAWCH2j+zxnkICb7CEBVrYBloVwG6A6COppANR66mrfYasWALz7qXkbHYuyg98GCO/jqf7bS1uCdrlsMWQtGMr+QBK8g9G02ydUw/zszgDDMWF5XqdvRm7WPTa4c4aYDv87/SXTgv+Vay+gVwzmzyMPvPbpFskD6Os/VK3CxnydLvgXGhFYtGjsI75O71I6IGiSJJDvgpczXkd7svVyZxCAa+0hAM9cYd5gbGXBKtODlyrQrR7NEAAQnmu9+2wjATs5+/BZbaCqeGNQ7923Z4pmpbB34KTNWulbxcz/frDwZ5V9dsvbU5KL3AWxQCRBqYCImjYObzGRlVsY+X+SoPySg+E8bJcv7aQQSjiQeA3+9ab+hmUGqEOIF2CmDLBcExc39rcxAX6sfkS0CX47iUA0ziwkF7mX1fkeaEhyBgE4Zg8BgBlMRWaPqYEGDKHUQSpURzMEAOoF7AHGt9gTphd8DGS5R0xhAKp7M74FWPccnDhCwZEQq11B2lRvkS348rZTugWyIlbHV7u/KzlZ+ZQkkFt5deWfDgGTQE1/22gG/fUVl1iqx7duPJd+f28CPdhdQpsL2rn+MPzf6fPxLyijaPBnd+3bmN+s4Ldkhe7bxz/8Fdp0x5n7+P0Fs5nfDbc+yfQJYOZZ/3vqr/tfmt923LJDIUkg+6OJCED4ZEaHozdXZzmDABy0hwCAIIe9zqxv1abBbASc9YRK8Kv5miUAULb0pGG6ZdPBgAWyVkj3de0yxCAjeTjg6IQQ1RDCG2sx1Z6vLFxFzUSiU3HSOy7L7WS+x+3yuG0c2hZCVme5RW+PXqAxbR1qzyEWQ29lk28mf2wwnx4fyvP9XzecQ0+QXLqno5x6ljVQ2O6pt/NFm6ff+W/leEVeCJUQld8YccF/9wu0et8DNKt49+nBQBymS5uO0rprHpvnGMhfwJv9HetEQBbJGr8O58Nxf3GZMwiAje6AQQuwobmWKTQAA3AgE6pIgP6CzAoB8JUt0Us32xCh7+jRo7S+ajMXA3DWs3EssEiA+/ZO6c78C+R+Cksx/lgE8hvqkqc6RnV/YKJETlDOsWsrMWtMsZj2F0kgV6UL5J8D+xp8KqQIRFzVD4L/wHdpVske9mAmeunS5dO07vgjthCBYDwLOlkjIC3x5rI6Zm9mkzMIwHr7NAAgaEBwgCZAuxwATlBWl7dQMBQMRBgF8oxVAgB1BDYBvV07g9YEAAkAXwO58tq5vlRlQxkAACAASURBVAMYVJdupGAnoNUYmD0f33KQ5kgf5uffpoBcgfo3EKxYz+jYdLyNquLghn63S6kyaxvgX882/f5GqqjEBfcV+HRIENAIflPuZ6FB6LnsNTsTn7vPSPD7729FIqDbDk4bAp25J7goqdcZBECxlwCowgSIwDPHLqWPHV5CwaWsmh6uI48A1OeunhPKvMEUQvVOHZ4JSFBrBTrYBIC/ARD6k5OB5QdkApYVUuPZjn7gG8DV7FeDcPjDqpNvbJHZOLnIj3UbPF40hYAv1oig1EgCeYzXDm1O/4skKF8xWr5JTBz4V0nwHpEE8nNJIL+y+R+cJN0Ri66gTVW63k1RJ/iRCOhVp+ba2Ef+zwvau6zO/FLnhc4gATeEhgSwBEu40ngEANzbgiMWVn1o03LktXRs7f6gSYCWEFg9B0v/yqINhmW9luTaTrAOdJVy3us9omnceBo8AmfJoidZcnmnJIG8pm2DNp3/CiL5mXHGtHjx2F9LAnnEpvdy2o9vMnRKXuK9KHjoYiCHQAR/asooLR682R6DPKszfn/B7/8bNQJntErJRX7M6lQPNsbWToBwCXcz7+ERAIhjD17VwGiKVSf+aXWVm+nunYfDSgTA0G/Vim3c4D5qGWHmD1vHzOBh9Z7V5SuZ+LhFb+cZDRwTbEFAlsc+IbuUDEkgmyVB+Z4kkD+pdW3hCDFLvuEWFE9KvPdLVgo2+25mvVt4v6nnZZey10rZYu7emBP8SAS4bXTWUdAZHeNIaaEzNAD7Fo4GAAgACEM49lQ2n1EnrIEO1u+blm2h28ft2S7I0wQc2D9NO9u2+7YmssqhTYPtYndvlUIi/CGWQm4ye++42zWcyG3oeMFWBGR57KNuceRcyTVcIAneXregjMqistOnLfBpDJTdkujdIIlKK4RXluOV/w6mAG5Rada2sVCeuwXvbcGUNWqfnRX8lrfzldq1ne/uF2jVvgdoZtGsVb+/4Ob8rkpW6M0lHnooz0Nz4s9c0+Y2FtFL85pmaP3Vj9pjLHh99G0fdAveWhY+PZnNziAAmxYeAQASAEFZdJzdMMlBad566unfQycmpm3RCkxPH6WjI/tpXeUmrlc//7ZTntFDHz3kConwB1yeOHI589vBAVDWJQN/F7WDLxZcFwHw7+Df1kL1e8ERANnlvQw8LZmNLQ/AO0HVX5lE6I0lQ/SNpkH6dvPp/xcbBul0vofmJlgjAgt110Ba4vB/sTpSTvwgfafnnMiTABtjAlhVNYfqfr0lAP93gs97VqAVVp2pabBjoDRvzDdjB1uB/fvMBReaPHSEggtf2G1QU7qRpibwjfvUd/kfrbiB9f9WM78hgqD/O2d//1BXguDFqEYACUAIqi+WBL9KANQjEgHzDUYSyG9Zg+qjK12RJwAQQvia2NICWCEAIBTB6xo4XGHVkdk02OOfn7HOF2gItvzBf03ZRlpZvIGC73+zXgKN3re+qTZks3/AAvJnlQHUz+ZbPN4ZbQjwCMDa5fU+/xKwNdTq/y2jmcy2FPMagFgW/CoBUI9IBIy7uiSQ61mD6rHyfGcQgImFTQBA8MHWRdhOV5q+hjloseovUml27vnXagVg/T9f6md+vzueFBq3dLwjWhHgEYCtLdUBE04IPczqIzFLABaS4FcJgHpEIsDv+pKLdLM6Qkd6izMIQIzZAVjVAGiF4Bs3nkePD+VzBSGrHu1OA8NDMFKEwD6svMFNL/h+15bbjvOfHBCZ75ME8peEhLFP81s4Xol2BJAABFGDC1nwqwRAPSIROLMh+ax5GQaWaaJCX+m6IPIkoP9seuqW2NECBEMAVEH6+vXn0RvWZtPabGPnQSwhHUgauN8Fw0SI5AblgMBJvHyO9hfYTgAOrylmv08kD53ZqjEllhBAAhBAbaaI3kskUbmT10lZ6eC5z26r/qxC4yAk2rKAVf9tJZ55xn2qALfrCEQgWncNwD5V+bKxfwqgSXAfkQTv49o6UM+/XidHngCAHYBNkQFVARrJI48ADNQ0UjD6e/2G800LT1gagJkxCOYiuY8tIBnkTq1fo2NGoodC5L0bR7LoyycXzyvXazecT8Hqn5UHbAV8+tilvvtfuPoiXxnvGZd88eV/uC8+IA+MEEWO9S5JJOu4DRsvxAQCSAAsVaPPw9vm2djY7E7jNygsFMHvTyCimAi8kCp48yw1C52bZcE7zhpc1+bWO4MA2BgYKJLCH97NIwAq/rDOf+fGNN+6v5Wywho5uDeGJYLh+npak93lc8Wr5mvmCDsO2opbfYQCgiOpvgl45fjmuJs7voBr42U5fA1FVVY3negqmdMo8N4B6b+96iJuCFmrTmV0ugFecigCSABMVsxpP85soy7WALBQBT+LCBxcqkSbH4E/SyKpN9k0dG9LXUKSWO0jO36Qvt51XuRJwGDsLAPkudmGbP74gxC3og1gCVB4/pFDLl+kQ4jjfo2ylE73FdFDPSX02EABvX44h96xMY3etz3FFx8BNAqsfPTShmobuCTA/5tYv8FrIFj3g5D3fw+U54FdSZT7Dhd5HgMA6XbtmLiIBMBkNfq8MfnN7lmdzimC/9bS+fv4/QVzuH+DRiDKiMD7kkBSTDYP7m2zxPF3rLby9brUyBMAWAa4wrpw8hcoTvjdUtRmWmDCbBxU7U4oN68Mv7nyEm54XlZ74qUVuPt8SwTqe8DWAL6fd/9s+juSqBDwTMdt3Hgh6hFAAmCiCmdncRBLmdtpUPB/6DRIj1xEGRF4Ji5u7G9NNBHdWyQXOcZqOyRnuTMIwPbYIADgJhcs6VlYs9K89cspqPdVwejE44Zm9v581vfopYE24LaxDAp2AtnJQ6YxkgTlQXBqpdvA8WLUIoAEwETV/d9M8Ju8zmW34K/e9x0aiHGf02b8eiQArkUNEXApHSaaiO4tqS5vOqv9pIsKfbHDAdEBY2gZ4MHdiXRdQ50v8I+RTQDUSagC69hBJmD5AAQ3q+0EkgbkCHYcBPDsa7JIynUbOV6MSgSQABhUW7JL+R9eh8mumqCNX346eH/3EJ1vgQh+f2LgBCKw7IqHaVoqLwSr93GDJmLiss949BlWOzruFKdAR2JDC6AVvO/cfA69f2cK5Vq5C8Rn4W9kkKfNM1zn4KXQaKYuC4Q2pBDqSVd8/3AOaax2Zkuayztlh0bMRIfBW8KEABIAA6All9LB6jxp6Zto4+2/Dk74L2DB7zQiUDP5EHfgTBe9nzVoJoaXIaoXqx1Vu7voe7AOH+n/DbFHAFRhDc5zRhuWcev3hpFsxy0DKMv4BoAZIqH7lnrob5afuez2TP0QPbDUQzOsBO+yRhp+7k7wXGzY4PGGqEAACYBBNUmi9yBr4C7x3BK48A9Q8FcnExptqn5/QW/0O5IaAe7SyxJvrkEzMbw8GxyIaUfy3aakyBOA3rPpqetimATcdC5t5RgJtpe2OIoA6Hjmo6WJhP6kZmguSBevP/20doiWJBkvH4A/AlgG+d2Jxb5og2uqTIVLfg8mRoaNHm8wREAUx/4xOVn5lJ3/CQm9f2P44tkbkAAYICUJ5FoWAajac791AhBFgv+t5kH6dP0Q/UH1EH2kZog+z5ht8AYfO9JfWB7+XQP5bVcyZ4lul7fSoJmYuiy5yF2sttSf3RR5AgAaiN2xSwBAG/DQ3gRm/cLaOHgAVDUGkT5uXlnNLGd2PKGP1hoLf7X/PVY7ROEZVptT02CrovZ7YXvg1UoeTee4I1afmz3eiq6CTXX9M25yi0qz5CLP++GpW1cW7oWJxo9SRSXujBf7JSAB8APE/6ckkKtYwFdsvcc8AYgiwf/c8kG6O9dDy5LmDxywtrjCrdDrioboa5owwepgE6pjOInA0oZpZge0iwDIorea1ZYA21+0finyJABCBN8UuyQAhFtxai+zjn82GTdPEGqFYjjPwW4hN5ltqHe0wGM489f2Qwjn3SzxtQCww4D3beDjoDq7i4mVXxt+1u3yuP3HTfzNR2DWKPgDPxzNYG31nheNPJsiAeDXk++K5CLrWRWVWz9lTACiSPDDwPHlUo/hjAGwqE1R6M8tzES0g1Kg5yoRMJrRzKsr0UuXNs3Q+qsfNayrpjt+Q1NTRpkdzL1EudygmZi6HBfX+jFJIM/OK+Ps+uvm/OrIEwDQAhyKXQIAwq67YgWzjsFYkCcMw5n++FQcs3xZIqGvNJ655q/Xnw7ne5h5QfsDb4Z/uF7fDwIYR/LCBPu14fdlwTsGPi9MdYQFfpPk8k754cetp2DvSxU9RXpwIwHQQ2fRokXSEm8urxKq9n6HLViiTPDDIHJVIX+wYH1/Try5tUi9ASqQa0AEJvLMEZW5chsRgbtfoPltx3md8B1ZHvuEQTMxfVkWyZq5cmmMrzLiPfTZ9osjTwJI7HgGZAluiLbHwv+7e5IcQQAgNDGrfP3p1mb/36saoqma9qXNMyPB41vvZ+HDSrt9QzoFV8baPDjn97tdw18w3RkW6I2SQG7l4GcGY2v3iEqrHsxIAPTQWbRoEQz+kkBeZVWYnDBCS5RbaeNtv/IRgeavPUcrd91neR9/pI377q8coqkWHKioWMAyAQjkQAR5sM8EQwSWzfyErrj7edp89wt02RU/pbl1h/mdSlSuNmgili7L8tjf89rTeEFV5AkAaAGmYlMLAEsAZelrmHX98ITgCAJw3XAOs3ywLGe2z4Ahrf8Sntpn4Qhui1mCXi/tqaOX0ZUFq5hl0+Z9um0rJZY6xQK7GQlAlFU4bxlA2/DBIZAkDpvpIHP3qIL/9TCuqfsPIm82D9K6lPnr/drvMjrfu9T8wOT/bjt+B0QEBELlxBHfv8H3/UUWh+Ptbq5ukWxkvRccAz2z6tLIk4Dh2CQAPOv6tHjFMW6Bjw/lzY0P2jYC2/7M9Bcw3gW/ANpntef91U1zwZDAFTKQIj3Br70G2yn3rS4z623xkBVrdLv7mJPz4xGA1OR1FORIIP8wnmnree4cNQDBN4WsSwb+ThLIU3OgclRrVq7fXOKhkRT86mDyrQp9t6Cp8noqJ61lNy6B+GwGfm9xbVJ9t51HIAKbsvgDn5W6Ue+VBXI4+NZzZg6JiQP/KgnkXfU92uPGvJrIEwDQAsSYYyBw+dtZtpLZjmFmqxV0kTz/8voMZhnXZiqmCMCNJfz+DMGSTnpzfQGAStM+NIYE9T7YRoBm4JVrLzDE4v6dybTQTIhkF3k01eW58MwesLBTeASgev+D7CXle140TC/ovIbZbiQkAPY0NgiNKQnkTe1gHcw5WOjaKQADzWtbDltogme82iM/Ot3w7n6elo3ewW5g/0eG7q00vzUp0HKaee4eAzJjqb5E8lBS0tA/2NN6zsxFEsh+VnlSBYX+vCUu8iQghmwBQPhvb6vktt9rSa6h0AsXKeBtVSxOJBS0dXr9AHbw5CYErs2D9piVOESvHMqjsBtB75tfuPoiatJnwLtGQujM3hHbKUgAorR+ZdGTLAnkZdbAbTXNKQSgK5VNAMq33H0G61y6nL1NDgwI9QamcF2zkQB8N9T7m2e1AG+w2s3qzJWRJwAxsiMA1vZXl7dwhT/Mfn9/0njWqycM7bwGlvdgpMdqF3eW6fczWCZgPRdI2urylYa7BIBYHR/KN+UzwO3y3gTObqJ06Le12EgAbIUzvJmBlaskeG8x2amelgTC3O/pFALQ6GYTgLqrztw6Vzr8FeYAA1b54RLyeu/RIQAvSQJ5y0SdvQMue8MVAlUSiJdXprvrpciTAE/0+QX48QGR7ukop31VzbQ8o4fZXrWYO2n2rxIJ3sy6Jlmhf+BoDl9tGqS55pz3GGKi4gMeEt+66VxdTQCU+ZGDLlqV1W0m319DZNXwjtjOexsSAOfVieUSyS7vZbNq3EckgUDseOgAIOyflkVyXargzZuNBf9ntUNpj04hAPVutsqw/tqfn6EB4C0D7DdpoKQnvO24xiMAbsF7W0ac55NugbS5BXKPJJDfa+ribclF7pVdREkXyD9bbghBPABGUpJAntOUZW4QrUzppq93nx95EhBF3gG/tc1tKXoe2AQ4MRzwHZvS5tqBf9uYzmeT7W+U89f+/fOw8nuyp8SQAAAJAM2FXrwFzTv/LLvIyEL2GYAEIIhB06mPwnoxK1KWJBAkAAZrl3YIf8hDjwD4txvwwZ17TtfH/dPD/dstkAbN4Dhv4D9QXBp5AgAxAq41bymuzmIjceT5+mfh25TfTl9xkOpfixeQkmW5nfPagvoNmSKhv6w70+ZmZ6519X++1E8rM7t1SROEI3762KWmSAB8AxgxGkUx9H2Li9ybljD8+XD3Nye8DwmAE2ohTGVAAqBvuGSX8LdKAMJU/SZe4wsV/LA6wGuPYBD4WMuSyJOAKIkUWMrZ46/FFM7BGdBLJxabFmpa4Ryu83vGJSYB8JU/bf6OgG+WeygYCfp/J+93W3Er/f7ehLnvf+maC+mmFTXc52Hrn5XvfnLmct0QzB+Wy/uKO54UmugkMXULEoCYqk79j0ECgARAv4UsWjRrXMqMFNic2k7f6Tkn8iQgCpwDjSyv5woxEDr57n5foBsnqv1ZAnagppH7PXeUDdGfLRuka9LYNjwfCtkPiUFFZg/92uZU5t5/8Acw2ljHfB88xyqfXhr4DABbDAi0xCqLJg2WTffb6W3TqL9F+joSgEjXQBjfjwQACYCZ5ia7yIRmUJw3aE6XFUWeAAyeTU/d4OylgF9fcQmt81OdgwobjNkgwh2sU+sJLadde+aKS3zb8ljtAlxx81z9+t8POx2ODRTQN27Uj3j44jUXUnCK5P88/IZrgeBz3/YUWiD3M/P0e89P5TjyRTN9JdrvQQIQ7TVoofxIAJAAmGkuYEPCCxQESwE/XiFGngRssY8AgLU+rBf/9KC9LnjBah3yfGBXEoXAOk7a4heIAL1iMN+M8GTeA+Rn08pq+vzV5oU3bP/zE8y+348dXhIQAYBvfv6qi7hBmPze9Tb4pjfTX6L5HiQA0Vx7FsuOBAAJgNkmAztH/AbEucEYdgW8uvqLkScBQS4FgKp5XcN8VfPmldUBC5dAhGo0PQOEpj539Vw74LUP/3TY4fDYpHWhPVjTwHwXhAcOBjdYdjk2mM/VMGjLD7uoYNeO2X4TbfchAYi2GguivEgAkABYaT6SQE5oB0Pt+bqldZEnAANn01PXBa4JgLC72m9Sz3+4Lz4oAROMcHLys+Bxj+fCWMVOe4T9+HdvlQLCEsgGz8WvFS2CHp4Qj6Eiw5TPgF+544cusNJ3ouVeJADRUlM2lBMJABIAK81Ijuv/jCSQF7SDuvb8RGVu5EnAaOAhg2EtWvs96nkgEer0BE0sXAMHO0WpH/rsV7FiHZemDFAIJATGd4F++9SaYmbdwBp+oHmynoNlmbUGBpuz3/iqvMR7kZX+Y3DvWW5x5FzZpWTY/Z8iksVmfRsgATCopVi6jAQACYDV9izHK7LGudS8QTlNVOgPmuMjTwICdBAEgp4lwPZ2WNtqxhIssZT2xPTlFIQ6CyttGqzzj7dWUdjKF+j3Q1TAXasquO+COAqB5q333K2jmTQ7aZD7Xt93iuR/Wf5VrPapdNH7WbdIHtBiF4Lzx+QE5RyjsiEBMEIohq6HmgB8rcxDSYZCe9IC+8+OZ2/TqT/xM9OeACuSAns3bGHaku2hj9We6dgkEP8AVhwBOb2JSS5lLW+AKkrqpc+2XxxZEgAOggKIGPgVTrQ7sAvQExYL6Rr4KDDjWrenYoXP0DEYbO7aKtEyHf8JQDCCMQA0KtsTRy6n4JSJ19YhXRbJmmD7q+QiJ/XeYeO1+43KigTACKEYuh5KAnCsIDTuP6EzWCEAwXYeICE/rg6eBMQSAVi0aOwjkovcxcO2Qe6IvFEgbA206CXwwd2JzMEetu8ZCYuFcl1ZxjbEU9tCbfZqeu/2lKDweuroZb54CWqevOPWltAbaL5503m6GghJUH4ZrEiQBPIq7xttTv8LhI/XKy8SAD10YuxaqAjA7xsHKW/2bkeDDicBgPIOZbB9nFvRBMQWAVi0CNSWevYAa7Ka6duRdhIEYYMt+AeA9V+YVbLaKAilhSLked8JHvpY2EAa4DbdV2QqQA8v/9dvOJ/CWn9GorHr4Ia8jrBuo7x5XRb329MSh/8rGNHAG4d5WAeTLrsGP6dXViQAeujE2DVewws2GNDTdQZrZ6eDE3E7lFEDDzcBgKiEVoQ9695YIwDQFdwuj1sSyB959bU5v5q+B6F7I/m/1lrUwOV5bD/3sOedJ7gWSjpvGx4If3APHAwOoDUA3/+8tqRNh62HsH8/mPcF8uzypey24RaUtGBEA28c1n6zXedIANg7fSAoWzB1GJXP8hpesATgzRCE/9R2ACvRALXPBXo+kokaAF4Dnw0YxAwrDXjvLSqLLAEA8rHR/M6Ag90lTCEEwWmizVtfIEKO98wr115A0zme+KZ6iwIWxuAhcahWf1lB22/BedDr1+t7DeR9Q7Dpq8tbmG0DfGTw+oeZdN44DHEhIPxyIP8ZCWwtChIAJABzbZLX8IIlADAD7kxlq1K1nTnQ83ATgKsKkQDMNRrGiSR6N+jV5VRpceRJwA5z/gFA1c/zEX+opzhgQRes8In08xDOmFXHQIzAUt9q+WBL4NH+Aq47Yf93waxfGyTI6vuCvf/Z45dwCVCq4LmU0S1MJ/HG4XduPscyrup3FnO2aCIBQAIw1zB5Dc8OArBvKZuBQhCR7+1ONPXPc8phZQkA9vSafV+Bu485yH2vCo0A5xoN++QsWSDX+A/a2t/HyvMjTwIOmCMBXRyXs6DqBmdB6iBrx/EP159PwZPdyycusDVfO8qmzQPW97X1qZ5vaK61XO4HdyVRMBZU8zA6wr2R1L6Ap0CeG2JJIG8EGyyINw4jASArWG0jGONPWGpi5YlLAJp1eTsIwJ1l7F0AEO5TO7Dona8sWMWsrNqjPzljG2CJ5xbmvTBw6b1Dvfa7E4uZz6eKhL7ciASALfc/TM09p+vjkuD9NqtzqWlTpQ4IHHTYmAQ8PCFwtQCw/x38+KvtJpgjbDvMTT5tLwPqdSfbGQzXs6MZ3jKaaRqL545fTHn5qG2Ed4TteLAtLxi8A312ZqCQOTb4yioqV3zYCwI7QwLAxg1iL7DaAxIANl6WU3kNzw4C8CTHEBAsfMGtp5nOyDM6Kh68eR4BaL7reZpZtJvZScF618y7vrMzmfl8XQoJ2gAQlkRi0QjQv8ElJIx9WhLIw6xOq6aBTUBEDQPBR4AJEjDWuIzZHuA7IIIdqMTNtCvWPW/ffA7dwXFu8wOHuh3m+fyHwEmsb9Smwfde5cmj2cnsSYHaNoyO4JgHHPRo8w71OXwfLwqhJJBTaXEjZ/v3A6u/eeMwagCQAFhtS5bu5zU8OwjAW82DND+B7cjHbCAQnmtWOX6Ylni/TJff8Atad9WjdGnDDHewNjtb47H89VnB7wBYKAQAGl+6QP5ZEsgjeoP5lvwq+k4ktwiaIAHgva5UxwkN2Ansaq+g4BjHihACf/OgBePhc3iN8+wMQIDzDABfPqn//Q/tTaA863l/DLJEQtNF9pihvReW9cIRSfGVkxfQiswebl25BWXY0oDLuZk3DiMBQALAaTL2JPManh0EAIRebxrbENDsrPzJmcu5+7K1AwLvfFnOatODM88S+WRR8AaAC4kAQMtMuZz8i+Qij/LqBdL7sprpq10RjCAIJMDAJgCWAnjW1Oq3gTbgQFcphXthrZhFBmD9GrbJ8dqYmhccrx/OYebByjdcaaB615ZRPYdYAHplmOxh76hQn9ceB9MVClpDcLpVlcweN7T3w5ZBwFzv/cFe012ucJF7wSGWHSMxbxxGAoAEwI72xc2D1/DsIgCT+WxDwC0rq0x33PVNtczBRzsY8M6/vlk2/R6e1eyPa4Jf/19oBAAaXGLiwL9KAvkZr24gvUlup89F2m3wXn2bgDs3pempgOe1TQhMA9HxRhvr6NbWagpe81qK2gxJhIoRzDYjaezGE5hAXtQyao/dFSu4/Qs0Hdp7eeeVScS3PAZ9RP0Hm5vRLPbYoc0HVPNgN8EjXrzvMZOu5/hHEryvpCUMf547sFq8wBuHkQAgAbDYlKzdzmt4dhEA3ro3GPSY6YRwD1hHV2eZcxCiHRyAvUN8dzPvefbKi5mDFagjX236cGBSB6hAjjwsYtn6dNZboC4JKE7upT+KdAAh2CKo01bu255CMxOCW7/Wtk3WOVi6/+qYM70N8pbidrbzA/FcS3KZfUr77btzPRS8hvL6020lHlMeRSHugF0hgWG8+MX0l/S2J34guYYLrI20+nfzxmEkAEgA9FtOkFd5Dc8uAvCb5WyPgMDcwe2nGeGsdsjyDP5anHZQgfP+6iZL+fNmOM2SPev/MMAtRAIAzTM5WfmUWyD3+deR9ne6qNDrqnIiu01wg77HQJjRmgmCo/0us+d9Vc1hWdM229/87+MZRN6wNpvbh3l+A7SYNLkV+ky9vobtiWVDdIXbeEkAtC/f3hH8Fs03bjyP8rxBzpZ9f5DD7hmP88ZhJABIAM5oLHYm8BqeXQQABF9pIrvzmrEe1g5EYJQ12rCMuz0LOidsqQpEJchbqxzPRgJgR3vzbRE0EfFsfV4t/UPX+ZEjAiNn01PX8bVGoJ7fvLI6KLsUrQAEvxNfXp9hWlOl7Q/hPG8uYEfEAwM/XjlAePE852kxKE4k1GiZ7bXGQQraAlmzVVmbh3oOhpl7OsopOBnilcsoHcILq/kxjg8Hu+ef1Z944zASACQArPZiWxqv4dlJAJQMNgE46c0NqJNCLPKZvkJftDBg6isLV1Fv/XIKa3awl9+og7Oug6tNRmenN5foz054qktW+kLVAGga61mSoGxn4axNq3Z30UdWuiJHAiCK4FE+CYD2A21wZHm9LhnVfpP/eaHc5wt6E2h7ZbXhUKSBID3UU8Ilyzp8HQAAIABJREFUPC9ec6Fuf4PnwUCSF2BJxQWs/++rMDa2vbfCQwsTjXcJAGF5asa6zwCw91DLxD56ezXt2bZT3jiMBAAJgG2NjJURr+HZSQCOFrCNecC4LxSDltU8wU4gz93P7PiP1SIBYLWbYNLcordTEsj77AH29OCeJir0aFkBfXfNOZEhArBDYJ++XQC0M3Bsc3I41zfTNYpgB0If2vwdm9IohJi12k7DfT9s1dVThYP2wmyZwLcBz6un2g4yRELvLjfub8/WD9Fuzu4iNS84gs8BcLRktozg4dFox4ckkO8G0/Z5z/LGYSQASAB4bcaWdF7Ds5MA3F/JNp4CoyeznTOU94Hvd+3AoZ5DOGM7cUANwIdNVo5XZEkgL6pY846taW308da4yJAACCK0Xn9JQNsuYbCGWSe4Gr1rq0RvG8ugd2xMoz/aH0/Bj3woLNW177frHPb8g/dMHec3vv7SXtpiqf/C8gmpW87sa2r9p4mEfr3MmARAsLFjBUMU7lef5R3hnRBwiIcPlAtiPBhpKWbz/8AOxz8f9oTTZ7xxGAkAEgD/tmLrb17Ds1PwvdgwxFy7g/U6IycivE5rZzrMyFiDxyrZvvX/hWwEyGuwKXHefzMyDoR6AQNBCCb0Zvd5kSECsCRwRH9JwM72GMm8wGkWb73fv4/ANkerZQVtG5ALXrAleAdoAr5TaUwCoE/9yKTPAJjZgw+GG0eyKHj8hNggt29Ip+BSlqf98//eud8iWcdr04Gm88ZhJABIAAJtU6ae4zU8OwkAdFSeYw/oiFYHEbvv39tRxiQAYHTEWssPNA01AGc2SVke+6gseMclgXDDCasDb617Nf12Q0pkSAAsCWzT3yVgd7sMZ36w1Ra29BnN+tW6gCNs8wu0jKAh0VsyyYkn9GGT/jdebhikazPZdkba8tp4/sSZLTm4FN44HDsE4ARzjJVEpVUPOYwFoIeODdd4Dc9uArA2k20HcOVQXsCDSKCDj/9zoMpkDQ63l5qbhZglBEgA+A0W9lWDcxVWPfin9WU10SfaLo8MEYgxbQDE5LhGWWp9FiwQChH9/PuSld/f3ZNEwbe/f/2qv4sSCH26ju8jwL/f2R1+XM8eIGXJsMBvzdav8MZhJACoAbDemiw8wWt4dhOAqwvZBACs960MGnbfC+uyvAAlsP/Yf5AJ5jcSAP2GOes58EZVAOgdwUhwe2El/W3HRZEhApvN2wbY3Wbtyu+b425ak93FFcB6+MM1cJ4VbFnAPgKiK/Le1SIp9A8mHHFdV8S2M+Lla5QOXkHB7wMvGqkkkn36rdnaVd44jAQACYC1lmTxbl7Ds5sAPFTN7qBl6WuCHkSCGYRgzZM1GOQmEAqGRsEIfP9nkQCYa5yySMolgbzEqhf/tMz4IQrRBV/suDD8RKD/bHpqz9n01M3RYx8Aa/D370ymHRytlz++vN/gFdGsl02j/gkkQM/L4pZs/lIcuAzelcueXPDKbpS+rqFuzqugjjfD38HylbkWbXwXbxxGAoAEwLj1BHEHr+HZTQDA3SfPYveFqy+KGAm4bTSDSQBgm5G/AA/2NxIA8w1Vjuv/jCSQE0aDtXo9O36Q7iqsoM+sujT8RICcTU9NGW8ZNBKEobwOlv13bkyjjXkdzPau4uh3fBHWaP3SfM/DDNnO8oI2Qs8Kv0NW6DVFHvrtiiH6g+oh+tVSD92Rq9DceP21f4i6aMaDKEQ6BNfhP9w3P7QxjE3cci3x5ppv0fp38sZhJABIAPRbTpBXeQ3PbgIAwnM5x50n+Fm3czCxkhfP69dEHn/WESgRQAJgvbFKS7y5kuB9nCWEWGmpgkJHcuvpwyuE8BOBtWfTU8ecpQ14/frz6HXDOYZ78P2w/DOouDPiPJ+EaHd+13wEAAz47N7WeNPabCvkxPBe2Gb82g3n+zQVPz0o+DyEQn+H3QAQxAhm+uCkCNyAgxEkb9wAN80sDICgWm/R7Cd44zASACQA7BZjUyqv4YWCAGzKYrP1I72F3M7H65R2pfPW+O4ysRfZKhFAAhBYowVV62nnQeaMBNXBGiIN3lCdTX+/+oLwkoFRY0+CdrVfXj4g8EDYWd7iJni/kyp4LtXWlCSQF1RMtcdHDrls77ewtVD7jkDPi+Q+2wIrwXZBTjneluWxv9diFeg5bxxGAoAEINA2Zeo5XsMLBQG4nmOoM1DTaPtAwhsYtengjY1n6WvF+tgsEUACYKpJcm+SLxv7J7eL7JAE8kfOgMwcqLPihyjEGIAthG91nxs+MgAagenwLQ389qqLKOyqqcvtZOJggNljqaKniAW+W1C+ynoWCIa2P9lxDn1yRSE77gCrDKw0CNj0y5ngoiqCfQMYAcLWyHyJ7SXU926R1LMws5rGG4eRACABsNqWLN3Pa3ihIAA/qWEbAkIULzsGD6t5PHLQxRwowde4WaFu5T4kAJaaJvdm8MQmucgxSSB/YgkAvbT8hH66Jb+KPtCQFD7HQp6z6an9Z9NTN9q/PPDMsUspROTrrWzir1XrB9D5leQTYmMf4QEuCd4uFqawbg4xEaz2O6P7n7niEl9QL9Y7jdIgWFgwzsXAkyM4KjIbftwtkK/zcLOSzhuHkQAgAbDSjizfy2t4oSAArzUN0ox4tuvO31zJd9VpNGAEev2GEfaa40C6/ev/QBSQAFhunroPJMV5/hPWqiWBvGMkGFjXwXBwMKuRXl+VQ59quyz0moG+s+mprWfTU1cErhWAULXgyQ4i3sEaN+u7TKY9AQZ+ixeP/bUuyIsWLUoXvZ/lkS0wsrPbFgD6sxV7ADDSG6xppFaji6rjBkQZhXgOrUVtgeD5vuwa/JwRhkbXeeMwEgAkAEZtJ6jrvIYXCgIAQnClxLYDgLCha5fXh/V/WQ57AJ3ORwIQVKMK88Mpl5N/cYtkoySQ10wKP+ZAX5TUS4dz6+m1lbm+aIRvhNL1MOwcgC2E1/C1AqCGfvrYpfTrm2U60VXiM1zLSmRr0cx/t/c7skCKwbjPSjW5Be8k7x0gPFVhatcRvn11+UpmPUE5wHZn16oK+tUN6f+/vTMPk6M403zD2Gt71/Pszox37F3PPLMzxscanyNVlvqqzOr7VKvVh9TdavWFDg6BhNTdFdVCKiEhELqQhBA6OSQw4hCHjARubhuDLMwNwlwDCEk+FtsYbI9t7Fh/hUpUV0dUVVYelcf7Rz1VnZ2VGfHLr97vjcjIiFOP7Ok5Nw2OpCnA6fajntkPRQy0IJuvh6VoX5kOwwDAAIjixbRtssCzygCsqjH3mV3RD9LotgeznIdcT/c/egBMC1npgYqLh/42/thakB0yGgP0fXqioEs9j19U2x1fmfCeGWH+9IDCf3quuXMO/Hr4y/wnsW/zHywv5vuWVMaT/QVtAzkM4BP3rqkK+72qsBu14MgkKbwM/6B1G1SFvSviWlM8yK3owXtt17ek0wUv7Z2h23RQT8UP1hbzZf2d0sm/RPXLYtsTGfBl/LdMh2EAYAAyBo+RHWSBZ5UBuH2q0RaMVOSkrYUsfsBjvvt2j7kTACWMAm4BGIlUfd8tDUa/cfL2wDt6r382+9PAQjIHc8tn8+GaHr6iYTrf1DyVX9XczHe1NvDr2ur5nra6+Dsta0zbaZ6CVY3T+JK6GTxS08PPCs/ljcVpBpilv3c/JmYlZX5KUyLnlZRE/k4fPfHeaoCdLTkPv3B6n+6EnE2LfeN54nU6qNufVvHM5hjPXhXgtN5HU3hBNsyE+4QVxs/W5NqjTWBfEVPLbqtMh2EAYACyi6Ac95IFnlUG4IVOZxuAthJrBgCiByDHADX4NU2LfVJVogtkicuj298unRT9d4PoBF+nOQGi35cxo6WPs0nIevahAX0NIbFJWnnWNOn5aCDhzoWNvCu3JyJOmQC6ZXlD0zA/OvPDRkFnqfgWpqZEVwiAZb1JpsMwADAAWQdRLjvKAs8qA/Be/yDvKBH/iGTCYud2s1cATLT+YQByiU5zvqMFot+yM4YccK6nzCE3/ijU0j15S+FUkkzUl57m+ekNX5UmZT2JP3nf64frx52LzkmP8B697qP1CH5x4/+NDx6kxb3SLTecKK/snVYu3dIwzF8SrAWyvUF6C/P1goKC08YTy26LTIdhAGAAsougHPeSBZ5VBoAS4Y87hnhTkbw7TfbDtHr73HCE09ziyUnbzM+4BZBjkBr8mswAtJZewLe3TObzq/p5zST5qnRWx53e408tn89jvV3xWewk37XMANClCCmREcl54+VKTt5mfP7l3i9Lx0PQXAS0tHCkq0c6p4esrMnbGwoZp/FJh6cNcWqkyH73r8wY5Jrk1owWHC7JNVRlOgwDAAOQa0xl9T1Z4FlpAOjHRWsD/KB9iN/T4owXzVGQ7ocvEwQ922EAsgpJ03eSGYBe7ZxTj/799oIz4gP86AmAaO1MPj10vlTokxOH1Z9pkRyaGGfV7GmcutiTB9u9cLV4IStVYZYagAkTZn9cVdjTsro/vNr8qb2vuqBZ2AsgK0M22yuDjI9URuKP59Ijytn+ludq4h5MelIi1+CV6TAMAAxArjGV1fdkgWe1Acj2x+al/WAAsgpJ03cKT2JBUUJINgD/Of8Lp8xA4vOv532JP3tWgO/vrOBXTmnmg9U9vEc7hzcUie9Ji86RzTZ6DI1a9fRMPU1kc81gA6fFcWgUfLpn7KUGIMiOmA4x5YCaMjJRVdgHovrR4jvv3PQVU28FHNt9pqEWfqKc4SDj54cjnAYj/zzHwb6yGU1Vhb2TzbwKKSjjf8p0GAYABkAUL6ZtkwUeDED2LYJsTQoMgGlhm/WB4o8GKuzJRAJIfs9kABJGQPROUwq/efY3+JMDQX5/d4jf0VnB93VU8t0X1vPrhur5lguaObVa6bXjwsnxbbQoz76llfFV+R5ZU8ppKeoTe87MeVldqQFQGNcCbHHWkHLcUQtG1iTzTP5MU+ia0f1P0xvTGACdqxiO6y3oDUX4dZOH+Rvdxn/Xx2cO8vKg+BambDrlTIhlOgwDAAOQKXYM/V8WeDAAxoUi1RjAABgKVd1fpq5qmqo1OTElfzZiAESmIL4tzcQ+ZiTE5GOkMwCqwv6iBaK9uqHp+MKECbH/qirs1WSmic/0mN4TGyflZAKo94Am+KFV+4xM0jO1KMLX1g7zpzvNH9czVCEbDBi9WQfCU7vKdBgGAAbgVJBY8UEWeDAAMABWxJuNxzxNVSI7EwlJ9O5xA0Ct4D+GgpEqK5mrwWiYzIaIL820SYv7JJsW2We61fHYuiJ+scFJemoLGV9WFeH3tw7z36QZzJdqzvX+faBF+jjz72nRKr3MZToMAwADoDeWdO0vCzwYABgAXYHksJ01JRoTJaXkbT4wAGQCfkODIK28PCcXZhrX7U6st86fktYAPLdlYnxdg8nahcLvJ18v2eeKIOOD5RF+59Th+OBivck8l/1/2TfIyWyIyhQKRvr18pbpMAwADIDeWNK1vyzwYABgAHQFkoN2VoOsT9YqTRZsnxgASlJvhwIj/2zVJaKZBlWFnUhmm/hMKwbSWIfklj8t1UvGoL3yfGECTXw33Ts9ikcz8908ZZif6DG/iz+TKaDbCt2SSYFUhT2gl7VMh2EAYAD0xpKu/WWBBwMAA6ArkByyc1iJVstWrktNKD4yAJRon8ulazrby6oFWWsq38Tfs5rmcBrMdyOr5WdNnptz0qfjzShlfEfjMH/NhMF8mZJ86v/pnHRuKkOibpL3P2vBoX/Klh3tJ9NhGAAYAD1xpHtfWeDBAMAA6A6mPH8hNDHyberylojyONH2mQGg+j+Q62Nq2VxaVWG3Z8tez37NxRG+ngbzddjf0qfeBeploN4G2QRAkroMZcMssY9Mh2EAYAASMWLJuyzwYABgACwJOIsOSi0uVWFHJWI8LvnTfj40ADRF7k16lwLO9pKdXDHwl3qugWzfqpOT9NBgPru16Fe9g/FBhDRJEI0vkJUxw/ZnsuVG+8l0GAYABkBPHOneVxZ4dv/oUrvbvPg3HgPUHZ5ZfeHkPegXZIJMK7mJ/udVAyCrb4JBKMguzQpsDjvFl2OW8E6cX/ZeFmR8UVmEf9fGwXwJnflN3yB/bNoQX1k9zOsKxTP9ycot204rUmaLUKbDMAAwANnGUE77yQIPBgA9ADkFlM1foi7tkMLuk4kwteCunyx+ZturBoAmvVlTK67zR5yi8yy6VKelux4fnf8jU0aD6a5pHOJvn1xxL5GU7Xh/sWuIb/vrwj/TSz4qj6iMuWzTlOhl2TKW6TAMAAxAtjGU036ywIMBgAHIKaBs/VLsdOrSlokzTft6sGWYP9MhfmbbywaAnoEfLk/bkv0gNIlNtuJyhYKLv6gq7Hey60LbKeFS4n15hv339Wk2QJoVkIxSujJm+l9V01o+dekBPnnBXtlxjmZ7u0WmwzAAMABW/EZPHVMWeDAAMACngsShH1Qlcnk6kaaWP7Ui/WgAqN604NZsNW2S+23pxBHFisurKtHtomvTVMj4E9PtT/o07z/N/0/rAJAxFJUtm20VVSv5lMHbePcNz/OB+07EXzNvfomrwaj4mMFoOBu+Mh2GAYAByCZ+ct5HFngwADAAOQeVDV8MKWxOOsFeVRM5tbqbXw0AmQCat75T/rw6V5XoL0oU9iWzL9nJGQLHJUUaSU9L6trRvU+9ILTiKM0MWD0p96QfDsV4w5zr+PRNP+QDo8dOJf6EAaD3mraN4+pK8akpbEc2bGU6DAMAA5BN/OS8jyzwYADMFykMAsw5TMd8UQ2MNMpWoiPRpVnhkqeB9bMBoERLCZda3mkM06tFRYv+cQxkw3/ETlcV9pbonDsaPuyZscoE0OOCtAZAhjqn48G1osW8buY23r76Qd538Kgw6ScbgNYV98qO925h4YJPZcIp02EYABiATLFj6P+ywIMBgAEwFFgmfjmkLP7XUCAyTVXYWlVhj6gK+09RYqFttFb7Oylru8sMwJSSBZyW/JUu7CNYIjjjvjYuBvTg5aXCpEP3tlOTK3W706N1Mm6qwn4WUqJ30CqCNJlSucL+weglpEFwovN1lY4vX2p59f79UtcQ39IwzKeVpL3lka7+8W78mvZNvPXSUd67/42MST/ZAPTd9R9cKxwRHp8mScrEUqbDMAAwAJlix9D/ZYH34+lD8Yk3yE3jZQ6D3ZLR6CS8hi6ih77c1tb2N6rCCtUgW6Iq7G7qohYlEdG2jpJIvMs7NXm82DkoFGY6xrL6TlcagGO7z+RN4QXCep2lihPsaOsQz/SIYArX11SF3RBS2IA2KfJ/9IZZqHD46ynHO1Xep0yY1OfozEF+Q9Mwp/rKzpPN9sqG1Xzq4rt4z60v60r6yQaAPtf1bBeWI5vft0yHn96scFovIZdXg7pQWB4tMPi5dNdSNqETDXiccd0zOb3qesVs6LHRdGWh2BNdw0hXT05MiOMNrFbIJZvrlK6srvyfLPBE0LEtbQtKGFTZMPNl4CX9WsqKRv5FDbBZqsJuURWW00Qy1N37qmREOS3c0pCmC/zW6dXmmQAbegCoVXhuy1nSeFtdI+9iv6lJ/ERENnGqKuyVkBLdQi1amnsh6RJKP6oKe1p07HW18jKmGrjkv2lg4/6pw/zC8oheMzOGV3n5Jbzpwpv5jOufNZT0k03AtPWPjDlHUr3/UFgY+3sppDQTASUdQ3Zs3dtzNQBWlCVXA2BFWXypwzAA1iR1PQHqx8A7OW3vKjXIjuhhJdv3cIaR5bc1yxNfxaRh/sxZAXNMgA0GYNO8qVLRn1zE+JsZnqdfVZNpjoCsfhN/VAPseyTg6cYPqEp0UHTNphSxMeM0kpN86me6HflQ2zCPGR3MV7qUN869nndcfUg6mC85oev93H/wKKcBg6L6akpkLgyAIK5y7AEQMTa6zY86TFNQ/tEoOHxfENj6ZkO7PZ04eOV/4cDwmWowerGqsJ+YHTN0nz81caT+fXGVPPG1lZ7Pf37eV42bAIsNwAOrQjSdrzDJUPc+jXpPrXfq35knCRIfP801+0ANsAdVJTovtXV5cormP4u++0iGsj6ZGMxXpLs8p/hohR8O5pu27mFOCVpvUte7f+PZu0+de2ydo99P9zu2U4fLg9HPpi9LdN/YsufOP+NxAmxWurLQ0soZj6FPayXXJ15HX+jwGN5WiLGNFyzdxXTN/0IBtnrMRfHQHyQ2WoBF1AB71sq4uLEpc5cydR/3pFnJbbCql//ugjOMmQALDcDru77J60oXSeN6e5aj6/sMToCT4Tr+kVpS9KQGjeegUFYVdr/oO7Gq8deMnligeqR/dDFzQqpu2cBbl9/De+983fKkn2wSOrb+SHZ9/kKDWWU/bVWJvCRiZMG2dzNNTqQFI2ssOK+YS4Z5ErRJEc2usnhZh2VxV2Bk7m67LozHz/NbmjlNeoFc+o+/in6pqrAbVYX9wej104IjvKpsHW9q/g6vr98hFJJohXjgW2rr9yddQ7wmzTPhu1obHGkA3r3lS7y/8Wxh3YnvwvJhTvPZp9Y39e+f9QxJJ8KhgXANs67l5VUrpefRdS0D7JgaiK5UFXaJ6Hv0bD6ZshM9g3xv01D8CQ6dK+6NKWdF7SrezO7gM/cesTXpJxuA/tHjvLzykjHlStQ9pERGZD/nk2NghN9LfN+Md02JxmRlSGzXCiNnqAp734zzZTjGjzQt9rHEeUXv9P+Qwh7PcBwzuHlSh0VMx207+YjV3arCnsDLNgaHaYS1NjH6tXEXxKUbiouH/lYNsLONtva1SYt5bfVVfGrHXbxrzhO8f9FbfGD4RPzVOeew8MfeVMT4e/2ZEyAlxHta5OMBwkqEP95XlLsJsKgH4NJZ04X1JmFsK47Ek2hqshf9/WC7uO40w11yIuvd9yqnQW00zW311Cu4JpvpzmD360AowssltzSyEf2y8MV88gU38RnXPDWm/Ml1sftz08JbxNcqyI6k+2mHAtH2kBL5riUaTOM1PuxuPy1dGRL/o9t1msL2qAojnTI5L0QepVk8KyYM//fE+dK9034fzvpJ3zO7LPH6eUqH07HE/0DAdAKl32b/82RL791sRFu0T4W2ijdN3cunn/XYmISfSPyJ975FR7k2Sfy8NbXuRUlPtI1GoYvKQduaii/kx875Wm4mwAIDcNeyCmlZKyYxTo/siuoo2nZlvbjeDbOvTZtAqSu97fIHeH3/Th4uXSotj4ypmdvDxRfFeyo6Nj/G+78nnpnP7qSffL4Ze56T8gkHIxNM/wHigCAAAiBgN4Hi4qH/rSqRdbl2F1aG1/LmaXfy7vOeP9XCTyT6dO/VleJpV29rHn9PWZQEaduv+wbjXc6yxHRO+Sz+fi7jAUw2AC9uncCrisStdio7dZ3L6ijaPjcsfma+deVoWgOQnOD67z3GO68+xJvm7+XUcyBjaOr24Aiv7dry4cx8d7+ZdVmTy23n58rGtUIuoQBbb/fvFOcDARAAAdMIxJ/bV9hV6Wbkk4l/hXpZPOnPnHdEV9JPNgRTWm8Viuvy6uzGASQSI60KR4/Nycq6cUqL/l4AEw3AOzd9hXdUz5OWb6lgEF2ibqJ3miGRegxE9e2+8YWckird8+7cdjj+eF24ZInw2KLzZbutaso63rLsIO+5/dWcymdn0k8+19SL9stYnEgMjjTtB4kDgQAIgIDVBGjyl5PTu0qn4hUJO93Tr2/YxTtnHeIDw8dzTvwJEzD9rB8KxZWWmBUlvnTbHp0mnx2PBqSNdqv6TIBJBuD3+77AR7q7hfUkxjRK/he92Y15SNT/sWningS6jz4wetxwgu2/5+34uAGaQ192m0YUH6nbaBAd9S7M2P2c4TIlJ2U7P9MYCtm4iVAwUmX1bxXHBwEQAAFTCEyYMPvjaoCdryrs/6WKdbq/K9RVvGXGvbxv4RuGk34i+dN778I3pOL65kx9XeKUHLc1iu+LU93qihbx1+Z+K3sTYJIB2BOpkyZ/Gj1/pEtf8qd60iI8outF07SanRx7bvlJfKa9bMcLlKkxPvm8G3jXzh+bYkbMrk8ux6uZtlnIW1XY9ab8MHEQEAABELCSgBaIVKgKe06UOGTbqqs28ml9j/CB4WOmJv5kE1AVFt9jPdCS/TiARMuYHp+jx+hk9enVzuG/Pv/L2ZkAEwzAU1cqvHyS+F49lfGuqfpNDtV1fpn4mC2xA6YbgETC7Lv7zfjiOpV1q6R8qU7N0TstK0OiLHa/t106Kqvz+5oW+7SVv1scGwRAAARyJhB/FjjIRmVJMXU7dXc2NF7Lu8991rKkn2wAaE6A1DLQ35fX6hsHkDABx2cO8rYS8f1xOu6Khum2GICf7jmTTy0TL/JD5VidY/1oOl3qORAx67r2aeuT7+ix+O0BuqcvKgMZBLsTtNXn69v/ZnxZYVF9Q0q0M+cfJ74IAiAAAlYQiE+8EYxeoCrsPZFwpW6jxF9Xu43POPc5WxJ/wgS09z4sTCQ0018iqet9p8fpZIPkqN53dFZkNgEGegB+t+8MvqC9T1gvOv9sLcJ/lcVkP6J607S6qdeO/qaBe3Y+SkeT9KiSOQVsMSL3nbDVaNT17RRyp5Uurfj94pggAAIgkBOBsDL8zZMTf8hEK2l7ND6wT+8jfIkEbuidneA9q15JKstHLdtwkPETPbl1kVPiTLdaXuWkIf7CrAnpTYABA3D1/CnCOlGibixi/PUZ+u/7J8zAnibxLY7azi22JkRqdVe1bBDWkwb+Wd0qt/v40zc+KqwrLcKWbhGlnH7A+BIIgAAI6CVAg/xCSmQ422l7qyuu4F1zf2xri/+UYVhxgg/s+7AVV1F7mVBc72/VPw4gkSjpfVmV+F45JeKMiwblaAAeWVPKw0HxecnUPNyWu6mhOkUqxMfOx733losPCq9beXi5rb0RdpgBmjMhrC0T1pcWT9L7W8X+IAACIGAagfDExV+Wrdme2mVcXnoJb+0AQG3uAAAgAElEQVQe5f1Dxh/lO5XQT07xm/FvdoIP7DjBB0Y/6sJtOPt6obBurDNmAGh++u5SccIkJkPVPfz3878g7gnIwQC8de3XeYO6UFgXOt+2LBf5STYxyZ9piuSmwo96SZKva+f2w7a3umlWQVqlL7kcic8dmx+3vTxWGwF6uiFRv+R3muPetB8yDgQCIAACeghogWhvNrP40TPdze238/7Bo/lp9V9+gg/s/yjxJwS7bdV9QmGdreY2EDA5ab7YKR80RyK+u73eFAPw3i1f5LOa5gjrQedZUBbJapGf5LKnfn6xS3z/XyscsWWJ3MT1Sn6v7d4qrDMtRpS8nxc+06ONyYk/+XOJwr6k5zeLfUEABEDAEAF6BEkNRnYnC5Hsc03lRt1T9WZszetp9e8a2+pPTgjxAWWCxWhocRlqxacmQr1/0yOFMi5lwQg/3B8cbwJ09gBcPqddeo6WYsaPzTRej5uniOtR07Yxb8m2fe1DwnrTPP99B97KW7mS48u0z6PHeUX1pcL6ZrM6n6EfO74MAiAAAgkCtMqXqrDnZYktsT1ctJS3dB209Fn+tEbh4hN84Pbxrf5UUS4vXyEUVprhT2/CF+2/qkacPIlTU/ECfuzcM8eaAB0G4OAlYWHZ6dhkYg6bVIeYZEzDlMHb8pZo+w4elS4q1L76obyVKzW+zPp7ytA+2bV+taCgIKsV+hK/YbyDAAjYQEALDv2TGmDfURX2tqqwX3rk9adEkk/3TtP3lhXF8vMqifGyUIzT7HCZXrIpZ+mZ9/pC46/aNBPyEL/qSYO8oXDhR6/ShbwhlN2rLM2xy/5qAMwoPx2DjiW61tTazsTXyv+rQfGqjlrR4ryWy4o6a+nXSfhVFtryNmlRWeHI522QPpwCBPxNoPaMeZ9QFfaCSDixTZxQwAVcEAOWx8DzpE3+VmfUHgQsJhBSImUQM8vFTNgyBXdwRwzIY0CbFNEslj8cHgT8TSCkRGdChOQiBDZggxjITwyQNvlbnVF7ELCYAAxAfsQNSQXcEQPpYwAGwGLxx+FBAAYgvQhBpMEHMZCfGIABQH4CAYsJyAxAQ+M18fXoaU36vL5Wv8F79+MFBogB02Pg8Bu890j+Xw0LrhGOkYEBsFj8cXgQkBqAydflZza81MlzNmR+Rt6sZ5hxHLD2VQy8cIIPvJX/V8PgdTAASEUgkA8CMABIer5KejYvk+totjAA+ZBcnBMEnEMABgAGwNFJCgnbutkCYQCcI8QoCQjkgwAMAAwADIBPYwAGIB+Si3OCgHMIwAD4VPzRsrauZe0WtjAAzhFilAQE8kEABgAGAD0APo0BGIB8SC7OCQLOIQAD4FPxd0srFeW0rqcCBsA5QoySgEA+CMAAwACgB8CnMQADkA/JxTlBwDkEYAB8Kv5oWVvXsnYLWxgA5wgxSgIC+SAAAwADgB4An8YADEA+JBfnBAHnEIAB8Kn4u6WVinJa11MBA+AcIUZJQCAfBGAAYADQA+DTGIAByIfk4pwg4BwCMAA+FX+0rK1rWbuFLQyAc4QYJQGBfBCAAYABQA+AT2MABiAfkotzgoBzCMAA+FT83dJKRTmt66mAAXCOEKMkIJAPAjAAMADoAfBpDMAA5ENycU4QcA4BGACfij9a1ta1rN3CFgbAOUKMkoBAPgjAAMAAoAfApzEAA5APycU5QcA5BGAAfCr+bmmlopzW9VTAADhHiFESEMgHARgAGAD0APg0BmAA8iG5OCcIOIcADIBPxR8ta+ta1m5hCwPgHCFGSUAgHwRgAGAA0APg0xiAAciH5OKcIOAcAjAAPhV/t7RSUU7reipgAJwjxCgJCOSDAAwADAB6AHwaAzAA+ZBcnBMEnEMABsCn4o+WtXUta7ewhQFwjhCjJCCQDwIwADAA6AHwaQzAAORDcnFOEHAOARgAn4q/W1qpKKd1PRUwAM4RYpQEBPJBAAYABgA9AD6NAYcbAC3I5udDE3FOEPANARgAn4o/WtbWtazdwtbhBkBVIo/6RohRURDIBwEYABgA9AD4NAYcbwAYDwUXfzEfuohzgoAvCMAA+FT83dJKRTmt66lwgQFQg2yJL4QYlQSBfBCAAYABQA+AT2PADQZAYa8UFBSclg9txDlBwPMEYAB8Kv5oWVvXsnYLW3cYAF46cUTxvBCjgiCQDwIwADAA6AHwaQy4xACoQbYhH9qIc4KA5wnAAPhU/N3SSkU5reupcIsBUNjPNS32Mc+LMSoIAnYTgAGAAUAPgE9jwD0GgKsTo7V2ayPOBwKeJwAD4FPxR8vaupa1W9i6yABoCtvjeTFGBUHAbgIwADAA6AHwaQy4yACoCvutpsU+bbc+4nwg4GkCMAA+FX+3tFJRTut6KtxlALgaZN2eFmNUDgTsJgADAAOAHgCfxoDLDEBIYffYrY84Hwh4mgAMgE/FHy1r61rWbmHrMgOgKuwDLTD4OU8LMioHAnYSgAGAAUAPgE9jwH0GgGOFQDuzA87leQIwAD4Vf7e0UlFO63oqXGgAVIUd9rwoo4IgYBcBGAAYAPQA+DQG3GkAeDgwfKZd+ojzgICnCcAA+FT80bK2rmXtFrYuNQChIFvuaVFG5UDALgIwADAA6AHwaQw43ABU1F7GVYWJXq9jhUC7MgTO42kCMAA+FX+3tFJRTut6KhxuAJojt3M1GBUZAK4Fh0s8LcyoHAjYQQAGAAYAPQA+jQGHG4D21Q/y6pYNQgMQUqJb7NBHnAMEPE0ABsCn4o+WtXUta7ewdYEBaF1+j9AAqAp7p/aMeZ/wtDijciBgNQEYABgA9AD4NAZcYAB673yda4WLhSYgHBxuslofcXwQ8DQBGACfir9bWqkop3U9FS4wAGROa7u3Cg2AqkRv9rQ4o3IgYDUBGAAYAPQA+DQGXGIA2tc+JDEA7Pfat2L/w2qNxPFBwLMEYAB8Kv5oWVvXsnYLW5cYgP6DR3k4FBOagJDCBjwrzqgYCFhNAAYABgA9AD6NAZcYAIrPxrnXCw2AqrAHrNZIHB8EPEsABsCn4u+WVirKaV1PhYsMQMfVh2QG4M+hwMg/e1agUTEQsJIADAAMAHoAfBoDLjIA/aPHeVnFCpkJGLJSI3FsEPAsARgAn4o/WtbWtazdwtZFBoBMatOFN8sMwPOeFWhUDASsJAADAAOAHgCfxoDLDMCM65+VGQBeGox+w0qdxLFBwJMEYAB8Kv4mtVKpa7bntld493de5DOue+bD1+7nOE3gAmPh8NhymQGgeKpsXCMzAas8KdCoFAhYSQAGwOEibVKiNisZ99z+Cm9ZcW98VHZV83oeLr5IJsg8XLIkLtgNc67lNK977+2vwhQ46Xq60ABMXXyXON4C7FhbW9vfWKmVODYIeI4ADAAMQCZz0Lv/Dd5y8UFe076Ja5LV2STLto4V62CUVzWt5a0r7uX9B96CGci3GXChAZh568vSFQLVYDTsOYFGhUDASgIwADAAMgNAiZ+WZA2XLh2byMVrtOvap0yN8SmLbuU96BXInxFyoQGgWCUjKjKcmsJ2WKmVODYIeI4ADAAMQKoB6P/eMU5drbLZ10Tim+s2Oke8R2D0eP4SYb5b4vk6v0sNQOvKUaEBUBX2bmHhgk95TqRRIRCwigAMAAxAsgGYufcl6RrsuSb5bL5X3bqRd9/wPEyAnWbApQaAeqa0IvEKgaoSabNKK3FcEPAcARgAGICEAWhf/VBO3f3V6mI+pTbG2yYv462Ny3hj5RJeVToia6VJt2slS/j0TY/CBNhlAlxqAChe6/p2COMopETv8JxIo0IgYBUBGAAYABLUqUsPyAdXpdzzb6peyufNXc0vufhKvmXLdr5r1y7ha/PmbXzZko38nFmreEPlEqFgj+sdCI7EBxwmTAneLYxPFxuA6Ru+L4unP2oTFn7GKr3EcUHAUwRgACwUWLtacgbP0xy9Uyamp7bT6P++rpV89aotwmQvMwGJ7Tt37uQrV2zmvZ0ruRZkp447zgCcNBtTBm9DT4DB65rRPLnYAPTf8zYPq+LBqZoSmespkUZlQMAqAjAA/jYAU0ckz1Untfo7Wpbz9euuzinxJwxA8vvqy7fw9qaLM5qA1ku+BxNgpQlwsQEgc9N47g2SGIp+3yq9xHFBwFMEYAD8awA6Nj+e9rn+8uIRHh2+wrTEn2wC6HNkcD0vK4xKRJxxbdIIpzJmbMlamSS9fGyXG4DO7YdlsfOXkkDk3zwl1KgMCFhBAAbAnwag55afcHoWX9YFX1++hK9ba16rPzX5J/6mWwp1ZWlmEyxdyunJBJgAC+LU5QZgYPQ4L6++VBjDWoAttkIvcUwQ8BQBGAALhNXhrUaav7+qZYNQOMkQTK5ayq/ctM2yln8i+Sfe6Vz15XITUNu1BQbAiphyuwG47wSnsSJiExt52VNCjcqAgBUEYAD8ZwDaVz0gEU3Ga8MX8Y0bttqW/BMmgM6Zriegfc1DMAFmmwAPGIDuG1+QxrKmjEy0QjNxTBDwDAEYAH8ZgL4Db/Hy8kuEokn349euzm2UfyKRG3mn2wHhSeIxAeXh5bzvu2/ABJhpAjxgAOjWUGXTOmE8hwJsvWeEGhUBASsIwAD4ywA0szuEYkndqMML19ve8k81DBfOWystX0vsAAwADMC4GGhZercsZn6mabGPWaGbOCYIeIIADIB/DED/vW/zsrLlQrGkWfzoWf3UhGz33zt37uItDcuEZaQBXwOjx8YlAAwQzDGGPdIDQEtUq0HxzJNhJVrtCaFGJUDACgIwADmKp5ktMZuONX3jo8LESq3/yy+7Ku/JP2E2aIZB8cAuxmkGOCR8k2LWIwaA4qGm4ypZzFxvhW7imCDgCQIwACaJqU1J3Ejyq5u5TSiSNNFPIvk65V02URDVwQgDfDcp3j1kANpW3S+MbVVh72ta7NOeEGtUAgTMJgADkCSILkjiuSawvrvfjE+sI2pZL49d6TgDELtoo1DQwyVLeP+9uA2QaxyM+Z6HDEA8vovFj5KGApEus3UTxwMBTxCAAfCHAei4+pAwodJKfnTf3Skt/0Q5tm/fySuKxfd1O7cdRi+AGWbVQwaAjE39wC5hjKtKdJ8nxBqVAAGzCcAA+MMAyBb86e9e6bjknzABtHCQqMdiyuA+GAAYgHExMH3TD4Xxoirsvdoz5n3CbO3E8UDA9QRgAPxhAGg2PVEytXKu/0Qiz/V9eNF6YZnreraPE/8xXdtmJEc/HMNjPQDxFQJLJSsEBiI1rhdrVAAEzCYAA+APA1AhmTM9nxP/ZDIGl63cLDQANPELEr4JcesxAxC/DdC/UxgzmhJdYbZ24ngg4HoCMAAmCKkLWouitdO1YJRv25b/Z/9lRmDLlu1CMQ+HYjAAZsScBw1A66WjwphRFXbQ9WKNCoCA2QRgALxvAPq/d4yrwfFT7JYXRR17/z9hCmTLBdOUxugFMBi7HjQAM65/VmYAfmq2duJ4IOB6AjAABkXUjJaYxcfoufM1oSjWaBc53gCUS54E6IcBMG6APGgAaLZLrXCxMN4xH4Dr0xUqYDYBGADvG4DeO18XCmJV6WLHGwAqo2jwIuYCMCFuPWgAqFeookr89IhWGDnDbP3E8UDA1QRgAEwQUotb8Ea7uml0tCiJ0hgAJ84BkOj+p7JpQSYs+8DoceMtYIdfN6PXPeP3PWoAqlvFk0hpweESV4s1Cg8CZhOAAfC+AaBEoBWJW9JXbd7u2F6AjRu2CpN/uHQpkr8Z5sWjBqCmU/zIqxqMVpqtnzgeCLiaAAyAPwxAZeMaYTJduWKzYw3AyhXiRYGqWjbAAMAASGOgtvtqYaxrgUiFq8UahQcBswnAAPjDANT37RCK4vzz1jjWAFDZRLcuGs/ZIxX/jN3eZiROrxzDqz0AkpUBYQDMzh44nusJwAD4wwA0j9wlTKadrc5bCTAxBkC2ImBL7AAMgBkmxKMGoKpprTDWNWVkousFGxUAATMJwAD4wwB07nxSKIr0nL0TxwHQJEDhSePnLqAegRnXPAUDAAMgjYGy8hWSWB/5vJnaiWOBgOsJwAD4wwDQ89E0g56oS33hBWsddxuAyiQqa3nlJRxPAJgUsx7sAejd/4YwblSFfaBpsY+5XrBRARAwkwAMgEliakaLzOJjNJ69WyiOjVVL+M6dzpkSmB7/qy9fIizr5AV7pS0/3P/XGcseNACd258Qxo0aZEfM1E0cCwQ8QQAGQKdoWpykrUxiXTJxVBiPLFrvmF4ANiReBZB6BLp2PAkDYFYMetAAyJa91hS2xxOCjUqAgJkEYAD8YwCo67xqyjphC6laXcy3Xr0j7yZgy1XbOZVF1P1f1bwe3f9mJX86jgcNQPU08aOjqsIuNFM3cSwQ8AQBGAAfGYD7TvD2dQ8Lkysl3L4ZK/NuAPq6xNO4Uvk6Nj+O1j8MgDQGem5/lavBEWF8axOjX/OEYKMSIGAmARgAfxmAgdFjvLJJ3AtASXZoYf5uBQwukJeLpne18vaIL4/tsR6AlmUHhclfVdh/mKmZOBYIeIYADIDPDMB9J+L30UXLA5MBoMcCVyy70vaegIuXbuK0NgGVIfVF27t2/hgGwMzWv9duAYwe4xW1l42LnXgsBdkGzwg2KgICZhKAAfCfAaDW7uTzbhCLpcJ4uDDKYxdttM0E0LnKi8TJnwR8yuBtSP5mJ3+PGYBp6x+Rx7My/E0zNRPHAgHPEIAB8KcB6D94lFc2ip+1p6RLq/ANXbjO8scDF16wTrriH5WDBv7RHAa+7KK3IuknH9MjtwBoaejKulUSAxB5zDNijYqAgNkEYAD8aQAooc78zhFepoonB4p3nSqM01TBVswUeOWmbXxGm3jGtsS5w9oy3n3TEST/5KRt5mePGACaGjoRM6nvISXaabZm4ngg4BkCMAD+NQBkAui5+nDxRVIBJUGtKh3hC+at4du2GZ8saNvWHZxm+asoFo/WTgg4zVo447pnkPzNTPipx/KAAej+zovp4vf5goLY6Z4Ra1QEBMwmAAPgbwNAJqBjyyGulYhn3ksk5LgRCC3m55+9mq9bs0X3+IANV2zl586+nFeVip/xTz4PlQUT/tgQly43AP33vB2/RZQcO8mfNYVNMVsvcTwQ8BQBGAAbhDa15eXAv7uueYpTl3uygKb7PLlqKZ87sIpHBtfzy1ZexSnBb75yO6dFfDZu2MovXbGZR4ev4HP6V/GGiszmInGu8vIVnBYuwj1/G+LS5QagYc616eL1oKeEGpUBASsIwADYILQOTPiiBDvz1pc5PW+fSMZ2v1e3beI0mYuobNhmQZy62ABMGdqXLk7fKysa+Rcr9BLHBAFPEYABsEBYXZLwRUmVRlQ3LbyFa5PS36M30xxohYvjj/phtL/NsehSA5Ah+fOQwuZ4SqRRGRCwigAMgM2i6xJz0H3DczzNvOrpWl+6/lfXsx0j/fMVEy4zAHTPX7ai5SlDGozstkorcVwQ8BwBGAAYAFFPQGJb57bDvKbjKl1J/ZQYC2b1i/8vOMLrZm7jdOzEefCehzh0kQGYufclXt2yIVMc/kjTYp/0nEijQiBgFQEYgDwIb75afAbOO3PvEd4cuZ1X1l+eSYSl/6+sX82njtzFe/fhPr8jDI8bDMDoMd6y4l4ezvyUyvPahIWfsUoncVwQ8CQBGAAYAL3JiBJ4++oH42MF6nq28cqG1byiamV8UiGaWKisbDmvbFzD67q3xu/tT9/0Q9575+to7RswYHqvUVb7O9wANJ6zJx5HGXuUlMjLpROi/8uTAo1KgYCVBGAAYACyShZOS14oj3FD5XADkDnxMxrw93h5MPpZKzUSxwYBzxKAAYABgAHwaQy43ABoQXZTYeGCT3lWnFExELCaAAyAT8UfLWjjLWi3M3SvAfhdKBi9oKCg4DSr9RHHBwFPE4ABgAFAD4BPY8CFBiCksIdKFPYlT4syKgcCdhGAAfCp+Lu99YryG+/BcJcBeJO0Cq1+uzIDzuMLAjAAMADoAfBpDLjDADypBln3V78a+y++EGRUEgTsJAAD4FPxRwvaeAva7QydbgCCEWanFuJcIOA7AjAAMADoAfBpDDjcAJzs8vedJqPCIGAbARgAn4q/21uvKL/xHgwYANt0FicCAUcSgAGAAUAPgE9jAAbAkZqMQoGAbQRgAHwq/mhBG29Bu50hDIBtOosTgYAjCcAAwACgB8CnMQAD4EhNRqFAwDYCMAA+FX+3t15RfuM9GDAAtuksTgQCjiQAAwADgB4An8YADIAjNRmFAgHbCMAA+FT80YI23oJ2O0MYANt0FicCAUcSgAGAAUAPgE9jAAbAkZqMQoGAbQRgAHwq/m5vvaL8xnswYABs01mcCAQcSQAGAAYAPQA+jQEYAEdqMgoFArYRgAHwqfijBW28Be12hjAAtuksTgQCjiQAAwADgB4An8YADIAjNRmFAgHbCMAA+FT83d56RfmN92DAANimszgRCDiSAAwADAB6AHwaAzAAjtRkFAoEbCMAA+BT8UcL2ngL2u0MYQBs01mcCAQcSQAGAAYAPQA+jQEYAEdqMgoFArYRgAHwqfi7vfWK8hvvwYABsE1ncSIQcCQBGAAYAPQA+DQGYAAcqckoFAjYRgAGwKfijxa08Ra02xnCANimszgRCDiSAAwADAB6AHwaAzAAjtRkFAoEbCMAA+BT8Xd76xXlN96DAQNgm87iRCDgSAIwADAA6AHwaQzAADhSk1EoELCNAAyAT8UfLWjjLWi3M4QBsE1ncSIQcCQBGAAYAPQA+DQGYAAcqckoFAjYRgAGwKfi7/bWK8pvvAcDBsA2ncWJQMCRBGAAYADQA+DTGIABcKQmo1AgYBsBGACfij9a0MZb0G5nCANgm87iRCDgSAIwADAA6AHwaQzAADhSk1EoELCNAAyAT8Xf7a1XlN94DwYMgG06ixOBgCMJwADAAKAHwKcxAAPgSE1GoUDANgIwAD4Vf7Sgjbeg3c4QBsA2ncWJQMCRBGAAYADQA+DTGIABcKQmo1AgICEQOz2sRKtDgejCkBIZNuOlKmyvqjCe+mqYfB0fGD6R/9cGn4qz21uXKL/zexgcbgBIm8zQuPgxAtGFpJ0FBbHTJeKKzSDgXAK1Z8z7REhhD6Umaqv+hgGA8UDPgMdjwPkGYFzDxKjekYaSljpX6VEyEBAQUJXoAqPBr+f7MAAeF3+00J3fQrf6GvnQAJAGakE2XyCx2AQCziWgBdlNehK40X1hAGAA0APg8RjwrwG4yblKj5KBgIBASIneYTSp6/k+DIDHxd/q1iWO7/weBp8aANJSgcRiEwg4lwAMABIyWuSIAVNjAAbAuYKPkoFAMgGZAaiv38GntN2W86u2dqtwoA16AJBsTE026BFwXo+Aww1AXe22nHWNNJG0UdTriR6A5MyCz64gIDMA0wd+YOhRvfaeB4U/EhgAGAAYAI/HgMMNQHvvg4a0bfrAo0JtgwFwRcpDIZMJwAB4XIzRQnZeC9nr1wQGIFli8RkEnEtAVaI3i7qzpvU9YsglowcAxgItfZ/GgMcNQHvvw8IeANJS5yo9SgYCAgJqMLpZZABaug7CAHi9pYb6oXfAihjwuAFo6TwgNAAhhW0SSCw2gYBzCWhKNCYyAJObb4IBsEIccUwkXa/HgMcNwOTmG4UGQA2yJc5VepQMBAQEQoFou8gAlIcuhQHwulCjfjAjVsSApw3AcV4RWik0AFqQtQokFptAwLkEtAkLP6Mq7M8iE9A554mcTQDGAPj0/q8VCQXHdJdR8bAB6JxzWJj8SUPLFfYPzlV6lAwEJARUhT0hMgA1lRthAJB83JV8cL3yf708awCO86qKDTIDcFgir9gMAs4moAYjs0UGgLa1dOY2GBA9AOgBwFMAPo0BjxqAlo67ZcmfqwE2y9kqj9KBgISApsU+qSrsp2ITMMJzmRQIBsCn4o8WeP5b4Pm+Bh40ANP7f8BVZURmAE5gKWBJcsFmdxBQleg8sQFg8cBv6bybDwwfz/qWAAwADAB6AHwaA54yAMf51I7vci0YlSV/HgpGz3WHyqOUICAlEDtdVdgDchPAeFX5et4x+xDvH8psBGAAfCr++W594vz574HwgAEgjeuYdSiueek0UVXY/QUFsdOlsop/5I9AUdGif1QnRmtVJdKW64se7dAC0W8VFBScZkZNzChTrnXJ9D0tyBZlCPa4Cy4vXcEbm/bwqdPv4pToadbA1BfNIyA6Vk3VleP2Tf2uLX8vfIRPW48XGCAGTI+Bax/h0/bm/1XTe6VQg0ibRBrT1vNAXNMam3bzspIVwu+malooEF2YSVfz8v+J0VrKNWbkLDpGqHD465QLDdXF5DKlrVs4GGlRFfZ+6gXL9e+QEvnuhAmzP572pBn+aXaZcq0Lvke3NfACA8QAYsDTMfA+5ZwMaSnDv+M9wzeaGCcmlClDkU8OanvHxELHE4amROZmOLX031aVyew64nieFgQYHxg/xIC/YuAdyj3SxJThH2qQ9VmQEwyVKUORCwq0idGvWVBoetRjV8aTS3awrEz+CmaIF643YgAxgBjQEQOUeyRpKeNmTWE7rMilRsqUsdCFhbG/VxX2gekFD7BlGU8u2cGyMukIBNN54NwQIsQAYgAx4OQY+IByjyQtZdysBdhiC/KGoTJlLDTtEAqw9SYX/GdaYPBzWZ1cspMFZXJy4KFsEEbEAGIAMZDHGKCcI0lHWW0+2XB9w8xcarRMWRWcdqKFbkJKdMuHa97Tuve5vNiNISUyYjT5JwptTplyqQe+k9v1BzdwQwwgBtwVA5T3KNck8o6R95KSyN9pARZRFXajkTgws0xG6oPvggAIgAAIgAAIgAAIgAAIgAAIgAAIgAAIgAAIgAAIgAAIgAAIgAAIgAAIgAAIgAAIgAAIgAAIgAAIgAAIgAAIgAAIgAAIgAAIgAAIgAAIgAAIgAAIgAAIgAAIgAAIgAAIgAAIgBRw2w4AAALmSURBVAAIgAAIgAAIgAAIgAAIgAAIgAAIgAAIgAAIgAAIgAAIgAAIgAAIgAAIgAAIgAAIgAAIgAAIgAAIgAAIgAAIgAAIgAAIgAAIgAAIgAAIgAAIgAAIgAAIgAAIgAAIgAAIgAAIgIB/CFR9Y9F/05ToZWqQHVIV9pqzXpGXVYXtDyvRejuuSHgiK1aV6D5VibzkLA5Ouy4oD+IDMYAYMDMGSHOj+0iDbdF6JVpPuUVV4jnGWXkvyA5RTqbcbDmLDyEwriqOfv1FDUYrrYQRKhz+uqqwPzmcg9OvE8rn7N8Rrg+uj9Nj4E+kxVZqPeUSVWF/cYHW77eSQ0FZ4cjnXQAhEbC3WAlDC0SucBGLBBO8Q9ARA4gBT8UAabGVWq8q7Ba3aD3laMtYaBPYV9wCQlXYQctAFBQUaArb4SIWnvrBg7uje98QazAYtsYAabGVWk+5xC2aQznaMhaaFvuYqrBX3QBDC7L5loEoKChQlUibGzigjEiWiAHEgLdjINJmpdZTLnEJv1cpR1vJoqB0UvTfTw56s9Xl6bgAf1KDbNuECbM/bimIgoLT1EB0paqwP+gom1OZoVxotSEGEANui4E/kAYXFBScZqXWUy6hnOLsMV+Rlyg3W8lhzLHLg9HPlgQi/+a0l6bFPjmmoBb/QcERUhb/q9M4oDzOi01cE1wTxIA5MUCaa0Mjb0z2oNzixOtHuXhMQfEHCIAACIAACIAACIAACIAACIAACIAACIAACIAACIAACIAACIAACIAACIAACIAACIAACIAACIAACIAACIAACIAACIAACIAACIAACIAACIAACIAACIAACIAACIAACIAACIAACIAACIAACIAACIAACIAACIAACIAACIAACIAACIAACIAACIAACIAACIAACIAACIAACIAACIAACIAACIAACIAACIAACIAACIAACIAACIAACIAACIAACIAACIAACIAACIAACIAACIAACICAPgL/H+7BT+KFkBMwAAAAAElFTkSuQmCC;fontSize=16;" parent="1" vertex="1">
          <mxGeometry x="-2.842170943040401e-14" y="280" width="75.54" height="75.54" as="geometry" />
        </mxCell>
        <mxCell id="mQAJaDiCk2_aLx2CCrRH-5" value="" style="group" vertex="1" connectable="0" parent="1">
          <mxGeometry x="-120" y="60" width="82.64" height="99.26999999999998" as="geometry" />
        </mxCell>
        <mxCell id="2c4QWxnSkKOKG8GR8WA--34" value="" style="shape=image;verticalLabelPosition=bottom;labelBackgroundColor=default;verticalAlign=top;aspect=fixed;imageAspect=0;image=data:image/png,iVBORw0KGgoAAAANSUhEUgAAAgAAAAIACAYAAAD0eNT6AAAAAXNSR0IArs4c6QAAIABJREFUeAHtnQe4NEW1tbcREFABMYAIKkYQQcwBFQyo4BUjomJGvSYwZ685IyYwx2tADKgkQcUAYg6IqKCIARRMCIJguP9/1uH0Z3/N9Jzu6a5aq2bWfp7z9Eyfnq5db+2q6q6wd4TFBEzABEzABEzABEzABEzABEzABEzABEzABEzABEzABEzABEzABEzABEzABEzABEzABEzABEzABEzABEzABEzABEzABEzABEzABEzABEzABEzABEzABEzABEzABEzABEzABEzABEzABEzABEzABEzABEzABEzABEzABEzABEzABEzABEzABEzABEzABEzABEzABEzABEzABEzABEzABEzABEzABEzABEzABEzABEzABEzABEzABEzABEzABEzABEzABEzABEzABEzABEzABEzABEzABEzABEzABEzABEzABEzABEzABEzABEzABEzABEzABEzABEzABEzABEzABEzABEzABEzABEzABEzABEzABEzABEzABEzABEzABEzABEzABEzABEzABEzABEzABEzABEzABEzABEzABEzABEzABEzABEzABEzABEzABEzABEzABEzABEzABEzABEzABEzABEzABEzABEzABEzABEzABEzABEzABEzABEzABEzABEzABEzABEzABEzABEzABEzABEzABEzABEzABEzABEzABEzABEzABEzABEzABEzABEzABEzABEzABEzABEzABEzABEzABEzABEzABEzABEzABEzABEzABEzABEzABEzABEzABEzABEzABEzABEzABEzABEzABEzABEzABEzABEzABEzABEzABEzABEzABEzABEzABEzABEzABEzABEzABEzABEzABEzABEzABEzABEzABEzABEzABEzABEzABHQIrKejijUxARMwgeIJuE0tvgjnMwM3iohnRsQXIuKXEXFBRPy/leNpEXF0RDwtIq4/n9l3rkzABExgVAJoK5++0naiDa23qWhjj4mIZ0TEDUdN1TczgR4EdomIb6x09ujwu/x9LSLu0CMNX2oCJmACi0Jgp4g4rmNbWrW3J0TEnRcFkPPJJ7DlypNpZYCzHD8XEZvzs2INTMAETIBO4JoRcXjPjr/Z7h4VEdei58QKzDUBvPX/ZaChVob7h6Vpg9vPNS1nzgRMwASmE8CI6B9HalP/5NGA6bD939kJ3DsiLhzJUKuHAMxt4aHCYgImYAKLRuAutfn9qk0cekQbvfuigXR+0xK4Z0RcNHLnXxn6uRGxbVr1fXcTMAETkCJwk6XF0Wj7qnZwzCMeAu4hlVsrUyyBu0XE3xMZamX0J0XEOsUSsuImYAIm0J3AuhFxcuI2FW02RhgsJjAzAcxP/S2xoVYPAU+dWUv/0ARMwATKIYBt0VW7l/KIKVbvECjHLqQ0vd3SXtTzMhkqKgEWBW4oRcDKmIAJmMC4BDaIiLMytqvnR8Qdx82C7zbvBG6ZcH5q2hPvU+YdrPNnAiaw0AT2zdj5V23tXyNix4Wm7sx3JrDNiNtSKgPseoQ3QYsJmIAJzCuBYwkPAGh/McJ643mF6nyNQ2CLiPgVyUBhpP+IiCuPkxXfxQRMwASkCFxppY3r+kI09nW/jYitpIhYGRkCV4+IU4mdf2Xsnq+SMQkrYgImMCIBLMir2jnW8ZSIuNqIefKt5oDARhHxQwHjRKXYcw54OgsmYAIm0CTwYJE29gceaW0WzeJ+x57Ur4oYJh4AsEjGYgImYALzRmA/oXb2y/a9Mm/m1T8/l46IQ4SMEg8AT+6fDf/CBEzABOQJYJcTa+h/UroHRwT6AMuCEjhAzCBhpPdf0LJwtk3ABOabwAMF29u3zTdy566NwDMFjREPAHBAZDEBEzCBeSMAz6qT3sTZ5zA1YVkgAntFxP8JGiNcV663QOXgrJqACSwOgStkiKsyy8PEv5diE2B0wrIABPCGPXZY31mMbtJvPrsA/J1FEzCBxSVwuOCLF9piBA+6zeIWy2Lk/DoRcbaoAcIIH70YxeBcmoAJLCiBxwq3v7+PiC0XtFzmPttXjIgThY3vdG9LmXsbdAZNYNEJXD4iThNuh38cEfBYaJkjApeJiMOEjQ5v/3vPEW9nxQRMwATaCDxSvC0+KiIu26a8z5dHAFs9Js25q5w7LiLwkGIxARMwgXkngLbuePE2+U3zXgiLkr99xA3tzIhAECKLCZiACSwKgWtFxO/E2+ZHLUphzGs+seL/ImEjOycitp9X+M6XCZiACUwhsMOS63O0gSojsU09sFvs1lP097+ECVwjIs4QNq7zI2InYX5WzQRMwARSE0AHe55wO41Ris1TQ/D9xyWAAD/fFDYqjErsOm6WfTcTMAETKJLAzqIOgqoRgRO8Q6ssu/qAeOd/r7JwWlsTMAETSEpgt4j4h3C7/c6kuffNRyPwBGEj+ldE7DlaTn0jEzABE5gfAveNiH8Kt99eFChuazeNCPjTr4ZulI6IPWBPf+IGZPVMwASoBOAPBb75ldruShe4C74ZlY4TbyWwUUT8QtRw0PljZMJiAiZgAiYwncB/iwZrw4PAqfYUOL3wGP+9VER8WrTzh9E8iwHFaZqACZhAoQT2FW7PEbQNfY5FhMBzhI3lRSKMrIYJmIAJlETgJcLt+tNKAjnPut5SePXou+YZvPNmAiZgAokJHCj6EIAdC3YSlLjwV7v9lYUjSx3pgBKrFZ//bwImYAJTCSAoD4LzVAvxlI5Yc4YosxYSgY+IGsaPvFCEZBFO1gRMYN4IbBgRPxBt6w+eN9il5Ec1yA/cDzu4TylWZD1NwARKILBZRPxa9CHgESUAnCcdt4kI+NJXGg6CLn+NiO3mCbTzYgImYAIiBBA47VzBdh+xDG4gwmju1bhcRHxb0Ajg5W/3uafvDJqACZgAj8A9RL0Ffjci0DdZEhN4lWDnj7d/OK+wmIAJmIAJpCXwGNE+4H/SZtt3v21E4E1bbej/lS4aEzABEzCBbAReK9gPII6BtwYmMoENIuLngoV+iL1CJSpx39YETMAEJhO49NJ6q08J9gc/i4j1J6vss0MIIByj2pv/SRGBBxOLCZiACZhAXgLYHniyYL8A50WWEQncRTA4BFaj3mjEPPpWJmACJmAC/QhcPyLOEXsIQPC3u/XLhq9uIwBPS78SLOD7tSlcyPmtIuKJEYGn1UOXDPbrEfH5iPhgRGBNwy5Lx8sXkheraQImMJkA6jBeoFCnUbePXqnrqPNvW1m8vOXknxZz9r8EXxBPjwiMUFgGElAc+n/ZwDyxfg63mo+NCHgq7DKdAr8G74+I67IUdromYAIzEdg6Ij7QY9/8iRHx6ILdl7+6Y5vWpd0b65q3zFRy/tEaAjsLPtkdExGXWaNhOR/2iAgsUJnFuBH4AiMFG5eTXWtqAgtJYJOIOGhAgLSfRgTeqEsTLApUixnw74i4Y2kgVfTFSkq1Vf8Y1rmKCqCOemAIcKxRFLjiRPRFiwmYgB4BbEH7zYwP+c0Xg7cX6NgGLyinjZT/Jo9Zv0Mf7wqYoa4cIFaQF0TEDjPkg/mT9SICUQlnNd5Jv/tbRNyVmSmnbQImcAkCqJOom5Pq7Kzn0HagDSlJbh4Rfx+Zw6z8qt+9piSACrruKOjw55EKYHrogDf/wxJVBDQ0t+ihiy81ARNIRwCjcmN3/lXnhTaktMXAD0vU7lVM+h7hIKi0l8d01rrKnTG/Dr/KfSGnvB5D6CUJGMJBUUomv4yIK5cExbqawBwS2CjDLqmPF7ju6X2J27++besJEYF1CpZVCOwnVnCnFubs51IR8a5MDPdfpSz9bxMwgbQE3pSprmNHQUkdGObdZ1303Ldz73q948WsUhe26LFtpSv0Iddh6OZWq+is9G90/tjbOyTPfX6LubZrKQGwLiawQASwf//CjPUdbUtJgvUA2MHUp01LeS22VW9eEsDcuqr5dn5ObgAD02MEyLDby4GF5p+bwIwEsFI/ZYc16d7Yb1+SvIDAaBK36tzHSoKXU1d4q6ogKRy/Wti814tI/M4ubGgwp007LRNIRQDrfP5AqvPPT5WpBPfFtMWxJE5t/didE+Sz6FtilelPhArpLxFRknvMJ5PZOQRm0dXPyhdIAKHR2zqYHOdLms/G1PKfybzqZYIgcpcr0OaSqfwsocJBQe2ZLKfj3/jeAlsmS5sqGb8UfEcTyEvgeeQ2818Rca+8WR6U2gPIvOoPAPj8lEG5maMfXz0isDiiCYj1Hb7vSxHsLT1PgJ19XpdiMdZzXgjkXOzb1haj7dm+IKD/K9BWVizR56HvW3j5kFCh/CIiEH2wBNlsRLeflVHOevxECcCsownMEYFPirSbZ0QEhthLkCtFBPyXzNrOjf27d5cALaWO8GCF2Mljg53lfgjccPuUmR3x3ggz+QMRbmB9+Ih5861MwARWJ4A6N0s7l+I33yvIVwqC8yj1OSWNoKxulT2v+JqQEb+1p+6sy7H69zNC3NCgLPyTLMsYnO7CEnivWBtwREGhhN8hxO5Li2rB9xMqBAxjleLWFvPtKZ7ih9zzZYtqxM63CZAIvFKwHUDHWoJgmve3QvxKWkw5Svli298pQgVQSvxr9na/tocErLC1mIAJ5CPwIKH2s94ulLI9cDchftgCv1DbApX8/Zfimek2EXGRkNFWlR6uNksZPcnXPDslE0hLAAvalNzc1tuDUtZSqSykBLtSHpwGWzUM948iHdmfIuJqg3OU/gbQEdMUVSVTOn4hffadggmYwAQCmD9WagsqXX4TEVedoK/aKWzDU3EQBI+qWNw994L54spQ2MdHFkAbi/6OFmLWLLN7FsDQKprAPBLYXbhdwMMJ2i512UeIYUkulmcq102Fov3BPzSi56nLa4QMtNn5H6cOz/qZwJwTOF64fXhFAezRB3xRhOE5EbFJAcxmVjFX7OpmR9X8fkFEbD1zLvL98D5Ce1abDOEK1DEA8tmCUzKBSQQQEwB1sVk/Fb5jvz1GKdTl+hGB0OYKzPDCN5eSO3b1tMJ8dgGErxcReCKclg/m/xBm02ICJsAnwIoE2qX9QWC16/ARraqBSthgvJzCy+vcyXtEOrOfR8Q64nTXi4gfivCaVMnhhKSE6RPxYrZ6JjAKAdTF9wm3F9+PiHVHyWm6m0A/FTfBB6bLJufOeAL8p4iBlrDnH14JJ3W8Cuc+XZDHL461O1UTyE8AC+4OFm433pgfSe8UVSIGYrt3SeHoVwUNV7EKnRcWe6jLXYXn/bEbQX30RL18rZ8JpCIAB2uHibS1zfYe6wF2TZXxEe/7ZRF+pbimXxX9tUQc2GChzHarasu9AA51fi1igM0KjBX/63PxOHUTMIFVCGD6EDucmvVX4Tvc7268iv7sfyM4j8KiyguXYqxckw1jjPTfKWKMB42RmcT3gFdChYra1OEbi+KkInH5+vYmkIMAHtSVAq3V25MP5wAwMA2VEes3D8wH/ecqb/9/LcDj38NEO38sRlR/aqcbuhUwATEC8Lj6XdE25cFirJrqwEMg+oz6gwvjM7YmFr0jAE8wDHDNNJ/WLGGx73hQwnaZpt7s7z8rxKWnWHFaHROQIAAX4qcKtitwv6s+vI2t4uz2F+kX6xdgo4g4TwCi+ra/Swt5oqobPOI1wEGGxQRMoFwC110KNAM/8/W6rfAZMUSUtxKrRKzFSARGc4qT54gYnbonKsUQv1iAcofiLM4Km4AJTCJwR5GF2M0HD/UIeHuI9GH7TipU5XOIbYyIUM0Cz/0dfrKV5RqC3v6wXQfrESwmYALzQ2BPwe3FeLvdXBzxCQL92Oml+V55uAA0PGzsLG5cnxLhVH8wg1tRiwmYwPwR+B/B9gbOi5Tl7iLMHqQMqakbXD/WOxXGZ2yDURaE0WVwmZbmR8Xn5ZTL07qZgDoBzLl/ULDd2U0c3FcEmH1bnNEa9eDJblonk+t/mPdSlQ0i4lcinKrygKMfLHyxmIAJzC8BePJUCyEMH/xXEEaOkeSqnWQedxJmtEa1owRgwWWtsuwvwKhuyL8vYC5OuTytmwmURAD73M8Ua4NeLQ7wSwK8PiPOKLYVWWiiHKce7ohVAiPhIQBuLzFqYzEBE1gcAncWa4fQJsINr6rcTuABAAu0b6QKCHohTGz9zZLxGcEwVAV7/hVWldbL5ZmqsKyXCZhAUgLPFWiv623RNyMCbaSqfF6A19tV4cDrFFwX1guU8fmWqoCWht32EeBTLxMMKSk74xAuSqtmAsUTQN3/pFibhB1kqnIrAVYXRMSmioBeKADnUEUwKzph4Z/SvNsppXqYEi5jq2YCpRFABFJ4S62/GDA/I2KgctRRhXDLcFMsJRi2wUpOpuEg7R2kqKytzEsF+FTlg5Gam6ytnr+ZgAksKAHMvcP7Z9U+sI8vEC6HWwhwwsub1MitgrOEY4SNBt6u/iZgOFXFLs61pHDZWjUTmAcCzxBqnxBDBl5SVeXLAqyktrl/QgDIrqrWEhHvF+BTdf4IwqG80Ga1YsRak3tHxOOWmL545Q9rK3Duqqv92P83gYEEJtkfbBH2h/+VKmgTFLa6Ve3UO4RBIr5MpSfr+CEVPlcRGD76qdqQSK1wbhoR/xYwGBjqOUs7NRB6uDRBZMnnRcS3VmEJzlhJjNXNmNu0mMAYBCr7g21Nq8ul2x9C9CJUL6tTq6eL7cmq05QYfj+ZzAnTuBuPYdxD74FtZPWCY3x+9NBMJPw9nBIxmExKc6+E+Uxxa3gHQ2c+S6P0p6VdKVgso+xhLAUz33M8ArAdRDWdxf7wG/y2NPvbW6i9OnK8ohz9Thj1mdTG5jyHSLJ0YT8JnRUR69IpTFZAyd+/etCNJkEsTPrZCJXsJxEB50sWE+hDAPaHkcWhDTrugVHAkuSQEfI9lFv1e1UnZehz4EG10pNxPJFtVPBNzMh4PU1sP1QUDBN9V4APWJ2hMlzUsaBQ6bEQqF7OQz6fGxF36Zi2LzMB2Moi298mQluWMe2iKi8ZsY2atX2j+r3BQoRZFR/jd3CKgDUIioJFQWPkcYx73FcRUItOCLyRwqEUbOX2LWn6tAlUBOBGPMWOnYuWvIBit1Qp8gCh9kt1gTcWHaNdGaONnvUetMWSV4qI88mZP0i4NmHB2qyFOubvjhBm1FQNje+Yb15NjpguUt5e1OTh73kJYBX/7xLWW7SXd8ibpUGpfTYhi2bdnPYd7tNV5V1kRmgvN2TAeRI548qBEVTm/tHgXJthHDOkebOI+EsGm8KWVYsJTCLw6Qz2BxtXDnpT54IdQykfyKd1+s3/qU7h3WCVnSHNfKT4TlkE/50MlWUaLIQdVpXjyGwqbvupAmrohUqUc0ENfHpbTKBOAB7e8FJR1Z2Ux7Mj4sb1xIU/K+zyQlkcL8yIvdPrq7nZXCdTRZlWCe+fO9Md01PwighuP4yIy3bUmXkZ3jKwSHFaWY/9P0T1sphAnQAcZI1tZ9Pu95uIwL57dUEb8r3MbNq4IYSxojyIzAf+J+BtNpvAKUtbIeU4/4eIWCdbbvsl9DUyG/CHQWA+XV0wd4UHlRw2U08Db3olNL7q5Tcv+m2R8e2/bocnFRKQC6MjcMxT153x+VhRg7t8RGBUh8GkSvOpOdl8n5zZ1+bMbI+0diFzqYzhwB46sy69TER8jsjrsayMO105Ak8g2iEW6ZYwUvdOIqOqXcMRW88VZX8yH0w7Z5HrkjMKI7hRlpz2TwRDy3VjZXzGnvcSfJJj+wqDT5WmFwP2t+95/UWOxX+V3U06vrUAsNjy9ldynQU7vDQoyg3JbDCqmcXN+/PJGc2+4KGjtV2fNIzYbFDgflRdFCKPYV7TYgIg8ANym4Y6XEKETjhda7Y3ub+jo8OiYUX5OplPlkXf7MoCX9WKAp8EuStDMz0sLFL3PY5pEoX5ROz3tpgACMA/RLMu5f6OdTt3Ey+O9SLi1wKs3izK6VFkNsn9JeAtN3fFqKeHaHaKHRwiz6XwHlbPe5fPDxGtGJVaGKLCAs4ueUl9zYWVUj4uPAF46Uttb13ujweRrKu5Zyj5RwiwwjQnHNGpyfrkaRKMjmyVEgp7CEh1rkxhryyGtBHTW1Wwa0PFOyIaY4yWWEwABM4U6NSqBwS8xWFVuaqgjWH7gAEr1SkT9tomTK8mE8aWrapi4LhDspzNfmOsZv+lQANyp9mzkOWXbxdgVLelb2fJtRMpgYDKPvfKPg8QhwavfJWurOPPRV94sGWSxQTp4iUriWDhBTNj2DOrKPcjc0GZHKMIpqbTwwQYNW33ozX9/HGxCXxc0D4RjEdZvizADAHXFOVkMhvs1BtdXkDO1ItHz9E4N8SuhGbnkvu76t5YEEYsAoXtQ80ywUOJxQRA4JECdbhpn4gZkGVb14wmgKidTZ1zf//ijLqn/tnLyGySTAOwtzgo+s6GTrmNvpmeqncsVDLMFyq8KTSZYReCahjp1I2T739JAtjjjlX4TTthf4d7YuV1PQpeTxW3BG5HtqXRH4w2Im/dOvGSdVbizOvIBY0GSnnuHz4J2I3opPQ/KWE9VkKJwKGitprVxWvPArmrALNX9tQ51+XMaQDsahk1RDA72AF2H6gJ3HeyVw8rR8jCgk2V7VX1hwC8/SuOJqnZ96Lps63oKAC2q95EuDDYowC/jQgsxFaTl5AfjkZdH/FecmYUXf/uRmaCTk01Rja2MWHRZr3jVfn8HrWWwvrIEHi/qM1+VzhewD0EmCECq5rggZLZ5o0WD+ZShHCtdXDYeqgo8CVf1zP35+RenwZAZ/uLaCuL0yICTpssJjCJAKY6TyfX6zbbTbKwaxKEGc6x/Xt8bAadc/zkx0Rbwtb0UeSmxEygMmD3gZpsEhEYmmurrDnOq24Tul5E/J3MZhJ/eJGELVtMYBqBbSLiz4L2e/7KjpppurP+txeZF9obPLypyf+QuYyyQPLZ5EwoDv8/hcwE816XU7P2iMBoEVagTuqAmefgpvl2gryskiYB2IqCa+9mnTlME9dyWwTPmk19c35/vCAbdoTAURaQfolYsKrD/2zPYaoR/x5OtJW2xgYLETFPaTGBPgQQtEpxJOv+fTKR8Vp2lNhvZMxrn6SYa6GO7KPopGs3IA91v3ySUuRzWJHb1tnkOH9BRGAKQk02Fgr0U5XDPyJidzVQ1qcYAlhJDRuq7EnheEZEoF1Wk00FHphGGfIeGeyrifaDB9hBwfPuQ1Qele0OIxfGGLdjb+945xiZSHCP/cm20mycERnrwQny6VsuFoGHRgRsqWlfzO8vFS0C7LBhcnmeIJc7k5nsOoQJM8Y93McqznP/iFyg8DKlJtchjxRNanQUG4Oc5QZPh5jLfnREvCYiDl6JGYHdI7Bh7IjAYjf84TPO4X+IK4FV1fgN4pvjHovuNfFF5DrftG+MAm6R05g6poWtb8yHJUQpVBNsiUb44mYZ5vo+KLDUT4mKY5udmmCFe66Cm5QO3OoqCjzrTdKXdQ5+KxZJ4JTqVkuOl54bEUdHxJ8SlMcfV+6N9SdIS9H5Sqoyx+LWDyRgOqR+vC9VZgfe9ytETnj42Gqg/il+zvQy+f1ZM4SnfubT3GNnVTzh79iubfdOmLdZb403RKadNBtR7EJQHDmalW/b71A/nxgRnyMFW8II3Wcj4r8XZIQAb3JKcS0Qu2D7NuMgnmcHVnoaMe9tST+B+FAEz6dXalNs2nksgGk2rjm/K0bCYjq8OE908Q9W3+a0i2lp/WrOO6N1VhY1InytkptlNDKYOsAD6qBFR9MaJIH/IWgQe7tb3f4Vw4CvHxFoq+p65vx8nICdNFXAqEROBs20ELOht7yKqDS2TqjJNclvuooubO9FtJGmkcMx0y3UjGYkffAw/KZEQ/tNjkO/Y/oB846Kc9RjFAemP5QevhRDgTNdKmNkZLMxCnrkezCn0188S16Yce5fP4vCiX8DpwpDG8chv1fcEfFNMpM6z8clLn/G7a+90vEr7kevs5/0GdvnPhgRiluzhpYl2xFYnTfWfKgJIpTWdcz9GUPuaoKH4twcqvR62wjmUOF6srpB7qNikBvm/N+pK172lIwa20ty20Vbeh9WAjOCLug0P0IOwd3Guu95TA+gfK4/AhelWxwiZP+3VQKz0lb9gshHcWqEGTQJuxB6Ldq9JbHw8OCxrphBX5HsEARettSEHQa06ogwJ6voB3yW8lpv6UfwH86OM1GxHfOIEQFMYyg6sZmlrBBU6tfEdrJeNoM9vs0CYJXfYNi5rmPOz5iiUbMz1G3mSF6vOCj7EQtP8entv4g8sMJ+y1UqW+5/Y1FJzgrdlhbm++BoYx4EHgsRwastr/NyHg9squ5s+9oRwtCq7IDB2gQlgW8Qps3eUwnGii7MUWTs1ukszOEteNpTk7cRjRk7D9QED2nMyl2lrbhWpG9ZYWX5Z0R4VlxzHD8dEXAfW7q8RaTs0GarCTNmCjyTqskribbyv31gINpcjkZgUhqDXBf2yWSPa08h8lAL/HNjkbcerIvAsFrJghXczLo2qf7lPPf7iFBc79PHprDtkTnfXZUX1lpg0aiSIJR7pV/uIzxbqsluRB4YXewkzD2LGE5Tm8/F8Htu462np7aK+h1kHhWbkjsOeJbDrhK1QDMV25xHdFxY93DpTq2T5kUqC2LhvllJ0HbltKV6WuhLrqEEY6VvY04ZYSv7qrInsdAU9/8/hsjjxFVLK+8FeDhTiJMOt6ylCqImqkyh1BtM9ufPCz7897ExOGdiM0RcBzjiUZKTiVwepgRiRZefEHnctwsPpgOgt3dRMPM1CKLCqth4M1KSZxFZVGUAn/Slzh3jjeSHAgwrlmrHHxfsQAjOZ+Aemc308UoNRkQgpDuLieKLwruJPDr1J4cTFXy4mPFiWPJsIg+lyH9gobBKHU5YSpQbRgRcFbMaw1LSPX0pGiFYlSjsWCEoY7VRw5sRbf53gv5TEJ2TVRcRtG1VYe5tRbQ9JdnEv2uzAAAgAElEQVSBWFgI0aokuxBZVBXm5xGBoCylCVwUMx8kK36lHOFOWM25TRebg/8SPMCwOaPTVRImEyxaVhI83LLsA4vZpwqcW7AWKfxB8GkNeydZhaU2HYJtJCwWVbr3mWq9mv/E/mxmcJSKXWlHMINDstLkIQL15M1i0JjD3njjVhIsAEZfx6iP8JsydY0I/M0zFEOaiJmsJswY4PcTgoFwkkzX0LAPeB4sTTCidRaxTrHq8ljpYr3HjQordDTw3yGXObghcqSKPIjI450qEGp6IIT3WHWk732mBkxjvvFiz6ia/IxUUNgahdXiKrIPiUPduEvz+Le5yHBwnWGJn+E5UDE0+LS6Ca+ObNZKLxCbRATePhlM1NZEwG6YbpIfNc1wDyIVEgwD7naVBB0wazoEUfaU5HiiXcA2EJmyJEGDhxXtjAZvHtPE9mClB+LVbBGjAN8llz/eMpWExQMPHojloiTYjseqp2+cBoLZ0MN3tJIwozdh64yK4E2W9SBUVRIsQCxFEHXri8QKXjGbtyNCmpbkLGgPsg3AyRTWdKnIq4k81NoPTA2y6ifapomCp9a/kBTDgh+kryTYM8kqpDsKgXgykQP4f12IRRdVmHbDstdc6SpGxWyzCbRnGH7OxWZSOnu1KUc4z9xFpGY3eJBlOVTDAsSJwnQBfMJEjbgnEWJzUqVKfQ6L7ZS2ujEjWIH1A7hm0Ct1PLhh/UZqG1nU+2M4V+1tbpqBYL6VWVafmKZc5v9hiyQrHO5nM+e1S3LfJtrG1ScpyFy4orZSE0/v2IvMqLxfmVQ4pHNXiYh/kjiAPQLlXI6U977JIqrfGURWDFtlpIkAQhMbsL4FluF6rMSHvgxOSBMvE1O3fWVgUE+CNcWsuMX8PUS7QDj3S8jTiQqpeXdDVC1WpVUK6MFe/f/sS1ip7gmmB02WrbLSVXyja7NMpitclA/WIqjIG4jtaqdAOBlB7Udk8cRJ+WTGtb7TJIWI55hhGzsFbMjEBg0tq5HHcCFW05cg2HLF4rSo6artGmqzUyyiZY6ivbdNMcL5BxLryd0J+Z2WJHNNxGsnKcZ0ToChZiXBmyerYUWDoSCXJQc3+agChA46IB68QowElr2y0kVcBaXh7Wmmwhwdgh8FFYE/B5a9PE0FwooeCGjGYoHIlZeQH5EUwrypmnyQxAJxGFSE6RUSFeNuKiBW0QNP06yKvOjpvnKVslH5N/PNFzZyAxUQK+t6GHaLOXc1YXkJxQLESwjLX3nrvsRLaJjvxPdIjfrEJ7N82V4rpZeSGKBxwOI/7KdXl20iAvutGQ2a04y4qBBXwdjVA/e8rDJ7klBFQkQ6BodvCDGoVGHtsLrEVkAMwTMKBWkiUISSYI/mBSQezxACga2ZLJso5c2O1ZixykUx3YOF6sw0VQ4k1ielRZPPInE4V9DXzPtJLFCPN6wb682JirywrojA562JLCZuzyAwQfAf5n52hGFWF4QZZfk379sR44n/kKV92FjbglXh20YEdrpstPKHzziH/yGmPfaPM99Y++QPZYAQq+qyM7FdQeeHNT0KsiuRg1pMCabTMNT3NXJ/YqE8bI0WGh+wurhPAzTmtdfQQBDMSooFdSXIh4h20sXmsP8cfr93nNGFLkbCEDnsgNCPaIg3KXXBlNbZRJtReajegsgA7t2V5JFEFvD7s0Yw9NylUUlxDRabKclzSSz+LASB+WT6OiEObaogbgVza9e0eviLJZfeTx05HCycMe0dET8l1Y1p+cX/sA4DoxjqgunO1fKS6v9PEIEDJ2vnkDgoTbGiOBDhNFV5r3ZfuHhfI0wfAHgiVJJ3kQpFKeLdESQGMNrbKhlDiy7MqJltFRtxPBDOO+XiSdwbDQerAW/LO86/raWslE7fi1ivlEZJWOuL1GyE6XAOTpnWCMsHAJ7cUzZYazLY4wOijk1raFL9D52KguAJnTX/i05MzR6aZYJ9/38l2Uib7aH+Xq2paMLvcMXLfEicxAEPJeslzPMYt4btXEiyHYzeqAhrJOQwFQAremBdBmskEQuY1wgrahWGK9WENcypslUHe4YnNbA5zikFL2mzS0RYy8GiSxpYqIlhTTy05RakiUWFzMWiTUZ75oYwQ3pfItkPQnqreNZkucGFrxs1YTkR+04dBGtxyhfqSgh8RqOGABrNhiXHdxV3yMwO7vECNrCaCkeR7KNpg3iTxOJdtmDRLGvbbJOJ2hvepLLBLoum3rm+q+wygpOvXHmup4PdEGrC8gWwxukcOj3WMISaDwBEdKsbTM7PKi6AsQc/Z77raV1XrXY29NlM5I0XcRKwrUxF4NecFeq1bj9ox3JOhczCn7nlet9ZFE7wG+bc95UT5GfILVm+APCiuyzY812vRDk/Y7W5krAqp9JaCFYAoDOVDKFFF2bEzKpeopNTDISDIFYK0wHYAaEsWOPC8rqKBc4Kgl0lLFu5qQKAmg5Mj6vLa2bw1lU1LrmPWLWsJKyobqcJQcC6jNx2gPQ+JcSgTRVMWTHY1NPE/KmqPFOAD6Zo1OVYEqevC4FBkKK6Xef6fG8hBlAFu2py5b2ZznKI5FsSFXiQWGEgYlQTUo7vmAdSEKxSZnm3w4IyZVlHYK4bc9yMBX9dywW6HUqqQ1U9xdAmykpZXkVihN0rKvZzHImBymLryj6Za66WR0PgHamqPLmPd6koiBz3J7FA9EEFYU2BwO5UFkG2lQP0y10/6un9KSLUwmZPYoV1NHBqVdc992c152JNTvch8lHxu/JhEgNE71SSu5M4oE4uryN6KFEBFfeUlUGwwgC/rFKAfMQ2qtyNdZWe2uKcZlEw5+rAaJ+mQsLfMbVXlSvj+GJhNlBtSyIflQdt1iiIWlhg5ksXwlQvuw1lVFKkqfI0WrUXGGJlsHhspQD5iGF4Rv7XbEkh539a8l8jsUF5nDSjP/9p+Un5Pyx0+wmR11dSZm6Ee2MYHlvSGHXt4SPoP8YtsOWXkf9Pj6H8iPfYisQB7JfdQzPfbDDnrCTHkwrjniIQ4CqTUSnhVU5ZEBiH5R8C5fEQZTgtuqGjYdgS0vyb0Fx3C55AfHoGH5Xoq7uR8q/kch22gbC8DDtAmi+AAqw41dg3rCY/IxUGFmIqCGsERD0AEMKIsiopVkurhHLtY6PQ+Qwit+UVzn0UznwthqIZNqXie+U2pPxjNE1NLiKxQLTQOJiU+G/VSiEiEDedUSm3FmHBcgn9GJH8t6nB8lwGW4RjplIFC64Y9QlpwjmRsjyLxOYYESgsl+OK/kZ+R7IFhDQPlmvTH4oYYqUG5uVYHhE3qpQgHxGMh9Fgq7gobcOPrUMMLkhz2zalCji/HZGbmo+RZnFhCzTDpjDKqSDY0cLIP9621QQxChgs4PQtWE4pkK6SYBU6oxCw7x5zzGyBdy5G/pHm9dmZXyX9t5LYYAi9dMFIH8Ou3iQOjjUEju2kCoKFoiyfI+srAKjpgEWrjDryeegA71CMxA+vAVD4yPKIiNC7CoIQrww7QJQy9TCurNC3Kv4hhtjn/5LsSj0wEOJKMOobOl2VkNusEUes6VES1ij88ks4wgIyDFHN9ev2JA6niFjijUn5x7oLdWE9JMNNaOmCADSM9gXbNpUFo36sKceNRcD8nGQbatNqnyFxWHYNzVr49TERI6zUYLlE/malAPkI72mMhvpkcr67JM+qI1h8WLqwPI3+oABwZ5HqnMqi42+T8r+jmG0cQuKAl//4KSlxteFNVgeoEgcAEeYYDwDwCa4uvySxUQ+P3KXcrkdipxRgq40Ty1nSrdoUynwee/IZbQ7WXygJa5oMiw8DFYVRCCr7UStDwLYhBoejKwXIx71J+f8cOd9dksc6DYZtbNJFOfFrNiWxK2FqieV4TGVkiRVd845idea9pDqyPP3MWqULB0RKwhqqVFmshL34jE7uA0pG0KILy1HH5Vv0Kek0IvMx7OrCAiDh4ZfBBl74FIS1uFZt2/HbSXZwOoyA5fxm2QuRghWu6MAaAldZDPlEkhEeJGQDbar8g8RmHh4AkAdGJ4cyU5ePk9jcVwQMK3T0vUTyX6mBLauMOgIHRIEY0YzEX1PlXuT4ABIHlcWQ+5Hyr75fG+Z5DomNioOoIVWU5fAFW8zUBZ7YGG3vg0XAsB6A9hDJf6UGXKEz7ABhuwM++RmJq4TArQoBAVcYHFQWQ7IiAarHAYB9sHzaX7syzoKPLP8aiq7Gm8XIigegEhGQtfgNXhiV5OWkvgdBs+JfpMRfpFQCEfFIEgeVxZCIEsZ4AHqFmB1MUudUEpudJylT2DnMtzLsSsXl7bTiwvQXg41K+HHW4reHTSsUwv/QFzLsAH4oaO4Y1R4AHkEqBLwFKAhCQzKMsIRgN98nsVH3Z9/FbllxFL7XRTnyNX4A4LQ5ag8ALya1L8vrZLBaltHwewrgYu4qUwCs6GQlTAGwwiSrPBwO6SffR2pfSthe6ikATt/jKYCLuS9PAXgR4MXNmxcBcipjCYsAWcGAlrfpDOl9BX6LPDBeMEqwK9YcuBcBClSMmgqsRYDLgaG8DfDikvA2QE5DXcI2wGeQOjF0nPCkV6rckMjtaQVAY62C9zZALeOgbgO0I6CLjcGOgDgPACU4Aro/sSP7H622qpc2mOZjvP0jTbWtXpPA2REQxz7sCOhi7ssjjHYFfHHVXHRXwFgYw2isS5irvQmJDcoDEdMQOa40gc6stgXctikAGMsVsEoHaFfAFxspazfEsitgVkAKlcVvVTux6MGA7k3q5NAIqgvip59H4lPK22yzDFlrasDrXKGY900u9e+sQGy3qCtB/MwKBnRrYp4nJf1hUtuyHAzoh6TEVTzgVQWy6OGAb0+yAzyAliBfIfFBh7YctrMESCs6XioiWFsnwetLhbA6m2RTKlEmHQ74YkNlhQP+LpJnFcKnxSrp9qTKCCczCnIjUv5LiNqG8mGt1EWHhr+9FIykow6syJIVqxJ8S2CKBI5YKp1zHjfuWI6pL/sFKf/bps5Yz/t/hsThBOiJeOw5ja9K6/CekFJfDrerlW45j8tbMVJnrsP9r0bK//9FxBU66Me+hLkQEPZ4ZkRciQ2hQ/pXjojfk2ypqrf36aAn+5LNSYzg+VVlTQkrxsY12YXfSP8oki18GXp8kZT4sQ0I7K9oXKsGJOfx3yLzlZeLCHTGOfNepXUDduF3SB/2wYoKWHH6aAc92ZewAtxUjFBGJTwo3ZZU1/7INpCV9C9LbG/UXjhY04tHoyyOJBniiSKGWKmBeUvWkNwmlRLkIyKoVQ1pzuPdyPnumjweWnNymZTWo7oqS7huHwE+xxDyPUuSe5JYYeGhglyVlH94vlWTk0gslndg4a1iUkOT+hwirKkJa1GOirMX1oJQleAkq9kjnMukrher3f+iiFDZxlXndeeIYLkVrzN7Sl0p4c+s6JvLb30CXFhOohT7HdaU2bIPFpabU8UnMdaWyFsJVEiowHJM8nqR/K+mBh7U6p0N6zPmTm+2mrIZ/79jRLBcijfL4DoZ8z0kKdbe73cNUXrE37KmQBRHnvFQ37TjHN/3R3m+hJQ4MrjBiAY1xq1YjjnuOYbyI9yD9TCIaahShLVrptkgwC+BwkjAnSKCtZiryeQbpRhRRHyT1O4i7LeC7EbKP+bblYS19gx15/kAgSGzZkXK9X1LpZIgvgFj7lRBWBEBf6OQ+Y46PI5YX5r18u8RgTDWLHm0yLB/xeUxLBA908V6IzgrqvTOecQWTQV5Ain/n1LIfE0HjFjlLP96Wo+HHthfXD+Z87PSMCZYvJ/E4uU1g2B+RJjMnOVfTwvbx0qQK0YEwmjWdWd/ht1umBEeGLBX+zeZo0NVG1FsKxK8+DT1z/X9jm1KZT7/KhIDlSmQCje8MuYq+2Y68NYZdycqoDCEWRUEjm8gsVBxi4y53KaR5PqORWSlCGv+dlpZwE9Ajre73SPi10Q7aWPwzlKMZyVQUVs+Up9X2QP/EZINvUbMTnYlcYCd7QwWNycqoBKXurKJ/Ugslh0yVEoQj9gfC78EqRuhSfd/LjHffZPegbiHeRK7+jl498L8KoaZxxLcC7EiWPPW9fxN+gz/FduNldkM90EnNCkfqc9hrcaYdjEEFWu91ZOGKJ3gtw8l2QJs7abIz1ZEBdQKA3GyU1fCSff/ZQLDmvWWiD43ScfU5w6dVWHS71g7JrqWA3a0PC8ihqyzQduAhUKsoDVd86rmVnw1k2Q5flEKvMUKQ48RLCV5Kqm9Rd1aHg3CfF7Xijb2dWqxzlmjIfBehohzCsLyS32WQuZ76MAKHjVLHcTDwNuWhu7hRAjbr+D2ed1aXvEZ524XEVjYd2ABnX7FAW//mLoqReABj7WGRGWaBF5H4ZK4KsOcR7WRopeSOID5Go+IrH2I7xGrtZsSC2MLERavIDLYWoRBVzVYPrzHajDh+ZLl/XKsPKjFFFnNdpgPjvuuplym/zNXvqstNmYtPL+gXtZYQDRWhexzH8QhUJPzSSxUFsFhXUafMhzzWmwNKknw5slaMzEm91LvhbdIrMcoSTAtw+J9FxFQrIXncFalJqzpICzkXSMsF7CnrdFA5wNrvvPJIgiY3u7U9uh2KZK3Ext0Vkeiki4cV5UmWPDL4Iepko1EYLFcaqt5AURxnE6yh+/WbeGzJCWU5r4rHp8nsUBHoiBYJfwHEgMEI8IcaUmC2OosXoyORCVNhNFWCaLV1V7XJzpOOrmrkhmuw9Qvw46Wg99kyF/XJJhrIT5RV/LNpAKBEVyrrojAZyyUYRjn1wTyXqlwGIkBuN++UqKgIzxqMWxmkdMsJYBU3YxZ7m9hJ++rK0L+DJfNDNvFQlglYa6FWCv+ytNJBQIj2EmpRJae0J9DYvFnIQ7wF86ooEhzOUCFEIsuqlx66cHlC0RmrLJipYuIdir72bvYR3UNOmEWM7iwVhCUGytwFPo5JYEjHpY9rDXlzNr/jszn8F7Wp9Dh8IRVKJv1UTThtfDQyGKAObESG/fNI+KPRG6s8sqdLh6UVXbM9KmCmNpiThUtO33po3CiazHim9tmqvTgdU9JsC230i33cS1/CPDJn1uBKr0XKZXIko/z6xJZ3E2EBXxDMLeHlbSvu15kzAfpqj7N+/GBdeAFfd6F2K7gjVvFz8g9iBzUHhyZkXhvUq87WMjEajjUfAFgOJe1FfCZ9UIhf2a56oQdvpqc9yHJs9aQsOpvznTfMaRgyL9l7hZR8rL5bFJfg4cgtZHFD5BYoM5eIngYK6b3l8gVc1Ly2CKRs2Gr0lprZeYkxTKeg5fGSq/cR7gJVXlj6YscK3uPJbLLXVa50sMi2XX6FobI9fC0iKmLXKya6TxRhAPUgNvmpn45viNGhpqwfABgqvISwvIF8PtLaMI/wXoyO4Of9TUawC1sjorZlobafN0aMB0+YHsaK6ZCG8+SzyNWBrx0lip7kuvS9YXAoY1j2OK7hRhUqpxNYvHtSoH6EcNEjIJBmletKyLw+VlEFirhOrFoiTUqBJs4WMAOhqiwLXG1M6sep0gXNnjjIQUh8Nsjie3JrwTyX6nADDyHSK9Kcg2iTRwyCcQBRIWW4xJPUop07l5EFvcn5XlSssyHwgsj4iqTlCroHALvnEe0pRQdcs57ImiO2jbhvuaHB3pW4BuUldIaK+ZIiMoC68p+oE/OulRP63WVEvUjnpDqF+X8jJCISsJ8Ul3LQQMZCiLD5bSDZlrwm166wLERK/pbk2dJ37EQ906lF/7SuoVXkevQfwkxhI8Plg2qjKxWxcFyhwz+T6qUqB/vSSwctfkZrBZl7dlV8giIuWzmdkDMF2JRXemCp/2/E+sXq9GdNV1EKsO2udJlPbJvCDxErQn5KgATC/FmtYkhv1MMNc6KAgiOE+sW9kgOgTzkt98UMM6mCkeQeKDxU1rtjIiNQ8p26G8xbDgPchviQ+XQMsj5e/j4L33Yv7JXuCvOya6Z1scrRQSO2AnBegj+jED+myqwdprBRlrX3KHyNY0ox3c8qWL/vZK8mMQCvFVCA6M8sIUohw20paH4cDirnW4dEaeQebZxVjiP6KA3nBWu2O8wingSuawR2ltFmN5Fn6sCYUUPbHHGix6jzmHnQauw9iUCBBpHJWHFrAaLVwiBuLpAzHu1BTxDigc8v0Wq/IwGp2uaGB5ufTMZApz02/uRyxiLaOHRU0VeQ+Sh9EKF8rgBkQVilrQK4mt3rbBjX7dHq1acf1yZ2PGhg1CSrxLtAnYGr4TzJJjieROZ6dj1d8j94OFPadprqK3h7f/75PJVG/b+HokHdmBsMLRAR/49dnoNqS9DfvvGaXlBxKghNx/yW7WYAOD0ExIPGC3cM6sIezcA7OouKjBG1OM+ZA9xQ+rrGL+Fe9ZSfftPMwOsvB+Dz5B7IC6FimA7779JTH6gAqGmB9PLKtryVsFCpSFGN+S3n23VivcPZvhOJX8A8BvN3sr2dUFf3mNY5rWXtrt9mVjvhtTZIb+Fu2Rst503wVom5gIvlAl2MF1eCCxz/z9iMKjJ4cT6fotpMNDQ/x9JOfgnVgvW8HgSC1RitcAnHySyqDoapYeiafWo7/9g9wiLzXINWvHNcYRP/H0E63rfMmu7HuWYg+O0NDC9pCRwRjRN35T/e6QSiBW7Zy22xyjM+qvxwErclAUy7d5YHKEkiKE9Td+U/4P/cyXBQpqU+e1yb9jmPM0VN8sX/u7xoMV6CO9SBrNeg8YHe59L9+7YLLP6d+z7h+vdWRmN9TuEd1cRPNwymajtKtmGaB+ndjEKpvtXtac1DOcx38q271Jgma5BRWY+HFaNo5pP7xT4EUcAe7jn5UHgmIhQ6pRSlBnuCc+VlZ2yjgjqpiQ3JzKBIzG1UWWmb4hPdTGMlxEL7F1dFMx8zUeJPF6aOa+rJfcMIouqQcUQ8tVWU3RO/o9YAmxHTBX3WY7o+G89J2WxWjY2j4hzBeoHFnIrySuJTDDipCbMdWUv6QLjAcQC+3EXBTNf8ygiDzgSURJsjVQIbvNhJSgZdMEwJuZ12QsxuzwEwNsbpjEwfbZI8kliO1GVCx6OV53jzVworJ1UYPKQzHntktxPiXYC3xSrCp5kK4PKfcSQp9L2N8BCEIncHOrpqc1hHUjmUbFBxMZFk42WQgxjCuQ7ImVQlQWOiDG+b0TgIXHR5B4i5YHAQ0rCnO9GX4KQu0qC9S/MaT307Z3k10SDRlAiNWE+talFxMMDCdOIq07nFxGBRVeLKtg++MyIgKvkiknuI9KGDtBlUQXBdhTWxiBoF+K5KAl8u+S2ySo9tbUQKBemfwjYaGf5GLHgXt5Zy3wXvoXIA297anIUkUdVwXE8QA0MSZ86k5yfSdmVSlZlRAxttprACU9Oe6ynpRRWvSqXVxN5fKhSosvxKURFv9RFwczX3JvIA2/bam9YOxN51Cs52Myjh8C+5l1nkvNzXz3n7XoM/SuMhqHMpzp4IYC/LrmN2JWQ59WSRKj3nPWzntYTVlOu/v8diYoiSpLa0C4cJP2DyOSF9cIR+cyOD1AZ928F143kLqKKRe5j7nwqpYf53DOJbUK9rOFZTk2Y7m4vElwMiakiVjhk2EqvRbmXJa/2Voz+hpGJeqXL+fnngvtZmeE9m+wPVmv9MuvT5JHre+ZsyiSHveWfJrYHzfJV22rJ9hnyeRlL+Y8iWLTcLLdc3xFzAyGIewmzw3tDL03zXPwkYgHCUHbKk81eqTCHtJqVB+WzqNJkkev7ovJ+OrktqJcv1uOoCdtrKFxNq8mbiTYz0wMR0yHQyWqlFxHYQsGc73uvIBPMs9UbI+ZnTNHcTpBRDpVY3HPkTS0NBEzDEDOLeTPdO6gBWlqz9AEiH7icvrogk1OITGaKtMve27qlYCGeQCxEOIFRi2uNIjqOyKTZGGL7KvzpL5o0OeT6vmic4YES7mVz8V0tnZne7BIXGtooprOwryTO3yy3xyLu1coy5f9nWigNhx6sGM6AoebSEgWPPc8pC2q1ez98FutL/BvMPzJHRprMEFpXKRRqYvzLt28yyPU9R95U0kAQKqUpr3/1XdiVCSTTcyrs/qmZ8tknmScS+w3YyRX7KFu/Fq5oczUmzXQ6BS6oK5vhM3tri+LTLbAz/UY07QbfEb9BLQhISvOcxCDHuZR5Uro3bEkhHHa9TN+tBKimC3N3EF5ErlXTReXjZ4n96PeGQHgrUXGsXLzcEOUT/Zbp3AINQK/tHIkYNG+LIa4LibZSbxirz4pbJ5vcxvpe5Tn3cSz91e+DICq52U5LD0Psam5uUYY3IXOCZ0o1wWgkc0pk0IL63ckFeke10lwa7ma6t0SjoPrk/zqyrTQbTLwNPFTQflKo1Mx7ru8p8qJ2T0y7KU1xoWxfrAZpRR9mpDtwebYgl13I7eKgLfWILMV8s0MoSTVhBriAkcNREpyQqAnWjJxFNvZmx4edAfC/Pe/SzHeu7/POdY+IgI/9XDy7pPMbQSc3sIOrkh3dgN31BA3ytUT7GcWp3heIGVALh1vZFzsam1qAoIoL3ri7NGI5r8GWLexomWfJybOe1jwzxcpppue2Ouf6ZzyUKAp7ZPR4RSgRwQyHfMQYTJ5BbtRvPEYmRr4H2ykQtiIpro8A5mPI9lJvLKvP2EJ5+5FtQOl2VT5zH5UYjKkLbOV8QTv+zJiZHPFeaIvgkju3/dXTU3T+sx2ZCWL6DJZtyZmAT2k12Zg8NQLD31MNyoo+W69MU9Qrp8JnLCrdXpTZULVYfIfqrfh7LGT7M7nNm1SeeCDZShHYylqbSTrnOoeRGkxBqgnTmR7YX38sIL8iVggMoSjKx4lMULjfUISyotPzyWzaGp7TI2IjYW6zqtaW39TnZ9VX9Xd4sIczqdTcZrn/01ShRQR7SvQjomyYw/+njcnkXeRKgYV3asIM7lA1IINWeCYEiq0vJ5JtpmLUPGKl8rxJM4+5vs8bR12zgvsAACAASURBVMRMz8WuTzroYBGgTVHcDk4uFYw29injsa89cLJas529HzkzitMAqJBst6Bfn604s/wKD22Ki6jg3VLRl8KQQhm78eh6vyE6q/0WQ/9Mz6dtzFGHMA2rKmxX4Fh70DvSXQaYryD3maPufoIrQWypajPS1Od/mqHAZkniNUQmFfOdZ1E802+eJcCn4lQ/IpTrPEk9bzk/zxNDpre2aWX2ZGHIdxeo3y8X5cMM/oOdTxuOzYXp4hEVRPEp+EYCFUDVPTDs79JLYYyZYaXbGla86SGwy7xIWz5Tn58Xfogep+bsB2V3tLhLa2y9S21j0+6PMhttoduIxrwDmQva3NHlOeRMvXT0HI1zw2PJXFBBFD0mVnSvKbqqWjGwUsWs73FaI5nyf331VL3+0QJ1uFlOf4mILVSBLUUBhZ+Eps65v2PLsaKwh/8RtG50YQfCUZ0GuI9ARfji6KU97g33EmDUbJwQwGhepJm3XN/nhd8hYvaJN9v7isPFyGMuO2tLZzdRRqeS2VwnFRdEFmorjBznb54qYwPuiwUo2HKRI//T0lBeCwC8zMBSk7hhZfW8yKT85Tg3L/y+L1B/6+X1enGw2H1U15fxGZ0sphjVBOHRGTyqNL+VEgh7GuCglJkbcG/s0a0KgHVElELFClFhhbcw9orhetlgB8e8SD1fOT/PC7/fCdTfqtywswfbaFUFbQz7RRCsVBdHIlhbVZaM49NTGg7CvjIXy8CbGwIUqQl2SUA3RoHX09xbDUxDH8xpni3ACcwQ5GpepG4DOT/PCz+sms7JrS0tPIhsJg5VYb3EuRGBNldNNogI6NZWvqnPo29O7i3y28QMAuAj1Ep9RR+FIW7sib2CKJ9KLUxV/ItsQ7CjMyuF5uCYumFpu/8coFvOwu8F7BF1AgvrlGW9iEA0wjZ7yHX+jaKQHktmc0IOLuy93RhGVhSEolRwJAI3vOqiMGWCYcx5kVwNbzOdeeGH6bNm3nJ/Vx3SrpcxHLLl5tJMD20sFqQrCtyzN/XN+T2Lu+hrkacBAFQxQiAMEuEXcxb4pLTOiwjsa1YXuKqcpH+uc1j5PS+Si1kznXnh9ymyLb6pAJCYmkBUzaYN5P5+qCgrdtA8DP9vmYvNN8mGoLpK9s5kLlVlfEcuQxiQDnZPML2vYS5zXqQq99zHeeH3OGK9xUuDqp//evm+h8iobteqYb0PIPOBU6ZsgpWG9ULJ/fmPEbFOttz2S0hhfyyGyW7TT23K1XBXyRh+xdOy+mKrPgWSu/5V6fXRUfla2AJjcTOmobBwTF1uKTK9+QVRUNi18Qdyn7hvTjZYzc2oMFXDg+MDc2a4R1p3JRtCxQjR+LD1Tl1gS1i8WOmd43iUOpSe+uVgNimNnmpKXw6vcpPymOocwg6X8BCK0QkVPwmqHk8fnNl2mjaJvhhT81kF+1WbiuT8Dj/ZqvI1MpuqHJLuCR0RPvx551qJjcpyqxF1V7hVVd65jwp5H0uHW2R8qcFWWMQRKUGeLdKWqS7+RhliZCJ33aunR2HzeHKm0ZCrLgbclcymMo7zIwK+G0oQBNCA//NK91THj5cAo6eOqVitdt+easpf/skM9vfngsJRY1GZwsI/2KGqp1Ms/mOPhj+GUbMwf4sV56s1Ein//05GxjumyV4oWXHHIqNSBG/mKR1pnBUR1ygFRg89q7LOfeyhYhGXIkJkSq+AeCBXXcQ2qYA+R27fK3vGaLOqvJfMCH3w6KF/u8JmZx7e3FS3vN2LbBhV5cHxfl0LVOA6POn/PQG7CyLidgL5S6FCvaxzfk6RF/Y98RCa4q0X3gbvzs5cj/SxxiqnLU1LC+uqFOWqidqqaSya/6O+BN9WwEjgnEJV2F4TK2OB17tNVCFN0Ase0cYcCYCb5l0mpDMvp6pyzn2cF37NfIxtf7BldS9/dQZXSTwS0sdOs3i3q2e+x+eXC/R/9PVMJ5EhYEENXFQqispaAFS40hzfbBcRPxnBtn4cEZinm2fp06COee08M4X9nTyC/eEeNykMVI61EF3tUPXBHS7X2Vv/fqRgV/uNUEm6GkPbdfsogGjRAVvO2vTOff5hLTqqnsaDHVxP/2kGhvAV8Qzhh8Mxmee2oyq9MfOgeC/Y3zMH2B9+q/py0sb7kTPUtcoexj5iDYKq/LcAp6cowMHQcoo52z7G9DPhULjYqfBPAWMBz3Nyuosc0TivtGRj2I6E4cBp8RYQUAULhvDQgN8sivSpK2Neuyh8u9ofbLNk+8OOIYWoprBR1OVtRA0MIZFPIbfpWP+GqRoJ+SgZBgxmNwkSk5Vgx4iuN/rwUQA3vKXKpitlja0vL1r5w2csupSpEJnh1ss35+fM2ZRIDvYHW5tkf/hfqYJO7csC7Xhlv4gVoip7CHD6sBIczNNUBcc6HqsEpKELtheNuahtKGMMjVvmh8BQe5j19/ND0Dl5jkAbXtkh2krV3V2wFDjeqXRlHRF3RkYuFRE/F4Bycxkil1TkxQJ8KmPF8NH2l1TRZwolUJVr7mOhuKx2g8COEYFtirntpy295zX0U/p6awFO6GvR50oJCq2tQHOdV140gsVA8P+di8Vq6Zxe2NZAKWMXU2a1sk71fzEMVmcGAhtFxC+E2qXfRARW2KvKkQKsnqsIB8Pc7MWAaOjo+yKnFA5C0KZqjGe5Lx6Y5J4kp/DzvyYTmKXsx/jNZG18thQCqPufFmuTHioMT8HvDfpY9LWS8i4BY1KO9IaFNuwgSs2GX/JpUtK6dZVqlmmu77pErFkXAi8UaK/rtvoN4d1c4PlFAV4HdSlY1jU3WGWbVr2wU37eiQWgQ7pwCvIPAUOq+GPr0t066O1LdAlUZZn7qEvEmq1GAC63sdUut820pYet0jddTWni/xHDoU33XOcRdEg+iuRhAqDwpKYsrxNgVDdaBMm5pjIw6zaVQL0sc36eqpT/KUtgi4iAB9WctrJaWq+QpXWxYgpbJA8VZ7SsHrYnrFbYOf5/J2FY60cEFuHl4NA1DUxNrCPMzKq1E+haxmNf166R/6NKYN0Vh1pj28KQ+2ERorLHRAQjGpK/sX57B1WjauqlEAoXezWV5R4iRlU3zo95UaCyybTqVi/DnJ9bFfI/JAlg0d+HBNsdOFZSlq8KMENguWJkLwFgaAhVw0hWBYkAPTkb7C5pKUdXrLj5uDaBLuWa4pq1tfA3dQIvE2xvPiIO7Z4izBCeuRi5bET8SgAcnpqUt7nB29VfBDjVOwcsNNm7GEuzoiBQL7+cn02/HAIPXnKbjbqd0z5WSwtxBzYTR6gwmv3LiECfWpQ8XcTY4LdZWRSiSjUrKryCKe+kUC5Phm7N8sv1nZFXp9mfANZDKXn6q+zzcf2zkvUXDxDpw/bNmuuREttwJfpcVdisIxaYKC9uwwjFESKGVi8jhODFtk6LPoF6ueX8rE/GGt4wIv4s2L4cLT46i8WSePPOWZ8mpYVRkiuWasavFwAIqAgPqyzYgqdYSU9V9jqlXKCZdZvUcOQ4lzmbTq4nAUwxKrn5rWzyjwUM/T9fpO96Vc8yl7p8cxH3wHiKknWfuFJi9xMxuKqSVscTI2JjKauyMk0CVVnlPjb18HcdAleOiO+JtikP0sE0URP0FegzctenZnpw+6u+RmIiwPrJAwRAAizcFKsLVsQ2jUDhOxbCYErHokmAZSOaNKwVhoy/JdqWfKCA4oGOrDpVTxd9Z/GyaUScJwAULm+VwwWjoK8ksnuiboTV5+MjAg6MLHoEqjLKfdQjYY3gUOdYgfZ2ki0i0h+iDyrLzUTc2ePtHyPocyGvFTFIOAdS3haIwt5FxAAnVWAs3FFeUDkXlWWGTEwqqxznZlDVP0lI4PJLLzkKrtgn2R5ewOAlVlnQNyg4/QG/NyuD6qvbJhFxrshDwP37Kk+4/o0irCZVZIQPLW5PKqEMcyY5qZxynMuZR6c1ncBllgLFHCzcbuAlUF3gKyFHvVktjQvnMTbLy0XgnhYR2OKhLNDv+yK8Jhnr+woYSVEu37F1m1RGOc6NnQ/fbzYCeHN9v3B78Z0CRg4xdaLgvA719i2zmYH2rzD3o+L1Dls81OW6QrwmdSYvUge4QPpNKp8c5xYIsXRW4b47R3nPkgb8iWwlTe9i5VQY/i0irlEAr5lURKcxixGN/RsMscBBhrrsLui+syoLxBK/rTrABdGvKpPcxwXBK51NxKnH/Hrusu+SHvSCL311gcMzLLrrkqfU17xSHdYQ/TYQikON+M7qCwLBGnGyUxvdrPfH9sASGA6x2RJ+O2v5Df1dCWzmXUeE8R5ajql+X0JgsUsvLbz+mghDjJDPvc+V54jAhtE/poDWAQb6eSFmzcZitwIYzruKzTLJ9X3euarn77+E24UvRAQWJqqLUiyW56nDGkM/7CU/S8Rw8cRVwnzLVSMCe2hzNex90vniGEbhewwi0Ke8xrx2kNL+8WACqvv9sZjuKoNzl/4G2Gev4PEPdfL3i+Rn5YlCndkh6e1slBRuJRrR658RAbejFh6BMTv1Pvfi5dgpY1E16l6f8spx7T8KWhuELc05mHRJY59FMmnsIz9JCL56yODKNpSGq+pG/cBKQR8pBOplkfMzJbNOdJnAnkLtZ93m1EP8VuajEuoX7E5eRN8qWOFeNxzm5zMLeouFhygmq0lpY6GihUdgUpnkOMfLsVNGlLgcZdwnjf0LKRa4XP+tEL9dC+E2uprHCBXCQaPnLs0NsSjwUCFuaCDekyarvmtHAn0a6TGv7aieL0tAAM64xizLofeCC+ISFv2hKBAYbmh+x/r9Qq+h2kFoD+v/RcROCSpqiltiO6VSqM/DU2TS9+xMYKzGqO99OivoC0cngDrXt7xSXQ9Pf6UECkM8ArT1qVj0uS98qWw3umUUdsP3ihQGCu6XKxH5SkCI3Qu/FmFXykLKEsp1Fh37NDpjXjuLrv7NOAQ+IVL3zyjIbz0WK6u4+0U9fMc4plD2XbDFTcVFMArlQwXh3DYizhFoCOYqclVB5V+pOman3udeVfo+5ifwVoF6jwBvN82f9ZlT/IgAs6p+/TkiNp05J3P2w/2ECgYFtFdBfO8VERhKqgyLcXx2QbzmUVVGmSNNC4/Ac8l1HlsQS1q8tjeZV7OOYiu8ZYUAtgWeKFRAeKsuIYBFZUDs7YHwUWDhEWg2Lrm+83LslG9Dbi9L2e4HS7m2kMMf1E1sgXdI9UYd3pls0M1G87iCVrUCJSIcNvOQ4zu8OmJngoVHIEc5T0qDl2OnjDoH73GTyiX1ObhzL0XQ0arFS7hTKfBy63kwyaDbKswLcgMYmB5jb/DbBursnw8n0Ga/qc8P19x3GEIAW5dTl3Hz/i8fojDhtyphfiuOHyYwKCbJq4stCMQ8162LoXexom/I2CgghOYWhfGZR3WrxiX3cR5ZlpQn+LK/IGN9f0tJcFZcEiu5S8bU8maFMcyu7pMyGnSXBvMXEbFhdgqzJ4jwvO/MxPD1s6vpX45IoIsdp7hmxCz4VjMSeGOmuv7+wqb64CvllExsutatktZNzGiOw3+GuS3Eme8KNcd18FVQksAjV+rplNMK8plQUtnNomuOOjApjVl09W/GJYC97fBfMql8xjqHtqQUL38VXWznHiv/Y9zn+MIeoCqOlONNIgJRpcYAP9Y9HkMhMXuil4uIzyVieN7SvXecXTX/cmQCY9l43/uMnA3fbkYCN48I1Mm+5dflerQhaEtKkscnYtGF16RrMA1Rkr8EibJ+nVghYr4bFa0kWTcijhiZIxqau5QEYQF0ndTo5Di3AGiLySLq5N9GrutoO9CGlCTYknzhyByG1iUszrb0JHAFwTkcuN4tzXsTnt7fPlKFOL3Ah6CeZlfk5UMbqFl/XySsOVb6liO6uj2wwDd/eJX9zUht3ax1ovm7n0XEenNsc0mzdluhYEFVwSJ6U4lOHO4dET+ZsXJcFBFYAbxR0tL2zWclUNlm7uOs+vp36QhsHBFwE4w6O4s9IDY9QrWXJmiTj50xz7Nw6vKbf0fEHUoDqaYv9pl3gZ3zmlerQeqoDyrJoyLiBx2ZIkYDQv3Ck5ZFl0BO26+npUvEmqHOYvFy11gh34+IRxS42K8q6Zzbn+t1YNrnAyrlfJydAMJMYiveNNC5/4dwkg+YPUsSv8T+fSyWwZv9pyICq1SPXHKBjO0+L40IhM0scaRDAm5mJXLbf5Ve5mw6uRkIYAoQdfllK3X7qJW6/smVuo+taaX78thDKMRvVTewMwNbES0jEICbYJUYzlUBYzHcNiPkzbcwgaEEKpvMfRyqt39vAkMJ3EDMzz/qIPqquw7NmH+/NoGxFrKN2UhivqwkJ0FrE/W3eSEwpk33ude88HM+yiRwxYj4qdjoMOoP1mBYRiaAqYBTBQsbw+cOhjNyYft2vQj06bTHvLaXkr7YBEYkgDb3UMH+AA8k2MFmSUAA+/DVHAShQX1tgrz6libQlcCYnXqfe3XVz9eZwNgE9hfs/OHwB1sxLQkJYDFLn0Yq17VPTJhn39oEphHIZePNdKbp5P+ZQCoC+4j2AS9MlWHf9z8EsDJdLVYAGsZ/RQT22ltMIDeBZsec63vufDo9E7hnRChF+Kvq2rcLdJxUrDXdMIHby6oghxyxM2CHYqla8VIJDLHZIb8tlZf1LpMA4o+M7e54iP1Xvz03IrYuE2m5Wj9adBjozCUHHNcqF6s1L5BA1RDlPhaIyioXSmBzQTe/VX17aKFMi1f7w6IPASdFBMJ0WkwgB4GqIcp9zJE3p2EC2O73Q9G2Ho7TLCQC8LR0iqhhfCkiLk/i4mQXi0Dujr9Kb7EoO7cMAvBkeLRoG49t6fYDw7CKWpq3GBD4omrIUh3fXdPTH00gFYFU9rvafVPlx/c1gYrAQaKdP7ajI/SwRYDAM0WNBA0o/OpbTCAlgdU66lT/T5kn39sEXiHcrj/FxaND4FIRgeAWqRq6ofd9jg4qazKHBIba56y/n0OUzpIIgf2E2/ODRRhZjRoBzMUo+oWuGten1XT1RxMYk0BlY7mPY+bB9zKBigCcquW25a7pYc0ZFiVaBAlsFxHnixoPIkQ9VpCZVSqfQNfGa+zryifnHKgReHhE/Fu0Db9gKf7A9mrArM/aBFT9A6DxhbfAPddW199MYDCBsTv2rvcbrLhvYAI1AvcV9fJX1Qc8nFgKIIDV91WhqR2xenT3AhhaxXIIsGy8HELWVJ0A2kTFQG9V3TpQHaD1+w8B7B39qvBDwEURset/1PUnExhEoGqkch8HKe0fm8AKgV0i4u/C7fXx9ulSnq1ePSJ+K2xUWKuwU3lYrbEggdwdf5WeIAqrVBiB20QEYqhUNqV2hGv3zQpjanVXCNw6Ii4UNq5zHDzItjoCAVajOYLqvsUCE7hZRKANZNnvauliVAKO5iwFE3iUsIHBAH8fEVsWzNeq8wms1pCl+j8/59agVAJbrbR9qWxzjPvuXSpc6702gTeLPwRgjukya6vsbybQmcAYjd0s9+isoC80gRqBy0bECeJt8htq+vpj4QTQuX5O3OAeUThjq88jMEvnPcZveDl2yiUTUN6qjXpxhF/ISjavybrDU6BqSEkY3ekRsc5k1X3WBKYSGKMzn+UeU5XyP01gAoF1I+JXwi9jCOV+pQl6+9QcEMC801nCxveYOWDsLOQnMEvnPcZv8ufUKZZOYB/h9hcr/rcoHbD1n07g5sLugg+brrr/awITCYzRmc9yj4nK+KQJTCFwpOgDANz8OrzvlIKbp389SNTfNIzwCvME2nnJQmCWznuM32TJnBOZGwLrizr8gYv2PeaGsjPSiQCi843RCI59j9t30t4XmcB/CIxtg13v9x8N/MkEVicAx2ddbSvndU9aXXVfMY8E9hc0yAfMI2jnKSmBnI1lPa2kmfLN544AAqHV7Ufh86vmjrIz1JnApSLiQ2JG+ZTO2vtCE7iYAKshNX8T6ENgX7G29qMRgT7AssAEsPXuy0KGiUpiMYE+BPwA0IeWr2UR2E+onf2CA/ywzEAv3StHxA9EjBPDZBYT6EPADwB9aPlaFoEHi7Sx34mIK7IgOF1NAleLiFMEDPSOmnislTABPwAIF45VW0PgTgLt608iYtM1GvmDCdQIXHPFIx+rQf2HvVDVSsMfuxJg2WtX/XydCYAA3rovIj4E/MaB12yIqxG4HjFK1dGrKef/m8AEAn4AmADFpyQJfJH0AHB2RNxQkoiVkiOwY0T8lWCoT5YjYYVKIOAHgBJKyTqCwFMJ7eo5EbGD8ZtAHwK3jYhzMxornlARsMhiAn0J+AGgLzFfzyKwQeYR1r9FBBwQWUygNwF45Tsv00OA3/57F49/sELADwA2hZII5PIHcP7SFm8sPLSYwMwE7pLBf/WPHAp45vLxD3ne1czeBGYhAN8rCLub8sEVcVV2mUU5/8YEmgTuEREXJjJYrDW4cTNBfzeBHgRSNqTT7t1DRV9qAmsR2CbhOiu01XdfKzV/MYGBBHZP8BCAp9SdB+rln5vAtE465f9M3gSGEEDbhzZwTBtF57/bEKX8WxNoI3DniPjTSAZ7VkRgoaHFBIYSGLMB7XOvoXr79yZwu4jAAug+dtd27R8jwo7UbFNJCWwREUcMNNhDI+IaSbX0zReJQFuDmPr8IjF2XtMR2Gxpm95nBraph0cEHLlZTCALAWwtOa6n0SLokN/6sxTPQiWSuqNvu/9CQXZmkxPAaMBXerapaIO9zS950TiBNgLwHIgoV59fiSWArSdoMLH/9GcRcWREIMTvddtu4PMmMJBAWwed+vxAtf1zE5hIYOuIwFbBoyLi1Iio2lQc8R1tLdpctL0WE5AjcHk5jazQPBNI3dG33X+emTpvWgTW1VLH2piACZiABoG2Djr1eY3cWwsTMAETMAETWFACqTv6tvsvKG5n2wRMwARMwAQ0CLR10KnPa+TeWpiACZiACZjAghJI3dG33X9BcTvbJmACJmACJqBBoK2DTn1eI/fWwgRMwARMwAQWlEDqjr7t/guK29k2ARMwARMwAQ0CbR106vMaubcWJmACJmACJrCgBFJ39G33X1DczrYJmIAJmIAJaBBo66BTn9fIvbUwARMwARMwgQUlkLqjb7v/guJ2tk3ABEzABExAg0BbB536vEburYUJmIAJmIAJLCiB1B192/0XFLezbQImYAImYAIaBNo66NTnNXJvLUzABEzABExgQQmk7ujb7r+guJ1tEzABEzABE9Ag0NZBpz6vkXtrYQImYAImYAILSiB1R992/wXF7WybgAmYgAmYgAaBtg469XmN3FsLEzABEzABE1hQAqk7+rb7LyhuZ9sETMAETMAENAi0ddCpz2vk3lqYgAmYgAmYwIISSN3Rt91/QXE72yZgAiZgAiagQaCtg059XiP31sIETMAETMAEFpRA6o6+7f4LitvZNgETMAETMAENAm0ddOrzGrm3FiZgAiZgAiawoARSd/Rt919Q3M62CZiACZiACWgQaOugU5/XyL21MAETMAETMIEFJZC6o2+7/4LidrZNwARMwARMQINAWwed+rxG7q2FCZiACZiACSwogdQdfdv9FxS3s20CJmACJmACGgTaOujU5zVyby1MwARMwARMYEEJpO7o2+6/oLidbRMwARMwARPQINDWQac+r5F7a2ECJmACJmACC0ogdUffdv8Fxe1sm4AJmIAJmIAGgbYOOvV5jdxbCxMwARMwARNYUAKpO/q2+y8obmfbBEzABEzABDQItHXQqc9r5N5amIAJmIAJmMCCEkjd0bfdf0FxO9smYAImYAImoEGgrYNOfV4j99bCBEzABEzABBaUQOqOvu3+C4rb2TYBEzABEzABDQJtHXTq8xq5txYmYAImYAImsKAEUnf0bfdfUNzOtgmYgAmYgAloELgoIto66VTnkabFBEzABEzABEyASOAPhAeAs4j5ddImYAImYAImYAIR8U3CA8DXTd4ETMAETMAETIBL4E2EB4A3crPs1E3ABEzABEzABO5MeADYydhNwARMwARMwAS4BC4bEX/K+BCANQdI02ICJmACJmACJkAm8KKMDwDPJ+fVyZuACZiACZiACawQWD8izszwEHBGRCAtiwmYgAmYgAmYgAiBh2V4ANhLJK9WwwRMwARMwARMoEYg5Y6AN9TS8UcTMAETMAETMAEhAlicd1iCkYDPRcRlhPJpVUzABEzABEzABBoE0FG/esSHgHdExOUaafirCZiACZiACZiAKIFHRMTZAx4E4O53b9G8WS0TMAETMAETMIEpBK64NHT/soj4a48HAVz70ojYcMp9/S8TMAETMAETMIECCKyzFDPgHhGB4fwTI+LC2gMBPuPc21euwbUWEzABEzABEzCBOSWAjt6d/ZwWrrNlAiZgAiZgAiZgAiZgAiZgAiZgAiZgAiZgAiZgAiZgAiZgAiZgAiZgAiZgAiZgAiZgAiZgAiZgAiZgAiZgAiZgAiZgAiZgAiZgAiZgAiZgAiZgAiZgAiZgAiZgAiZgAiZgAiZgAiZgAiZgAiZgAiZgAiZgAiZgAiZgAiZgAiZgAiZgAiZgAiZgAiZgAiZgAiZgAiZgAiZgAiZgAiZgAiZgAiZgAiZgAiZgAiZgAiZgAiZgAiZgAiZgAiZgAiZgAiZgAiZgAiZgAiZgAiZgAiZgAiZgAiZgAiZgAiZgAiZgAiZgAiZgAiZgAiZgAiZgAiZgAiZgAiZgAiZgAiZgAiZgAiZgAiZgAiZgAiZgAiZgAiZgAiZgAiZgAiZgAiZgAiZgAiZgAiZgAiZgAiZgAiZgAiZgAiZgAiZgAiZgAiZgAiZgAiZgAiZgAiZgAiZgAiZgAiZgAiZgAiZgAiZgAiZgAiZgAiZgAiZgAiZgAiZgAiZgAiZgAiZgAiZgAiZgAiZgAiZgAiZgAiZgAiZgAiZgAiZgAiZgAiZgAiZgAiZgAiZgAiZgAiZgzH6QswAAAJ5JREFUAiZgAiZgAiZgAiZgAiZgAiZgAiZgAiZgAiZgAiZgAiZgAiZgAiZgAiZgAiZgAiZgAiZgAiZgAiZgAiZgAiZgAiZgAiZgAiZgAiZgAiZgAiZgAiZgAiZgAiZgAiZgAiZgAiZgAiZgAiZgAiZgAiZgAiZgAiZgAiZgAiZgAiZgAiZgAiZgAiZgAiZgAiZgAiZgAiZgAiaQhsD/B0Uj7E/OHwPMAAAAAElFTkSuQmCC;" parent="mQAJaDiCk2_aLx2CCrRH-5" vertex="1">
          <mxGeometry width="72" height="72" as="geometry" />
        </mxCell>
        <mxCell id="2c4QWxnSkKOKG8GR8WA--26" value="Managing Agent&#xa;(Project Manager)" style="shape=image;verticalLabelPosition=bottom;labelBackgroundColor=default;verticalAlign=top;aspect=fixed;imageAspect=0;image=data:image/png,iVBORw0KGgoAAAANSUhEUgAAAgAAAAIACAYAAAD0eNT6AAAAAXNSR0IArs4c6QAAIABJREFUeAHsnQd8VMX2x096QnqhhISaRghp1NBCL6EjvYqiWABBioggKk2kCVIUEVEpiqKooKioKGJXkKbPpz67/p/PhoViO/+cNTduNlvmbi+//Xz2c3f3zt47850z55yZO3OGCC8QAAEQAAEQAAEQAAEQAAEQAAEQAAEQAAEQAAEQAAEQAAEQAAEQAAEQAAEQAAEQAAEQAAEQAAEQAAEQAAEQAAEQAAEQAAEQAAEQAAEQAAEQAAEQAAEQAAEQAAEQAAEQAAEQAAEQAAEQAAEQAAEQAAEQAAEQAAEQAAEQAAEQAAEQAAEQAAEQAAEQAAEQAAEQAAEQAAEQAAEQAAEQAAEQAAEQAAEQAAEQAAEQAAEQAAEQAAEQAAEQAAEQAAEQAAEQAAEQAAEQAAEQAAEQAAEQAAEQAAEQAAEQAAEQAAEQAAEQAAEQAAEQAAEQAAEQAAEQAAEQAAEQAAEQAAEQAAEQAAEQAAEQAAEQAAEQAAEQAAEQAAEQAAEQAAEQAAEQAAEQAAEQAAEQAAEQAAEQAAEQAAEQAAEQAAEQAAEQAAEQAAEQAAEQAAEQAAEQAAEQAAEQAAEQAAEQAAEQAAEQAAEQAAEQAAEQAAEQAAEQAAEQAAEQAAEQAAEQAAEQAAEQAAEQAAEQAAEQAAEQAAEQAAEQAAEQAAEQAAEQAAEQAAEQAAEQAAEQAAEQAAEQAAEQAAEQAAEQAAEQAAEQAAEQAAEQAAEQAAEQAAEQAAEQAAEQAAEQAAEQAAEQAAEQAAEQAAEQAAEQAAEQAAEQAAEQAAEQAAEQAAEQAAEQAAEQAAEQAAEQAAEQAAEQAAEQAAEQAAEQAAEQAAEQAAEQAAEQAAEQAAEQAAEQAAEQAAEQAAEQAAEQAAEQAAEQAAEQAAEQAAEQAAEQAAEQAAEQAAEQAAEQAAEQAAEQAAEQAAEQAAEQAAEQAAEQAAEQAAEQAAEQAAEQAAEQAAEQAAEQAAEQAAEQAAEQAAEQAAEQAAEQAAEQAAEQAAEfJxBCRIlEVIeIGhNRPhG1IKKuRNS24nOzinMNKtJK+iAfLzeyDwIgAAIgAAJ+SSCUiJoQUU8iupCI5hPRBiJ6nIjeIqKviOgvImI7378T0RdE9BoRPUpE64noeiKaQEQ9iKiuX1JFoUAABEAABEDASwhIT1x67gOIaC4R7SSid8o/n7fTsNvrEJj737dE9DwR3UZElxJRCRHV8BJuyAYIgAAIgAAI+BSBaCLqXj4EfxMRHSSin73A0Jsz/pZ+O0dEL5SPPiwgog5EFOZT9JFZEAABEAABEHATgQQi6k9EKyqG22Xo3ZJx9cXffyGi/UR0NRGluYkpbgMCIAACIAACXkmgJhGNL5+At9dLhvLd5Vj8WT66cZiIppXPVxAGeIEACIAACICA3xNoWvEM/w0HJ+e5y1i7+j4yh+Gx8gmL/bDiwO9lHwUEARAAgYAjIL3cmUT0rp8N6zvbOThVsbogPOAkBAUGARAAARDwGwLBFcvkHgyw4X1nOAWy7HAWEcX5jTSgICAAAiAAAn5PQNbFy1r8/6C37/Akxv8S0cVEJM4UXiAAAiAAAiDglQQkit5Wb+7th4SGcVh4JEdExXCNuCSOSazF0fEphs/yXXvL+bCIGhwcHOKM3rwzriFBiFp6Za0jUyAAAiAAAgFLoB0RPeHJCX1iqKNiEzm+ZjrXrJfDdbOKuWGz9pzdsifndRjIhV1GcPMeY+16F3Udyc06DOKc1r05o7gL129awrUbNjXcKzI6joOCg51h4FWuISsHNlWEKA5YYUPBQQAEQAAEPE+gFRE96c5h/qCgII6oEccJtepzauMCblxQyk3bDeDi7mPsMu72OgXG/5N7i5PRuLCUazXI5ej4mhzk2pGDz4ioi+erHzkAARAAARAINAI5FTHxHYmvr9Lj5aCgYI5OqMm1G+YZet+O9OSNjbarPxd1G8XZrXpxWlax4TGDOC5OdpRkNOBGLBsMtKaH8oIACICAZwgkV8S6/83JxqyKcZTn8NK7z2rRnWX43dXG2h3XL+g01PDoID4lzdmjA3uIKMYz4oC7ggAIgAAI+DsBmYF+ORF97wrDL73j2KQ6XK9JK27WcbBfGHxrToWMYtTLbc2R0fFVHB8H2L5ZvkNhir8LIcoHAiAAAiDgXgIFRPSqA8bJvJELCuK4lLrcsFk7Lug83O+NviWHQEY5EmrVYyc8IngP2xK7t2HgbiAAAiDgrwRk57pFROTUDXnCI2sYhvcDoadvyeib+z2vwyBOrNPAvLOkviGSRBHESIC/tkiUCwRAAATcQCCfiI46q9cvE/mklytL6Dw5W9+c4fW232SpoUx6dIC9PA6o4QYZwS1AAARAAAT8iEAQEU0nItnH3hEjZPivBN2p3aAp55deELBD/PY6GI0KOnJYeJS9dfAAVgf4UatEUUAABEDAxQQSiUhmlNtrdCr/FxoWYQjE4ytL9uw10q7+X0HnYYZ4B3bWyQwd8pJARA2JqEn5tswtiKgzEfUmomEVezl0J6L2FeflEYM4iniBAAiAAAj4AYFiIvrYTkNTafilx5+aUeBQ1D1XG1VfvH56dgt7JgnKKI5M4JSX7MTYkYguJaJlRLStPJDQi0T0ARGdtaPeZfvifxPRfiJaQ0RjiSgbjkEFbRxAAARAwEcIDC3fde4XO4xApeGXZ/wSAU96rL5oYH0hz5nNu3JwSGglc8X6+h8RfaeYVu+1zaWX+20nopEIV+wjrR/ZBAEQCEgCMox7g6Px+2OTUrlpu/4w/HbuM6DH+chp1YtllMWNBt2Re8kowf0VIYvxyCAgVQwKDQIg4I0EQonoLkcMiSznk9j3egwY0tq3GZExt+yWPbxph0JVB+HdivkEcAS8URsgTyAAAgFDIKoijr+q8q6WLrluBp7zu6HHb2z4jT83yu9YrU4ccebc+N+3iahrwLQ0FBQEQAAEvIhANBEdtFfhh0VEcUZRF/T6PWj8NUegVv0mvuoEyAZSG7F/gRdpBWQFBEDA7wmI8X/BXuMvgXwCOWSvZni95Si7Dcq2yPbWpxf876OKJYd+3/BQQBAAARDwJAEx/rLsS7fBkBj1sqWttxg+5OOfeQQSWdGeOvWi/8jqk/6ebBi4NwiAAAj4MwGJ6f+EPUo/LDySs1r2gPH3giF/c45Pdsuevu4ASP7/qNhp0p/bIMoGAiAAAm4nILOu77XH+NeIS+b80iEw/l5q/MUhkJ0U7alb0/9IfIGIqBiuEZvIMYm1OL5mGifVacCJtRtwXHKq4R0dn8JRMQkcGhbulHua5EHmBYx2e+vADUEABEDAjwksMVG0Sso7LrkuF3UdCePvxcZfHIDUjEKl+qSgIIOBj0+py7Ub5nKDpm04q0VXbta+Pxd3G8mteo/X9W7RYzQ3bduHGzZryzXTswzXtkfOTP4jcQMk5DBeIAACIAACDhKQHpX0rNSMREW6pNRGXNx9NIy/lxt/cQBkOaZK/aZnF+sy8HodAkmf33EQ180scNQZOF0epjjDQbnH30EABEAgoAm0IqIzKsbBOE3thk1h+H3A8GvzAWKTais5AI0LO7rcAah0GnqN44zCUo6KTVTKm7H8VXx+hYgkUBVeIAACIAACOgnIrn66N/ap06gZjL8PGX9xAsKjYpSMbG5JmfscAO1xQq9x3DCvxN7QxdfrlHkkBwEQAIGAJyCT/h4106uyaihq1suG8fcx41/cfQzLJkwqdV3UZZj7HYAKR6CgdLBh8qBKPo3SyHyAxgHfmgEABEAABHQQuMpIiSoZB3nm37z7GDgAPuYANOs4WKl+ZYZ/5fC81jt387F591Ecn5KmlF8j+d2pQ+6RFARAAAQCmkATvc/9Jbqf9CS1Z8o4/hNkx9tZyKZARsbS4ueomHiPOwDigLToMYZjE2tZzKeZsvxJRM0DukWj8CAAAiCgQCCEiGTylLKClUlaEk7W2w0d8mfeKWmQpxYDQNb0e3oEQLt/824jOVJf+OJdCrKPJCAAAiAQ0ARm6jH+IWHhnNdhEIy/jw37GztDqRkFSs5erfo5XuMAiCMg8QNU5y4Q0W9EVCegWzYKDwIgAAJWCKQR0c/KDkBQEEsMeWNjgs/me9nezCW5bmMlB6BeTguvcgDECZDlpsrySnSdFdnHKRAAARAIaAIyWUpZoUrP0ZsNG/Km5ozEJqrFAMgs6uR1DoBEHwwNi1CV2Q8CunWj8CAAAiBggUBHPdH+JK47ZvyrGVhvd0RUYwA0bdvX6xwAGQVIbZyv6gBIulwL8o+fQQAEQCBgCShP/AsJDef80gvQ+/fh5/6aU/J3DIAgJQNa3G2EVzoAhZ2Hsmw1rTh6NStgWzgKDgIgAAJmCAxQVJ4GJSs7x2kGBEffHgVo1mGQkuEMCQ3zSuOvrQqQESlFGT5oRv7xEwiAAAgEJIFgIjquqDw5NikVxt8Pev6a45bVQi0GgGzvqxlbbzzKboKKMvwr9gcISD2HQoMACJghMFBRcXJQcDA3bdcfDoAfOQAN8tQMpwR68kbDr+VJHgOoyjERNTPTDvATCIAACAQcgZdUFSd2+PPt4X6t1298VJ1AV7tBrlc7AOIIRChuaERE4wOulaPAIAACIGBCoETV+EvAn8LOw9H796PevzgCSalqMQDqN2nl9Q6AajwDIlpt0g7wFQRAAAQCjsAOVQcgLasYxt/PjL84ANEJNZWGzrOad/F6ByA9u1ipLET0SMC1dBQYBEAABIwIpBDRWRUHQAKtFHUdCQfADx2AsPAoJaOZ176/1zsAmcVdlMpCRG8atQN8BAEQAIGAI6Ac8x8R//zv2b/0/sWpU3EAJY1sw6tNuPPWY7MOA1TL83XAtXYUGARAAASMCJxQUf6yB3xB52Ho/fth7z+3bV8lgxkWHun1xl+ckuKuw5XKQ0SyPXCYUVvARxAAARAIGAJ5KsZf0qSkZcL4+6HxlxGAxoWdlAxmTEJNn3AAWvYax6QeETAhYFo7CgoCIAACRgQWqjoATdqUwQHwUwcgLbu5kgMgs+u9ddjfNF86Ngaqa9Qe8BEEQAAEAobAeyoOQI3YJBh/PzX+MgKQkp6t5ADUzSz0GQcgLKKGUpmIKCNgWjsKCgIgAAIVBBqrGH9Jk57TEg6AHzsAqvHzGxd08BkHIDwyWtUByIdGAAEQAIFAIzBF1QFo1nEwHAA/dgBUI+fllpT5jAMQUSNW1QFAOOBA03woLwiAAO1TcQCi42vC+Pux8S/uPlp5C92iLsN8xwFQDwecDV0AAiAAAoFEIISITqs4AIj8559r/+XZv7zzOgxU6inLMlDTiXbe/D00PFKpXETUIJAaPsoKAiAAAkUqxl/SNCnpgxEAPx4ByGzeTclQevs2wKbOSHBwiFK5iKg21AEIgAAIBBKBySoOgPSimncfAwfAjx2AermtlQxlYu36PjMCYIgDQKRULiKKD6SGj7KCAAiAwH0qDkBinQYw/n5s/OURgGzvqyILdRrl+YwDUKQeCfAcEQVBHYAACIBAIBE4rqL007NbwAHwcwcgoVY9JQegYV6JzzgAee36KZWJiD4NpEaPsoIACIBAOBGdV3EAslv1ggPg5w5AVEyCkrHMadXDZxyArBZdlcpERG9AHYAACIBAIBEoUDH+QUFB2PrXz42/PAKQ2f0q8lBQOthnHICGzdoqlYnIsBQ2kNo+ygoCIBDgBIaoKHwJpKItFcPRP5cC5ncaomQog4KCWSbWmc6099bvdTMLlMpFRJsDXBeg+CAAAgFGYLaKAxBfMx0OgJ+PAMgjHhVZEGfQW429uXwlpTZUKhcRXRtgbR/FBQEQCHACG1WUfu0GTeEA+LED0KzDIK7dME/JUMan1PUpB6BGXJJSuYhoaIDrAhQfBEAgwAgohQCun9sGDoCfOABFXUeyBPyp0zCPYxJrc0houKqBNKSrVT/HpxwA1XkNRCQBsfACARAAgYAhIDOfbRqAjKIucAB81AEo7DKCM4q7/G3wE2qyPMNXqXNLaaJi4tlXNgIq7Kw2r6GirDEB0+pRUBAAARAgok8sKXrj35u0KXO7A5DVogcnp2Vyjdgkjo5P4Zrp2dy03QC358NXJj2KoW/Spg83KujIdbOKDeyiYhOZgoIcMvjGcmD8OSUtg4u7Dvfq0YDslmqhjYnoK2gDEAABEAg0Ar8aK3VLn/M7XuAWwytGLD2nJUdGx5k1WkHBwdwov4Nb8uJpwy9D9cI9t20/zm7ZkzOKOnPDZu0MfOR5fVJqY45LTuXImAQODdM3jG+pnvX+Hh4VzRJox9zkO2/4TTavUizT/kBr+CgvCIBAYBMIU1SOXNRtlEuNbn7pEEMPX+V5rcQkaNq2n0vz4wzjX9xtFEu5xIBntezBjQs7cYO8vw143YxClomVKelZnFi7gcGQR8cns8ywlz0XHB2mV61XZ6STOsso6uSVToDsWaBYxpsDWxWg9CAAAoFGIE5JOQYFuczYSi83tXG+cgAaLb9JdRq6LE+2jH9h5+EGo55Z3JXrNy3h1MYFhuH2uJS6XCMumcOjYjgkNEzV8PhFOnHKMgpLvc4JCI+MVuU7PNAaP8oLAiAQ2ARk61ObClJ6eLaMot7zxd3HsKwsCAuPsnl/c3kUxa73nnrSF3cfzU3b9efGhaVcN7OIE+s0NMxFUBmhMJffQPhNRi2ymnfxGidA5ifo4J4d2KoApQcBEAg0Ag1UFKRhG2AnzoBv1nEwxyTW0qOcq6UNi6zhPAeg+xhDj162wk1KbWSYf+BLQ/AqdeiuNMHBIdy0XV+vcAKyWyhPAPyZiIIDrfGjvCAAAoFNQMkBCIuIcpqxbdisvVOGx2Xym54evXFamc8gKwxSMwpZhu0Dbbje1c5ARFQMF3cb4XEnILVxs2qOo4WyHwxsNYDSgwAIBCKB+hYUYhXF6YwRAHnWL8PoKvdTSSND88ZG3dZnmU0vjxzia6ax9FJV7hFIaYKDgzg/uwGP6NOBF0wezjfPHMuTx5RxvTopdrFKqJnucQcgJqGmat4XB2LjR5lBAAQCm0C6ipGTJWa2DKy18/mdhrKOcKw2lbbEBLB2P+1cQedhLMP6jj5uUGHka2lCQ0K4VX4mz7hoAD+2cS5/+/q9/Od7D1d7nzvxIN+56ApOjIuxWS+mDBrlt/OYE9Cix2iWJaOmebLwvSyw1QBKDwIgEIgEUi0oxCqKU4bINaOq95jXfiBHRMVWuZ7KPa2lyWnd23J+uo8xhLlNqFXPp5bSWSuvM85FRoRxSWE2Xz2hPz9++1z+4c1t1Yy9OQdA++3Tg3dyi7wMXfUYGhbBRR4KFJTTqqdqXv8kooRAbPwoMwiAQGATkNCnNhWl9KT0Gn5JL9ED5fGByj1U00jwG3N5kUcM6dktDOvoVa/lj+nq1kriji1yecIFXXnRtNF8/+oZ/ObDK1h68poxt/d4+u0d3LKZPicguW5jj4wC6NgC+HhgqwCUHgRAIFAJBBGR9IBsGmkxsOYMr6Xfctv2dfrkOlmCJ4F1jO9Z0Hk4p2YUeCwSngo7e9NEhIdx7eQEbtI4zdB779WxmEf27cCXj+rF868Yxuuuv4T3rJ/Dh+9fyp8c3MRnj+9y2Mjbcg7+7+WtnN2wrk15MS6zrUiBLXuN5Sate3Gj/PYsoXtb9BjjsNOg4/n/7YHa+FFuEAABEDhtrKwtfW6mIxSwLPMLi6ihy0hYuq/x7xIwSDP+hgBCGYVOdzKM7+eMzzWT4jg3I53bN2/CZaXNDQZ80oiefM0lg3npjLG8YcEk3r5iOu+94zo+tGMJH9+7hj9/cTP/fHSny425LWNv6fyHB27nhFjlADtsbfvgzKJOHB5ZVVZkzomEPLY3lHBxt5EsgYkU628IVAAIgAAIBCoBpc2ApEevGV9rR+mRR0bHqypf5XSyZa1E4DMEEGpawrI0UVHBuySdGPY2BVkGg37d5UN47byJvGPl1fzcPTfxscdv5S9f2sK/nXzIa424JeOu+vvWm6fq4io9fFODLpEDrW1UVD+3dbX/mF7D3HcJS6woG38QUWKgNnyUGwRAAAReU1GWWS2623QAiruN5pgExwL8WMqLDPPnlvQ1hNq1lMbZv8dGRxl67peN7MXLZ4/n3bfN5iN7VvGPb233W8Ou6gBIuv5dW6kaWsPyS2NjLbP0w2zMD5G5J7YeHxhfU/uckp6pmi+RfbxAAARAIGAJPKZiOGUTG2s9fzknO9SpXEtvGnn2X7Nejktn9YeEBHPzpo35qvF9+YHVM/lfT63n30/thqE3szRQcxJklEOcJNX6bNZhYGWPXjVKX1RMPIuzoBl3laPpIwUr+VsUsK0eBQcBEAABItpkRUFWKneJmmfNAZDd7qwN56rcw91pMuvXMRj8JzbNQ6/eiqHXDL65o0xGVK23mvWyKg25zOdQ/V+t+jmV/7PlADRr31/5ukRUCg0AAiAAAoFM4HoVRZyclmHRASjsMrzaRC6Va3oijSxjWzlngqGHb86g4bfqwYCsMfn+jW2cFK8WJMiwqVT3UQZjHp2gL8JgTqseSk5AWlaxqgPwExHJdth4gQAIgEDAEhijYohjk+pYdAD0hvhNq53I6bWTVBW1w+nqp6bwvCuG8qknbsOQvp09fWtOwLJZ45TrqFGzdpzfcZByek02o2ISuGWvcTadgOi4ZNVrPxSwLR4FBwEQAIEKAm01JWvtaGn3PcPQv0IcAe3asTUi+fm753JYqOvj8UvkunuWTeXzJx0PgmPNAAb6OZkUqToXIDapNsujAE0e9BwbNG1j1QEo7DREz3XHQgOAAAiAQKATqK2qhGWov8o8gO5jdMX4F6O/d8NMfnz9DD2KWldaWf89uEeJIfpdoBtmd5b/0uE9lOtJR4z+KteU0MKyxt/SPID6ucqrEn4nouRAb/goPwiAAAgIge9VnIDsVr2qOAASrEXlf1qaNdeO5bNv3803Tb5A1/+0/9s6dinJ51d3LcMwvwuG+W05ExJu2Fb9OON8nYZNLToA8phK8R4voNmDAAiAAAj8TeCQiuKU7XS1EYCibqN0TfzrXpLHZ97aYnAARpaVqCpqpXSN69XmJ++cD8PvAcNv7BjI7oIqcuRIGplIWNxtRDUnoLjrCD3R/2ag4YMACIAACPxNYKOKUpa1+JoDIBvvqPxH0sTHRPEHT640GH8ZAShq0kD5v9buIVvazp44yKvD5hobSH//vHruRU6pV2t1LufqZhZWcwAaNmur596ZaPggAAIgAAJ/E7jSltKV8zXikv92ALqP4YgotaVf8r9NN1xcafzFAZAwuir3s5amaUY6v71nJXr9Hu71Gzs1Hzyz0eF6tVbn2jmZC2AaHCguOVX13u+g0YMACIAACPxDQGklQFBQMMvQf0ZRZ1Vlyy3yGlUO/Yvx//XNLRwSHKz8f03pGx/HDCjln45472Y5xkYx0D43y6rvUN0a17O1zzLhT5sMWNRlqJ7h/+v+EXt8AgEQAAEQiCSi36wpXO1cdquerKO3xfs2zqzS+//82bV2G4jIiDC+/cbL0Ov3ol6/qYMz9zJdS/Hsl4Xo+EoHoH4T5dn/cj8M/0PfgQAIgIAJgbc0I2/tmJymPtGrU8smVYy/jADIXABr17d0TrafPbhtEYy/Fxt/cQZe3L7YrvrV6l0e7WifbR1zS8oMTkB0vHJUQZFxvEAABEAABEwIKE0EtKWUjc8/t2VuNQfgX3uXKyt47VqpNRP56KOrYfy93PiLA/DL0fvtDvJ05egyw7wOrd5tHWumZ3JB6WA98nSNiczjKwiAAAiAABGNtqVw9ZwvyKlfzfjLCMCpx5bpUdgsG/Z8eOB2GH8fMP7a4wB7lgPKf84ce8BQz51aq+0qGRIaxqmNm6nK019E1AgtHQRAAARAoDoBiQgoSlJVoVpNt3buOLMOwP9eul15wlZa7ST+z3N3wPj7kPEXJ2DK2D5WZcNUxhLjYvijZ/9x8h5aO1v5/xL50fR6Fr6/Wl3k8QsIgAAIgIBGQJZIqSpUi+mioyL4v4c2mHUAZBSgILuexf9q9xejcOzxW2H8fcz4iwOwbfk0m/Wr1bNM7Hzu3oVV6vns8V2ckuj4UlHtHhVHWeqKFwiAAAiAgAUCK02UprIiN/7f2H7tLRp/cQB2rZpi9bo1IiP4pZ1LqxgFbXgZR33b9XqC11eHt3BwsO2eeUhIMEtv31we9Y4iGMufmc/nEfvfQovHzyAAAiBQQaC3GeVp1VibS79r5RSrDsD5d+7jm2eONWskZG95zPb3fiNvzmgb/za0t/V9IsT4y0iB8X+MP4sDaE627PztEbRwEAABEAAB6wRqENE5O5WsQWFHhofxt4dvt+4AHNtmUPxH9qxi2UWubVEOdy3J5/lXDOMvX9pi0SgYGwh89m4nQUYBLC3piwgP4x0rr7Zaz7+dfMiZjwEGWxd7nAUBEAABEBACzzviAPRuX2DV+MsjgN+O77Cq/GHcvdu4q9bPt6/fyzMuGlAZ+lm2g+7XpSWL46dyjbEDOjljFOBbIgpH0wYBEAABEPibQBYR9SWiSyve/Ygoj4hCyyMCSqhUuxXvqtmjbToAv5+4X8kAqBgJpPENZ+H7N7bxH+/u1lXvD6yeabccGsmwxLdIJaIuRDSWiCZVLHltQ0QSARMvEAABEPB7AhICdQ0RfWSkHE0V7M9EdMrKedP01b6/vG2BbQfg5N/rvWG8fcN4e6qevnvjPruDChnJ8C9Gn03lVc49TETyiCDI7zUACggCIBBwBGKJaBURyUxoUwXo1O9REeH80+ubFRyAXbp6gp4yQLiv5x2UTq3UggI5QbYPE1HzgNMOKDAIgIDfEqhLREedoByVHIX2xdk2jb/MAfjj3Yec6gCcP/kgn9i3lvfecR1vWDCJ51w6mEf3L+VB3dtwt7YF3L55E26Rl8FtCrIM3+U59PCy9nzV+L4se9jvvm02v/7Qcj79tv/72320AAAgAElEQVTNTZDJdO8+uY6fvHM+33HT5Xzd5UNYnq0P7lFShY3wEVa9S5uzzOCfPKaMb5k1nu9fPYMP37+UpTfuCYdo9sRBSrLnJBk/S0RD/VYboGAgAAIBQyCNiD51kmJUUsJTRvVQcgD+1Pks2NTwfPbCZt5681SDkSopzOaoyHCl/NliIUvTZOb6uIGdec11FytPVjPNnye//9/LW3n7iuk8bXw/7tgil2NqRDqFjbCTsMziOIlj8MquZfz7KX3P9O3h4qR5AHoY/Fnebi4KGC2BgoIACPgdAZnMd8iWwXP2eUvhf6XXX/k+crddPUlZF37tpAu4qEkjPcrc4bTpdZINSxUfWT+nMla9PYbMlf9565GVfOPUkYYRDpUAPM6q95pJcTxmQKlhSd+Pb223q15tcfngmY0O16Ed5ZWRADwO8Du1iAKBQGAQWGiH0nNY0e6/Y/Y/ht7Y6Bt9PnfkHl2G4mT50L4MT3uiPKb3rJOSwA+vu0ZX/m0ZOEfOf3rwTu5Sku8VbOJja/DtN17mdDayckCCQ5nWhRu+f0hEUYGhLlBKEAABfyGQTkTSg3G70vxo/yqnOgAfP7+JayXHu70c1thJD/vRDdc63dDpdQRkWV1G/TpexUa4yRwMvWWxld6DTs4cf1EKKAcIgEBgEFhszYC56pwEeTnz1hbbDsBR9REAGV52VX4dua48FpCJh7YMlyvPy0RHR8rgqv/KRlASAMiZZb9wcBdPlfXzitgYgaE5UEoQAAGfJ/Ceq5S7tevWrZVo0/jLPIDzR9SMgxhYZ03us5Zve8+9sH2xU42cXoPZuF5tTxlFm/eVSYh6y2MtvaxcsLeenPC/dj6vEVAAEACBgCCQQkR/qSi96KhwHtipkIf3aMFZ9Wuxjn3VzSrjoiYN1ByAo2oOgOwJoFIOT6WxtpGNNWPmrHMy4uKpstu679IZY53qAKxfcKnDZU2Ki+bubXJ5bFkbzq6vy3m6JiA0BwoJAiDg8wT621LOcj48LJRfuXsOn391Q+X7X7tv4lnjenLNxFi7lG3PdvmKDoDaevIzxx5g2TRGpTyeSPP0lgVONXJ6HYN6dVK8ls1diyc7lY1sGWxPHYeGBPOA0kLee+tkPvvy+kpZ/+nQWm6b31j1mo/6vFZAAUAABAKCwFQVRdm/tKBSGRo7AfL550Nree2sEVwrSZ8jUNqiiZIDcO4dNQdADKIE7FEpj7vTpNZM5J+P7nSqkdPrAFw5uswr2dSIjHD6jo733TJNV1lDgoP5wn5t+cNHF1mU8923XKZ6zXcCQnOgkCAAAj5P4AYVY7h08iCLilFzCL59bhVPHdGFRZmqXLMgp77THYDje9ewGBSV+8uQeHFuIx7Vr6MhXsDGGyYZZus/c/cNhkh2b+xeboj2J9/3bZpnCCR0w5QRfNGQrizhZuNiopTuI49K7lk21aPGX5yFz1/cXLnLni0+EuAoL7OeIYjPrIkDed31l/Ce9XPYmI3weXbrjfzUXQtYDO6iaaMN8Q8kOqCeZXjyP73OjK30a+dNVKob4dAytwG/cd9cm/L9xZPLVK8pwbTwAgEQAAGvJyCb/dhUbLfPHWNTQWqOwNPrrrJ5Pblng7opTncAxDAc3LaIZda9abkiI8K4Z4civnXuxfzqrmUOB+mRqHannriN773lKkMY4ZTEuGr3lKh64ljYMljuOv/OY6u5SeO0avkMDQkxODXLZo3jF7cv5p+OOD5aIQF5JCzwxKHdOa12UrV7yuMacahcUfabrhpZ7X6m8iDfx5S15jMvr1OS7V8Pr1O6JhGd9vpWjwyCAAiAABGtNKcYTX+TIX7NwFs+ruezh9fy5/uWKCnK+JgoJQfg/FH1RwCaMfnl6P0G4yOzwRdMHm6I+e/qIXiJof/yAzcbestzLxvCmxdfyf99ZatLDJxWTnuO5048yI9tnMvzrxjG864YatjXwNVx+yU4z9t7VhoC/wgbcYo+ObjJZWymX9hfSQYXXd6fz7y0hs+9YtsJ+OHgrUrXJKLvoVlAAARAwBcIKD0CWHj5AIsOgCjPn569mb9/4nr+bt98/uLhOUqKUgLk/Pqmc+MA2GMQ8R/P7+Dn7DpQjQOw7LJeBpn97on5/OPTC/nMS7dalPNP9i5VkuuK/TR8oe0jjyAAAgFO4GrT3r6575cO6mBWMZ47fBt/v/+Gv5XovvmG4//2zuOgINuPFeQ+/z20weYowLkj3teLdrbBwvWc64Rc0LNEyVivvapfFdn9bt/1/MsLK83K+kt3Ka8sOBngOgXFBwEQ8BECI80ZfNPfurTMMaMU1/MPT91ookD/dgIiw0OVFPBnB9bYdAAkGBAMpHMNpL/zLCttriR/m68ZbEZ+rzc7ErD1hguVrklET/tI20c2QQAEApxAS1Njb+67LPEzffb/y8EVZpTn3w5AUqzaDPn3961QdABcv42svxvFQCqf6l4AO64fblaGf3xqYTV5nz2+p6oDsDHAdQqKDwIg4CMEEswZfHO/fbCn6hppeWYqz/zNvdNSqs+IN3fNY48sVXIAZBJZIBkwlNWxEY+2RTlKxvqRxWPMyq/ItDzeMnZ6O7XIVromEc3wkbaPbIIACIAAfWXOOJv+tnPJxCoK8fsnFlhUnpnp1ZfhmV5Pvr+280ZFB+AhOADvOWYUA8mpkPgO5uTN9Lf9KyZYlOEzL66qlHeJChgXHal0TSIqg04BARAAAV8hsNdUMZr7fvWY7pUKUXpG3z9p2QEoyFDbdvaFrfPgAMCwO925y81IVzLWL9x2qUUH4FcjB+CdnfOVrlfRbmr5SsNHPkEABEBAaSlgx6LMKg7Aj0/dZFF5tmlaT0lhHth8rZID8Pspz26lG0i9Z38oa2Z9NQf0jU1XWpThs4fXVMr7nfPGKskzEX0GdQICIAACvkRAhixtKrjI8DA+/eI/SlHW/pt7/i+/lRaqDcE+tekaOAAYAXD6CIDq1sfHtk41K8PyeOv8K/9sfDW+r9qyQiLa7UsNH3kFARAAgVgi+l3FCZAwv9rEKHlGaskB6FystnPak7fPUnIA/ji5y+lGwh96uiiD+XkRDerWtOnQiryfvHeaWRk+/cziSjkXeW+QqjanhYimQJ2AAAiAgK8ReE3FAbh2Qu9KxSgRACVwijknoGvzDCUFvG/jTK90ACSEr2x28+GB2+F4mIxQSNjgtx5Zye/tX8feujqjfqra1sen7jPvAPxycHmlnMu21yptoyJNM19r+MgvCIAACCxTUXKyJ7o2AiBHS/MAurdUcwAeW3e1ogPwgFsM8btPruMe7QtZwhRrPGTznMdvn+uW+3tzj/6zFzbzkF5tWTYO0tiIofWGnQ5NuZnbfEjLs/HxvW3TzTqwsj+AJud3XDemsrzG/zXz+RsiCoIqAQEQAAFfI9DbjEKrpvhkC13Z9ldTjpbmAfRslVntv+auv+e26UoOwO8nXe8AHHv8Vk6IjTabb9nS967FkwPWCfj04J1md1jU6lR23zM1wp78nloz0Ww9avnVju9vv7qaAyB7Wpx/dX2ljI/s2UrpWkT0kK81euQXBEAABIRADBH9pilGa8fHVl1ZqRx/fWFlNQUqjwR6t85SUpoPr5nmNQ5Aq3zrTkuNyAj+/MXNXmXo3GVkB3ZrbbU+ZcTkyJ5VXsOmdnKC1fxq8v3vnTOqya8EuNIc3HOvrOfayWpBrYhoMlQJCIAACPgqgVc0xWjtOH10t0oFefbltdUUqDgAZSVqUdMeXDXVKxyAdx5brWQwVlxzodcYOXcZf5kPERISbJPPtPH9vIZNSqKa0f7w/pnV5Pen526ulO+jO3St/8/z1YaPfIMACIDAYmuGXzvXvEn9SgUpQ6XmIgL2basWinXXyilqDsAJ1z4CeHDNLJsGTso/cWh3rzFy7nIAXn7gZiU2vToWew2bpPgYpTx/9MCsag7Ary/884hrzczhStchoq/x/B8KFARAwJcJdNOMvLVjaEgwf//8P/umm9sToH/7JkqK8/7lk73CAbjvlmlK+R0zoNRrjJy7HIDn7l2oxKZT6zyvYRMfW0Mpz588OLuaA3D28NpKB3dUL+Xn/zt8ueEj7yAAAiAQSURnrRl/7dzBTTMrlaS5iYADO+QqKeDty65QdADud6lxgQNgfj29OBm+6ADExajtRvnpQ9dUcQAMEwCNAgBl16+tJMdENBHqAwRAAAR8ncDLmpG3dlw5fWilAyBrpk1jAQzu2FRJcd639DJFB8C1jwDgAPiXAxAdFaEkf5/vnlNFdn/Yf1OlXH9zYCXL6g9r7cDoXK6vN3zkHwRAAARWGyk1i8rvwn5tKxXlmUOrqyhRcQaGdMqz+F/j69+zZJKiA4ARAHcN+ZvexxdHAKIiw5Xk78tHrq0iu6cP/BMB8Pk7Zihdg4h+JKJgqA4QAAEQ8HUCo4wNtKXPrZo2rHQAzr18WxUlKg7A0M7NlJTn1sXe4QDsvm22Un4vHd7DpY8iTI2vN3x/ddcyJTZlpc29hk1kRJhSnr8ycQB+fv6WSrleP2eU0jWI6Dlfb/TIPwiAAAgIgXxLRt/495ioCJY10tp6adOVAMO75Cspz7sXXeoVIwDvP71BKb/rF1zqNUbOXc7BD29u4/CwUJt8rp10gdewUcmvyPPXj86t4rwarwC4clhnm2WuaBNroDpAAARAwB8IhKsGBPr3I/8ETPnBZGvg4V3VHIC7brrEKxwAMaYSAtjYyTH9LEvLvn39Xq8xcu5yAOQ+Fw3papVNRHgYf/DMRq9hIxErTevP3Pf/e/S6Kg6AcQjgTi3UYlkQ0SX+0PBRBhAAARAQAifNKUvT3/asvKJyBEB2TzOeCDiia4GSAt5800Q1B+C4a+cAiJGTcLeWdpETA7dv0zyvMXDuNP5yL9kAqCCngdk6lSBBW5Z4V5hklcBFIs/fPD6vitzKBlfaqFbNxFiz5TVtB0RUArUBAiAAAv5C4AEzSq6aMlxy5cBKZWm6FHBUd+u9ae36d96o5gD8dmKnW4zv14fvZnnOr60jl41vJMDNmw+vcMv93W3Y9dzvx7e288yLB7IWZU/C/3ZokWtYJqjnOu5Ia7yZkyZr5o7f7p1f6QD8vQfABoNMf7H/lmrybu7/RPQXEcl22niBAAiAgF8QmG9B2VVRimPKWlc6AKZLAUcrOgCbbrhYaQTgtxOuHwEwNky/n9rNEgL37PFdAW/4jblon4XNr++4dmmmdi97jiryK2mMR62MlwAe2DC9iqxbud7HftHiUQgQAAEQqCAwyIrCq1SMxTn1Kh2AM4dWVVGmY3sWVaazdq07Flyk5gAcd88IgD3GBv+xHEPAE2z+eHe3kuwFBwVVkVl5jKUN/+sIAbwXWgMEQAAE/IlApjWjrZ2TmdY/Hfo7bOq5l9dVUabjehUrKeGN10+AA/CedxlQTxhtZ97zt5MPKcleSHBVB+AXoyWA4/uWKF2DiG72p4aPsoAACICABDX5RTP01o6Ht8yu7DWdPrCk0gm4qKyFkgK9be54NQfATXMAnGmIcC3PODbyaMKazGrnIsJCKuVVnv8bTwDMbZSqdA0iGgN1AQIgAAL+RuBNTVFaO66dObzSAZCAQFo8gEkD1DZRWTl7tJoDgEcAmIugOFIikxWtyax2LiYqvNIB+OXgiko5/u751RwSbHv744rrFPpbw0d5QAAEQGCDpiitHUf0aFmpOOX56dnDa/j7/Tfw5MFqQ6jLrh4BB0DRsGFEQW1E4ZtX71FyAJJio/i7fdfzL88vryLDT66dqvT/ilGyUKgKEAABEPA3AmOtGX7tnKyVNo4IKE6AfJ81uouSEl04ZQgcADgATh3d+OLQXUqyVzspls++9M/Wv9oEwNnjeyr9HyGA/U3loTwgAAIagQzNyNs6Htkxr0oPShTp/Il9lJTo9ZcPUnQAdjjVSKA3rdab9kVOHz+/SUn26tVOqia3Iruyz4Utma84v0hrLDiCAAiAgL8R+D8VRXjTZf2rKdKFlw9QUqJzJvZTdACwDNAXjbEn8vxvxX0dGqelVJPbT/Yu1fP8v6+/NXiUBwRAAAQ0AttVHIAmDetUU6Q3Txms5ADMuLBM0QHACIAnjKkv3vPkvrVKsmdObpcpyi0RnUMEQE1N4AgCIOCPBEaoOACS5tWtc6o4AaumD1VSwlNG91B0ADAC4IvG2BN5PvroaiXZy89MqyKzMvwvvynK/DP+2OBRJhAAARDQCCSo7gw4oLSwijKV5YEqivTSoZ0VHQCMAHjCmPriPV/dtUxJ9oqy/4lkKcb/kRWXK/2vQq6nao0ERxAAARDwVwLPqhjyoKAggwL9bN/NhgmA0VHhSsp0ZFmJmgNwDA6ALxpjT+T5mbtvUJI9keve7fL4xc2z+L8HVnJmvVqq/5MNgBr5a4NHuUAABEBAIzBSxQGQNDqCp1Qq2r6lRXAAsAzQqSs8dt82u1K+XCS7GP7XtAOOIAACfk0gjIi+UFWketOVtmii5ACcxwiAU42kJ3rm7rrnliWTdTsAOuW2v1+3eBQOBEAABIwI3KhTQSor4KImDRQdgO0wgBgpUJKBNdddrCx/dsj1J0QUYtQ28BEEQAAE/JpAIhF9a4eytKmIM+vXVnMA3oED4K4etK/fZ+FVo2zKnQOyfLFft3QUDgRAAATMEJjigNK0qJBrJcUpOgDblHp/vm68kH/HIxTOnjjIorw5KMNvEJHslIkXCIAACAQUgSAietpBBVpNMUdFhMMBMBralzXse9bP4V23zlR+P3/fQv75KOIkaM7TZSN7VZMzJ8itbI/dJKBaPAoLAiAAAkYE5FHAKSco0yoK+qfXN9t0As69c59fjwAc2rGE8zLrVeGih3NMjUheNG00/35qt19z0oy8tePIvh3s5miB+e9E1M+oHeAjCIAACAQkgVpE9LoFRWmX4v3gyZU2HYDzfuwAvLB9MUeEh9nFzrQeJo3oGfAOQJeSfKewrGArPX8Y/4BUdSg0CICAOQLh5TOhZSe0M6YGyJ7vL94zz7YDcPRevzRs0mPPbljXmQaLD25b5JesrPX6jc/lNHIaz+eJKMtcA8BvIAACIBDoBGQ0YA4RHSSin4yMv6wYkGApSvED7l8+2aYDcO7IPX5p1A7fv9Spxl/q4JJhPfySlbGRt/Y5NjpKleleIvqQiGSIX/5znojeJ6L1RNQh0Bs3yg8CIAACeghEEZGMDmivB4ycAotKeeXs0QHrAGxbPs0iFxV25tLIELg1A+nP5354c5senjGaoBJRvNFnfAQBEAABEHCQwEpzBsr0N6UtgY/c7ZdGbd+meXoMllLaIb3a+iUrFcfl1BO3KTEioh8clG38HQRAAARAwAqBq02NvbnvShsC+akDID3W6KgIVaOllO7ORVcErANwYOuNSoyI6IQVucUpEAABEAABBwkMN2fwTX/r1FJtP4A/3vPPJW5LZ4xVNVo20zXLqs9nj+8KWAfgnmVTbTKqkL/9Dso2/g4CIAACIGCFQHtTY2/ue1aDOjbnAJx9+27+492H/NKw/fHubp558UAODg5SNV5m0xXnNuKPn9/kl4xUhv8ljQ5n6i4rcotTIAACIAACDhJIM2fwTX+LCA/ln9+4y6YT8PupB/3auEkUwGsnXcASyGZo73bKb1n7L5EDz5/0bz4qTsDEod3NOkemMkdE8x2UbfwdBEAABEDACgEJH2y8PNCicj756DKbDsAfJwN3aFvF+CHNw9yuOMeijJk4AUOtyC1OgQAIgAAIOIHAWyaK16yC3n3rVTYdgN9PPuDXIwAw4I5vBJScEGtWvszIYL4TZBuXAAEQAAEQsEJghxnlW01JL5023KYD8NsJbHgDJ8Gyk/DV4S3V5MqC7P1JRBKzAi8QAAEQAAEXElhgQQlXUdYqSwF/O74DIwBGOwfCGajqDOzffH0VmbIidx+7UN5xaRAAARAAgQoCw6wo4kqFna2wEuD8sW1wAOAAWJSBxdNHV8qTDZnDEkCoJxAAARBwA4HGNpSxQWkHBQXx1y+st/oY4PxR/94SGD36qj16vTwGdmut6gAsdIPc4xYgAAIgEPAEZCWAbA5kUznvv2O2VQfAXzcE0mvokN68o5BeJ9mmjFXI4YCAb5UAAAIgAAJuIiBDrjaV87xJA606ABIM6M93zSt/GMXA5vLBMxttypeRDKa6Se5xGxAAARAIeAI3GSlfi4q6Q/Nsmw6ARM2DsQ9sY2+u/jctvNyiXJnI3qcB3xoBAARAAATcSKCfiRI2q6zDw0L528O3W3UCfj+FYEDmDGCg/ybRE1VkjIh2u1HucSsQAAEQCHgCCUT0u4qC3nPbdOsOwMn7MQKAlQBVZOD3U7u5VnK8qgMwJeBbIwCAAAiAgJsJHFZxACYM6mjVAfjtGGIBBHpv37T8B7ctUjX+ki7TzXKP24EACIBAwBO4XsUBSIqPsbox0Ll3EAvA1AAG+vep4/qqOgD/CfhWCAAgAAIg4AECrVQcAEnzxMZZFkcBsBQQEwCNHR6ZFFo/NUXVAdjoAbnHLUEABEAg4AkEE9F/VZyA0X3bWXQADEsB38NKAGMjGMifD2y9UdX4S7qBAd8KAQAEQAAEPETgThUHICI8lD9/dq1FJ+D3U9j3PpCNvnHZh/Rqq+oA/ExE0R6Se9wWBEAABAKeQEcVB0DSLLt6hGUHACsBqsyCNzaIgfT5y5e2cFhoiKoDsCXgWx8AgAAIgIAHCUhY4I9UnICGaSn80+ubzToB549thwHEUkC+7vIhqsZf0nXxoNzj1iAAAiAAAkSkFBVQnIQN8y806wD4wkTAH9/azjtXXc03TBnBa+dN5JP71nrcafnhzW28bfk0vnHqSEOe3tu/zuN5snfE4ptX7+HY6ChVB+ATIpI5KHiBAAiAAAh4kICsw/5LZRSgfmoyn37tTrNOwB/vPuS1xuuhtbM5OSG2inGS3Q4HdGvNR/ascnu+xfCL0U+Ija6Wp4lDu/OZYw+4PU/2Gn7tf3MuHVylLDbkabEH5R23BgEQAAEQMCLwuA2FXancl88YadYB+P2kdxqt/Zuv5+DgoMr8m5ZTHAGZuHZ87xqXG93Tb+/gxdNHs8RWMM2H8fcRfTq4PC+a4XbG8ZODmzimRqTVMhmV7xwRpRnJHj6CAAiAAAh4kEBbIwVtVZHH1Ijg9/etqOYEnD/uffMAJCRtTqO6VsujlVuchJ4dinjrzVP5+zecF9xI8iCR8S4b2cum4dfyIscXty/2GSegb+eWSowryicrT/ACARAAARDwIgIHjQ2Qtc+92xdUcwDOHb3X6wzWscdv1WOYKtNGRoTx4B4lfMdNl/ObD6/gcyf0LXP8z3N38O7bZvP0C/tzep3kyutaY2p67uoJ/b2Op7nRggdWz9RTvj8Q+teLWjyyAgIgAAIVBHqaGiFr39fOHVfNCfjjlHfNA3jqrgV6jJPFtBHhYdwqP5NH9evIV44u43lXDOVV107gdddfwguvGsVirC8c3MUwglAzKc7idazxND0n9zJncL3pt4+f38Q6y/sAWhsIgAAIgIB3ElDaIEiMlWwV/NyWuVWcgN9OeNfOgCf2rXWKMTY1zu74PmviQK92AH45ej+3yMvQw1d2n8zzTrFHrkAABEAABApVtwkWI1grKY7//cQ/8wHOv+N9jwGaZqTrMVJek/aVXcu81gGQeP9jBpTqZbUSzQsEQAAEQMC7CazS08NtnF6LP3hyZeVIgLctB3x26416otPpNWouST/hgq5ebfxlQqMeGSGiz4goxrvFHrkDARAAARCIJaLP9Sh4Yyfg9xM7vc547b3jOq6VHK/XaLk9vaxEmDymjM8e3+V1DGXugfT87TD+wvECNCsQAAEQAAHfIDBYjwMgacUJ+PDJVXzOCx8DiPGS4DvXTrqAoyLD3W7YVVh2a1vAbz2y0isNv2b8J43oaQ+7x3xD5JFLEAABEAABjcDtKobLOI3sF3Biz83sbasBjGfOf/bCZsOsfR2Ba+wxesr/6dG+kOUxhXEeve3z+ZMP8vhBnZXLZCQTXxBRiiZQOIIACIAACPgGgUgiOmKkzJUMQEpiLL+yc5FXGzQxsP977V6+ZdZ4btI4TalcejlYSx8XE8WXDOvh1T1+zQn5+ehOLittbg+j34hIdpvECwRAAARAwAcJpBPRl9aMmblzEi3wqc3Xe70ToBm5QzuW8FXj+3LDtFr2GDql/0RHRRiCC913yzT+6Yj3zZPQWBgfZYOfksJspfKZkYNLfFDekWUQAAEQAAEjAs2J6AczCt6qYZB94WWnO2OD4gufJXqgBPgZ2bcDZ9avY3UfAWtMZPOhriX5vGDycH7m7htY1s37Qvm1PEqQn1z7l1AuMZIffAQBEAABEPBhAm2I6EdrBs/cOdloZ/ns8T5l+DQDqB3FcEs44D3r5/Bt8y8xRAGcPXEQXzq8h+E9bXw/vuaSwYZyisPz/H0L+avDW3y6zEcfXc1ptZOsOnjm6rvitxU+LOfIOgiAAAiAgBkCJUR02orit2gwZItbvfH0NQOM48NudSYkfHJ8bA2LdWmj/m81Izf4CQRAAARAwA8ItLNnJECMhsx2d+Yue3AMnO8YyAhHSEiwvcYfkf78oIGjCCAAAiBgjUAzeyYGihOQl1mPP3r2drf2aOEo2HYUfjv5kOExho3evTXHYJk1gcE5EAABEAAB/yHQiIg+sMdgyOS4F3xor3t/dyBOv72D+3Vpac24Wzsn2/te5j9ijZKAAAiAAAioEEgtD/F63B4nIDIijO9fPQMjAe/Z7p270gGRmf6FTRpaM/DWzp0nomEqgoI0IAACIAAC/kcgkYhesscJkBUCEpr391O74Qh4wBGQURgH9kf4iYh6+J84o0QgAAIgAAJ6CEQQ0Q57nAD5T+/S5vzdG/fBCXCjE3DHTZdzeFiotd69tXNfEZHEhsALBEAABEAABCionMGN9joBWQ1S+eS+tXACXDDBlbQAACAASURBVOwESEx/iVlgbz0R0Qkiqg95BwEQAAEQAAFTAhOJSGLA6zYysdFRhmA7rnzmHcjX/u8rW7lzm2a668WoLg8QUbxpheM7CIAACIAACGgE+hLRz0aGQ9noyBr0m2eONew7H8jG2tlll22G66emKNeDmbq7i4jCtArGEQRAAARAAAQsESgmos/NGBIlIzSkV1v+4c1teCTghEcCW5ZM5qjIcCXuZurrTyK61lIl43cQAAEQAAEQMEdAlgm+ZsaoKBkjmRfwzmOr4QTY6QScOfYATx3XV4m1hTr6hYgGm6tY/AYCIAACIAACtgjICoF7LRgYm8ZJ4gXctXgynACdToCs729dkGWTr5V6kdGbFrYqF+dBAARAAARAwBaBaUQkw8l2GaWxAzr53Ha6zn6Or3q9x2+fy4lxMXZxrqifV4iotq0KxXkQAAEQAAEQUCUwyN7JgWKYWuVn8n+euwOjARZGAySe/5xLB7MEWLLX0SKie4hIRm3wAgF3EQghonQiak9EQ4loFBFNIiLpNMwpn3y6hIiWl69AkZ0mZc8JeV9Xce6SisdUpUSUR0RJ7so07gMCIKCfgKwQsNtAJcXH8MPrroETYOIEfHJwE5e2bGo314o62aO/OvEPEFAiIHFCMoloBBEtJqL7iOhFIvrY3mXDVvTIj0T0DhE9SkSriOiiisdZkUo5RSIQAAGXEXDIAdAa/aQRPfFIoMIJeGjtbEeH/DXHAQ6Ay8Q+4C7cmIhGEtEKInre3i3EtfbupOPvRPQuEW0tX6Ek8UpyiQwBzAKuclBgEPAUARna0wyOQ8emGel89NHAXSXw89GdfOnwHg4xNKmLNzwlFLivzxOIJqJ+RLSeiD40kStnyqizr/UtEe2ucAjSfL4WUAAQ8HICNzlTOcgqgTXXXRxwgYOO7FnFuRnpzlaGX3q57CB73kVAtgSfVf7sXiJEnnNmu/bgtY5VPKLI9y7UyA0I+AcBiSjnbMPFfTq14C9f2uL3cwNk58RV107giPAwpzMkoj/KlV+of4gZSuEiAglEJBPvDhHRX65oy150TXlcIPubZLuIJS4LAgFH4GlXNfCE2GiWXe7+eNc/txd+/+kN3Kl1nisMv/E1ZTY2XiBgTEBm6XevmLgnwaGM5SVQPr9VsTKhhjEYfAYBENBHQHaTc6nS6NmhyK+WC5478SAvnj6a5XGHq9kRURt91YnUfkwgrnzZ7kxHQnq7QV7d0SaM7/EdEa3Ejph+LPUomksJfK+iFBJjaxg3Ot2fY2pE8tp5E1mGzFUD6HhjujcfXsFFTRrpLr8x45DgYI6PiVK9xgUurX1c3BcI1CWiW7xk5r6q3Lo7nawo2EFEzX2hQpFHEPAGAjJT2GZDlUA2J3bO434dHNq61nCfksJsfvmBm33OCfjfa/fyVeP7cmhIiE1e1pim107kZ2+/mkf0aKl6naneICjIg0cINKlYInfemkzhXDUd9hQRtfZIjeGmIOBDBGQyjU1DVCsplr87sNzwXnHVYIeHvsWhGF7Wnk/sW+v1jsCPb23nW2aNd8q6/gGlhfz108v5/KsbeM6FvWxyr6gb6fnhFVgE6hDRHUQkvVpVOXFquvCEOhzbqAUnF/TiOu1Hc71eU7nBgDmcMWIJZ45axpmjb+GssSsNnzNG3mw4V69sOtfpOI6Ti/pwXGYbjkyux0FBwU7Nl04ej5cHHyoKLNFBaUFAnUCZSoNq1bRBpQMgjsDhzTO4ScPaDjdscQT6dWnJu26dyd+8eo9VZ0DW2L/75Dp+7p6b+N5bruIlV4/hK0eX8cBurblrST63yMtg2a2wcb3aXNikIXdokctlpc15/KDOPO+KobzxhkksMfnf3rOSvz58t9V7nT2+iw/fv5RnTRzoFMMfGR7Ga2eNMBh+Mf7yvn3uGFV+siYar8AgICNyCxwJz63SnrU0waHhHNugiFNLx3PWmBVcNOdJLln5Lne59wx3u5+d8u6y7Ty3u/UDLr7uAOdMWMdpXS81OAchEdGq8u9oOlkZIVEOEVMgMNoQSqmDgMT2ttnAhnUrruIAiBPw5b4lPKFfiaNx7qvcu26tJG7SOM2wx4DMri/ObWQw6HHqz8urXM9a2WTZXlrtJJbgRW2Lcrh98yYGx6FRei0OC3VsmN/4vnmN6/Lb2+dVMf7iADy17irVvB7XUZ9I6psEZFa/LOWTuA+qcqE7XXhcLa7V+gLOGruKWy58lbtu/80pRt4eZ6Hrzj+5zS3HOOfiDVynwxiOTKmvuzw6WclqifnlcymifFNEkGsQcD6BjSqNaOaYbtUcAO2RwINLJ3JqSryrG6/PXV8m+s0a15N/OrS2mvEXB+Bfu29SLdNZIgp2ftXjil5CQDbMeU2lHepNExQcwvE57Tlj+GJuvfQt7rbzL48ZfBUnoWTVe5w1bjUnFfTk4LBI1fahN91/iKiXl9Q9sgECHiXwnIpSWTdruEUHQByBjx9dyBf2baO3Ifpt+kZpKYaJftpwv7njr4fXcWiI8vPRhh6VEtzcFQQkwJPsrOfUiH3yzF2Mfvb4Ndzh9q+82uBbcwo63/Mr5097kFOa92N5VKGip3SmeZCIarqiYnFNEPAVAp+rNJrHV15m1QHQRgO233Qh10x0aN97VzR0t10zODiIp47owj++sMZsr9/UEWiQmqyaN/RYfKVFqeWzuGJ3PNX6t5kuqlYjwwS9Dhu/9Fmjb8kh6HTX95xz0XqOaVBok4OKPjNK89+K7Y7Vag2pQMCPCMiEI6XQocd2XKfkAIgj8MHDN/L4Pm04OCjI2Y3Vq69XkJXGBzfNVDL8miPQuWWOapmwFNA/Gp70+hc5a3a/9PZrthzExXOfZnmmbsmA+tPvrRa/znU7X8zBYRGqbUcl3d3lwYRi/EPEUAoQUCMgy2NsNo6YGhH87TO3KDsA2mjAgXVTuSjb6Zvj2MyvSpmcmSYhJopXXz2MZUhfM+yqxyuHdVYtj+zohpdvE0glohedIXshETU4vccV3PbWfweE0TfnwHS8/WtuOHgeh8UkqbYhW+k+QNRN325gyL0+AiNUlJHpEkDNwKsc//fMLbxy2gXsaBRBlXy6O40sYRxb1oY/f2KZbsOvOQgb5oyypZS087K7G16+S6ALEf2fozIqhr9B/9lceuf/AtbwmzoDne/5xRCTICxG+XGa1qbMHSXg0mTfFTPkHATUCSxVUUgyuU/F2FtL88ljC/n6i8s4Jd5ta3/NNW6n/CbP+Yf3aMFHdlRf2qcZdtXji5tnqeZJnlXi5XsEgojouopdHVXrulo6Ge6u1/sqll6vqQHE97/jFXS++yduPGwhh9Zwyoqke7Fc0PcaG3Ksj4D0KqspG9Pflk0e6LADoDkHX+xbwosv788NU502bGcz/6blsfd7dFQ4X9ivLZ/cdYPdPX5Tx+B/z67SE0cBKwH0ybenU8vGPfvslTftf/KMv92aD2H4FQMTddz0Dad1m8SyBFJjaOfxCDYY8nQTwv1dRUDWlf+o0jAeW6G2AkAz8qrHgxun8fyJZdyrbR5LqGFbeZGed52UeG6RW5/7dSzgK4Z24kVXDOC7F1zIT66dyi/ffQ2f2LXAsL7+9Xuv5QMbpvODyyYZns/PGNOdR/ZsxR2KMrlxWgpLZD5b94uKCONWTRsa7iPXUZ3Zb2rkbX3XsRJguKuEAdd1OgF53n/UloxZOx+dnsfN5z8Hw69o+E1HQlovO8oJuaU227m1OijfbvgrbC7k9LaBC3oBAdlkRKlx/Hv3DU4bATB1Ds4YTZwTAysG/NWtcwzG+/CW2fzWtusMBv2LJ5fxLy/d5rSetxjlbw6s5A/2LOJ3ds43OA/7b/vbiZB7frH/Fqfey5oT0LdDvlI9VGx56gWigyzYICBt62PV9mWaTob7Gw+9iSWErqlRw3ed4Yl3/sVNLr2TQ2skqLYxc+l+JqJ+Nuocp0HApwiMN1U85r7XTopzmfEXZ+Dsy/pnzlszpr547toJvc0pHXO/HfIpCQvMzLYjom/NtSWV3+Kz2hpi8cPQ6zT0NkYJJDaCPEpRqQMLaf6oCNUcmFKNUvsdAVlWZrNByPa/pr12Z34/9/J6t/W0vdU52LPyCpv1UFFXEstcYsbj5Z0EBhLRGZV2ZZomKCTUMIGt644/0Ou3YcwdcY5yL9vCIZF2ByqTmCmydwpeIODzBN4wVULmvi+6rJ9rHYBX4QDI9sCypNAcfzO/Ffi85PlnAYbYG9wnqk4mt1r0Ggy/Cw2/sdMgOxPKVsVm2pbqb/P8U4RRqkAhkKSqrJ5ZN8WlDoC39srdna/cRqmqymdGoAipD5WzPxHJ+nHVOqxMV7PlQO5092kYfzcZf80RkF0Q03tNqawHO+ruBh+ST2QVBKoQGKMi8DIL/uv9N7vMAfj+uRUBP/yvORoTB7ZXVUbPV6lJfPE0gR7lG/rIbo2q9fd3uqAgbjBgTsCE79UMr7cd86bsYAmupLv+/q5v2cgJLxDwOQI7VQS+Q1GGy4y/zCP48blVcABe3WBgcNf141SV0G9ElOBzEuefGe5szzN/eQZdeM0+9Prd3Ou35Hy0Xvo2RyTWVW1/xulkTsAV/inaKJW/EpDNSL5XcQBmje3uUgfg9MHVcAAqHIB/7b7JWLHY+iwhnPHyLIG2RCTLw2zVVZXzEUlpLOvTLRkj/O7c2f+qPNuv/4xj6ikvxzWu0z+JaKRnRRF3BwF1AqWqSuuptZNd6gD89MKtcAAqHAB5FJBdv7axYrH2eZt6dSOlCwg0KO/5SWhma3VU7ZwYmA4bPofx95Kev6lzIHMxkvK7V6s3hXo+R0QdXSBnuCQIOJWAzCB/XEGgDZH5ZCMfZy75M73Wzy/CAdDmAMhx1rieqsrnu/Ioc7LkLNKp0oGLqRCQLWOPqbQh4zRxGa24dPN3MP5eavw1Z6DLfefsjRcgsR+yVQQIaUDAnQSKiWgJEb1vrJBsfR7fx/ENgEwNvun3Xw6twQiA0QiAjo2BNEfhp3KlI/M5LsDGJW5pUhI++1Fbbcf0fEJOB8z093LDrzkAcuy6/Xeu03601sb0HD8kIllhhRcIeJRAi/Le4TIiEoHUI8CVae9ffJFLe//iDJxxcmhf4960L34++/J6rp0cV1kHOutOggTtIqJhRFTDo9Lnvze/WWedGGLRy3a1xgYGnz3znF8P9647/+TU0vH2tMX9RCSOIl4g4DYCsuVo63LFv5yI/qNXSZmml13vvnpiqcsdAIQB/nsFgLGzcsmgDvYoHdP//EpEDxGRTBaUIWu8HCegtHTWuC1JsBnZolaP4UFa73EOJCpjrTZDTduWyvdFjosbrgAC1gmI0ZeZyKuI6BNjxePo59CQYH7i1itd7gCce6W6ATQ2hoH2+fSLa7gou56KgtGTRkLTPkJEo4lItqfFSz+BLL0z/mMaFHKnu76H8fehoX9zzpdsyJRS3FdPe5O0sjxQgkPhBQJOJSBDSzK8f6Mjw/sqDkLdmvHsyl0Av38WQYBMHZzLLuioV9HoTS+zlfeWb3E6iYhqOlUy/fdismz2NZU2o6WRpX4dNnwB4+/jxl9zCLrce4ZlkyatfhWPstS6nv82C5TMXQTE6HcgorXlu1F9oSh8eoXVbPrurZuwq1YC/PDcSkwANJoAuHPJRLN14ML6lt3NDldsblLLXcLsg/fR9dw/NCqO29xyDMbfT4y/5gSU3vk/lj0bdLbHFzAfwAdbvBdkWXZ861LeS9tARF/rFDq9Qmo1/YJL+rjkUcDpg4gCqI0AnHrwBo6LjrRaDy6WAYkuKJOXJhJRshfIv7dkQSL9SaAXpboJCgnj4nnPwvj7mfHXnICSVe9xaHSikiwYycwsbxFm5MO7CchQY3ciusOeICNGAqdXQK2ml/kArlgRgCBAf89/+L9nVrCOjYCs1pWTZOD38rklTxPRpUSU4t1NxqW5k+Vcn+thmj3hNhh/Jxv/9us+5eK5T3PupM2cNW41Z41dyU0u2cRFc57kdms+dDtvuW9QULCediibROW5VFJxcZ8lEEZEvYhoMxH9T4+ycWdaWRXw/MarnDoSgBgAG/inQ2u5tDhLjzJxd1p5TPAsEV1ORLV9tpXZl/GtetpYnQ5j3W6MtJ6pPx1l+V3z+c9x3c4Xc2Sy7Qmx4fG1DWv2ZW8FWb/vDhaNhy3U2w5fxaMA+xqhP/4rnIjKiOhuIpKIbnqFySPpayXF8pFt1zrNCThzeF1AzwE498p6Ht6jhUfq0k6ZE2fgYLmjOpmIUv2xYRqVSebcyExupfqRGf+d7/nVLcbHHQbOE/cQw9/0ins4um4TJebm6iYypQHnXLSeZea+K8sgeU1p3k9vPq8yki98DDACEUTUj4juKZ909YM54fWF3zLr1eQPHr7RKU6AGEDtGXggHmeO7aFXgXhTenkufqjcgZ1aPnqV5mdtWR7FHVdtj7KVbMnKd11qcFxpzLzh2rI5koRKVmVuK110Wi63uOGQS+tEJgXq3EFQonbW97O2guJYISBx2iVeu2zc8qMtofWV8yXNGvIX+5Y45AR8f2B5QBv/NTOHO03ZeYHciDMgqwmm+8myp6v1MM25eKNLDY03GGhX5iHn4g0cHBbh9PYQFBzCMlTfbedfLquf4usO6J0P8KAVe4FTfkAgqiIuu8RnF4/P6YLtzGtOvGQST58xS3ce2xdm8Od7F9vtBPz4fOCuAFg7czgHBQXpYp6RkckPPfIYh4WF6fqfM2VF8VoybC7PO2cSkeyY52uvunrarQwDu9LAuNLwevzaO//i+v306x5FOaxsJxLOt+v231zmBNTvO7PyXop5k91Y8fIjAhJ3XeKvSxx2iceuVyAcSh8WGsP16vTg4GB9xqFFy1b848/n+Jezf3BZH92RrlhGAj59bJFdTsBPL6wOyBGAldOH6jb+8fHxfPT4u3z2N+aVq9fqlpVaSa04Lrqx7v85QY7FGXiDiK4hosY+0t7vVy13aI0E7rDxS5cZFo8baCfP5jctjx2G024Zlo195Lm9aR6c8b3LfWe5Rmq2nrwdwYRAH9EGVrIp8dUlzrrEW5e463oEwOG0YaGx3DhtMHdpuYlHl71r+KwnD8kpKfz+h58YjIoYlv9+e5qbNs3Tna+WufX540cX6nYCfjm0NuAcgCVXDtTNNyQkhB/bu7+ynqSuho8Ypes6keHJPKTby9y/9EkuyJrK8TG6g5noup8VOXyLiK4lokwr7cqTp2TXTOWJf7IUzRkGJBCvkTNhnbNkSvk6DQdd57L6ar7gBSZ9o3oXe1LQcW/7CEgcdYmnLnHVJb66svA5I214WDxnpA/hrq3u4tFl7/G4vh8Z3m2a6VuSEhwczHufeLqKURHD8u77H3FScrLuMhVlp/NHe27S5QScOXxbQDkAN07qr5uryMyKlbdWq6dvf/iF8/Ka6bpeSkIxjyn7V6XMDOj0NBdmT+eE2Bxd13GGHFdc4ygRzSOiHPuaokv+9Zhq+RKbdsbQv50jBK2Xvu2SZ/626k7W7ks8AVc5XGndJulpS7J3i6wGw8vLCcQT0TgiEuVw1paQOft8RHgCZ9Ybxt1ab+Uxfd6vVOCa8S9r/7Duof8bblxUzaiIAyDvFw69wtHR0XoE2ZC2IDON339ogbITECgrAKSccy7spZunyNGUq6ZbrKfjp97nuDh92wbnNBhbTX5EjgZ0eoaLcmZwYlyuXfl0gszLjPsFRNTUg7qgpWrvPygklEtWnHKZIXGVgfKG68ruerGNmntKzjiyZkOXLdcs3fwdh8Xo6kBd6UF5x62tEEgs311vAhHtKx+ylM1T3CqwEeGJnFV/JHdrfQ+P7fNvs0pbFPewHm9ydFSqrrz16duPfz33p0XDIk7AE/sPcESE/lm5Deok8atbZtl0AgJlD4CfD63lsWVtdNWPJmsXTriYz5z/y2o97XroEd3zCdoXrbIoTyJTgzo/x8U5szgpXv/jIC3vDh5PEdFNRJRvpX264tSTqvmu12sqjL+dvX+J5qfK2ThdbFw8d+nRl0dPuIzHXnwF9+gzkJOSU+y6VsbwxS6rP4lBYJxvG59lXxdZKYaXFxCQ+OfyXEYUgYRu1FORDqeV57TZDUZzjzbbrBp9recvjkGdlHa67tu4cQZ//c0PVo2KNhLw4O49HBoaquv6wiwhJoofW3GZVScgECYASnjf0ub2Rfi7YMgww8RMrS6sHWfMukZXHYWGRHG/jk9YdQI0GRvc5QVu3mQOJycU6LqHE9vOv4hI9lUvdLF+kC21lcoYFpPE0tPzht60r+VBev96N9NplJnNazbt4GMf/8CnPv+lyvv4J6d507Y9nJdfrFR3Wh1LL73z1p9dUocSiTCmnq7Hc1NcLNu4vBUCEudc4p1L3HOJf65LkBxNHxVRi2VYtmfJTiWjrylmOTbLuFxXXqOiovj1t95RMv6awdmy9T6W+QJ6yxkeGsLLpw6y6AT4ewjgozvmc1b9Wrq5Cedevcv49C/nlevp5zO/c6fOXXTdKza6AY/oeVTJCdBkbnDXF7lF7rWcklDERPqWMOqVHwvp/13+zHQpETW30p7tPfWUhXtW4yqx6H3N8HpLfouu3V+NpzXug4aN5aMffVfF6Js6AfL9xKc/8cWXT9d17aaX3e2yepS9AqyVy+TcR+VOrmz8hpebCMi2pxLXXOKbS2hTPZXlcNoakbW5ScPx3LPt/Ty2zwe6lLCmjDu3uEO3Er7r7nuVjYrmAMhx/cZNdjkBwnV49+b8pZmAQWdf9t8IgDsWT+SYKP2PT4RX127d+bsff9VdT5998V9OS0vXJZvptbvzuL4f2iV/F3R9iVs2ncc1E5vrDYKiK49W2qYozVuIqJUTdEau6rP/iKQ0liVf3mJQfS0fdTqMUa7/C0aMt2n4TZ2By6+ao3z9pGbdXFqP8dm6RmdlCTleLiQgcctlwoXEMXe70Zfn9LmNLuJe7R602+hrxl+e0coSQCvKsdq5SZddoduoGDsB99y3w+4ANPkZdfn1u2dXjgZ8/+wKv5z9L5v6TBvVTfczea0eBwwcbIjJYMxdz2eZvBkeHl6t7rXrmzsW58y0ywHQZFGOQ7q9wq3yFrDEGtC5Q5quvJrLf8VvHxPRSiIqKZ87EGSHDllr5dpV8igR63zN6HpNfnf+xeFxaqNimdm5/M5/vtftAMhIQKu2HavUmaW6lciDrty7QbaEtnRvM7+/Zofc4i82CEh8colT/qKe/bzNVI6eiqxMGx2Vxk0bX8Jl7Xfb3dMyVrTyeVTvE7qXbbVq3cYhw6IZoYf37GV5jGAPnxqR4bx6+hCDE3D6oP8FAHpn53wuzNLXAzfmOHbchSxD+Rpre4+3rtU1AYmDgkK4e5v7HHYCNDkd2v1Vbt3sRq6d3MZwbeMyuunzp0S0mojaKQZaiVYN0R2ZUt/lG8x4jbG2c4Kftfy3Xf2+su5Yf/cu3cZfGw3Yte9F5fs0v/6gSx26xNxOynkhojY27BlOKxCoVxGPXOKSS3xyPRXgcNqYGvU4r/Gl3Kf9HqcZfU25yrFRmr5AMik1a/IH//nMYcOiGaSnDxzUvfTMuA56t23K/3l0kd+MAMijjFtnDOOoCH0RGI2ZTJ5ylc3Z/hp/leOo0WN1ybGsOJEhfWM5c8bnYd1fZ4lPUSe5raecAZlhLb37jlacgUnGdWHtc9bYVS41FtaMpz+cK5z1mJJcysx+mdynGXR7jlk5TZXu1WTi7S6t06I5Tyjlo0Lu7lKwb0hihoDEG5e44xJ/XDmKl7XGruecTKiSCXl9OjzmdCVqrIhb592gR5hYIsg9+dSzTjP+mvF5+dU3WRwLPYyM0ybG1eA7rhvDvh4H4MiOedw23/7wurIXwPzrb3R6/cgcgvx8fbP2UxIKqwSWMpY7Z3yW5aol+Us4NaWDp5yBr4hoPRF1NplwJcGIbMpyaI147nT3aZcaC38w8tbKkD3hNpucpS7K+g9xyPiLwzD+kslK92o48FrX1unOvzg6Xc0ZKbdhPxNRrBn7hp/MEJC44hJfXOKMu93oS1z1/MzJ3LfjXpcafU359m63W3ewn4WLljrduGhOwL8++JgLCgqVGpklBduxKJOP3X+9z40G/HDwVkNgn7DQELvLL49SZF6FxtPZx5PvfcCyf4Al9uZ+lyWomry58ji8x9vctuBmrluzlIOD9C8zNZd3nb/9HxHdXvF4UImRbFhjzbjhHNvkkzFiiRLrCZOuctgBmLNgmdK90ntcaTPfjtZt7mVblPJSIcMyIoWXBQLpFUZf4onrgeqUtBI/vSBriiGeuisVpOm1ZShVVg7oKXP//gOdOqxszkBJONrBFwzVlS/TMoSGBPOkwR35s303e70jcObldbxp3liuWzPBoTLLbP1XXnvLZcZfqyvZOVDvjoPtCle4xQnQZHx4z7e5XeFyTqvVWbeDaypLrvouExvb3/axyw2Fo4bG2//fePgipXZzyeSZDjsA1y1cqXSvtG6XubxeZdWIxI5QlM+XLdi+gP1ZJulIGN4DnnimnxCbzYXZ07h/6VNuVYyagjQE+0kuURUeQ7rMzCz+v//96HIDI4ZGItUtuGGh3csEtUYhy+bmT+zD3xxY6XWOgDyqeGTF5dy0sb6Ii1rZjI8lbdvxJ5997Za6kfqZPWeuLtkJCYl026iWJuPaUeIStC9cyem1u3FIsL7VDMaMnf05uaCXy42EtxtvZ+Qv+0K1XSwHDh3tsAMw8coZSnLfoP9st9RtvbJpSvmpGM2uH7DW3qjgnYjonornIqrwnJIuPiaHC3OuNsRH15STp44yoVCPQqtRowa/eeS42wyM1tt88OFHOTZW39JEc+WKi47kq8d0548fX+JxR+CXl27jLQvGc7OMurrqwFy55DcJ7StbL2vM3HGUbZ4ltoClPJn7XSayjuh5xCMOr9bORvY6xh2KVnNarW4c7GFnIP/qh91iJJxhqRdxaAAAIABJREFUZL35GvnTHlSSw/R6DR12AIpaqoXfzh6/xi1122b5CaWyV7RHmc8WkK9QIhpFRG+bU0yu/C0uOoez613JZe32e1TxaQpQjp1abNQd7GfrvdvdamCMjdiJd//NrdvoG62wVKfhYaE8pqw1H9g4nd0dNOijRxfzwssHcHrtRD2N1mJaeRZvbxAmY772fv78y284Pb2exfyZq4P0Wl0djldhLMuOfB7e4xi3yFnGtZO6cEhwpK5ymCubnt9k3XrX7b+5xUh4s/F2Rt5k8yRV9jsefc5uJ+DpV04qj0hKZEJnlE3lGnGZak5Jxby2gHIAZObj1eWb78j2iMpC4mjauOhczq43mTsWPsx92r7Fo3pZ3nTHEQVmz38Hdj7AYaExulhcceUUjxl/zTjJWnZ5JBAWZv+yONN6rV8nia+d0Jtl1v35Vze45P3108t58/xx3KlFNgcHOy/MrYTo/fdHn3q8Xl56+XXdmzsVZl/tNc6wRCwc3Pk4d2/1AhdmLuU6SfKYwL6YFKbyZe27OyaJqRgPX08j2/8mFfRU1mcSzMee5X/ynz4DhyndR+Z2uHNPBxltsCZrRudkUntAPAaIK1+fu5CIfjAqvCokO9IFcXxMHufUu4pLCx/lXq1fN7wHdDjKY8rsC4lqj3G39Z9RvSTYj/5NZJbdstLjhkZzBGSpYE5OEzvqyLoDKBPwLuzXlu+9aQL/5zH7HxN89/xqw+iCOBatmjbkEDv2O7Ams5GRkXzL8lU2d13UeLn6KE6I3q2DRUHKFtS25NWd50f0eI97t3nD0G67t3yRizKXcZ3kHhwS4hpnoMWCF93WQ/R1I28u/xL8p3bJcKYg/U71jLkLdTsBS2+9U1nnxGW0cmvddtj4pZ5ImX69GiCMiGQHpG+sKVHnnAvihJgCblJ/OncqeqzS6GvGX3oV4/p85FVKrmHdfspCbMxIlpYdO/kvr3ECvj99hmVUQu9MdOMy2focHxPFJc0a8cUD2hmG7dfOGsFbb7jQMGlv35opvHPJRN4wZxTfPGWwYW5Br7Z53CA12aV5Kigs4reOnvCaepCJmt17qPe+jJlHhCfwBV0PeVX7GN37fcOIndaG5di95SEuzlrOqcm9OTQk2q72Y1xu+RyRWJe77vzTrUbCnBH1xd86bPiC07pN4qAQ+5d5yiZkspxPdSRg2dq7ODxcfQ8OTwR20hEZcI8/PgOQON2y6cEHpo3Nmd+DKJgTYwu5Sf0Z3KlobzWjLwpDehHSm3Bn70XlXq2aXu+Q8pJn8DLxy9U9Sj3Xf+7gS7oD0zhTHtx1LZkEKaMwP/36m1fxl82cHGGQHJ/Po8ve9aq2IiN2fdu/bbZt92j1EjfPXsl1U/pwaIj9E1Mx/G97bb+pcyJD6jKzPjjceSMyXXr05X0Hj1h0BJ597T0eMGSULhmX/HXc9F+3O3eqKyGI6KfynS/D/ckJKCIi2fBAV0WpppfhyqTY5pzbYBZ3LnrCrGLQegxlJW/wyJ7/8iqFJs5Br7a7nBIYZcnSW7zKAImzIHMDVqxaw/EJjq2hV5UHd6aTEY6hw0bwR5984XXc3//wE6eszsiqP9Lr2svYPh+yPL7T2rW5Y49Wh7l59mpOS+mnewOtwtl73W4gTA2qr3zvfM//t3cd8FFU2/um9x5SSAIJCem99wop9A4GUBEUFQERBRTEhqCo2AuKiojYy7Og2BURERCkqAiIgl2f3ff+6nuev2fN8JaQ3T2zmbo5+f3ym83OZObe75x7v29uOecXwEA/nv7qtG8cDcgrLAXM9nfxFTfApVfdDGfOuQBKK2vBw1P+KENCy0xdbFtx7Ydy+A93wpn+x7cjh/cfSnfKFtIPLobMxHlQX7DebkcgdQ5t5VthQss+w3VmYwa8BX4yg/3YwhPnn3fses9wZIRC4LMvvoWZs+fIXpBmq656f19VXQOvbdxsSKxx6L+hsUlOh2P32orcKwzXbnD6bnjNTlLbby7ZBMlx0+zWUfKnvzPF/aILSZiF9LGcDff+BmlTbgLv0BgSrhK+eh49A8KgZuXXutnWLzqZitVCs7N/tRDiA6WNHeTf3zKnTyX9/5H/NmhvNc5Kf2lKAIP9RIeXUp2CdF1xSaki2eXkDPXLuRZDCZ940hRFdwso7Wf27ldQWASPPP6kIYlfssP1N+I2UuVG3DzcfWBw9ZPGEwGDD8Dw2ndJIiApdjIJk/CcgboRhBkEAK6NyJpxL/hFOZ8LQ0nflHOvjNPu0NW28S1nkXxQCPGMWQUARu+7WcnIfT5ekZAYMxEqs9eRGrpE+tJxcMV2mNi234Cd10HI7DeV6hCyrrtsyTJDExQSFa5OP3PGTMAARnIasV7X1tTWwVPPbDA8ru9/+BEEBsrbRkrBFIMEYfheSbwa6TiybpfDvgGnCSn1xOFsMxCxHmXEqZHAPvKSTVEw1+Ka6Irxuts1Z84jJB/s2B3nbjYRkPnXQr+9ShkT9+rnJi+B5pI3HTZuiew7HwdXIvkbZ5ufdadZW3ij7GA/VGx9fHxg+849hicrFAI4NYAL6JKTU6iNQ7PrAgICYMop02Dzlu2mwBKH/mvr6lXDJ65XnWGCBFm3Jfw8qn63zX6iuWQzebug2nni1SDu+rt+gppbv4DqWz8H/Kz0M4ou3gghaVWK+pW7p3Yhn0P6V0D96l8Vx0Uuzmgjah8uhMg2kwCYJIT4RUblugQCV/FHhdVCacZtNhtzZ5K39fegiq2GffMfVrcBvDzlbVlqGtBCjnKFdigsKjb0VIA0XC0dkbyeXv88TJp8kuxsdt31O+v/x0VH1TW1gMPoWuVVkDDo7nHFdSgq6UP/dfWNsrZP4b1z+88y5CgAigDc2ttVf1CZfR8JFzcPL0MQhSNiKb50MySNXAShGbXgFRhxXN3wu9D0GkgcuRCKL9nkNPGVXbETIgsGH3d/OT7W+Vqch0+esAzqVn0HvYqHK3rvzs/Cv0P6l2sa9MeR7WSsA0BONfyPnxDi9q6Al/edG8RGNEN17sNdNuCuGrW979rKjTnnj53UhJZdgNkF5eBTUloBhz//AaafMUvW/118yRJTvLl2Jj6Mm//QI49b1grExioTj98e3rh4EvfLX3X1tYZc0d8Zn67+3vvBAcARC3v1tD7XOy4e9h38Aq5ecRP5f/D/cQFuY+ldhhUBXa0JyEpaSKqj1gFiHJGF9fmGNf8H6dNuA//eaaS6WNvaP6Y/pJ1yC+A9rO9p63PldQcgpqpdTvAah2Xy8PGHvsPmW4hfem7j2j8goVVen2ZdL0efo8rHGk7Qxdae6BCrjnotNzr7Y4reHY6M4Oh8REgZVGStUYT4URTgPn8jrvb/e8jyAPSNHUR1AMt1UVHRsGP3Afjim1/h0JFvITmFHinQ29sb3t7+rilFgDXJbdm2E/r06SsLN0d+h+dxG9+1198EGLjI+nlm+/zr//3XMmpBqbNU7wceetLiU+hXE06gLZCT7u/jFQojG141pAiYNPggDO20RRDXEEllt3fEADYSORnpmD9/vSKL7nx7JULevKdt1hGnEDAGAo6E2MNJzjm8V9yA0wGj4dnCFOfGldxN4OkfAulTb7X5PFvl0OL7/pNXULF91sgCIEcIcUSOI3S+NjggHYrTb1KM+C0jAkj+Btzn/zf5H4SijAuoxrdc5+npCY/947mjHTV21k+tfxk8PDzI98kvKDRcgBo5BIvkhtMCnf1Hqb/j4uIB357llMlo12KcBTl4TJw85RifQmGZnZMn6x7hIVmGCxIktbPJgw7AkKp3jvYtvUKrSXXDbW1akAD1GfjGLmPlOKmO6CfxA884ZjSg7s7vIXH4+eDhQx9BcuRvOFIUXTkBKq/dT8IUy4AjBB6+zi9gxS2cKDZwrp2KsdbXFVzwAtVOnxlVADQIIX5w5AC2znt6+FuC9jSXbj7aQO0N51PPtZZugXEDjRfkR+qUmivuBzc3OnEjfhddsuyYjhoFAP6eedbZVCeyXHfh4ktMSXBqk7/ko2YWAZiJUc5OiviEPvDhR18e51dbtu+F0DB5WRBTEsYachQA25wlYmDl3xED/X1pGRGLLnrdMMSBi/nCs5WL5SD5unQMy6y3EGVK+5XgFRguqz+R7mHrGJHfBqXL3nEKS4woiFHzgpNLyVMQuDMhecJSu6MMWhO9redhFEJbuHXxPSbLM9QPpuz9vy4KSqpUr9AaqMt/UlHilwTCmMY9hu2MxgzYDH4+vUgYSdgOGToSPv/6l+M6ahQAH3/6T+ifSp8LxAx9W7buMJUI6A75uzsRh9yMIgAxqqikr87GKY8HH3m6S59Cv1p7/2OyFpqir5bnXG7Ydtfeuh9ayjaRhTcuTLPVcWv5fcOaf1sW+El9gVpHN3d5LySOyoGr7QsXv6oYhrV3fAu49RBFSnzzDMD585iayZYRDCT8nDmPGvpt35bPYKppR1h2nMeRdsP8YBIfTFdILfzR67y9wi2pPCWyVvo4rGanYTuhiYP2QVR48VEsKPil9E+F/Ye+stlRY2f9zHOvypoKyM3Ngx9/+c0UIqA75J+QVgT5daPB01t+/niziQDMOkjxJ+maE0+eZten0K/mnidvmgqDBA2qfsKw7W9Q5XoSRrg63VaHrfX3OHQu2cwMx8CEbMg79x+GwU9re8l9Hu5MINp1mFHYf7qz5B8eXAz1BfZj9HdHEAyq2A4YG1waajfaMT3pZKqxLdcFBATCa29sd9hRY2c9c/ZcWfe+YNFiwwuA7pJ/1bDTAH9dXQRg9kfMAknsSKBPn0Q48LF9UYk+9dlXP0Njk7wMggF+cTBuoDGDBA0su5eEUVBigSEIDKPVUW2q93W4qDDzjHs4c+L98pInRVeSExjNMoIAONmZyH64CCQl7jRQeq7fWixgch8jhviVREhNwfWyG/PKVWtI5I+d9SeffQdp6RnkZ+BUgJGD2ihF/q4uAjDrY1l5BdnuOPT/yOPPkv3q/Q8/hYQEebsueveqNWSQoOqCa0k49SoZqbsAqLntS9WS6igpFnAIO/XkGyz5AOS+/fL1AIkjyKNsV+stAHDO/z9yncfHOxJKMm5VZa7fWgCMG2C8tL4S+Q+tfQ48PeWFuT3t9JnkThoFAP4+98JGwN0CVBtlZ+cYcipAafJ3ZRGwdNlysr3RL6ZMnS7br55/aRP4+MibRsntf5bhRuKKM2kxABLaZusuALqz4j80LBzCIyJl+QW1z5Cu8/QLhn5jL4X6u3/WHSszCwmM5yBh6uB4j54CYIQQQnYmvyD/VKjLf1p18sfQnxLZGu04oeVdCA6QlyyjrLzKEuxHInY5x9lz5lEdynLd/PMXGmoqQC3yd0URgNkeMXCRg47j6Pm+fZPg4CdfyxYA6H/XXCcvqRCO+jWU3GGodpmVPP0oFvYw6zfuMl1Jrfb2bwBz1dsrY+dzOfnFcPUt98CW97+AvUd+sfxu/eArWHHrvZBfVCbrXp3vbf23u5cv9Bk8F3BRnpmJ1yhll5ET4Gm9BECBM6F9I0PKoanoFdXJf3DlNsCAH0Yj/r/LcwD6xLTKanzR0TGwc89Bpzpp7KgPf/Y9ZGRkkZ+JIwabNm81hAhQm/xdSQTg0H9JKb1jx7DGneNIyBGWeO3ESfLWsHh7hRgqSFBy/ChSu9A7cAwOqVuTrr3PHp6esODi5bDn8M9HiV8SANbHRZdfC56ezgf1cfPwhN4NU6HqpsNM/DLn+e2JDcw3Yc++Vuc26yEAooUQn1gVglTY+F7Du5W4x3po3+7nsi3Q3rrPoOR/EAozFpDwkvDFefknnnreafKXOnQcssV7Sfd1dMzMzAIMuatnUButyN9VRABmeXRkV+vz0049s9t+hVtOc/MKZD03PDgT2lv3GqKNJsQMJJU9Z/ZDupIcxvW3tp29z5evuM0u8VuLgKtuutsS8dLe/Y475+YGUWVjoPya93XFxB6Jmvlc2fLdVFvv11oA+AghNh3nEA62/iX3PkX1t35JFIxuMO7Qf3P5OvKeYwnjS5dc2e1OWhIB55x7PtWxLNedO2+BbgJAa/I3uwjA7I6Y5VHyG0fHpKRk+OjwN4r41tZ33oewcHnBYvDN2wgjdJjB0BFWeB4jtOlFKpipjpodb/CIcWTyl4TAyHH0UM9hWY1QsuRt3bDQywZaPrf65iMknxRCfK61AFhNaSzW1/TrfZJm5G/kof/RTW+Cr4+8RTjDR4xRpIOWBABOBWRl5VCdy7J4cOOmLZqLAL3I36wi4Od//WHJ7mjd7ux9xqH/fzz9gqK+df9D/5AdJKgs+zLdRUBMBG3PtZ5RAEuXbiO1WdzN8ezGXbIFwItvvU+2XdHFbzD5Kzjc35WwwPUe9tqv1blvtRQAZ1g9mFTAxNiJmpF/i4GH/ie2fQC9wgpJmEkYp6alk/ZlS+ROPb74ymZZUwHp6Rnw/U//1kwE6E3+ZhQBmNVR8hvK0ZndJBT/mrfgQlnl8HD3hraqx3QVAdR2WXLZW7oRX/bM+0m4ZmTnySZ/aRQgr7CU9IzMM1brhkNXZOmK32GYZ0o7FkL8rJUASOl4GLVg0DdmvHbkX7oFRhl46D8tkZzi0YKvnGA/lI658zXnzqNtfZKccM7c8zQRAN0h//iUfEuAH4nAlTjm148GLycjBu55f78mmL3z7l5Zq/4xWyQm9+nsE0r8jaGpWwcNJfcR6F8BfrEwduBW3UQAJi2S/Nze0dnY9UoQFKbqtVc26dzwMe1OC4Ax7VNIz0g98VoWACqPAGCSJ8mmDo6/aSEAvIUQ2xwU5JgCx0Y0Q0vpW5oJgMEY7c+gq/6pgUYkfHEYb9Xd96nSQUud/OHPf5CV3Q2zC776+puqElp3yB/D+ypB+F3dw8gRA3/69XfAbI6S7zg6oh2fXP+Sqr71wf7PALcWOiqL9fnYyCqYNOhDXURAWHA6qaxlV76rG/GlnkjL5th+8nSnBcCU6bNJOCRPWKYbDkqIKTPco/G+/5Bs0RGAT3UNsMy6sTr6HBKYBQOKX9eM/HHx33iDZvkbWvssYHZDR5hZnz9jxmxVO2hJBLz02hbw8vYmly01NQ2++/FfqogAo5K/JAiMKgIwi6O17zj6rJVv4TSTr6+8PevZKWfqIgAiQ2lpjnEeXi/yoIb/bRky0mkBMHQULb9A2sk36oaDXvhr/dyGe/5Fbdf/Vpv9a+WE+fX1jlI1rr+00t/6OKxmhy4dh6MVzBNadkJwgLw3ocqqGjjyxY+aCAAUAgsuuIjqaJbrZp19juICwOjkb1QRsGXbTvCWIeAwgRRu2ZMEoNrH625cKcu3hHCDhuKVmrfl6Aha3ITiS9/UjfgwkY4jcYfno6JjYfcnPzklAuLiaaGd9d4OqTUZ6/G8ujt/INlbCPGjmgIAh/4/oDgeXuPh7gcV2Ws0ffNvLcU9//s17zQckf/kwQeAur9YwjcmJhZ2vXdIsw4aCQDFRl4+fQgZV4+//OobiokAJP+Jk+Stj5DwUnPYXyL9zkejjATg0H9uXj61k7BkhcTskGqTfuf7Tz5pKrmMaFdvr2AYUf+ypu0ZcxRIPmXvqGQaW7mkUnHNB6QyYvlX3vu4bAGw+qFnyffXczeEXNzMen3Nyq+o9vhaTQEwz16D6HwuK+kCTckfRwFG1L2raWfhmPj/jj5YkH4e1YCW6zBAj9pzs507Z+nvVzduA29v+v7xlJT+8M8ffu22CDAb+UtiwAgiALM2dm5/9v4+a9Y5mpM/+hcmoyoolJfqGufkT2jdo1m77hNDy2yYP3+9biMAjev+C16BESSbp6ZnwTsHviWLgJ0ffQdZOfRATh4+AZA0chHgW6pZCdbo5a664RDJ1kKII2oJgN5CiJ/sdSrW56LD6jUn/5ayt2Fim/He/geWr5Ud7GfJsqt16aAlEXD+QnlzyWfNnN0tAWBW8jeCCMBsjXIiOuJ2UiRiydZaH7ft+ADCw2nkJfUp/eJGaiYAknoPI3W2WTPW6kp40eXjSOVEDAcNGwO7Dv3gUATs+vhHGD52Ivm+kn3wiIKk/8SrAOerjU6oZitf6dLtVJvsVUsArLU2tr3PmNmvsfB5zQXAyPpdmnUS1Df/8c07wN83hmo8y3UjR43TrXOWyACnAuS8qeFUwAsvveaUCDA7+espAn785TfAbI322qP1Oczp8Ozzr+vuXw88/JRlGsK6bI4+1xbeoEn7TkkYT8ITV+LrSSS5c58glVPCtayqDp57Y7dNEfD85r1QWdsk657Sva2PPuHxgIsUG9f+oSs+etpG6WcXnL+BapfX1BAA1UKIP62NbOuzm3CH4vQbNSf/Vnz7H2S8t39qYhEJz/SMTKczsUnkrdTx9U3vyErv2q9fMnz7/S+yRICrkL9eIgCzNEq+QznOPvs83clf8k+5C059vMNg7MC3VRcBOSkzSJgmjbpQV4JrXPs7+EbSFupJvuHl5Q2tQ0cB5gZY8+jzlt+lK1ZaRgjkTPtJ97N39O+dBpYFguv+1BUnpclYj/tlz1xH8kkhxGNqCICN9gxtfQ4T/FivyNfq88g64739Y5x/a2wcfQ4KCoJNb+00TAeNHfWixfIiyp05YyZZALga+WstAjA7I77RO/Ir6TyKSz2H/iXil44YJKi5ZRC5/FiPfvHqTwVgOGIJM3vHuKbTdCc2akAge/VQ+1xwv2IouOB53bHSg7iVeiYGWyLa6XalBUA98cHg5RkEDYXPaS4AWsu2GHLuPyaigmo0S/atu1bfbyjyx4760y9/gqJiWkhQ9BOcCtjwwisORYCrkr9WIgCzMmJ2RmrbRKGw4cU3DOdf+w58DpiEiFoPNzcP1VMHNxTfTipPRG6L7qSGw+yBfWlxC6gYq3Xd30mDtuiOmVKkrOV9EtpoQZmEEEuUFgAvUh0io++5mpM/jjAMr92p+rAgdc5fuq618hFSJyJhq9eqbOltzN7xjc07ZQVxSUxMgm+++9mmCHB18tdCBGBWRsl3KMc5cxcYjvwln8MAVH5+9OBY/ftMULW9D65+koStf2yqIcgMQxK7e9F37VD8RbVrMG1w6Sgov/o9Q2CnJYl351mRRbSFqUKIaUoKgAqqIwT5p0BzyZu6CIAJLftU7RAkUpdzTEmgr9CtrqmzvGlLHaIRjxddIi+v/PTTz+xSAPQU8ldTBGA2RjlD/5jtEbM+GtGvpDLdePMqEulif4SRNNtb96rW5scO2EIqi7uXL+B2vO507Er9LzUyILU/V/s6N3cPiK2fAlU3fmII/JSyg1r3CUwgL/RtUlIAPEN1hOL0m3Qh/6FV76jWEcghfOtrMYa5rzdtm1NoWBjs2H3A0J0zdtKfffUzlJTKm9JY/9yLx4iA7pA/5kPIqxulWnx/ibCVPlYOPRWCwqJIhNK5rcXFxcPeDw4cgyFmYcRsjJ2vtfU3bg/EMLwS0Rr5OGo0XTTjML11m1Py86RB+8Hd3YuEcdWNHxuGwPqNvZRUZlu+Qvk+JK0KkLwp11KuwZGLhLazAdPddpc8UUxknLYKetefAsEpZeATHgee/qHg6RcMPqGxgGsRYqonQdopN0PFin3dfl53y0v9fxSZGGuBgqcQop9SAiCT+EAIDczThfxx+H/cgPdU6wic7VRaKh6kGguuWH6dKTpnJI5NW96VNVTbt28ifP3PnywE1h3yl/zQPygMKoZMNZUI6JtBXz8h1dP62FkEYBZG6/OOPmOWRyOTvnXZ9u47DJj10lGd8DyOsDnbPin/FxqURipH3nlPGYpIcLGYm5s7qewUnKVr8J4p7cstdS2/ai/0Kh4Bws1Nsed4+AVBvzEXA6a9pRIjXodJcnCFfFhGnezyBCUVQfq0lYCZ9uQ8U+trK679kIrzH0IIL6UEwDWS8R0di9Ku00UAtJZthUmD/o60R2nUWl1TnLmIZLCoqGhDrcq27oxtfb50yZWkukk+M+3U6aAE+Uv3i0vONY0AyK8fA27u3e+MJRGA2Rcxe5+EhaNjdk4eYJZHW7Y04vennT6TVL+w4AxVBQA1GFDy+MsNRx4FC1+0vPE68g/qee+QaMhf8Nxx9Sy57C0Iy2og2Yv8rOBegPEVKKSM4gu3GlLvbes6HCnIOnMNNBl0u2LOnEepdXxPKfLHmP8YU9jhg4MDMnQhf3z7H1FrzLC/qX1OcIgbYnvyKaeZqnNGwsCpgLLyKlL9sI44dF9Xr2An4eYGOdXDDC8CKodMg4Bg2jQQpZ2hCMCQy5Rr8RrM6oiL64xI8vbKhEGKKHX08PBVNV0wNXR3dMX444hR6zfErp6HYXkTWmeBuyc9u2dn3PF/45tnQN2q7+zWEYPU4Nt05//vzt8Y3yDz9Lstb/id64ejBDFV7Yo+D8sanjMQam770m5dO5dFi7+TRpMTtD2glAAYQzVeQf+rdBMA45uNt/gPRxliIspJznnr7atN10Fj5715627w9yfPSZGwoPobXucbEAzlg6YYWgTE96fHUpdTd+q1889fbErfQoFJ3REwsvE11UYBGktoixL9opMNRxjWpFR98xHoO2w+YHQ+qu/4hPWGvkPPk7dAb92fkD37QcCdEdTnUK4LiM+E3LmPH307r7z+IATE0dfAUJ5hfQ2uFcCwu9YY6v05smAwFdOFSgmAZ61BsfXZzycGmks36yIABlVsVa3xd3eqgJpP/LkXNpqyk0YRgLkKbPmFFt/HJGYaVgDk1oywjHxogUNXz8jNK9A0hbS9N3pnzmVk0OIbDK19TrU+YFTjG2T/rr71c0MRRleEhQvJcLsgrhGIazwVwnObITi5xPKLb769G6ZC/0nXQOnSbd3a2YBxCdJPvd2yAK8r33T2u5D+5ZA1417F79tVeXDRYNHFbxjCpn8nfQqn+uJQJQRAvBDiv10B0/m7lLhTdSF/HP4fVb9btcbfXQEQHkLrwF55fatpBQC+qVVW1VAdU5XrssoHGU4EVAw+BfwCQ1Spb+f219WD6KbZAAAgAElEQVTfGM7VzH6FgiG/gDacPKTmaVX7AG8vmh1z5jxiCLLoivj1+g4TAuGiQWrGwq58Wc/vPAPCoGz5bt3timWQgUOsEgLgDMoDMeZ/bd4/dBMA7a0fqtr4uyMCqALgiaeeN60AwI76rW17yKu2KT41cdLJstIQe/sGQFnbSYYSAbFJ2XIaLIwYORbCwskK3+G9MYujM2/dRvofamTAITXPqNoHxEXR1q70GTRHd6LQi+gdPRfXIiSOXChnG5tDH6f0JUpcg9MZcnclOMJD7vn0abdR8TioBPnjPdZTwIsIKdON/IdUGm/vv7VgSIgeQDLa1StuMn1nvexKcoxqu5jMPe8CCxYLL6TFYZd8tFd8imEEQFYlea7OgoUUmx/36SshAvDNGbM4GonM5Zbl0JFvyamNxzVvV1UAFGXQoi1ikBa5HXtPu77m1i8gvuWsbi1KlNq8lsfeDdN0tW1U6Wi7/aYVFmuUEAABQoh/W93U5sNzky/TTQCMajDu8D8KgYykKTZxs8Z26LBRpu6ssXPHhC4YydC6XnI/S+SP98PcA3ICDuGz0ksG6i4CyttOBh8/2h52LDMG6Hnh5TeP2r+7IsDHxxdee2P70fvJJV6jXL/uQVqKW8w7Yi261fg8qJpWFrQnLrbraaTuTH0rr//IEoxHjVgFcvsdyvVYzuJLN+tiW1xP4elPm4YSQkxXQgAMp4HiCU1FL+kmACYYdPW/1AmV51xOIkRfXz/A4CdG6XydLcfb77wHgYF08rP2MWvyl57/5tu7ZO0y8PL2hdKWybqKgKgEeauf5y248Di7d0cEYNZGCT8zH4ePGENqO5Gh+aoLAIzoiULD2l9tfcZQvM4QYk/9n7LluyCycCgJW1uY2/o+NSMb5i5cAo88uwk27jgEm3Ydhsdf2AILL7sG8grlB+bCRZJ62Klo8Wty8ElXQgDcYQtU6+/Dg4t1I/+2cswHfkD1xi+RuTPHkQ2vkg13zrnnu0THvfzqG8h1lnypK/KXyEvu1EJ4TF/dBEBGabOsuhcUFtscqndGBGC2Rhw5kbAz6xHXlFBzHOSkzNCkD4iPbiLZFiPj6UESZn8mrrYPTVdmMXFAYCAsvfZ22P3JT7D3yC82f29YdT+ER0SS7Cr1VbiDQmuscfum9HwHx0NKkD/eA2/k8KFpfWbrJgCG1Rgv819XIiEoINEhjog1vjnv+eAT03feOBVQV99IqjPW2x75I4HJvR/eE6MEJufVaPubWwNePn7keuOoz8Y3d9i1txwRgEP/ju5nFkEwasx4Mo4Ybrurdqf0d8WZC0llcvf2033BmNYEpeTz8uc/A0F980lYd8VREZFR8MSLb9sk/c6C4PnNe6FPYj/y8zAdr5L1dXivdX+CXxS5fLcoIQCiugK2q++qcx/STQCMbTJe7P+uOp3s5NPJzoXhT83SSdsr57YdH0BQkOMhU0fkLz3jnXc/hOAQ8hwYGe+ufFqr7zCUslQ/e0eqCFh88VLS/ew9ywjnMGqhOzFssr9vtKpRAK3bs5zRvKwZa7UlifvBpZ6He94xrr9fTIqstuzl5Q33Pf4imfwlMfDUy9shMNBxf4V9g29EgqZYlyx5Ww4Gw5QQAEMonaCfT2/dyB/3/09sM+72P+uOY3TTJnB38yQZEd/ikDyN0BF3twwrV62xGwSHSv5SOeSkiaX4r57XYNwEjJ8g1c3R0ZEIaBrQ4hJD/4jDwOY2UltB+xWknavJ27/UnsODM0llwzlth292LkbaatS3ce3vlqBE1LY6ccrpsslfEgFzFlxCsi2WBZPyqFHfru7ZZ/Bcarn+JYQIVEIAXEIBPCZioG4CYHClutt+pAav1JGaUARxP6H9RDIxOCIOvc/ftfp+iIntfYwDh4dHwLU33OZUHdsGDzvmXhQ/Ndo1ODKCiyXl2gYXRHbeFYE7CKZMnQ4ff/pP2feT+3wtrn/ymRfJ9vX08INxA7XtB/LTziGVD2Pn16z8WjOS6Io4XOU7XHlPacM4avTKtv1OC4DtH34N/gG0sOY5sx/SxLa4+h8TFFHqL4R4VAnyx3uQ9v/rOf8/ss6YyX9sCYahtc+SU3NilrfXN73jEh06ksbhz76Hx5/cANfduBIeePgpwP3dzpLJ7vc/hsjIXtQGYcjrrrnuFqfrj7i9unEb3HHXWrhn7cOw671D3bqXs3ZQ6//kJJfK7DdV07d/bNvD6p4n+1T/iVdpQhKuQvS26oGJgCgEmF9U5jT5S6MAA9poLxjJ45ZoYtu8854k1b0Dn3FKCYBvKICXZtym2wiAWeb/rQVBv7iRZGMOHjLCpTp2JQnj7nseIONI8WMtr8HhbSWxcKV7rb3/MbJdvTwDYdzAbZoLAGzPoUG0TIyYntaoaWVtka0Rv8e8BJQ2Om7S1G4LgBnnXEB6VkLb2ZoIgMgimiARQvwihPBXQgCQFgBiUIQBRa/qJgDaW/fr0vitCV3uZ1xE5O7uRXIwTJ2L6VBdqYNXsi5jxtHSLFM6Dq2uwQh/7+79iG36za/HYYDrIbKyc0ltA+2Vlzpbt/aflzqHXM7CC1/RhCiMSNxKlanfGNrc/Omz5ndbACxeeh3JtphESan62bpP9c2fgpsHbe2YEGKdEuSP9yildIgBvom6kf/f+/8P6tYByCV+6+vTEk8kORjaoLau4biOUkkSNfO9nIk1QPFrNa/B8LxmxlzNst+ykjbMi/bx9Q6HCS27dGv/o5veBDc3D1I77lU8XHWisEUgrvJ9SvuVJKxPOOm0bguA2fMuIj0roXWW6naVsfcfyzxAKQGA8wgOQYgMqdRNAAytMnb8f2vC7/x57IAt4Onh7xBfyQYPPfoMk0YXb4y4g0DCyCxHXAypJoma9d6HP/8BqEl/0NbFmYt0I3+pPSfEDCT5H46UVlzzgepk4Spk31U90qetJGFdWdPYbQEwfEw76VlJoy9S1aaYeMjTP5RUFiEEJv9xV0oAnEfpUBOiRusmAEaYbAGg1GlIR4xcRsEYr8FIcRgIx6ydu1rlnjiZlmOBirMW12FkO1eI0qe0Ta+86npyewjw6w3tbe/rLgCaSukjFnFN01Uli65I05W+K1z0Esk/MP31lve/cFoE7Pr4R3JUwKwZ96pq0/6TV5Dq3NFvXaAU+eN9bqZ0hqkJM3QTAGMa9+reAUhk7sxxQstO8PEiqzu48+51LAA6jQIMGNhKaiBxiWmQlluh+q+HJ22ubueeg2xLK1t+dPgbiImJJdkS+6XK3CsN0fYnDdoPgf4JpHK7e/kCzue6EilrWZealV+BcHMjYX32/IudFgCXryCn24WyK3aqZs+GNf8Gn/B4Un2FEL8LIXorKQCeoQiA3OQlugkAoycAooiCQmJ6UbRF/9Q0fnO0Ig18A83OySM1kLbxZ8GUudeq/hscRtua+PxLm1gAWNlSTsrnkMAUzaL+UdowBiGi9JV4TfzAM1UjDC3JWK9nBcTTAjAFBQXDhk27ZYuAjTs/huiYY+OV2LKtV1AkYKRCtbBIPYk+IiaEUCT1r7WA2Gyr4tbfl2XerpsAmNhm7ARAlM6jvXUvYBhTa0ztfXY2cI7Sw7VGuV9UFA270VMXqk7+KDBi4pNJtlxz3yMsADoEwL4Dn0NoWBgJN2wbdUW3GOLtX2rf45q3g5cnLXAMBgaquvFj1UhDLTIyyn3lLIjrn5Zpyfon7e13dNy27ysoLqsi+2Fs7Umq2bF+9a/gHRpDLcufQog8a/JW4vO79ohIOleZvU4XAdBahhkAzbkDoHO5y3KWUA0NcfEJ8Mln3zF5fPOrJXseNVb85FlXaiIAktILSLa86pob2YYdAmD22eeRMMM+JzI0z5CZP7OSTyPXIbZ+imrEYRSiVqsc5VftJeOM/hLfJwkeWr/R4UjA06/ugLTMHFn3Llj4omp2pO546ODhDUoQfud7HJBI3t6xJu9RXQTAEJOFAO5M+tZ/Y45xaqZAtAU1eYxR3tLVKgcmBrLnm9I5bx8/TcgfRwCyiupJZZKb/0AtDPW+L8ZD8PenvT2jPQeW3WtI4Y+7ejw8fEm2xx0BpUu3qUYeapGvUe4bkUdb9yO1f3xJGDxiHNy+9gnY+dF3R8UALvZb/fBzMHbiKeDpSYvLIt0TsxSqFdyp5rYvwdMvmORLHeVp6kzeSvz9uVRZe8f6gvW6CIBhNTsM2RFYE7uczzUF9PmeiIhI2H/oqx7/Brl+w2ukRhIaHq2ZACipG04q06QTT+nx9kPxgfkL7PUv1udiI6sM3ebTE08i1yU0rVo1AjEKUatVDktOAOJiQGv/wc8oBnpFxVjm+akLdjvfA//OnfuEagKud8NUsh8JIV5Tguy7usePXVW883dNRS/rIgDMvgWwszjA1cTUDGNog3PnLezxBHL3mgdJDSW2T6pmAqBu8GRSmTgU8K/w1rY94OXtTcJLCDcYVPW4oQUAZvv0cKfWR0D2zPtVIxG1yNco98VplM5cpNXfEfltqtkNR4ZwhEhGXWq7Im8lvvuDUojmkjd1EQCjG/YYujPoTPCUvxtL7yIbPjAwEPbuO9yjRcAVy2nhOpMzizUTALjbgNJucnLze7Tt8O1/9NgJJKwQzz4xraZo7+kyInziIq+6Vd+pRiZGIWs1ylF35/fgF5VE9h9Km6Rcgyv/q28+oorNMONfUFKRnDo9rwTR27oHqSAtpVt0EQBjm8wdA8CWIIiOKCPhjs46/YxZPZpEzj5nPgmrnNImzQTA6FNokQmjo2N6tO1efv1ty3AspdPFcLvD6jaYQgBgWmI5sT1wuFcNguwJ98S3ZQ/fQFIfQPEzR9e4eXhBwfkbVLMXZo10VAar8/8VQhTbIm8lvicVRi8BMG6g/lHAbJF4d75vrXyYhDs6go+PL2zb8UGPJZIT2mn5FMoaRmomACbNuoJkP0z1fOSLH3us7ZpbBpFwQj9PSRhrCvKX2n1J1mJy3TCwDUa46wmErUYd8xc8B+5ePnS8CeHtrUj26H3d3D0g68w1qtmp8vqD4OFDDw0vhLhbCZK3d4+jle8KEOk7vQTAhIEfmKpTkDoHyjE+uomEPdqgfeJJPZZEGpuaSTg1DD1JMwGAOwG8vGmrwXfs2t8jbffkelpIV/RvD3cfGNW40VRtfeKgfYDBiqQ+0tHRN7Iv1N35g2rkogbxGumehYtelrtqnmwbtB1GcMyZ84hq9mm87z8QkkaPPyCE+EkIEWuPvJU4RwJJNwHQss9UnQKF+KVrhtauJy8EwTfJjW/u6JFEkpVF27c7eMIsTQVASHgUqe301DTP5RXVJHyw881IOsWU7VzOeh6sZ0xVu2oEYySyVqssFSv2AW7NcyS25J73i0mB0qXbVbUNNc2xVdnnK0Hwju5BAlMvAdDeut+UHYNE8o6O/eJGkPBHpxgydGSPFAC4HdKqUdj8PGbaIk0FQGwC7e1v9b0P9Ti73ffA4zbt1NmWGF1v7MCtpm3nckbysO5ZM9aqSjRqka9R7ttw72+QPGEpePjQ40p09jnpb4zYiFEH61f/oqpNii99E9w8aPlDOsq2Wwjh7Yi8lThPaqh6CYCJba4tAEY2vAru7rTgFG5ubtDT3iYPf/Y9YL2lBmv76AYnzr5KUwGQnEFbyYvZ7/QOxKPl8z/76mdy7ga0Z27/WaYlfxT4Y5reBG8vekAXD78gKL/6PVUJxyhkrWY5MGlQ4vAF4B1My8th3Xdg6t2ElplQddNh1e1Qe/s34BvZh9CHCekaXPhXrgS5U+4hPdTuUS8BgPvmHb1Fm/18Wl/annJ04Lr6xh5FJrj40brh2vrs4+uvKfnjGoCckkZS2ebMXdCjbHbr7atJuKAtfb3DYULLLtO38cq85eQ6Y739e6dB3V0/qk4+ahKwUe7duPZ3yJ+/HhLaZlu213W1Y8Dd2w8C++ZB/MAzIGfOo4AZ+LQoP877h2fT13p19G83UIhbqWtIjqufADB/IiBHAmXMgLfA04O+MvThx9b3GEJ5+tlXSP4ZFhmruQAoradN3/SkBZyHP/8B+vWjTY1gZ1ecudD05C+177goWnjojk4eepWM5CiB94MqRIxxF3DFPf7W3vGtbjjLSWrU4RcfCSGClCJ3yn1IHaxuAmCw6wsA7ECyU84k2QGdJL+gCD7/+pceIQJW3X0fCZe4xHTNBUD9ENr2xKYBLT3CVjjNgNMdEsE5Ogb49Yb2NtfZ5vv3VEAIuf6IT+KIC1QhQC3ebvkZ9sVL9sx1gNs/HbUDq/M49F9HIW0lryEVUD8B4BqZAKW3BFvH8c07ZAUWuWv1/T2CVC5fdg3JP1OySjQXAIPGzySVLSs7t0fY6tCRbyEmlpZjHTu9itwrXObtX2rX1fkrSD5h1elDxml3sAhQaSRAL5GCMR9wgaG1nQmfL1aS2Kn3IhWSBYD6QqQwnRbxDh0pNS0dPv3yJ5cnFmoK2dyyAZoLgDFTF5LaTmRkL5e3E779L1pMT3cdEpgMmB1TIk5XOqb2OYHkFxIh4Orw/AXPsghwERFQftUewEWGkn2Jx01CCE8qaSt5HamgLADUFwDtbe+Bv28MyR7oVNfduNLliWXchIkkPMqbRmsuAE6cTVv4hbsYcDeDlivxtX7WvoNfQGhYGMlW6Lt1Rbe4JPmjkMFpjYiQbDIWiAdGhytc/CqLAJOLgMrrDoBPGH0UrEMcfCuESFSS1OXci+SoLADUFwDYeZTl0N+i4hP6wCeffefSxIK7Hjoaid1j47ApmgsA3Ang7eNnt1xS2bfv3OfSdqKO1CAeESE5MNnF1/aManwdfLzlvQVibviSJW+zCDCpCMDkQU4kLvqPEKJZDmErfS2pA2MBoI0AwPCiQQGJJJtgZ3rp5ctdmljSMzJJWAw+YbYuAiA0gjZi88xzr7qsnd7d+xH4+9ODsgwoW+Oyb//WUxkNxSsB0xtLIpBy9AqMgNJl77AIMJkIqL75U8vWToqNO10zT2lCl3s/koOyANBGAGAHUlNAS3+LjoTzy/sPfeWy5BIWHk7yz7GnLtZFAPTum0oqnysv2jxl2ukkDNBfYyIrewT5S0KgIO1cMjYSMeD8MUaO02sBGz/X/ur+zvhUXv+RM2/+6BfrhBBucglb6etJDsoCQDsBgMOj4cG0N1/sNM6bv8glBcDHn/6THAXwpLOv1kUApGSWkNrP0itWuKSN3n7nPfDypq92bqt6pEcJABQCcgJ9SSIAw9wWXPACiwCDjwSUX/M++ITHk/oAybYdx9eFED5Kk7kz9yMVngWAlgLgIDSW3EmyCzpTQEAg7H7/Y5cjmLe27SFh4OsfqAv54xqA3FJalK/Zc+a5nH1woeHosRNINkI/7RPT2uPIHwUA7naIiWgg4yQRBaa/zTrrPhYBBhUBxZdudioMsRDigBCilzNkrcb/kByTBYC2AgA7jujwUpJtsMOYfsYslyOYJ595kVT/sF69dRMAZQ0jSWWccMJkl7PPy6+/De7u7qT6u7l5wLC6DT1SAGBbHly1GYID0klYSQLAcnRzg+QJy1gEGEwEZM96wJI++BhbiaOx/O3Z+XMhRD81iNzZe9or7NFzLAC0FwAtlQ8dxd+Ro/n4+IKrrTS/4661pPrrEQUQ3/7xt2HoyaQy1jcMcDkB0NI6mFR39N3khDE9lvxRAAyvfRfqC9ZDgK+spDBH8e3dMBUa1vwfCwG9hcC6PyF53BK5Ef4kO34jhMhylqjV+j+pcHaPLAC0FwDYccRH0bbBYSfrajHncYeDI+GD51NzynUbARg8YRapjBkZWS4lANZveI24PkNYsl1i1kv05576iwIA+9CGgmch0C+J5DOdfT8oqRCqbjjEIkAnEVB/108QVTraKdsJIX4UQhSrReLduS+pQiwA9Om8htQ8A25utGFWT09PeGPzTpchmrNmnUPyzbzyZt0EwJhpi0hlDA+PcBm74Nx/RWUNqd5IYhlJU3os8UuCRxIA2I/W5z/j9EiAd3AUYJjZzivR+W95K/fl4lW2fDf4x9J2/HQWbh3kX9Udklbzf0kNmQWAPgIAO5CkuOEkG6HjDRk60mWIZsw4WkjVigFjdBMAJ559FWmvN0YDxF0NWkfoU+N59z3wONkfPT39YezAt1kAdIwASP1od0YCMMFMQussaLj3NxYCGowGZJ5xjyVSYxfETmkH3wkhytUk8O7em1IJy/CV5LxaHif14GFD6e0Bh0/d3TxJdkKiee6FjS5BNLV1tJXTTcNP0U0A4DoAHz9aEBzcMqcGIWt5T8xCmZ2TR/JF7DBz+8/q8eSP7dh6BEDqP3EkwNnpAMQ2uF8xVKzYxyJAJRFQs/IriCwcQvb1LgTCF0KInO4StNr/T6qg5LRaH1kA/D3ykNZ3EslO6IR1DU2mJxokNUx41EWjOu67IRPn6CoAwiJjjytTV+V+cv1LprfLbXfcQ6or1t/HOwwmtLzLAsCGAMC+tLHwRQgPLiRj2tmvMIdASvtyaFz7BwsBBYVA1ox7wSso0mm7CCEOCiH6q03eStyfVEmtiV96HguAvwXAmAGbwdPDn2Qr7CQefmy96ckmOISWW33caRfpKgDiEtNIdll1932mtsmRL36Efv1SSHVFHyzKuIDJv2MEs6sRAKmPG1jyBsRGtJJx7SwC8O+gpCIovWIHi4BuigBcZBmR1z1bCCHeEkJEKUHOWtyD5HiSs2p9ZAHwv7UH2SlnkGyFHUJ+QRHgcK2Ww8NKPuujw9+Q6opTHifNuUZXAdA/ixavYcmyq01rD7Tt8qtvINkE/c/fNxraW/eyACAIgL/71LcgOW4aGd+uRAAuFo6pmQw4dC13kVtPv77hnn9ByglXgIdvYLdsIIR4TAjhrwVxK/UMUoW1Jn7peSwA/icAxjfvAG8v2lsxdhBmjj+/eetukl/6+QfpSv6WaIBlA0hlnTl7rmkFwKEj30JMLD3NaUXuMiZ/q/VL9kYApL4Oj9lJi8DdnR5auSsh4BkQBqknXgeNa39nIeBoRGDdn5A9837wjUggteGu8O747k8hxBIhhLtSxKzVfUgVt3ZSLT+zAPifAMDFRIXp80j2QqdMTukPOGyr5Ju5Vvd6/MkNpHpGRMfrLgDKG0eRyjpuwkRT2gJtvmgxPU11cECSJfyttIiVj10vArTVj1Zm3wv+vk7Flz/GD30j+0D6tJW8PsCGCMBcCzh1YofUqed+EkKM0oqwlX4OqZK2nFXt71kAHCsATmjdA36+0SSboWNfd+NKU5IOdbFZQr9M3QVA47ApJHvU1Tea0hb7Dn4BoWFhpDqiz9UW3sRv/1Zv/7Z2AdjrO5uKXoSosDoy5vZIDPev41Y2HhEAaFr3J+Sd9xQEJ9Om7ezh2nFul1kW+9kSDiQns+esap5jAXCsAMDOpCz7UpLN0EETEvrCJ599ZzriuXTJlaQ6puZW6C4AhrSfTSprWnqG6eyAb/9nnzOfVD/0t4iQHMBslvzWf2y7pU4BHNuXvgVpfWYB5lEgEJHDazBrHe4YqLvzhx43NYBhlDNOWwUBcRkOcSJijUP+NwghfG0Rq1m+JwFyrGNu0SwuAAuAYzsS7FgnDtoHQQF9SXZDZ75s6VWmI54zz6KRan5Fi+4CYNypi0m2CAkNNZ0ddr13CPz9aXEO0NcGlN3D5N/p7d+ZEQDr/rYi6x4I8k8m+RiFvDz8giCuaTqUXL7V5YVAxbUfQt9h88E7hD5qSsDwSyHEILMQvKNykhzL2iG1/MwC4HgBgB1KdcG1JLuhM0dG9oIDH39lKvIZNWY8qX6VA8fqLgBOOvtqUjRAtAUuptNqHYUSz5k6jb7zJCaigsm/C/LvrgDA/ha3Cib3ngpuxIBgBBKztK+gxAJIPfkGqLn1C5cRA3V3fg+ZZ6yGsMx6Z5P22Ot7HjTTFj9H5I/n7VX26DktSd/6WSwAuhYAkwbth7Bg+nDWvAUXmop4qqprj/qePR8dMGKa7gIAdwL4+tG2D721bY9p7LBl+17w8qauSHeDtqpHWQCoJACkPrEiew0E+fcntQ177abzOTd3DwjLaoD0abdB9a2fm04M1K36DrLOug8ii4aBu5eP4vgIIY4IIYZSCNVs1/ze2Rm6+ntA8WuaDftLzo5HFgBdCwB8q2gsWUV29KCgIHhv3xHTkE9Kf1rijaGTzjGEAAjvRdsi94+nXzCNDcaObyf7V5+YZiZ/G+SvxAiAdZ/YXLIJUhPOAk8P+tRMV326ze/c3CCobz4kDl8AhYtfhYY1/zacIMDIhyVL3rak5g1JqwIUMDbrQ3zJtfH/fwghrhdCBJuN2KnlRWXjELzC1BUsAOw0cGzkevxGhZc4tJ1k39PPnGUa8kHBIpXb3nH89IsNIQDik2ijMStXrTGFDV55fSt4eNA6VVykNqxugy7+r0ebc+aZzi0CtL/WChMKxfcaQc4Waq8d2TuHb9QhqZXQd+h5kHvOY1B5/UHLanotgwdV33wE8uevh6TRF0F4dpMSAXso/cvzQogsKpGa9bot9owvnfP1joayzDs1FwE8AmBfWLRUPEhxZMs1Pj6+8M67HxqegHC9guR39o4Y+ezkc/SNAojD//ibmlNOKjPublBibl7te7S20ZOgJMePZvJ38AKghgCQRgUwbkB4sCL72Uk+jG0SI+aF9C+H3vWnQL9xl0HWjLVQdPEbUHXjJ1C/+hfZIwY4ylB986eWt/rs2Q9aovLFDTjdMo/vFRhOLpe9/kLGufeFEMPMSuhyy41bGcgAe3uFgZ9PnGa/gf4JwL/2MUAipNowIiIS+vZNMvRvXDwtKheGAQ4KiTDEr7ePL8kGuBPA6Phj+aj+hNf5+kRyG3XQTwX4xqveZ7oJej8gx77OXOvu5Qs+4XEQ0DvdEmwHA+7gGoPwnAFH/w6IzwIMVuTho9JUhgxe66jjASHEiUIID7kkaubrG50xMP8PXTQxVowV+wD7APuAYX1gvxBimhDCy8xE7mzZPXY9984AAATuSURBVIUQn7BzGtY5Zb2NsR3ZjuwD7APsAyQf2NQRwtd08fudJXtb/4fDHkw0jAH7APsA+wD7gCv7wL+EEGuEEBW2yLAnfo8KaDOLABZB7APsA+wD7AMu6AM7hBAzhBChPZHgKXXuLYT4zAUN78pqluvGb2vsA+wDzvrA2o4Xv/+6aL+Pq/kvEUJkUgiQrxGiUAiBcY6ddSj+P8aOfYB9gH3A+D5wmRXhRf21DmyKEOIRIQSmtjWr/f4jhMB5/UVCiDyr+vFHGQj0EULgcIlZnYDLzbZjH2AfYB/o2gd+/Sus7VQ7fOAjhGj+K/Ldig4yxTlzo2KJIxd7hBC3CSHG/5WdL9xOvfiUDAS8hRCz/5oz+cbAxjeqU3K5jNthsG3YNj3VBzB97eNCiBQZPICX4tY4HBk+QwhxtxBirxBCjykDLP/BjjpcKoQY/FeI3jCZdeHLZSKA8Y8ndwwNsRjgzrOndp5cb/Z9M/rAb38lsNkuhFgqhEiX2ffbuzxACJH/lxgYK4S4QAhxuxDi6b+21O36Syh8JYRAspaLFw7f4/++J4R4SQixqmMof6IQolwIEWSvQHxOGwRweAinCPrxL2PAPsA+wD5gWB/ARd16BrYJ+WvEoG/HXHyREAJ/G4QQGHhO+hsX5yGX8NC9NvzNT2EEGAFGgBFgBBgBRoARYAQYAUaAEWAEGAFGgBFgBBgBRoARYAQYAUaAEWAEGAFGgBFgBBgBRoARYAQYAUaAEWAEGAFGgBFgBBgBRoARYAQYAUaAEWAEGAFGgBFgBBgBRoARYAQYAUaAEWAEGAFGgBFgBBgBRoARYAQYAUaAEWAEGAFGgBFgBBgBRoARYAQYAUaAEWAEGAFGgBFgBBgBRoARYAQYAUaAEWAEGAFGgBFgBBgBRoARYAQYAUaAEWAEGAFGgBFgBBgBRoARYAQYAUaAEWAEGAFGgBFgBBgBRoARYAQYAUaAEWAEGAFGgBFgBBgBRoARYAQYAUaAEWAEGAFGgBFgBBgBRoARYAQYAUaAEWAEGAFGgBFgBBgBRoARYAQYAUaAEWAEGAFGgBFgBBgBRoARYAQYAUaAEWAEGAFGgBFgBBgBRoARYAQYAUaAEWAEGAFGgBFgBBgBRoARYAQYAUaAEWAEGAFGgBFgBBgBRoARYAQYAUaAEWAEGAFGgBFgBBgBRoARYAQYAUaAEWAEGAFGgBFgBBgBRoARYAQYAUaAEWAEGAFGgBFgBBgBRoARYAQYAUaAEWAEGAFGgBFgBBgBRoARYAQYAUaAEWAEGAFGgBFgBBgBRoARYAQYAUaAEWAEGAFGgBFgBBgBRoARYAQYAUaAEWAEGAFGgBFgBBgBRoARYAQYAUaAEWAEGAFGgBFgBBgBRoARYAQYAUaAEWAEGAFGgBFgBBgBRoARYAQYAUaAEWAEGAFGgBFgBBgBRoARYAQYAUaAEWAEGAFGgBFgBBgBRoARYAQYAUaAEWAEGAFGgBFgBBgBRoARYAQYAUaAEWAEGAFGgBFgBBgBRoARYAQYAUaAEWAEGAFGgBFgBBgBRoARYAQYAUaAEWAEGAFGgBFgBBgBRoARYAQYAUaAEWAEGAFGgBFgBBgBRoARYAQYAUaAEWAEGAFGgBFgBBgBRoARYAQYAUaAEWAEGAFGgBFgBBgBRoARYAQYAUaAEWAEGAFGwFUQ+H8ov6YehXdGtQAAAABJRU5ErkJggg==;fontSize=16;" parent="mQAJaDiCk2_aLx2CCrRH-5" vertex="1">
          <mxGeometry x="7.3700000000000045" y="24" width="75.27" height="75.27" as="geometry" />
        </mxCell>
        <mxCell id="mQAJaDiCk2_aLx2CCrRH-6" style="edgeStyle=orthogonalEdgeStyle;rounded=0;orthogonalLoop=1;jettySize=auto;html=1;exitX=0.5;exitY=1;exitDx=0;exitDy=0;entryX=0.5;entryY=0;entryDx=0;entryDy=0;" edge="1" parent="1" source="2c4QWxnSkKOKG8GR8WA--26" target="2c4QWxnSkKOKG8GR8WA--6">
          <mxGeometry relative="1" as="geometry" />
        </mxCell>
        <mxCell id="mQAJaDiCk2_aLx2CCrRH-7" style="edgeStyle=orthogonalEdgeStyle;rounded=0;orthogonalLoop=1;jettySize=auto;html=1;exitX=0.5;exitY=1;exitDx=0;exitDy=0;entryX=0.5;entryY=0;entryDx=0;entryDy=0;" edge="1" parent="1" source="2c4QWxnSkKOKG8GR8WA--26" target="2c4QWxnSkKOKG8GR8WA--27">
          <mxGeometry relative="1" as="geometry" />
        </mxCell>
        <mxCell id="mQAJaDiCk2_aLx2CCrRH-8" value="&lt;pre&gt;&lt;ul&gt;&lt;li&gt;Print project scope&lt;/li&gt;&lt;/ul&gt;&lt;/pre&gt;&lt;ul&gt;&lt;li&gt;is CRUD required&lt;/li&gt;&lt;li&gt;is user login required&lt;/li&gt;&lt;li&gt;is external urls required&lt;/li&gt;&lt;li&gt;&lt;br&gt;&lt;/li&gt;&lt;li&gt;Print site urls&lt;/li&gt;&lt;li&gt;[&quot;url1&quot;, &quot;url2&quot;]&lt;/li&gt;&lt;/ul&gt;" style="text;html=1;align=left;verticalAlign=middle;whiteSpace=wrap;rounded=0;" vertex="1" parent="1">
          <mxGeometry x="-315" y="460" width="220" height="30" as="geometry" />
        </mxCell>
        <mxCell id="mQAJaDiCk2_aLx2CCrRH-12" value="&lt;pre&gt;&lt;ul&gt;&lt;li&gt;Print backend web server code&lt;/li&gt;&lt;/ul&gt;&lt;ul&gt;&lt;li&gt;Print improved web server code&lt;/li&gt;&lt;/ul&gt;&lt;ul&gt;&lt;li&gt;Print fixed code&lt;/li&gt;&lt;/ul&gt;&lt;ul&gt;&lt;li&gt;Print JSON schema for api endpoints&lt;/li&gt;&lt;/ul&gt;&lt;/pre&gt;" style="text;html=1;align=left;verticalAlign=middle;whiteSpace=wrap;rounded=0;" vertex="1" parent="1">
          <mxGeometry x="-62.230000000000004" y="450" width="200" height="30" as="geometry" />
        </mxCell>
        <mxCell id="mQAJaDiCk2_aLx2CCrRH-13" value="&lt;font style=&quot;font-size: 25px;&quot;&gt;Fact Sheet&lt;/font&gt;" style="ellipse;whiteSpace=wrap;html=1;aspect=fixed;fillColor=#d5e8d4;strokeColor=#82b366;" vertex="1" parent="1">
          <mxGeometry x="330" y="210" width="190" height="190" as="geometry" />
        </mxCell>
        <mxCell id="mQAJaDiCk2_aLx2CCrRH-14" value="" style="pointerEvents=1;verticalLabelPosition=bottom;shadow=0;dashed=0;align=center;html=1;verticalAlign=top;shape=mxgraph.electrical.miscellaneous.permanent_magnet" vertex="1" parent="1">
          <mxGeometry x="510" y="180" width="20" height="240" as="geometry" />
        </mxCell>
        <mxCell id="mQAJaDiCk2_aLx2CCrRH-15" value="&lt;pre&gt;&lt;ul&gt;&lt;li&gt;&lt;font style=&quot;font-size: 15px;&quot;&gt;Project Description - Project Manager&lt;/font&gt;&lt;/li&gt;&lt;/ul&gt;&lt;ul&gt;&lt;li&gt;&lt;font style=&quot;font-size: 15px;&quot;&gt;Project Scope - Solutions Architect&lt;/font&gt;&lt;/li&gt;&lt;/ul&gt;&lt;ul&gt;&lt;li&gt;&lt;font style=&quot;font-size: 15px;&quot;&gt;External Urls - Solutions Architect&lt;/font&gt;&lt;/li&gt;&lt;/ul&gt;&lt;ul&gt;&lt;li&gt;&lt;font style=&quot;font-size: 15px;&quot;&gt;Backend Code - Backend Developer&lt;/font&gt;&lt;/li&gt;&lt;/ul&gt;&lt;ul&gt;&lt;li&gt;&lt;font style=&quot;font-size: 15px;&quot;&gt;API Endpoint Schema - Backend Developer&lt;/font&gt;&lt;/li&gt;&lt;/ul&gt;&lt;/pre&gt;&lt;div&gt;&lt;br&gt;&lt;/div&gt;" style="text;html=1;align=left;verticalAlign=middle;resizable=0;points=[];autosize=1;strokeColor=none;fillColor=none;" vertex="1" parent="1">
          <mxGeometry x="520" y="210" width="390" height="190" as="geometry" />
        </mxCell>
      </root>
    </mxGraphModel>
  </diagram>
  <diagram id="LO9sP6DjcFjeTG1PlPDM" name="Page-2">
    <mxGraphModel dx="1562" dy="909" grid="1" gridSize="10" guides="1" tooltips="1" connect="1" arrows="1" fold="1" page="1" pageScale="1" pageWidth="850" pageHeight="1100" math="0" shadow="0">
      <root>
        <mxCell id="0" />
        <mxCell id="1" parent="0" />
      </root>
    </mxGraphModel>
  </diagram>
</mxfile>
